%TF.GenerationSoftware,KiCad,Pcbnew,9.0.5*%
%TF.CreationDate,2026-02-08T11:09:58+01:00*%
%TF.ProjectId,LPSN_LowPowerSensorNode,4c50534e-5f4c-46f7-9750-6f7765725365,rev?*%
%TF.SameCoordinates,Original*%
%TF.FileFunction,Paste,Top*%
%TF.FilePolarity,Positive*%
%FSLAX46Y46*%
G04 Gerber Fmt 4.6, Leading zero omitted, Abs format (unit mm)*
G04 Created by KiCad (PCBNEW 9.0.5) date 2026-02-08 11:09:58*
%MOMM*%
%LPD*%
G01*
G04 APERTURE LIST*
G04 Aperture macros list*
%AMRoundRect*
0 Rectangle with rounded corners*
0 $1 Rounding radius*
0 $2 $3 $4 $5 $6 $7 $8 $9 X,Y pos of 4 corners*
0 Add a 4 corners polygon primitive as box body*
4,1,4,$2,$3,$4,$5,$6,$7,$8,$9,$2,$3,0*
0 Add four circle primitives for the rounded corners*
1,1,$1+$1,$2,$3*
1,1,$1+$1,$4,$5*
1,1,$1+$1,$6,$7*
1,1,$1+$1,$8,$9*
0 Add four rect primitives between the rounded corners*
20,1,$1+$1,$2,$3,$4,$5,0*
20,1,$1+$1,$4,$5,$6,$7,0*
20,1,$1+$1,$6,$7,$8,$9,0*
20,1,$1+$1,$8,$9,$2,$3,0*%
G04 Aperture macros list end*
%ADD10RoundRect,0.250000X-0.420000X-0.945000X0.420000X-0.945000X0.420000X0.945000X-0.420000X0.945000X0*%
%ADD11RoundRect,0.079500X-0.079500X-0.100500X0.079500X-0.100500X0.079500X0.100500X-0.079500X0.100500X0*%
%ADD12R,0.350000X0.350000*%
%ADD13R,0.350000X0.300000*%
%ADD14R,0.300000X0.350000*%
%ADD15R,0.600000X0.600000*%
%ADD16R,0.430000X0.430000*%
%ADD17R,0.350000X0.500000*%
%ADD18RoundRect,0.250000X-0.300000X-0.800000X0.300000X-0.800000X0.300000X0.800000X-0.300000X0.800000X0*%
%ADD19R,0.500000X0.300000*%
G04 APERTURE END LIST*
D10*
%TO.C,Bulk1*%
X145005000Y-98015000D03*
X148085000Y-98015000D03*
%TD*%
D11*
%TO.C,UP_SCL1*%
X144395000Y-93215000D03*
X145085000Y-93215000D03*
%TD*%
D12*
%TO.C,U1*%
X135920000Y-93765000D03*
D13*
X135920000Y-94240000D03*
X135920000Y-94690000D03*
X135920000Y-95140000D03*
X135920000Y-95590000D03*
X135920000Y-96040000D03*
X135920000Y-96490000D03*
X135920000Y-96940000D03*
X135920000Y-97390000D03*
X135920000Y-97840000D03*
X135920000Y-98290000D03*
X135920000Y-98740000D03*
X135920000Y-99190000D03*
X135920000Y-99640000D03*
X135920000Y-100090000D03*
X135920000Y-100540000D03*
D12*
X135920000Y-101015000D03*
D14*
X136395000Y-101015000D03*
X136845000Y-101015000D03*
X137295000Y-101015000D03*
X137745000Y-101015000D03*
X138195000Y-101015000D03*
X138645000Y-101015000D03*
X139095000Y-101015000D03*
X139545000Y-101015000D03*
X139995000Y-101015000D03*
X140445000Y-101015000D03*
X140895000Y-101015000D03*
X141345000Y-101015000D03*
X141795000Y-101015000D03*
D12*
X142270000Y-101015000D03*
D13*
X142270000Y-100540000D03*
X142270000Y-100090000D03*
X142270000Y-99640000D03*
X142270000Y-99190000D03*
X142270000Y-98740000D03*
X142270000Y-98290000D03*
X142270000Y-97840000D03*
X142270000Y-97390000D03*
X142270000Y-96940000D03*
X142270000Y-96490000D03*
X142270000Y-96040000D03*
X142270000Y-95590000D03*
X142270000Y-95140000D03*
X142270000Y-94690000D03*
X142270000Y-94240000D03*
D12*
X142270000Y-93765000D03*
D14*
X141795000Y-93765000D03*
X141345000Y-93765000D03*
X140895000Y-93765000D03*
X140445000Y-93765000D03*
X139995000Y-93765000D03*
X139545000Y-93765000D03*
X139095000Y-93765000D03*
X138645000Y-93765000D03*
X138195000Y-93765000D03*
X137745000Y-93765000D03*
X137295000Y-93765000D03*
X136845000Y-93765000D03*
X136395000Y-93765000D03*
D15*
X137745000Y-95140000D03*
X137745000Y-96040000D03*
X137745000Y-96940000D03*
X137745000Y-97840000D03*
X137745000Y-98740000D03*
X137745000Y-99640000D03*
X138645000Y-99640000D03*
X139545000Y-99640000D03*
X140445000Y-99640000D03*
X140445000Y-98740000D03*
X140445000Y-97840000D03*
X140445000Y-96940000D03*
X140445000Y-96040000D03*
X140445000Y-95140000D03*
X139545000Y-95140000D03*
X138645000Y-95140000D03*
X138645000Y-96040000D03*
X138645000Y-96940000D03*
X138645000Y-97840000D03*
X138645000Y-98740000D03*
X139545000Y-98740000D03*
X139545000Y-97840000D03*
X139545000Y-96940000D03*
X139545000Y-96040000D03*
D16*
X136045000Y-90805000D03*
X142145000Y-90805000D03*
%TD*%
D11*
%TO.C,UP_SDA1*%
X144395000Y-94965000D03*
X145085000Y-94965000D03*
%TD*%
D17*
%TO.C,U3*%
X144800000Y-101400000D03*
X145450000Y-101400000D03*
X146100000Y-101400000D03*
X146750000Y-101400000D03*
X146750000Y-103000000D03*
X146100000Y-103000000D03*
X145450000Y-103000000D03*
X144800000Y-103000000D03*
%TD*%
D11*
%TO.C,SMPS1*%
X144395000Y-91465000D03*
X145085000Y-91465000D03*
%TD*%
D18*
%TO.C,SMPS2*%
X147290000Y-90710000D03*
X148690000Y-90710000D03*
%TD*%
D19*
%TO.C,U2*%
X147305000Y-93705000D03*
X147305000Y-94505000D03*
X148705000Y-94505000D03*
X148705000Y-93705000D03*
%TD*%
D11*
%TO.C,DeCouple1*%
X144395000Y-89715000D03*
X145085000Y-89715000D03*
%TD*%
M02*
