%TF.GenerationSoftware,KiCad,Pcbnew,9.0.5*%
%TF.CreationDate,2026-02-08T11:09:58+01:00*%
%TF.ProjectId,LPSN_LowPowerSensorNode,4c50534e-5f4c-46f7-9750-6f7765725365,rev?*%
%TF.SameCoordinates,Original*%
%TF.FileFunction,Legend,Bot*%
%TF.FilePolarity,Positive*%
%FSLAX46Y46*%
G04 Gerber Fmt 4.6, Leading zero omitted, Abs format (unit mm)*
G04 Created by KiCad (PCBNEW 9.0.5) date 2026-02-08 11:09:58*
%MOMM*%
%LPD*%
G01*
G04 APERTURE LIST*
%ADD10C,0.150000*%
%ADD11C,0.120000*%
G04 APERTURE END LIST*
D10*
X143583333Y-85954819D02*
X143916666Y-85478628D01*
X144154761Y-85954819D02*
X144154761Y-84954819D01*
X144154761Y-84954819D02*
X143773809Y-84954819D01*
X143773809Y-84954819D02*
X143678571Y-85002438D01*
X143678571Y-85002438D02*
X143630952Y-85050057D01*
X143630952Y-85050057D02*
X143583333Y-85145295D01*
X143583333Y-85145295D02*
X143583333Y-85288152D01*
X143583333Y-85288152D02*
X143630952Y-85383390D01*
X143630952Y-85383390D02*
X143678571Y-85431009D01*
X143678571Y-85431009D02*
X143773809Y-85478628D01*
X143773809Y-85478628D02*
X144154761Y-85478628D01*
X143154761Y-85431009D02*
X142821428Y-85431009D01*
X142678571Y-85954819D02*
X143154761Y-85954819D01*
X143154761Y-85954819D02*
X143154761Y-84954819D01*
X143154761Y-84954819D02*
X142678571Y-84954819D01*
X141916666Y-85431009D02*
X142249999Y-85431009D01*
X142249999Y-85954819D02*
X142249999Y-84954819D01*
X142249999Y-84954819D02*
X141773809Y-84954819D01*
X141249999Y-84954819D02*
X141249999Y-85192914D01*
X141488094Y-85097676D02*
X141249999Y-85192914D01*
X141249999Y-85192914D02*
X141011904Y-85097676D01*
X141392856Y-85383390D02*
X141249999Y-85192914D01*
X141249999Y-85192914D02*
X141107142Y-85383390D01*
X140488094Y-84954819D02*
X140488094Y-85192914D01*
X140726189Y-85097676D02*
X140488094Y-85192914D01*
X140488094Y-85192914D02*
X140249999Y-85097676D01*
X140630951Y-85383390D02*
X140488094Y-85192914D01*
X140488094Y-85192914D02*
X140345237Y-85383390D01*
D11*
%TO.C,REF\u002A\u002A*%
X126500000Y-94200000D02*
X126500000Y-99800000D01*
X126500000Y-94200000D02*
X131570000Y-94200000D01*
X126500000Y-99800000D02*
X131570000Y-99800000D01*
X131570000Y-92750000D02*
X138450000Y-86370000D01*
X131570000Y-94200000D02*
X131570000Y-92750000D01*
X131570000Y-99800000D02*
X131570000Y-103280000D01*
X146050000Y-86370000D02*
X138450000Y-86370000D01*
X152930000Y-92750000D02*
X146050000Y-86370000D01*
X152930000Y-94200000D02*
X152930000Y-92750000D01*
X152930000Y-94200000D02*
X158000000Y-94200000D01*
X152930000Y-99800000D02*
X152930000Y-103350000D01*
X158000000Y-94200000D02*
X158000000Y-99800000D01*
X158000000Y-99800000D02*
X152930000Y-99800000D01*
X137069999Y-105339999D02*
G75*
G02*
X131572941Y-103300000I-2369999J2040000D01*
G01*
X137080001Y-105330001D02*
G75*
G02*
X147556422Y-105467392I5169999J-5270000D01*
G01*
X152930000Y-103300000D02*
G75*
G02*
X147566452Y-105492753I-3130000J0D01*
G01*
%TD*%
M02*
