%TF.GenerationSoftware,KiCad,Pcbnew,9.0.5*%
%TF.CreationDate,2026-02-08T11:09:58+01:00*%
%TF.ProjectId,LPSN_LowPowerSensorNode,4c50534e-5f4c-46f7-9750-6f7765725365,rev?*%
%TF.SameCoordinates,Original*%
%TF.FileFunction,Legend,Top*%
%TF.FilePolarity,Positive*%
%FSLAX46Y46*%
G04 Gerber Fmt 4.6, Leading zero omitted, Abs format (unit mm)*
G04 Created by KiCad (PCBNEW 9.0.5) date 2026-02-08 11:09:58*
%MOMM*%
%LPD*%
G01*
G04 APERTURE LIST*
%ADD10C,0.150000*%
%ADD11C,0.120000*%
%ADD12C,0.100000*%
G04 APERTURE END LIST*
D10*
X145021190Y-95596009D02*
X145164047Y-95643628D01*
X145164047Y-95643628D02*
X145211666Y-95691247D01*
X145211666Y-95691247D02*
X145259285Y-95786485D01*
X145259285Y-95786485D02*
X145259285Y-95929342D01*
X145259285Y-95929342D02*
X145211666Y-96024580D01*
X145211666Y-96024580D02*
X145164047Y-96072200D01*
X145164047Y-96072200D02*
X145068809Y-96119819D01*
X145068809Y-96119819D02*
X144687857Y-96119819D01*
X144687857Y-96119819D02*
X144687857Y-95119819D01*
X144687857Y-95119819D02*
X145021190Y-95119819D01*
X145021190Y-95119819D02*
X145116428Y-95167438D01*
X145116428Y-95167438D02*
X145164047Y-95215057D01*
X145164047Y-95215057D02*
X145211666Y-95310295D01*
X145211666Y-95310295D02*
X145211666Y-95405533D01*
X145211666Y-95405533D02*
X145164047Y-95500771D01*
X145164047Y-95500771D02*
X145116428Y-95548390D01*
X145116428Y-95548390D02*
X145021190Y-95596009D01*
X145021190Y-95596009D02*
X144687857Y-95596009D01*
X146116428Y-95453152D02*
X146116428Y-96119819D01*
X145687857Y-95453152D02*
X145687857Y-95976961D01*
X145687857Y-95976961D02*
X145735476Y-96072200D01*
X145735476Y-96072200D02*
X145830714Y-96119819D01*
X145830714Y-96119819D02*
X145973571Y-96119819D01*
X145973571Y-96119819D02*
X146068809Y-96072200D01*
X146068809Y-96072200D02*
X146116428Y-96024580D01*
X146735476Y-96119819D02*
X146640238Y-96072200D01*
X146640238Y-96072200D02*
X146592619Y-95976961D01*
X146592619Y-95976961D02*
X146592619Y-95119819D01*
X147116429Y-96119819D02*
X147116429Y-95119819D01*
X147211667Y-95738866D02*
X147497381Y-96119819D01*
X147497381Y-95453152D02*
X147116429Y-95834104D01*
X148449762Y-96119819D02*
X147878334Y-96119819D01*
X148164048Y-96119819D02*
X148164048Y-95119819D01*
X148164048Y-95119819D02*
X148068810Y-95262676D01*
X148068810Y-95262676D02*
X147973572Y-95357914D01*
X147973572Y-95357914D02*
X147878334Y-95405533D01*
X141716190Y-91619819D02*
X141716190Y-92429342D01*
X141716190Y-92429342D02*
X141763809Y-92524580D01*
X141763809Y-92524580D02*
X141811428Y-92572200D01*
X141811428Y-92572200D02*
X141906666Y-92619819D01*
X141906666Y-92619819D02*
X142097142Y-92619819D01*
X142097142Y-92619819D02*
X142192380Y-92572200D01*
X142192380Y-92572200D02*
X142239999Y-92524580D01*
X142239999Y-92524580D02*
X142287618Y-92429342D01*
X142287618Y-92429342D02*
X142287618Y-91619819D01*
X142763809Y-92619819D02*
X142763809Y-91619819D01*
X142763809Y-91619819D02*
X143144761Y-91619819D01*
X143144761Y-91619819D02*
X143239999Y-91667438D01*
X143239999Y-91667438D02*
X143287618Y-91715057D01*
X143287618Y-91715057D02*
X143335237Y-91810295D01*
X143335237Y-91810295D02*
X143335237Y-91953152D01*
X143335237Y-91953152D02*
X143287618Y-92048390D01*
X143287618Y-92048390D02*
X143239999Y-92096009D01*
X143239999Y-92096009D02*
X143144761Y-92143628D01*
X143144761Y-92143628D02*
X142763809Y-92143628D01*
X143525714Y-92715057D02*
X144287618Y-92715057D01*
X144478095Y-92572200D02*
X144620952Y-92619819D01*
X144620952Y-92619819D02*
X144859047Y-92619819D01*
X144859047Y-92619819D02*
X144954285Y-92572200D01*
X144954285Y-92572200D02*
X145001904Y-92524580D01*
X145001904Y-92524580D02*
X145049523Y-92429342D01*
X145049523Y-92429342D02*
X145049523Y-92334104D01*
X145049523Y-92334104D02*
X145001904Y-92238866D01*
X145001904Y-92238866D02*
X144954285Y-92191247D01*
X144954285Y-92191247D02*
X144859047Y-92143628D01*
X144859047Y-92143628D02*
X144668571Y-92096009D01*
X144668571Y-92096009D02*
X144573333Y-92048390D01*
X144573333Y-92048390D02*
X144525714Y-92000771D01*
X144525714Y-92000771D02*
X144478095Y-91905533D01*
X144478095Y-91905533D02*
X144478095Y-91810295D01*
X144478095Y-91810295D02*
X144525714Y-91715057D01*
X144525714Y-91715057D02*
X144573333Y-91667438D01*
X144573333Y-91667438D02*
X144668571Y-91619819D01*
X144668571Y-91619819D02*
X144906666Y-91619819D01*
X144906666Y-91619819D02*
X145049523Y-91667438D01*
X146049523Y-92524580D02*
X146001904Y-92572200D01*
X146001904Y-92572200D02*
X145859047Y-92619819D01*
X145859047Y-92619819D02*
X145763809Y-92619819D01*
X145763809Y-92619819D02*
X145620952Y-92572200D01*
X145620952Y-92572200D02*
X145525714Y-92476961D01*
X145525714Y-92476961D02*
X145478095Y-92381723D01*
X145478095Y-92381723D02*
X145430476Y-92191247D01*
X145430476Y-92191247D02*
X145430476Y-92048390D01*
X145430476Y-92048390D02*
X145478095Y-91857914D01*
X145478095Y-91857914D02*
X145525714Y-91762676D01*
X145525714Y-91762676D02*
X145620952Y-91667438D01*
X145620952Y-91667438D02*
X145763809Y-91619819D01*
X145763809Y-91619819D02*
X145859047Y-91619819D01*
X145859047Y-91619819D02*
X146001904Y-91667438D01*
X146001904Y-91667438D02*
X146049523Y-91715057D01*
X146954285Y-92619819D02*
X146478095Y-92619819D01*
X146478095Y-92619819D02*
X146478095Y-91619819D01*
X147811428Y-92619819D02*
X147240000Y-92619819D01*
X147525714Y-92619819D02*
X147525714Y-91619819D01*
X147525714Y-91619819D02*
X147430476Y-91762676D01*
X147430476Y-91762676D02*
X147335238Y-91857914D01*
X147335238Y-91857914D02*
X147240000Y-91905533D01*
X138333095Y-88794819D02*
X138333095Y-89604342D01*
X138333095Y-89604342D02*
X138380714Y-89699580D01*
X138380714Y-89699580D02*
X138428333Y-89747200D01*
X138428333Y-89747200D02*
X138523571Y-89794819D01*
X138523571Y-89794819D02*
X138714047Y-89794819D01*
X138714047Y-89794819D02*
X138809285Y-89747200D01*
X138809285Y-89747200D02*
X138856904Y-89699580D01*
X138856904Y-89699580D02*
X138904523Y-89604342D01*
X138904523Y-89604342D02*
X138904523Y-88794819D01*
X139904523Y-89794819D02*
X139333095Y-89794819D01*
X139618809Y-89794819D02*
X139618809Y-88794819D01*
X139618809Y-88794819D02*
X139523571Y-88937676D01*
X139523571Y-88937676D02*
X139428333Y-89032914D01*
X139428333Y-89032914D02*
X139333095Y-89080533D01*
X141692381Y-93369819D02*
X141692381Y-94179342D01*
X141692381Y-94179342D02*
X141740000Y-94274580D01*
X141740000Y-94274580D02*
X141787619Y-94322200D01*
X141787619Y-94322200D02*
X141882857Y-94369819D01*
X141882857Y-94369819D02*
X142073333Y-94369819D01*
X142073333Y-94369819D02*
X142168571Y-94322200D01*
X142168571Y-94322200D02*
X142216190Y-94274580D01*
X142216190Y-94274580D02*
X142263809Y-94179342D01*
X142263809Y-94179342D02*
X142263809Y-93369819D01*
X142740000Y-94369819D02*
X142740000Y-93369819D01*
X142740000Y-93369819D02*
X143120952Y-93369819D01*
X143120952Y-93369819D02*
X143216190Y-93417438D01*
X143216190Y-93417438D02*
X143263809Y-93465057D01*
X143263809Y-93465057D02*
X143311428Y-93560295D01*
X143311428Y-93560295D02*
X143311428Y-93703152D01*
X143311428Y-93703152D02*
X143263809Y-93798390D01*
X143263809Y-93798390D02*
X143216190Y-93846009D01*
X143216190Y-93846009D02*
X143120952Y-93893628D01*
X143120952Y-93893628D02*
X142740000Y-93893628D01*
X143501905Y-94465057D02*
X144263809Y-94465057D01*
X144454286Y-94322200D02*
X144597143Y-94369819D01*
X144597143Y-94369819D02*
X144835238Y-94369819D01*
X144835238Y-94369819D02*
X144930476Y-94322200D01*
X144930476Y-94322200D02*
X144978095Y-94274580D01*
X144978095Y-94274580D02*
X145025714Y-94179342D01*
X145025714Y-94179342D02*
X145025714Y-94084104D01*
X145025714Y-94084104D02*
X144978095Y-93988866D01*
X144978095Y-93988866D02*
X144930476Y-93941247D01*
X144930476Y-93941247D02*
X144835238Y-93893628D01*
X144835238Y-93893628D02*
X144644762Y-93846009D01*
X144644762Y-93846009D02*
X144549524Y-93798390D01*
X144549524Y-93798390D02*
X144501905Y-93750771D01*
X144501905Y-93750771D02*
X144454286Y-93655533D01*
X144454286Y-93655533D02*
X144454286Y-93560295D01*
X144454286Y-93560295D02*
X144501905Y-93465057D01*
X144501905Y-93465057D02*
X144549524Y-93417438D01*
X144549524Y-93417438D02*
X144644762Y-93369819D01*
X144644762Y-93369819D02*
X144882857Y-93369819D01*
X144882857Y-93369819D02*
X145025714Y-93417438D01*
X145454286Y-94369819D02*
X145454286Y-93369819D01*
X145454286Y-93369819D02*
X145692381Y-93369819D01*
X145692381Y-93369819D02*
X145835238Y-93417438D01*
X145835238Y-93417438D02*
X145930476Y-93512676D01*
X145930476Y-93512676D02*
X145978095Y-93607914D01*
X145978095Y-93607914D02*
X146025714Y-93798390D01*
X146025714Y-93798390D02*
X146025714Y-93941247D01*
X146025714Y-93941247D02*
X145978095Y-94131723D01*
X145978095Y-94131723D02*
X145930476Y-94226961D01*
X145930476Y-94226961D02*
X145835238Y-94322200D01*
X145835238Y-94322200D02*
X145692381Y-94369819D01*
X145692381Y-94369819D02*
X145454286Y-94369819D01*
X146406667Y-94084104D02*
X146882857Y-94084104D01*
X146311429Y-94369819D02*
X146644762Y-93369819D01*
X146644762Y-93369819D02*
X146978095Y-94369819D01*
X147835238Y-94369819D02*
X147263810Y-94369819D01*
X147549524Y-94369819D02*
X147549524Y-93369819D01*
X147549524Y-93369819D02*
X147454286Y-93512676D01*
X147454286Y-93512676D02*
X147359048Y-93607914D01*
X147359048Y-93607914D02*
X147263810Y-93655533D01*
X145013095Y-98554819D02*
X145013095Y-99364342D01*
X145013095Y-99364342D02*
X145060714Y-99459580D01*
X145060714Y-99459580D02*
X145108333Y-99507200D01*
X145108333Y-99507200D02*
X145203571Y-99554819D01*
X145203571Y-99554819D02*
X145394047Y-99554819D01*
X145394047Y-99554819D02*
X145489285Y-99507200D01*
X145489285Y-99507200D02*
X145536904Y-99459580D01*
X145536904Y-99459580D02*
X145584523Y-99364342D01*
X145584523Y-99364342D02*
X145584523Y-98554819D01*
X145965476Y-98554819D02*
X146584523Y-98554819D01*
X146584523Y-98554819D02*
X146251190Y-98935771D01*
X146251190Y-98935771D02*
X146394047Y-98935771D01*
X146394047Y-98935771D02*
X146489285Y-98983390D01*
X146489285Y-98983390D02*
X146536904Y-99031009D01*
X146536904Y-99031009D02*
X146584523Y-99126247D01*
X146584523Y-99126247D02*
X146584523Y-99364342D01*
X146584523Y-99364342D02*
X146536904Y-99459580D01*
X146536904Y-99459580D02*
X146489285Y-99507200D01*
X146489285Y-99507200D02*
X146394047Y-99554819D01*
X146394047Y-99554819D02*
X146108333Y-99554819D01*
X146108333Y-99554819D02*
X146013095Y-99507200D01*
X146013095Y-99507200D02*
X145965476Y-99459580D01*
X142430476Y-90822200D02*
X142573333Y-90869819D01*
X142573333Y-90869819D02*
X142811428Y-90869819D01*
X142811428Y-90869819D02*
X142906666Y-90822200D01*
X142906666Y-90822200D02*
X142954285Y-90774580D01*
X142954285Y-90774580D02*
X143001904Y-90679342D01*
X143001904Y-90679342D02*
X143001904Y-90584104D01*
X143001904Y-90584104D02*
X142954285Y-90488866D01*
X142954285Y-90488866D02*
X142906666Y-90441247D01*
X142906666Y-90441247D02*
X142811428Y-90393628D01*
X142811428Y-90393628D02*
X142620952Y-90346009D01*
X142620952Y-90346009D02*
X142525714Y-90298390D01*
X142525714Y-90298390D02*
X142478095Y-90250771D01*
X142478095Y-90250771D02*
X142430476Y-90155533D01*
X142430476Y-90155533D02*
X142430476Y-90060295D01*
X142430476Y-90060295D02*
X142478095Y-89965057D01*
X142478095Y-89965057D02*
X142525714Y-89917438D01*
X142525714Y-89917438D02*
X142620952Y-89869819D01*
X142620952Y-89869819D02*
X142859047Y-89869819D01*
X142859047Y-89869819D02*
X143001904Y-89917438D01*
X143430476Y-90869819D02*
X143430476Y-89869819D01*
X143430476Y-89869819D02*
X143763809Y-90584104D01*
X143763809Y-90584104D02*
X144097142Y-89869819D01*
X144097142Y-89869819D02*
X144097142Y-90869819D01*
X144573333Y-90869819D02*
X144573333Y-89869819D01*
X144573333Y-89869819D02*
X144954285Y-89869819D01*
X144954285Y-89869819D02*
X145049523Y-89917438D01*
X145049523Y-89917438D02*
X145097142Y-89965057D01*
X145097142Y-89965057D02*
X145144761Y-90060295D01*
X145144761Y-90060295D02*
X145144761Y-90203152D01*
X145144761Y-90203152D02*
X145097142Y-90298390D01*
X145097142Y-90298390D02*
X145049523Y-90346009D01*
X145049523Y-90346009D02*
X144954285Y-90393628D01*
X144954285Y-90393628D02*
X144573333Y-90393628D01*
X145525714Y-90822200D02*
X145668571Y-90869819D01*
X145668571Y-90869819D02*
X145906666Y-90869819D01*
X145906666Y-90869819D02*
X146001904Y-90822200D01*
X146001904Y-90822200D02*
X146049523Y-90774580D01*
X146049523Y-90774580D02*
X146097142Y-90679342D01*
X146097142Y-90679342D02*
X146097142Y-90584104D01*
X146097142Y-90584104D02*
X146049523Y-90488866D01*
X146049523Y-90488866D02*
X146001904Y-90441247D01*
X146001904Y-90441247D02*
X145906666Y-90393628D01*
X145906666Y-90393628D02*
X145716190Y-90346009D01*
X145716190Y-90346009D02*
X145620952Y-90298390D01*
X145620952Y-90298390D02*
X145573333Y-90250771D01*
X145573333Y-90250771D02*
X145525714Y-90155533D01*
X145525714Y-90155533D02*
X145525714Y-90060295D01*
X145525714Y-90060295D02*
X145573333Y-89965057D01*
X145573333Y-89965057D02*
X145620952Y-89917438D01*
X145620952Y-89917438D02*
X145716190Y-89869819D01*
X145716190Y-89869819D02*
X145954285Y-89869819D01*
X145954285Y-89869819D02*
X146097142Y-89917438D01*
X147049523Y-90869819D02*
X146478095Y-90869819D01*
X146763809Y-90869819D02*
X146763809Y-89869819D01*
X146763809Y-89869819D02*
X146668571Y-90012676D01*
X146668571Y-90012676D02*
X146573333Y-90107914D01*
X146573333Y-90107914D02*
X146478095Y-90155533D01*
X145680476Y-89367200D02*
X145823333Y-89414819D01*
X145823333Y-89414819D02*
X146061428Y-89414819D01*
X146061428Y-89414819D02*
X146156666Y-89367200D01*
X146156666Y-89367200D02*
X146204285Y-89319580D01*
X146204285Y-89319580D02*
X146251904Y-89224342D01*
X146251904Y-89224342D02*
X146251904Y-89129104D01*
X146251904Y-89129104D02*
X146204285Y-89033866D01*
X146204285Y-89033866D02*
X146156666Y-88986247D01*
X146156666Y-88986247D02*
X146061428Y-88938628D01*
X146061428Y-88938628D02*
X145870952Y-88891009D01*
X145870952Y-88891009D02*
X145775714Y-88843390D01*
X145775714Y-88843390D02*
X145728095Y-88795771D01*
X145728095Y-88795771D02*
X145680476Y-88700533D01*
X145680476Y-88700533D02*
X145680476Y-88605295D01*
X145680476Y-88605295D02*
X145728095Y-88510057D01*
X145728095Y-88510057D02*
X145775714Y-88462438D01*
X145775714Y-88462438D02*
X145870952Y-88414819D01*
X145870952Y-88414819D02*
X146109047Y-88414819D01*
X146109047Y-88414819D02*
X146251904Y-88462438D01*
X146680476Y-89414819D02*
X146680476Y-88414819D01*
X146680476Y-88414819D02*
X147013809Y-89129104D01*
X147013809Y-89129104D02*
X147347142Y-88414819D01*
X147347142Y-88414819D02*
X147347142Y-89414819D01*
X147823333Y-89414819D02*
X147823333Y-88414819D01*
X147823333Y-88414819D02*
X148204285Y-88414819D01*
X148204285Y-88414819D02*
X148299523Y-88462438D01*
X148299523Y-88462438D02*
X148347142Y-88510057D01*
X148347142Y-88510057D02*
X148394761Y-88605295D01*
X148394761Y-88605295D02*
X148394761Y-88748152D01*
X148394761Y-88748152D02*
X148347142Y-88843390D01*
X148347142Y-88843390D02*
X148299523Y-88891009D01*
X148299523Y-88891009D02*
X148204285Y-88938628D01*
X148204285Y-88938628D02*
X147823333Y-88938628D01*
X148775714Y-89367200D02*
X148918571Y-89414819D01*
X148918571Y-89414819D02*
X149156666Y-89414819D01*
X149156666Y-89414819D02*
X149251904Y-89367200D01*
X149251904Y-89367200D02*
X149299523Y-89319580D01*
X149299523Y-89319580D02*
X149347142Y-89224342D01*
X149347142Y-89224342D02*
X149347142Y-89129104D01*
X149347142Y-89129104D02*
X149299523Y-89033866D01*
X149299523Y-89033866D02*
X149251904Y-88986247D01*
X149251904Y-88986247D02*
X149156666Y-88938628D01*
X149156666Y-88938628D02*
X148966190Y-88891009D01*
X148966190Y-88891009D02*
X148870952Y-88843390D01*
X148870952Y-88843390D02*
X148823333Y-88795771D01*
X148823333Y-88795771D02*
X148775714Y-88700533D01*
X148775714Y-88700533D02*
X148775714Y-88605295D01*
X148775714Y-88605295D02*
X148823333Y-88510057D01*
X148823333Y-88510057D02*
X148870952Y-88462438D01*
X148870952Y-88462438D02*
X148966190Y-88414819D01*
X148966190Y-88414819D02*
X149204285Y-88414819D01*
X149204285Y-88414819D02*
X149347142Y-88462438D01*
X149728095Y-88510057D02*
X149775714Y-88462438D01*
X149775714Y-88462438D02*
X149870952Y-88414819D01*
X149870952Y-88414819D02*
X150109047Y-88414819D01*
X150109047Y-88414819D02*
X150204285Y-88462438D01*
X150204285Y-88462438D02*
X150251904Y-88510057D01*
X150251904Y-88510057D02*
X150299523Y-88605295D01*
X150299523Y-88605295D02*
X150299523Y-88700533D01*
X150299523Y-88700533D02*
X150251904Y-88843390D01*
X150251904Y-88843390D02*
X149680476Y-89414819D01*
X149680476Y-89414819D02*
X150299523Y-89414819D01*
X147243095Y-91859819D02*
X147243095Y-92669342D01*
X147243095Y-92669342D02*
X147290714Y-92764580D01*
X147290714Y-92764580D02*
X147338333Y-92812200D01*
X147338333Y-92812200D02*
X147433571Y-92859819D01*
X147433571Y-92859819D02*
X147624047Y-92859819D01*
X147624047Y-92859819D02*
X147719285Y-92812200D01*
X147719285Y-92812200D02*
X147766904Y-92764580D01*
X147766904Y-92764580D02*
X147814523Y-92669342D01*
X147814523Y-92669342D02*
X147814523Y-91859819D01*
X148243095Y-91955057D02*
X148290714Y-91907438D01*
X148290714Y-91907438D02*
X148385952Y-91859819D01*
X148385952Y-91859819D02*
X148624047Y-91859819D01*
X148624047Y-91859819D02*
X148719285Y-91907438D01*
X148719285Y-91907438D02*
X148766904Y-91955057D01*
X148766904Y-91955057D02*
X148814523Y-92050295D01*
X148814523Y-92050295D02*
X148814523Y-92145533D01*
X148814523Y-92145533D02*
X148766904Y-92288390D01*
X148766904Y-92288390D02*
X148195476Y-92859819D01*
X148195476Y-92859819D02*
X148814523Y-92859819D01*
X141025714Y-89119819D02*
X141025714Y-88119819D01*
X141025714Y-88119819D02*
X141263809Y-88119819D01*
X141263809Y-88119819D02*
X141406666Y-88167438D01*
X141406666Y-88167438D02*
X141501904Y-88262676D01*
X141501904Y-88262676D02*
X141549523Y-88357914D01*
X141549523Y-88357914D02*
X141597142Y-88548390D01*
X141597142Y-88548390D02*
X141597142Y-88691247D01*
X141597142Y-88691247D02*
X141549523Y-88881723D01*
X141549523Y-88881723D02*
X141501904Y-88976961D01*
X141501904Y-88976961D02*
X141406666Y-89072200D01*
X141406666Y-89072200D02*
X141263809Y-89119819D01*
X141263809Y-89119819D02*
X141025714Y-89119819D01*
X142406666Y-89072200D02*
X142311428Y-89119819D01*
X142311428Y-89119819D02*
X142120952Y-89119819D01*
X142120952Y-89119819D02*
X142025714Y-89072200D01*
X142025714Y-89072200D02*
X141978095Y-88976961D01*
X141978095Y-88976961D02*
X141978095Y-88596009D01*
X141978095Y-88596009D02*
X142025714Y-88500771D01*
X142025714Y-88500771D02*
X142120952Y-88453152D01*
X142120952Y-88453152D02*
X142311428Y-88453152D01*
X142311428Y-88453152D02*
X142406666Y-88500771D01*
X142406666Y-88500771D02*
X142454285Y-88596009D01*
X142454285Y-88596009D02*
X142454285Y-88691247D01*
X142454285Y-88691247D02*
X141978095Y-88786485D01*
X143454285Y-89024580D02*
X143406666Y-89072200D01*
X143406666Y-89072200D02*
X143263809Y-89119819D01*
X143263809Y-89119819D02*
X143168571Y-89119819D01*
X143168571Y-89119819D02*
X143025714Y-89072200D01*
X143025714Y-89072200D02*
X142930476Y-88976961D01*
X142930476Y-88976961D02*
X142882857Y-88881723D01*
X142882857Y-88881723D02*
X142835238Y-88691247D01*
X142835238Y-88691247D02*
X142835238Y-88548390D01*
X142835238Y-88548390D02*
X142882857Y-88357914D01*
X142882857Y-88357914D02*
X142930476Y-88262676D01*
X142930476Y-88262676D02*
X143025714Y-88167438D01*
X143025714Y-88167438D02*
X143168571Y-88119819D01*
X143168571Y-88119819D02*
X143263809Y-88119819D01*
X143263809Y-88119819D02*
X143406666Y-88167438D01*
X143406666Y-88167438D02*
X143454285Y-88215057D01*
X144025714Y-89119819D02*
X143930476Y-89072200D01*
X143930476Y-89072200D02*
X143882857Y-89024580D01*
X143882857Y-89024580D02*
X143835238Y-88929342D01*
X143835238Y-88929342D02*
X143835238Y-88643628D01*
X143835238Y-88643628D02*
X143882857Y-88548390D01*
X143882857Y-88548390D02*
X143930476Y-88500771D01*
X143930476Y-88500771D02*
X144025714Y-88453152D01*
X144025714Y-88453152D02*
X144168571Y-88453152D01*
X144168571Y-88453152D02*
X144263809Y-88500771D01*
X144263809Y-88500771D02*
X144311428Y-88548390D01*
X144311428Y-88548390D02*
X144359047Y-88643628D01*
X144359047Y-88643628D02*
X144359047Y-88929342D01*
X144359047Y-88929342D02*
X144311428Y-89024580D01*
X144311428Y-89024580D02*
X144263809Y-89072200D01*
X144263809Y-89072200D02*
X144168571Y-89119819D01*
X144168571Y-89119819D02*
X144025714Y-89119819D01*
X145216190Y-88453152D02*
X145216190Y-89119819D01*
X144787619Y-88453152D02*
X144787619Y-88976961D01*
X144787619Y-88976961D02*
X144835238Y-89072200D01*
X144835238Y-89072200D02*
X144930476Y-89119819D01*
X144930476Y-89119819D02*
X145073333Y-89119819D01*
X145073333Y-89119819D02*
X145168571Y-89072200D01*
X145168571Y-89072200D02*
X145216190Y-89024580D01*
X145692381Y-88453152D02*
X145692381Y-89453152D01*
X145692381Y-88500771D02*
X145787619Y-88453152D01*
X145787619Y-88453152D02*
X145978095Y-88453152D01*
X145978095Y-88453152D02*
X146073333Y-88500771D01*
X146073333Y-88500771D02*
X146120952Y-88548390D01*
X146120952Y-88548390D02*
X146168571Y-88643628D01*
X146168571Y-88643628D02*
X146168571Y-88929342D01*
X146168571Y-88929342D02*
X146120952Y-89024580D01*
X146120952Y-89024580D02*
X146073333Y-89072200D01*
X146073333Y-89072200D02*
X145978095Y-89119819D01*
X145978095Y-89119819D02*
X145787619Y-89119819D01*
X145787619Y-89119819D02*
X145692381Y-89072200D01*
X146740000Y-89119819D02*
X146644762Y-89072200D01*
X146644762Y-89072200D02*
X146597143Y-88976961D01*
X146597143Y-88976961D02*
X146597143Y-88119819D01*
X147501905Y-89072200D02*
X147406667Y-89119819D01*
X147406667Y-89119819D02*
X147216191Y-89119819D01*
X147216191Y-89119819D02*
X147120953Y-89072200D01*
X147120953Y-89072200D02*
X147073334Y-88976961D01*
X147073334Y-88976961D02*
X147073334Y-88596009D01*
X147073334Y-88596009D02*
X147120953Y-88500771D01*
X147120953Y-88500771D02*
X147216191Y-88453152D01*
X147216191Y-88453152D02*
X147406667Y-88453152D01*
X147406667Y-88453152D02*
X147501905Y-88500771D01*
X147501905Y-88500771D02*
X147549524Y-88596009D01*
X147549524Y-88596009D02*
X147549524Y-88691247D01*
X147549524Y-88691247D02*
X147073334Y-88786485D01*
X148501905Y-89119819D02*
X147930477Y-89119819D01*
X148216191Y-89119819D02*
X148216191Y-88119819D01*
X148216191Y-88119819D02*
X148120953Y-88262676D01*
X148120953Y-88262676D02*
X148025715Y-88357914D01*
X148025715Y-88357914D02*
X147930477Y-88405533D01*
D11*
%TO.C,Bulk1*%
X144075000Y-96505000D02*
X144075000Y-99525000D01*
X144075000Y-99525000D02*
X148295000Y-99525000D01*
X148295000Y-96505000D02*
X144075000Y-96505000D01*
%TO.C,U1*%
X135325000Y-90215000D02*
X135325000Y-92970000D01*
X135325000Y-101460000D02*
X135325000Y-98710000D01*
X137125000Y-90215000D02*
X135325000Y-90215000D01*
X137150000Y-101460000D02*
X135325000Y-101460000D01*
X141040000Y-90220000D02*
X142865000Y-90220000D01*
X141040000Y-101460000D02*
X142865000Y-101460000D01*
X142865000Y-90220000D02*
X142865000Y-92970000D01*
X142865000Y-101460000D02*
X142865000Y-98710000D01*
X135335000Y-93740000D02*
X135005000Y-93980000D01*
X135005000Y-93500000D01*
X135335000Y-93740000D01*
G36*
X135335000Y-93740000D02*
G01*
X135005000Y-93980000D01*
X135005000Y-93500000D01*
X135335000Y-93740000D01*
G37*
D12*
%TO.C,U3*%
X144425000Y-101740000D02*
X144425000Y-101300000D01*
X144425000Y-103300000D02*
X144425000Y-102660000D01*
X144425000Y-103300000D02*
X144575000Y-103300000D01*
X146850000Y-103275000D02*
X147000000Y-103275000D01*
X146975000Y-101100000D02*
X147125000Y-101100000D01*
X147125000Y-101740000D02*
X147125000Y-101100000D01*
X147125000Y-103300000D02*
X147125000Y-102660000D01*
X144425000Y-101100000D02*
X144065000Y-101100000D01*
X144425000Y-100740000D01*
X144425000Y-101100000D01*
G36*
X144425000Y-101100000D02*
G01*
X144065000Y-101100000D01*
X144425000Y-100740000D01*
X144425000Y-101100000D01*
G37*
D11*
%TO.C,SMPS2*%
X146880000Y-89400000D02*
X149100000Y-89400000D01*
X149100000Y-92020000D02*
X146880000Y-92020000D01*
%TO.C,U2*%
X147255000Y-93245000D02*
X148755000Y-93245000D01*
X147255000Y-94965000D02*
X148755000Y-94965000D01*
X146805000Y-93505000D02*
X146525000Y-93505000D01*
X146805000Y-93225000D01*
X146805000Y-93505000D01*
G36*
X146805000Y-93505000D02*
G01*
X146525000Y-93505000D01*
X146805000Y-93225000D01*
X146805000Y-93505000D01*
G37*
%TD*%
M02*
