M48
; DRILL file {KiCad 9.0.5} date 2026-03-25T11:36:58+0100
; FORMAT={-:-/ absolute / inch / decimal}
; #@! TF.CreationDate,2026-03-25T11:36:58+01:00
; #@! TF.GenerationSoftware,Kicad,Pcbnew,9.0.5
; #@! TF.FileFunction,Plated,1,2,PTH
FMAT,2
INCH
; #@! TA.AperFunction,Plated,PTH,ComponentDrill
T1C0.0276
; #@! TA.AperFunction,Plated,PTH,ComponentDrill
T2C0.0394
%
G90
G05
T1
X6.5398Y-4.0984
X6.7192Y-2.8767
X6.7398Y-4.0984
X6.8607Y-3.0181
X7.4843Y-2.4528
X7.4843Y-2.6528
T2
X6.4882Y-3.4953
X6.4882Y-3.5953
X6.4882Y-3.6953
X6.4882Y-3.7953
X6.4882Y-3.8953
X7.1063Y-3.7372
X7.2063Y-3.7372
X7.3063Y-3.7372
X7.4063Y-3.7372
X7.5063Y-3.7372
X7.6063Y-3.7372
X7.7063Y-3.7372
X7.8063Y-3.7372
X7.9063Y-3.7372
X8.0063Y-3.7372
M30
