%TF.GenerationSoftware,KiCad,Pcbnew,9.0.5*%
%TF.CreationDate,2026-03-25T11:36:55+01:00*%
%TF.ProjectId,System_pomiaru_ci_nienia_Chemsilium,53797374-656d-45f7-906f-6d696172755f,rev?*%
%TF.SameCoordinates,Original*%
%TF.FileFunction,Copper,L1,Top*%
%TF.FilePolarity,Positive*%
%FSLAX46Y46*%
G04 Gerber Fmt 4.6, Leading zero omitted, Abs format (unit mm)*
G04 Created by KiCad (PCBNEW 9.0.5) date 2026-03-25 11:36:55*
%MOMM*%
%LPD*%
G01*
G04 APERTURE LIST*
%TA.AperFunction,NonConductor*%
%ADD10C,0.200000*%
%TD*%
%TA.AperFunction,ComponentPad*%
%ADD11C,1.400000*%
%TD*%
%TA.AperFunction,SMDPad,CuDef*%
%ADD12R,3.300000X2.000000*%
%TD*%
%TA.AperFunction,SMDPad,CuDef*%
%ADD13R,0.400000X2.000000*%
%TD*%
%TA.AperFunction,ComponentPad*%
%ADD14C,1.700000*%
%TD*%
%TA.AperFunction,ComponentPad*%
%ADD15R,1.700000X1.700000*%
%TD*%
%TA.AperFunction,Conductor*%
%ADD16C,1.000000*%
%TD*%
%TA.AperFunction,Conductor*%
%ADD17C,0.600000*%
%TD*%
%TA.AperFunction,Conductor*%
%ADD18C,0.400000*%
%TD*%
%TA.AperFunction,Conductor*%
%ADD19C,1.400000*%
%TD*%
%TA.AperFunction,Conductor*%
%ADD20C,0.300000*%
%TD*%
G04 APERTURE END LIST*
D10*
X160000000Y-130100000D02*
X210000000Y-130100000D01*
X210000000Y-60100000D02*
X160000000Y-60100000D01*
X210000000Y-130100000D02*
X210000000Y-60100000D01*
X160000000Y-60100000D02*
X160000000Y-130100000D01*
D11*
%TO.P,J1,1*%
%TO.N,N/C*%
X190100000Y-62300000D03*
%TO.P,J1,2*%
X190100000Y-67379999D03*
%TD*%
%TO.P,J1,2*%
%TO.N,GND*%
X170668594Y-73068594D03*
%TO.P,J1,1*%
X174260696Y-76660696D03*
%TD*%
%TO.P,J1,2*%
%TO.N,5V_PRESS_ANALOG*%
X171189999Y-104100000D03*
%TO.P,J1,1*%
X166110000Y-104100000D03*
%TD*%
D12*
%TO.P,J1,5*%
%TO.N,GND*%
X200462050Y-117600000D03*
D13*
%TO.P,J1,4,Pin_4*%
%TO.N,PRESS_A_1_N*%
X199487050Y-107025000D03*
%TO.P,J1,3,Pin_3*%
%TO.N,5V_PRESS_ANALOG*%
X200137051Y-107025000D03*
%TO.P,J1,2,Pin_2*%
%TO.N,PRESS_A_1_P*%
X200787050Y-107025000D03*
%TO.P,J1,1,Pin_1*%
%TO.N,GND*%
X201437049Y-107025000D03*
%TD*%
D12*
%TO.P,J3,5*%
%TO.N,GND*%
X200462050Y-83000000D03*
D13*
%TO.P,J3,4,Pin_4*%
%TO.N,PRESS_A_2_N*%
X199487050Y-72425000D03*
%TO.P,J3,3,Pin_3*%
%TO.N,5V_PRESS_ANALOG*%
X200137051Y-72425000D03*
%TO.P,J3,2,Pin_2*%
%TO.N,PRESS_A_2_P*%
X200787050Y-72425000D03*
%TO.P,J3,1,Pin_1*%
%TO.N,GND*%
X201437049Y-72425000D03*
%TD*%
D14*
%TO.P,REF\u002A\u002A,5*%
%TO.N,N/C*%
X164800000Y-88780000D03*
%TO.P,REF\u002A\u002A,4*%
%TO.N,SDA_ADC*%
X164800000Y-91320000D03*
%TO.P,REF\u002A\u002A,3*%
%TO.N,SCL_ADC*%
X164800000Y-93860001D03*
%TO.P,REF\u002A\u002A,2*%
%TO.N,GND*%
X164800000Y-96400000D03*
D15*
%TO.P,REF\u002A\u002A,1*%
%TO.N,5V_PRESS_ANALOG*%
X164800000Y-98940000D03*
%TD*%
D14*
%TO.P,REF\u002A\u002A,10*%
%TO.N,PRESS_A_2_P*%
X203360000Y-94925000D03*
%TO.P,REF\u002A\u002A,9*%
%TO.N,PRESS_A_2_N*%
X200820000Y-94925000D03*
%TO.P,REF\u002A\u002A,8*%
%TO.N,PRESS_A_1_P*%
X198280001Y-94925000D03*
%TO.P,REF\u002A\u002A,7*%
%TO.N,PRESS_A_1_N*%
X195740000Y-94925000D03*
%TO.P,REF\u002A\u002A,6*%
%TO.N,N/C*%
X193200000Y-94925000D03*
%TO.P,REF\u002A\u002A,5*%
%TO.N,GND*%
X190660000Y-94925000D03*
%TO.P,REF\u002A\u002A,4*%
%TO.N,SDA_ADC*%
X188120000Y-94925000D03*
%TO.P,REF\u002A\u002A,3*%
%TO.N,SCL_ADC*%
X185579999Y-94925000D03*
%TO.P,REF\u002A\u002A,2*%
%TO.N,GND*%
X183040000Y-94925000D03*
D15*
%TO.P,REF\u002A\u002A,1*%
%TO.N,5V_PRESS_ANALOG*%
X180500000Y-94925000D03*
%TD*%
D16*
%TO.N,5V_PRESS_ANALOG*%
X197900000Y-64700000D02*
X200137051Y-66937051D01*
X200137051Y-66937051D02*
X200137051Y-70637050D01*
X162900000Y-84600000D02*
X182800000Y-64700000D01*
X182800000Y-64700000D02*
X197900000Y-64700000D01*
X163740000Y-98940000D02*
X162900000Y-98100000D01*
X162900000Y-98100000D02*
X162900000Y-84600000D01*
X164800000Y-98940000D02*
X163740000Y-98940000D01*
D17*
%TO.N,SCL_ADC*%
X185579999Y-94925000D02*
X185579999Y-92979999D01*
X168360000Y-90300000D02*
X164800000Y-93860001D01*
D18*
%TO.N,SDA_ADC*%
X188120000Y-94925000D02*
X187825000Y-94925000D01*
D17*
X164800000Y-91319999D02*
X167219999Y-88900000D01*
%TO.N,SCL_ADC*%
X185579999Y-92979999D02*
X182900000Y-90300000D01*
%TO.N,SDA_ADC*%
X188120000Y-92820000D02*
X188120000Y-94925000D01*
X167219999Y-88900000D02*
X184200001Y-88900000D01*
D16*
%TO.N,5V_PRESS_ANALOG*%
X180710001Y-113600000D02*
X198000000Y-113600000D01*
D17*
%TO.N,SDA_ADC*%
X184200001Y-88900000D02*
X188120000Y-92820000D01*
%TO.N,SCL_ADC*%
X182900000Y-90300000D02*
X168360000Y-90300000D01*
%TO.N,*%
X185775000Y-87500000D02*
X166080000Y-87500000D01*
X193200000Y-94925000D02*
X185775000Y-87500000D01*
X166080000Y-87500000D02*
X164800000Y-88780000D01*
D16*
%TO.N,5V_PRESS_ANALOG*%
X171190000Y-104100000D02*
X171190000Y-98810001D01*
X164800000Y-98940000D02*
X164800000Y-102790000D01*
X198000000Y-113600000D02*
X200100000Y-111500000D01*
X175075000Y-94925000D02*
X180500000Y-94925000D01*
D18*
X200137050Y-109062949D02*
X200099999Y-109100000D01*
D17*
%TO.N,PRESS_A_1_P*%
X198280001Y-95980001D02*
X200800000Y-98500000D01*
D16*
%TO.N,5V_PRESS_ANALOG*%
X200100000Y-111500000D02*
X200099999Y-109100000D01*
D17*
%TO.N,PRESS_A_2_N*%
X200820000Y-94925000D02*
X200820000Y-93920000D01*
D18*
X199487050Y-72425000D02*
X199487050Y-73887050D01*
D17*
%TO.N,PRESS_A_1_N*%
X195740000Y-94925000D02*
X199700000Y-98885000D01*
D16*
%TO.N,5V_PRESS_ANALOG*%
X164800000Y-102790000D02*
X166110000Y-104100000D01*
D17*
%TO.N,PRESS_A_2_P*%
X200700000Y-76100000D02*
X200700000Y-73999999D01*
%TO.N,PRESS_A_2_N*%
X196500000Y-78799999D02*
X199600000Y-75699999D01*
%TO.N,PRESS_A_1_N*%
X199700000Y-98885000D02*
X199700000Y-105400000D01*
D19*
%TO.N,GND*%
X184900000Y-98700000D02*
X183040000Y-96840000D01*
D17*
%TO.N,PRESS_A_2_N*%
X196500000Y-89600000D02*
X196500000Y-78799999D01*
%TO.N,GND*%
X183040000Y-94925000D02*
X183040000Y-94563000D01*
%TO.N,PRESS_A_2_N*%
X200820000Y-93920000D02*
X196500000Y-89600000D01*
D18*
%TO.N,5V_PRESS_ANALOG*%
X180500000Y-94925000D02*
X179975000Y-94400000D01*
D19*
%TO.N,GND*%
X180500000Y-117400000D02*
X180700000Y-117600000D01*
D18*
%TO.N,PRESS_A_1_P*%
X200787050Y-107024999D02*
X200787050Y-105612950D01*
%TO.N,5V_PRESS_ANALOG*%
X200137051Y-107025000D02*
X200137050Y-109062949D01*
%TO.N,PRESS_A_1_N*%
X199487050Y-107025000D02*
X199487050Y-105612950D01*
D17*
%TO.N,PRESS_A_2_P*%
X197600000Y-79200000D02*
X200700000Y-76100000D01*
D16*
%TO.N,5V_PRESS_ANALOG*%
X171190000Y-98810001D02*
X175075000Y-94925000D01*
D17*
%TO.N,PRESS_A_1_P*%
X198280001Y-94925000D02*
X198280001Y-95980001D01*
X200800000Y-98500000D02*
X200800000Y-105600000D01*
%TO.N,PRESS_A_1_N*%
X199700000Y-105400000D02*
X199500000Y-105600000D01*
D18*
%TO.N,PRESS_A_2_P*%
X200787050Y-72425000D02*
X200787050Y-73887050D01*
D17*
X197600000Y-89165000D02*
X197600000Y-79200000D01*
D18*
%TO.N,5V_PRESS_ANALOG*%
X200137051Y-72425000D02*
X200137051Y-70637050D01*
D17*
%TO.N,PRESS_A_2_N*%
X199600000Y-75699999D02*
X199600000Y-74000000D01*
D16*
%TO.N,5V_PRESS_ANALOG*%
X171200000Y-104089999D02*
X180710001Y-113600000D01*
D17*
%TO.N,PRESS_A_2_P*%
X203360000Y-94925000D02*
X197600000Y-89165000D01*
D19*
%TO.N,GND*%
X203100000Y-80362050D02*
X200462049Y-83000000D01*
X180400000Y-117400000D02*
X180500000Y-117400000D01*
X181478000Y-92401000D02*
X183040000Y-93963000D01*
X168600000Y-97500000D02*
X168600000Y-105600000D01*
X171499000Y-92401000D02*
X181478000Y-92401000D01*
X168600000Y-105600000D02*
X180400000Y-117400000D01*
X180700000Y-117600000D02*
X200462050Y-117600000D01*
X190660000Y-94925000D02*
X190660000Y-96840000D01*
X190660000Y-96840000D02*
X188800000Y-98700000D01*
X167500000Y-96400000D02*
X168600000Y-97500000D01*
X183040000Y-93963000D02*
X183040000Y-94925000D01*
X167500000Y-96400000D02*
X171499000Y-92401000D01*
X183040000Y-96840000D02*
X183040000Y-94925000D01*
X203100000Y-79100000D02*
X203100000Y-80362050D01*
X188800000Y-98700000D02*
X184900000Y-98700000D01*
X164800000Y-96400000D02*
X167500000Y-96400000D01*
X199400000Y-62100000D02*
X181200000Y-62100000D01*
X203100000Y-71300000D02*
X202000000Y-70200000D01*
X202000000Y-64700000D02*
X199400000Y-62100000D01*
X202000000Y-70200000D02*
X202000000Y-64700000D01*
X161201000Y-106301000D02*
X163200000Y-108300000D01*
X163200000Y-108300000D02*
X165900000Y-108300000D01*
X203100000Y-79100000D02*
X203100000Y-74700000D01*
X181200000Y-62100000D02*
X161201000Y-82099000D01*
X161201000Y-82099000D02*
X161201000Y-106301000D01*
X165900000Y-108300000D02*
X168600000Y-105600000D01*
X203100000Y-72400000D02*
X203100000Y-71300000D01*
D18*
X204599999Y-105500000D02*
X202200000Y-105500000D01*
X201437049Y-106262951D02*
X201437049Y-107025000D01*
X202200000Y-105500000D02*
X201437049Y-106262951D01*
X205100000Y-106000000D02*
X204599999Y-105500000D01*
D20*
X201437049Y-73037049D02*
X203100000Y-74700000D01*
X201437049Y-72425000D02*
X201437049Y-73037049D01*
D19*
X203100000Y-74700000D02*
X203100000Y-72400000D01*
D20*
X201437049Y-72425000D02*
X201437049Y-70762951D01*
X201437049Y-70762951D02*
X202000000Y-70200000D01*
X203075000Y-72425000D02*
X203100000Y-72400000D01*
X201437049Y-72425000D02*
X203075000Y-72425000D01*
D18*
X202525000Y-107025000D02*
X203300000Y-107800000D01*
X201437049Y-107025000D02*
X201437049Y-108337049D01*
X201437049Y-108337049D02*
X202200001Y-109100000D01*
X202200001Y-109100000D02*
X203300000Y-109100000D01*
D19*
X203300001Y-114500000D02*
X203300000Y-109100000D01*
X200462050Y-117337950D02*
X203300001Y-114500000D01*
X203300000Y-109100000D02*
X203300000Y-107800000D01*
X203300001Y-107400000D02*
X206800000Y-103900000D01*
X203300000Y-107800000D02*
X203300001Y-107400000D01*
X206800000Y-103900000D02*
X206900000Y-103900000D01*
X206900000Y-103900000D02*
X206900000Y-82900000D01*
X206900000Y-82900000D02*
X203100000Y-79100000D01*
D18*
X201437049Y-107025000D02*
X202525000Y-107025000D01*
D19*
X200462050Y-117600000D02*
X200462050Y-117337950D01*
%TD*%
M02*
