%TF.GenerationSoftware,KiCad,Pcbnew,9.0.5*%
%TF.CreationDate,2026-03-25T11:36:55+01:00*%
%TF.ProjectId,System_pomiaru_ci_nienia_Chemsilium,53797374-656d-45f7-906f-6d696172755f,rev?*%
%TF.SameCoordinates,Original*%
%TF.FileFunction,Legend,Top*%
%TF.FilePolarity,Positive*%
%FSLAX46Y46*%
G04 Gerber Fmt 4.6, Leading zero omitted, Abs format (unit mm)*
G04 Created by KiCad (PCBNEW 9.0.5) date 2026-03-25 11:36:55*
%MOMM*%
%LPD*%
G01*
G04 APERTURE LIST*
%ADD10C,0.000000*%
%ADD11C,0.100000*%
%ADD12C,0.150000*%
%ADD13C,0.120000*%
G04 APERTURE END LIST*
D10*
G36*
X198668126Y-123624167D02*
G01*
X199006793Y-123624167D01*
X199033252Y-123846417D01*
X199079801Y-124285212D01*
X199127839Y-124812808D01*
X199170917Y-125353302D01*
X199202585Y-125830792D01*
X199239625Y-126428750D01*
X198922125Y-126428750D01*
X198604625Y-126428750D01*
X198541126Y-125650876D01*
X198513841Y-125346687D01*
X198489532Y-125094589D01*
X198471177Y-124920874D01*
X198465162Y-124871626D01*
X198461752Y-124851834D01*
X198458916Y-124853345D01*
X198454445Y-124859709D01*
X198440998Y-124886064D01*
X198422219Y-124929038D01*
X198398912Y-124986771D01*
X198371885Y-125057402D01*
X198341944Y-125139072D01*
X198309894Y-125229919D01*
X198276543Y-125328084D01*
X198141915Y-125715698D01*
X198088112Y-125869818D01*
X198041890Y-126000125D01*
X198002179Y-126108605D01*
X197984431Y-126155279D01*
X197967910Y-126197240D01*
X197952481Y-126234736D01*
X197938012Y-126268016D01*
X197924369Y-126297327D01*
X197911417Y-126322917D01*
X197899023Y-126345035D01*
X197887054Y-126363927D01*
X197875375Y-126379844D01*
X197863854Y-126393032D01*
X197852355Y-126403739D01*
X197846573Y-126408240D01*
X197840747Y-126412214D01*
X197834859Y-126415692D01*
X197828894Y-126418704D01*
X197816663Y-126423459D01*
X197803920Y-126426724D01*
X197790532Y-126428750D01*
X197776366Y-126429784D01*
X197761286Y-126430073D01*
X197689166Y-126428750D01*
X197498668Y-126428750D01*
X197207626Y-125603250D01*
X196921874Y-124783042D01*
X196879542Y-125328084D01*
X196862096Y-125562653D01*
X196843162Y-125795734D01*
X196825220Y-126000042D01*
X196810752Y-126148292D01*
X196784293Y-126428750D01*
X196466793Y-126428750D01*
X196154584Y-126428750D01*
X196154584Y-126227667D01*
X196175420Y-125867255D01*
X196226022Y-125221589D01*
X196288530Y-124503493D01*
X196345085Y-123925792D01*
X196382125Y-123624167D01*
X196731376Y-123624167D01*
X197080624Y-123624167D01*
X197366376Y-124365000D01*
X197480809Y-124655298D01*
X197532692Y-124784044D01*
X197579366Y-124897474D01*
X197619590Y-124992300D01*
X197652126Y-125065236D01*
X197665122Y-125092469D01*
X197675731Y-125112996D01*
X197683797Y-125126407D01*
X197686829Y-125130316D01*
X197689166Y-125132292D01*
X197691442Y-125132484D01*
X197694289Y-125131099D01*
X197701621Y-125123745D01*
X197711015Y-125110514D01*
X197722323Y-125091695D01*
X197750094Y-125038437D01*
X197783757Y-124966266D01*
X197822132Y-124877475D01*
X197864041Y-124774360D01*
X197908307Y-124659215D01*
X197953751Y-124534333D01*
X198069744Y-124218715D01*
X198116869Y-124092709D01*
X198158389Y-123985819D01*
X198195538Y-123896478D01*
X198212858Y-123857900D01*
X198229548Y-123823121D01*
X198245760Y-123791947D01*
X198261650Y-123764182D01*
X198277372Y-123739629D01*
X198293079Y-123718094D01*
X198308925Y-123699380D01*
X198325065Y-123683293D01*
X198341653Y-123669635D01*
X198358842Y-123658211D01*
X198376788Y-123648827D01*
X198395643Y-123641285D01*
X198415561Y-123635390D01*
X198436698Y-123630947D01*
X198459207Y-123627760D01*
X198483242Y-123625632D01*
X198536506Y-123623774D01*
X198668126Y-123624167D01*
G37*
G36*
X194355417Y-124550209D02*
G01*
X194356109Y-124753129D01*
X194358466Y-124934082D01*
X194362917Y-125094292D01*
X194366060Y-125167001D01*
X194369887Y-125234983D01*
X194374449Y-125298393D01*
X194379802Y-125357382D01*
X194385997Y-125412103D01*
X194393089Y-125462711D01*
X194401131Y-125509358D01*
X194410175Y-125552197D01*
X194420275Y-125591381D01*
X194431485Y-125627063D01*
X194443857Y-125659396D01*
X194457446Y-125688534D01*
X194472303Y-125714630D01*
X194488484Y-125737836D01*
X194506040Y-125758306D01*
X194525025Y-125776193D01*
X194545493Y-125791650D01*
X194567497Y-125804830D01*
X194591090Y-125815886D01*
X194616325Y-125824971D01*
X194643256Y-125832238D01*
X194671935Y-125837841D01*
X194702417Y-125841932D01*
X194734755Y-125844664D01*
X194769001Y-125846192D01*
X194805209Y-125846667D01*
X194875663Y-125844664D01*
X194938483Y-125837841D01*
X194994093Y-125824971D01*
X195042920Y-125804830D01*
X195064924Y-125791650D01*
X195085392Y-125776193D01*
X195104377Y-125758306D01*
X195121934Y-125737836D01*
X195138114Y-125714630D01*
X195152972Y-125688534D01*
X195178933Y-125627063D01*
X195200243Y-125552197D01*
X195217329Y-125462711D01*
X195230616Y-125357382D01*
X195240531Y-125234983D01*
X195247501Y-125094292D01*
X195251952Y-124934082D01*
X195255001Y-124550209D01*
X195255001Y-123624167D01*
X195572501Y-123624167D01*
X195889999Y-123624167D01*
X195889999Y-124698375D01*
X195889555Y-125034086D01*
X195888779Y-125173300D01*
X195887436Y-125295507D01*
X195885381Y-125402273D01*
X195882465Y-125495164D01*
X195878542Y-125575746D01*
X195873464Y-125645584D01*
X195867083Y-125706244D01*
X195863358Y-125733622D01*
X195859253Y-125759293D01*
X195854748Y-125783452D01*
X195849826Y-125806295D01*
X195844467Y-125828018D01*
X195838655Y-125848817D01*
X195832369Y-125868887D01*
X195825592Y-125888424D01*
X195810491Y-125926683D01*
X195793204Y-125965159D01*
X195773583Y-126005417D01*
X195731410Y-126079192D01*
X195682509Y-126147641D01*
X195627220Y-126210649D01*
X195565886Y-126268099D01*
X195498846Y-126319875D01*
X195426442Y-126365860D01*
X195349015Y-126405939D01*
X195266907Y-126439995D01*
X195180457Y-126467912D01*
X195090008Y-126489574D01*
X194995900Y-126504863D01*
X194898474Y-126513665D01*
X194798072Y-126515863D01*
X194695035Y-126511340D01*
X194589703Y-126499980D01*
X194482417Y-126481667D01*
X194408574Y-126463695D01*
X194337909Y-126441576D01*
X194270500Y-126415380D01*
X194206424Y-126385177D01*
X194145759Y-126351035D01*
X194088581Y-126313026D01*
X194034970Y-126271218D01*
X193985001Y-126225682D01*
X193938753Y-126176488D01*
X193896304Y-126123704D01*
X193857730Y-126067401D01*
X193823109Y-126007649D01*
X193792519Y-125944518D01*
X193766037Y-125878076D01*
X193743741Y-125808394D01*
X193725709Y-125735542D01*
X193714425Y-125666608D01*
X193704397Y-125568048D01*
X193688171Y-125300468D01*
X193677153Y-124969635D01*
X193671469Y-124612386D01*
X193671242Y-124265554D01*
X193676596Y-123965975D01*
X193687654Y-123750485D01*
X193695362Y-123685783D01*
X193704542Y-123655917D01*
X193710032Y-123652944D01*
X193718453Y-123649995D01*
X193729633Y-123647092D01*
X193743403Y-123644259D01*
X193778026Y-123638895D01*
X193820959Y-123634089D01*
X193870837Y-123630027D01*
X193926296Y-123626896D01*
X193985972Y-123624880D01*
X194048501Y-123624167D01*
X194355417Y-123624167D01*
X194355417Y-124550209D01*
G37*
G36*
X184608167Y-123634750D02*
G01*
X184962709Y-123650625D01*
X185248458Y-124407333D01*
X185307265Y-124557402D01*
X185363717Y-124696060D01*
X185416448Y-124820332D01*
X185464094Y-124927240D01*
X185485583Y-124973253D01*
X185505290Y-125013808D01*
X185523044Y-125048535D01*
X185538674Y-125077060D01*
X185552009Y-125099012D01*
X185562879Y-125114019D01*
X185567337Y-125118802D01*
X185571114Y-125121708D01*
X185574190Y-125122693D01*
X185576543Y-125121708D01*
X185610442Y-125046385D01*
X185681052Y-124876307D01*
X185777460Y-124635785D01*
X185888750Y-124349125D01*
X186169209Y-123624167D01*
X186529042Y-123624167D01*
X186589825Y-123624254D01*
X186643485Y-123624612D01*
X186690462Y-123625388D01*
X186731200Y-123626730D01*
X186749367Y-123627660D01*
X186766140Y-123628786D01*
X186781574Y-123630127D01*
X186795723Y-123631701D01*
X186808645Y-123633528D01*
X186820392Y-123635625D01*
X186831022Y-123638011D01*
X186840589Y-123640703D01*
X186849148Y-123643722D01*
X186856755Y-123647084D01*
X186863464Y-123650809D01*
X186869331Y-123654914D01*
X186874412Y-123659419D01*
X186878761Y-123664342D01*
X186882434Y-123669700D01*
X186885485Y-123675513D01*
X186887971Y-123681798D01*
X186889946Y-123688575D01*
X186891466Y-123695862D01*
X186892586Y-123703676D01*
X186893361Y-123712037D01*
X186893845Y-123720963D01*
X186894167Y-123740584D01*
X186902518Y-123878580D01*
X186925255Y-124161933D01*
X187000000Y-125000000D01*
X187049082Y-125515659D01*
X187068171Y-125719387D01*
X187083096Y-125890737D01*
X187093464Y-126032476D01*
X187096815Y-126093106D01*
X187098878Y-126147372D01*
X187099604Y-126195619D01*
X187098944Y-126238192D01*
X187096848Y-126275438D01*
X187093266Y-126307703D01*
X187088150Y-126335333D01*
X187081449Y-126358673D01*
X187077489Y-126368843D01*
X187073115Y-126378070D01*
X187068319Y-126386397D01*
X187063097Y-126393869D01*
X187057442Y-126400527D01*
X187051347Y-126406416D01*
X187044807Y-126411578D01*
X187037816Y-126416057D01*
X187022453Y-126423139D01*
X187005209Y-126428006D01*
X186986035Y-126431005D01*
X186964882Y-126432482D01*
X186941700Y-126432783D01*
X186916439Y-126432254D01*
X186859485Y-126430087D01*
X186793625Y-126428750D01*
X186486709Y-126428750D01*
X186454959Y-126121833D01*
X186438258Y-125969202D01*
X186420563Y-125773906D01*
X186386166Y-125354542D01*
X186377785Y-125261834D01*
X186368721Y-125175452D01*
X186359285Y-125097255D01*
X186349787Y-125029105D01*
X186345111Y-124999378D01*
X186340537Y-124972860D01*
X186336102Y-124949784D01*
X186331845Y-124930382D01*
X186327805Y-124914887D01*
X186324021Y-124903531D01*
X186322237Y-124899478D01*
X186320532Y-124896547D01*
X186318910Y-124894767D01*
X186317376Y-124894167D01*
X186313059Y-124898073D01*
X186306162Y-124909536D01*
X186285212Y-124953616D01*
X186255705Y-125023368D01*
X186218818Y-125115756D01*
X186127619Y-125356278D01*
X186021041Y-125650876D01*
X185756459Y-126402292D01*
X185565958Y-126418167D01*
X185375460Y-126434042D01*
X185126751Y-125767292D01*
X185030177Y-125495846D01*
X184945511Y-125254662D01*
X184882672Y-125070032D01*
X184862539Y-125007142D01*
X184851583Y-124968251D01*
X184838990Y-124922009D01*
X184826985Y-124886550D01*
X184815539Y-124861989D01*
X184804620Y-124848444D01*
X184799348Y-124845838D01*
X184794197Y-124846029D01*
X184789162Y-124849032D01*
X184784239Y-124854862D01*
X184774715Y-124875058D01*
X184765594Y-124906735D01*
X184756845Y-124950007D01*
X184748437Y-125004992D01*
X184732521Y-125150565D01*
X184717597Y-125344382D01*
X184703417Y-125587375D01*
X184696782Y-125738901D01*
X184689030Y-125881807D01*
X184680535Y-126012931D01*
X184671667Y-126129110D01*
X184662799Y-126227181D01*
X184654304Y-126303983D01*
X184646552Y-126356352D01*
X184643072Y-126372386D01*
X184639917Y-126381126D01*
X184635297Y-126386021D01*
X184627514Y-126390768D01*
X184616755Y-126395346D01*
X184603206Y-126399729D01*
X184587052Y-126403896D01*
X184568479Y-126407822D01*
X184524823Y-126414860D01*
X184473726Y-126420658D01*
X184416675Y-126425030D01*
X184355159Y-126427789D01*
X184290667Y-126428750D01*
X183967875Y-126428750D01*
X183999626Y-126148292D01*
X184020048Y-125969533D01*
X184047912Y-125682625D01*
X184116042Y-124947084D01*
X184149033Y-124572285D01*
X184181527Y-124234693D01*
X184209060Y-123971515D01*
X184227167Y-123819959D01*
X184258918Y-123618875D01*
X184608167Y-123634750D01*
G37*
G36*
X183772084Y-123888750D02*
G01*
X183772084Y-124153334D01*
X183295833Y-124153334D01*
X182819583Y-124153334D01*
X182819583Y-124444375D01*
X182819583Y-124735417D01*
X183269375Y-124735417D01*
X183719166Y-124735417D01*
X183719166Y-125026459D01*
X183719166Y-125317500D01*
X183269375Y-125317500D01*
X182819583Y-125317500D01*
X182819583Y-125582084D01*
X182819583Y-125841375D01*
X183285251Y-125857250D01*
X183745625Y-125873125D01*
X183761502Y-126148292D01*
X183777376Y-126428750D01*
X182957167Y-126428750D01*
X182131667Y-126428750D01*
X182131667Y-125063500D01*
X182132391Y-124788158D01*
X182134478Y-124529621D01*
X182137806Y-124293780D01*
X182142251Y-124086526D01*
X182147687Y-123913751D01*
X182153992Y-123781346D01*
X182161041Y-123695201D01*
X182164805Y-123671318D01*
X182166741Y-123664495D01*
X182168709Y-123661208D01*
X182175770Y-123657304D01*
X182190713Y-123653540D01*
X182242544Y-123646491D01*
X182320793Y-123640187D01*
X182422047Y-123634750D01*
X182679934Y-123626978D01*
X182988918Y-123624167D01*
X183772084Y-123624167D01*
X183772084Y-123888750D01*
G37*
G36*
X192971947Y-123578836D02*
G01*
X193032501Y-123581833D01*
X193323543Y-123597709D01*
X193339418Y-125010583D01*
X193349999Y-126428750D01*
X193006042Y-126428750D01*
X192662083Y-126428750D01*
X192662083Y-125037042D01*
X192662807Y-124755995D01*
X192664895Y-124492248D01*
X192668223Y-124251695D01*
X192672667Y-124040224D01*
X192678103Y-123863729D01*
X192684408Y-123728099D01*
X192691457Y-123639226D01*
X192695221Y-123614164D01*
X192699126Y-123603000D01*
X192704555Y-123599158D01*
X192712799Y-123595580D01*
X192723694Y-123592280D01*
X192737077Y-123589275D01*
X192752785Y-123586580D01*
X192770656Y-123584211D01*
X192812235Y-123580511D01*
X192860511Y-123578299D01*
X192914183Y-123577699D01*
X192971947Y-123578836D01*
G37*
G36*
X191064001Y-123581833D02*
G01*
X191365626Y-123597709D01*
X191381501Y-124719542D01*
X191392084Y-125846667D01*
X191868333Y-125846667D01*
X192344583Y-125846667D01*
X192344583Y-126137709D01*
X192344583Y-126428750D01*
X191550835Y-126428750D01*
X190757084Y-126428750D01*
X190757084Y-125000000D01*
X190757084Y-123565959D01*
X191064001Y-123581833D01*
G37*
G36*
X190005667Y-123581833D02*
G01*
X190307292Y-123597709D01*
X190323167Y-125010583D01*
X190333751Y-126428750D01*
X190016250Y-126428750D01*
X189698750Y-126428750D01*
X189698750Y-125000000D01*
X189698750Y-123565959D01*
X190005667Y-123581833D01*
G37*
G36*
X188585516Y-123576542D02*
G01*
X188674393Y-123584588D01*
X188762115Y-123596758D01*
X188847465Y-123612958D01*
X188929226Y-123633097D01*
X189006181Y-123657080D01*
X189077113Y-123684814D01*
X189140805Y-123716208D01*
X189169556Y-123733248D01*
X189196041Y-123751167D01*
X189214641Y-123764326D01*
X189230737Y-123776323D01*
X189244306Y-123787607D01*
X189255325Y-123798627D01*
X189259871Y-123804178D01*
X189263770Y-123809833D01*
X189267021Y-123815646D01*
X189269619Y-123821674D01*
X189271562Y-123827974D01*
X189272848Y-123834601D01*
X189273472Y-123841612D01*
X189273433Y-123849063D01*
X189272727Y-123857010D01*
X189271352Y-123865509D01*
X189266581Y-123884389D01*
X189259097Y-123906152D01*
X189248877Y-123931249D01*
X189235897Y-123960128D01*
X189220134Y-123993240D01*
X189180168Y-124073959D01*
X189163722Y-124107208D01*
X189148066Y-124137552D01*
X189133124Y-124165058D01*
X189118817Y-124189797D01*
X189105068Y-124211838D01*
X189098379Y-124221869D01*
X189091800Y-124231251D01*
X189085322Y-124239995D01*
X189078935Y-124248107D01*
X189072630Y-124255597D01*
X189066396Y-124262474D01*
X189060224Y-124268747D01*
X189054104Y-124274423D01*
X189048028Y-124279512D01*
X189041984Y-124284023D01*
X189035963Y-124287964D01*
X189029956Y-124291344D01*
X189023953Y-124294172D01*
X189017944Y-124296457D01*
X189011919Y-124298206D01*
X189005870Y-124299429D01*
X188999785Y-124300135D01*
X188993656Y-124300332D01*
X188987473Y-124300029D01*
X188981225Y-124299235D01*
X188974905Y-124297959D01*
X188968500Y-124296208D01*
X188890900Y-124270023D01*
X188820478Y-124246961D01*
X188756723Y-124226922D01*
X188699122Y-124209806D01*
X188647164Y-124195511D01*
X188600337Y-124183936D01*
X188558130Y-124174982D01*
X188520032Y-124168547D01*
X188502363Y-124166243D01*
X188485530Y-124164531D01*
X188469468Y-124163398D01*
X188454113Y-124162832D01*
X188439402Y-124162820D01*
X188425270Y-124163350D01*
X188411654Y-124164409D01*
X188398489Y-124165984D01*
X188385711Y-124168063D01*
X188373257Y-124170634D01*
X188361063Y-124173683D01*
X188349065Y-124177198D01*
X188325399Y-124185576D01*
X188301749Y-124195667D01*
X188284508Y-124203795D01*
X188268491Y-124212327D01*
X188253683Y-124221293D01*
X188240069Y-124230724D01*
X188227633Y-124240651D01*
X188216360Y-124251105D01*
X188206234Y-124262117D01*
X188201596Y-124267843D01*
X188197239Y-124273719D01*
X188193162Y-124279750D01*
X188189361Y-124285940D01*
X188185836Y-124292293D01*
X188182584Y-124298813D01*
X188179603Y-124305503D01*
X188176892Y-124312368D01*
X188174448Y-124319410D01*
X188172269Y-124326635D01*
X188168701Y-124341648D01*
X188166171Y-124357435D01*
X188164665Y-124374028D01*
X188164166Y-124391459D01*
X188164899Y-124411594D01*
X188167298Y-124430505D01*
X188171666Y-124448455D01*
X188178305Y-124465707D01*
X188187518Y-124482525D01*
X188199606Y-124499173D01*
X188214873Y-124515914D01*
X188233620Y-124533011D01*
X188256149Y-124550728D01*
X188282764Y-124569329D01*
X188313766Y-124589077D01*
X188349458Y-124610236D01*
X188390142Y-124633069D01*
X188436120Y-124657840D01*
X188545167Y-124714250D01*
X188663562Y-124775103D01*
X188771004Y-124832972D01*
X188867950Y-124888344D01*
X188954858Y-124941709D01*
X189032186Y-124993555D01*
X189067399Y-125019061D01*
X189100389Y-125044370D01*
X189131213Y-125069543D01*
X189159927Y-125094642D01*
X189186589Y-125119727D01*
X189211256Y-125144860D01*
X189233985Y-125170101D01*
X189254833Y-125195512D01*
X189273858Y-125221153D01*
X189291116Y-125247086D01*
X189306666Y-125273372D01*
X189320563Y-125300071D01*
X189332865Y-125327245D01*
X189343630Y-125354955D01*
X189352914Y-125383262D01*
X189360775Y-125412227D01*
X189367269Y-125441911D01*
X189372455Y-125472374D01*
X189376388Y-125503679D01*
X189379127Y-125535886D01*
X189380729Y-125569056D01*
X189381250Y-125603250D01*
X189380555Y-125640701D01*
X189378484Y-125677633D01*
X189375054Y-125714022D01*
X189370284Y-125749846D01*
X189364193Y-125785080D01*
X189356798Y-125819702D01*
X189348118Y-125853688D01*
X189338172Y-125887016D01*
X189326979Y-125919661D01*
X189314555Y-125951601D01*
X189300920Y-125982812D01*
X189286093Y-126013272D01*
X189270091Y-126042956D01*
X189252934Y-126071842D01*
X189234638Y-126099906D01*
X189215224Y-126127125D01*
X189194709Y-126153476D01*
X189173112Y-126178936D01*
X189150450Y-126203481D01*
X189126744Y-126227088D01*
X189102010Y-126249734D01*
X189076267Y-126271395D01*
X189049535Y-126292049D01*
X189021830Y-126311672D01*
X188993172Y-126330241D01*
X188963579Y-126347732D01*
X188933069Y-126364122D01*
X188901662Y-126379389D01*
X188869374Y-126393508D01*
X188836225Y-126406457D01*
X188802233Y-126418212D01*
X188767416Y-126428750D01*
X188723097Y-126440306D01*
X188676597Y-126450196D01*
X188577878Y-126465130D01*
X188472912Y-126473864D01*
X188363349Y-126476706D01*
X188250841Y-126473967D01*
X188137038Y-126465957D01*
X188023591Y-126452987D01*
X187912152Y-126435365D01*
X187804372Y-126413402D01*
X187701902Y-126387409D01*
X187606392Y-126357695D01*
X187519494Y-126324571D01*
X187442859Y-126288346D01*
X187408906Y-126269167D01*
X187378138Y-126249330D01*
X187350761Y-126228873D01*
X187326981Y-126207834D01*
X187307006Y-126186252D01*
X187291041Y-126164167D01*
X187287942Y-126157062D01*
X187286521Y-126147760D01*
X187286692Y-126136419D01*
X187288365Y-126123198D01*
X187295867Y-126091753D01*
X187308322Y-126054696D01*
X187325026Y-126013298D01*
X187345271Y-125968830D01*
X187368354Y-125922564D01*
X187393568Y-125875771D01*
X187420209Y-125829723D01*
X187447570Y-125785689D01*
X187474947Y-125744942D01*
X187501634Y-125708753D01*
X187526925Y-125678393D01*
X187550116Y-125655134D01*
X187560704Y-125646564D01*
X187570501Y-125640246D01*
X187579421Y-125636338D01*
X187587375Y-125635000D01*
X187593307Y-125635490D01*
X187601100Y-125636933D01*
X187621771Y-125642525D01*
X187648395Y-125651465D01*
X187679980Y-125663443D01*
X187715534Y-125678150D01*
X187754064Y-125695276D01*
X187794578Y-125714510D01*
X187836085Y-125735542D01*
X187877966Y-125755604D01*
X187919241Y-125774120D01*
X187959863Y-125791095D01*
X187999785Y-125806535D01*
X188038959Y-125820444D01*
X188077337Y-125832827D01*
X188114873Y-125843688D01*
X188151517Y-125853034D01*
X188187224Y-125860867D01*
X188221946Y-125867194D01*
X188255634Y-125872019D01*
X188288243Y-125875348D01*
X188319723Y-125877184D01*
X188350028Y-125877532D01*
X188379110Y-125876398D01*
X188406922Y-125873787D01*
X188433417Y-125869703D01*
X188458546Y-125864151D01*
X188482262Y-125857135D01*
X188504518Y-125848662D01*
X188525267Y-125838735D01*
X188544460Y-125827360D01*
X188562051Y-125814540D01*
X188577992Y-125800282D01*
X188592235Y-125784590D01*
X188604733Y-125767469D01*
X188615438Y-125748924D01*
X188624304Y-125728959D01*
X188631282Y-125707579D01*
X188636325Y-125684789D01*
X188639386Y-125660595D01*
X188640417Y-125635000D01*
X188639942Y-125611147D01*
X188638360Y-125589029D01*
X188635429Y-125568400D01*
X188630908Y-125549011D01*
X188624559Y-125530614D01*
X188620623Y-125521710D01*
X188616139Y-125512961D01*
X188611079Y-125504336D01*
X188605410Y-125495805D01*
X188592131Y-125478896D01*
X188576061Y-125461987D01*
X188556960Y-125444831D01*
X188534588Y-125427178D01*
X188508705Y-125408781D01*
X188479069Y-125389392D01*
X188445442Y-125368763D01*
X188407583Y-125346646D01*
X188365250Y-125322792D01*
X188261692Y-125265086D01*
X188168807Y-125212628D01*
X188085860Y-125164837D01*
X188012114Y-125121130D01*
X187946832Y-125080927D01*
X187889279Y-125043646D01*
X187838717Y-125008707D01*
X187794411Y-124975526D01*
X187774374Y-124959415D01*
X187755624Y-124943525D01*
X187738070Y-124927784D01*
X187721620Y-124912119D01*
X187706181Y-124896459D01*
X187691661Y-124880730D01*
X187677970Y-124864859D01*
X187665013Y-124848775D01*
X187652700Y-124832403D01*
X187640938Y-124815672D01*
X187618701Y-124780841D01*
X187597564Y-124743700D01*
X187576791Y-124703667D01*
X187560899Y-124668387D01*
X187546949Y-124633012D01*
X187534932Y-124597572D01*
X187524836Y-124562094D01*
X187516650Y-124526609D01*
X187510365Y-124491145D01*
X187505969Y-124455731D01*
X187503452Y-124420397D01*
X187502803Y-124385172D01*
X187504011Y-124350084D01*
X187507066Y-124315162D01*
X187511958Y-124280437D01*
X187518675Y-124245936D01*
X187527206Y-124211689D01*
X187537542Y-124177725D01*
X187549671Y-124144073D01*
X187563583Y-124110762D01*
X187579268Y-124077821D01*
X187596714Y-124045280D01*
X187615910Y-124013166D01*
X187636847Y-123981510D01*
X187659514Y-123950341D01*
X187683899Y-123919687D01*
X187709993Y-123889577D01*
X187737784Y-123860041D01*
X187767262Y-123831108D01*
X187798417Y-123802806D01*
X187831237Y-123775165D01*
X187865712Y-123748215D01*
X187901831Y-123721983D01*
X187939584Y-123696499D01*
X187978960Y-123671792D01*
X188004964Y-123657031D01*
X188033265Y-123643499D01*
X188096151Y-123620074D01*
X188166401Y-123601424D01*
X188242798Y-123587456D01*
X188324125Y-123578077D01*
X188409165Y-123573193D01*
X188496701Y-123572713D01*
X188585516Y-123576542D01*
G37*
G36*
X180173750Y-124153334D02*
G01*
X180173750Y-124735417D01*
X180623542Y-124735417D01*
X181068042Y-124735417D01*
X181083917Y-124163917D01*
X181099791Y-123597709D01*
X181417291Y-123597709D01*
X181734792Y-123597709D01*
X181750668Y-125010583D01*
X181761251Y-126428750D01*
X181417291Y-126428750D01*
X181073334Y-126428750D01*
X181073334Y-125873125D01*
X181073334Y-125317500D01*
X180623542Y-125317500D01*
X180173750Y-125317500D01*
X180173750Y-125873125D01*
X180173750Y-126428750D01*
X179856250Y-126428750D01*
X179538750Y-126428750D01*
X179538750Y-125037042D01*
X179539473Y-124756005D01*
X179541561Y-124492331D01*
X179544889Y-124251974D01*
X179549333Y-124040886D01*
X179554769Y-123865020D01*
X179561074Y-123730331D01*
X179568123Y-123642770D01*
X179571888Y-123618524D01*
X179575792Y-123608292D01*
X179580230Y-123604388D01*
X179587481Y-123600623D01*
X179597384Y-123597013D01*
X179609774Y-123593574D01*
X179624491Y-123590321D01*
X179641369Y-123587270D01*
X179680964Y-123581834D01*
X179727256Y-123577389D01*
X179778942Y-123574061D01*
X179834722Y-123571974D01*
X179893292Y-123571250D01*
X180173750Y-123571250D01*
X180173750Y-124153334D01*
G37*
G36*
X178465089Y-123544502D02*
G01*
X178497749Y-123545619D01*
X178529372Y-123547479D01*
X178559792Y-123550083D01*
X178617521Y-123558467D01*
X178677087Y-123569524D01*
X178737723Y-123582954D01*
X178798661Y-123598453D01*
X178859134Y-123615719D01*
X178918374Y-123634451D01*
X178975615Y-123654345D01*
X179030088Y-123675099D01*
X179081027Y-123696412D01*
X179127664Y-123717980D01*
X179169231Y-123739502D01*
X179204962Y-123760675D01*
X179220398Y-123771037D01*
X179234088Y-123781197D01*
X179245934Y-123791120D01*
X179255842Y-123800766D01*
X179263715Y-123810098D01*
X179269458Y-123819079D01*
X179272973Y-123827670D01*
X179274167Y-123835834D01*
X179272016Y-123848866D01*
X179265888Y-123869403D01*
X179243657Y-123928769D01*
X179211380Y-124005498D01*
X179172964Y-124091156D01*
X179132315Y-124177311D01*
X179093341Y-124255529D01*
X179059947Y-124317375D01*
X179046564Y-124339524D01*
X179036041Y-124354417D01*
X179034074Y-124354981D01*
X179030223Y-124354717D01*
X179017273Y-124351854D01*
X178997998Y-124346138D01*
X178973203Y-124337880D01*
X178943696Y-124327390D01*
X178910282Y-124314977D01*
X178834958Y-124285625D01*
X178796386Y-124270661D01*
X178757125Y-124257503D01*
X178717261Y-124246128D01*
X178676880Y-124236512D01*
X178636069Y-124228633D01*
X178594915Y-124222466D01*
X178553502Y-124217990D01*
X178511919Y-124215180D01*
X178470249Y-124214013D01*
X178428581Y-124214467D01*
X178387000Y-124216517D01*
X178345593Y-124220141D01*
X178304445Y-124225315D01*
X178263643Y-124232016D01*
X178223273Y-124240221D01*
X178183422Y-124249907D01*
X178144175Y-124261049D01*
X178105619Y-124273626D01*
X178067840Y-124287614D01*
X178030925Y-124302989D01*
X177994959Y-124319728D01*
X177960029Y-124337808D01*
X177926221Y-124357206D01*
X177893621Y-124377899D01*
X177862315Y-124399863D01*
X177832391Y-124423074D01*
X177803933Y-124447511D01*
X177777028Y-124473149D01*
X177751763Y-124499965D01*
X177728224Y-124527936D01*
X177706496Y-124557039D01*
X177686667Y-124587250D01*
X177661552Y-124632927D01*
X177639786Y-124682294D01*
X177621369Y-124734823D01*
X177606300Y-124789987D01*
X177594580Y-124847260D01*
X177586208Y-124906115D01*
X177581185Y-124966023D01*
X177579511Y-125026459D01*
X177581185Y-125086894D01*
X177586208Y-125146803D01*
X177594580Y-125205657D01*
X177606300Y-125262930D01*
X177621369Y-125318095D01*
X177639786Y-125370624D01*
X177661552Y-125419990D01*
X177686667Y-125465667D01*
X177727953Y-125525503D01*
X177774362Y-125579975D01*
X177825810Y-125629052D01*
X177882211Y-125672703D01*
X177943480Y-125710897D01*
X178009531Y-125743603D01*
X178080280Y-125770790D01*
X178155641Y-125792427D01*
X178235529Y-125808483D01*
X178319858Y-125818927D01*
X178408544Y-125823728D01*
X178501501Y-125822854D01*
X178598644Y-125816276D01*
X178699887Y-125803961D01*
X178805145Y-125785880D01*
X178914334Y-125762000D01*
X178937009Y-125757627D01*
X178957576Y-125754548D01*
X178976283Y-125752943D01*
X178985016Y-125752748D01*
X178993378Y-125752988D01*
X179001398Y-125753685D01*
X179009108Y-125754863D01*
X179016539Y-125756542D01*
X179023722Y-125758745D01*
X179030688Y-125761494D01*
X179037468Y-125764813D01*
X179044093Y-125768722D01*
X179050594Y-125773245D01*
X179057002Y-125778404D01*
X179063348Y-125784220D01*
X179069663Y-125790717D01*
X179075977Y-125797916D01*
X179088731Y-125814510D01*
X179101857Y-125834182D01*
X179115603Y-125857110D01*
X179130217Y-125883471D01*
X179145948Y-125913444D01*
X179163042Y-125947208D01*
X179174755Y-125969075D01*
X179186049Y-125990927D01*
X179196877Y-126012623D01*
X179207194Y-126034025D01*
X179216954Y-126054993D01*
X179226108Y-126075387D01*
X179234611Y-126095068D01*
X179242417Y-126113896D01*
X179249478Y-126131732D01*
X179255749Y-126148436D01*
X179261183Y-126163870D01*
X179265733Y-126177892D01*
X179269353Y-126190364D01*
X179271996Y-126201146D01*
X179273616Y-126210099D01*
X179274167Y-126217084D01*
X179273875Y-126220182D01*
X179273008Y-126223517D01*
X179269609Y-126230850D01*
X179264086Y-126238989D01*
X179256555Y-126247842D01*
X179247134Y-126257314D01*
X179235937Y-126267313D01*
X179223081Y-126277747D01*
X179208683Y-126288521D01*
X179192858Y-126299544D01*
X179175723Y-126310721D01*
X179157395Y-126321961D01*
X179137989Y-126333170D01*
X179117622Y-126344254D01*
X179096410Y-126355122D01*
X179074470Y-126365679D01*
X179051917Y-126375834D01*
X178994878Y-126398279D01*
X178931459Y-126417981D01*
X178862475Y-126434923D01*
X178788739Y-126449090D01*
X178711066Y-126460467D01*
X178630268Y-126469037D01*
X178547161Y-126474786D01*
X178462557Y-126477698D01*
X178377272Y-126477758D01*
X178292118Y-126474949D01*
X178207910Y-126469257D01*
X178125462Y-126460666D01*
X178045587Y-126449160D01*
X177969099Y-126434724D01*
X177896812Y-126417343D01*
X177829541Y-126397000D01*
X177780611Y-126379359D01*
X177732096Y-126359246D01*
X177684072Y-126336760D01*
X177636613Y-126312003D01*
X177543687Y-126256079D01*
X177453916Y-126192279D01*
X177367897Y-126121410D01*
X177286226Y-126044278D01*
X177209501Y-125961689D01*
X177138318Y-125874449D01*
X177073274Y-125783364D01*
X177014966Y-125689240D01*
X176963991Y-125592884D01*
X176920946Y-125495102D01*
X176886427Y-125396700D01*
X176872552Y-125347518D01*
X176861032Y-125298484D01*
X176851942Y-125249697D01*
X176845357Y-125201259D01*
X176841352Y-125153271D01*
X176840000Y-125105834D01*
X176841312Y-125037364D01*
X176845229Y-124969892D01*
X176851720Y-124903458D01*
X176860753Y-124838098D01*
X176872298Y-124773851D01*
X176886323Y-124710753D01*
X176902797Y-124648844D01*
X176921690Y-124588160D01*
X176942970Y-124528740D01*
X176966607Y-124470620D01*
X176992569Y-124413841D01*
X177020826Y-124358437D01*
X177051346Y-124304449D01*
X177084099Y-124251913D01*
X177119053Y-124200867D01*
X177156177Y-124151349D01*
X177195441Y-124103397D01*
X177236813Y-124057049D01*
X177280262Y-124012342D01*
X177325758Y-123969314D01*
X177373270Y-123928003D01*
X177422765Y-123888447D01*
X177474215Y-123850683D01*
X177527586Y-123814750D01*
X177582849Y-123780684D01*
X177639972Y-123748525D01*
X177698924Y-123718309D01*
X177759675Y-123690075D01*
X177822193Y-123663860D01*
X177886448Y-123639702D01*
X177952408Y-123617639D01*
X178020042Y-123597709D01*
X178051393Y-123589151D01*
X178083821Y-123581338D01*
X178117164Y-123574268D01*
X178151259Y-123567943D01*
X178185943Y-123562362D01*
X178221053Y-123557525D01*
X178291901Y-123550084D01*
X178362502Y-123545619D01*
X178431552Y-123544130D01*
X178465089Y-123544502D01*
G37*
G36*
X185613963Y-122511468D02*
G01*
X185634750Y-122514240D01*
X185655104Y-122518407D01*
X185674916Y-122523950D01*
X185694081Y-122530849D01*
X185712492Y-122539086D01*
X185730043Y-122548640D01*
X185746627Y-122559493D01*
X185762138Y-122571625D01*
X185776468Y-122585016D01*
X185789511Y-122599647D01*
X185801161Y-122615500D01*
X185811312Y-122632554D01*
X185819855Y-122650790D01*
X185826686Y-122670188D01*
X185831697Y-122690730D01*
X185834782Y-122712396D01*
X185835834Y-122735167D01*
X185835322Y-122748445D01*
X185833725Y-122760530D01*
X185830950Y-122771467D01*
X185829092Y-122776520D01*
X185826904Y-122781304D01*
X185824375Y-122785824D01*
X185821493Y-122790086D01*
X185818248Y-122794096D01*
X185814626Y-122797861D01*
X185810616Y-122801385D01*
X185806208Y-122804674D01*
X185801388Y-122807735D01*
X185796146Y-122810573D01*
X185784348Y-122815604D01*
X185770721Y-122819813D01*
X185755172Y-122823247D01*
X185737607Y-122825952D01*
X185717934Y-122827975D01*
X185696059Y-122829363D01*
X185671890Y-122830161D01*
X185645333Y-122830417D01*
X185634125Y-122830479D01*
X185623321Y-122830664D01*
X185612925Y-122830971D01*
X185602938Y-122831399D01*
X185593361Y-122831947D01*
X185584197Y-122832614D01*
X185575448Y-122833400D01*
X185567116Y-122834303D01*
X185559202Y-122835322D01*
X185551709Y-122836457D01*
X185544638Y-122837705D01*
X185537991Y-122839068D01*
X185531771Y-122840542D01*
X185525979Y-122842128D01*
X185520617Y-122843825D01*
X185515688Y-122845630D01*
X185511192Y-122847545D01*
X185507133Y-122849567D01*
X185503511Y-122851696D01*
X185500330Y-122853930D01*
X185497590Y-122856269D01*
X185495294Y-122858711D01*
X185493443Y-122861256D01*
X185492041Y-122863903D01*
X185491088Y-122866651D01*
X185490586Y-122869499D01*
X185490538Y-122872445D01*
X185490945Y-122875489D01*
X185491810Y-122878630D01*
X185493134Y-122881867D01*
X185494919Y-122885199D01*
X185497167Y-122888625D01*
X185498824Y-122891540D01*
X185500809Y-122894329D01*
X185503110Y-122896992D01*
X185505714Y-122899529D01*
X185511783Y-122904217D01*
X185518913Y-122908386D01*
X185527004Y-122912028D01*
X185535955Y-122915135D01*
X185545667Y-122917700D01*
X185556037Y-122919714D01*
X185566965Y-122921170D01*
X185578351Y-122922060D01*
X185590093Y-122922376D01*
X185602091Y-122922112D01*
X185614244Y-122921258D01*
X185626451Y-122919807D01*
X185638611Y-122917751D01*
X185650625Y-122915083D01*
X185664265Y-122911933D01*
X185677393Y-122909417D01*
X185689995Y-122907517D01*
X185702053Y-122906216D01*
X185713554Y-122905496D01*
X185724481Y-122905340D01*
X185734819Y-122905730D01*
X185744552Y-122906650D01*
X185753665Y-122908081D01*
X185762143Y-122910006D01*
X185769969Y-122912408D01*
X185777129Y-122915270D01*
X185783607Y-122918573D01*
X185789387Y-122922300D01*
X185794454Y-122926435D01*
X185798792Y-122930959D01*
X185802386Y-122935855D01*
X185805220Y-122941105D01*
X185807280Y-122946693D01*
X185808548Y-122952601D01*
X185809011Y-122958811D01*
X185808652Y-122965305D01*
X185807455Y-122972068D01*
X185805406Y-122979080D01*
X185802489Y-122986324D01*
X185798688Y-122993784D01*
X185793988Y-123001442D01*
X185788374Y-123009279D01*
X185781829Y-123017280D01*
X185774338Y-123025426D01*
X185765887Y-123033699D01*
X185756459Y-123042084D01*
X185744716Y-123051046D01*
X185732340Y-123059090D01*
X185719381Y-123066228D01*
X185705888Y-123072469D01*
X185691911Y-123077828D01*
X185677498Y-123082314D01*
X185662700Y-123085940D01*
X185647566Y-123088717D01*
X185632145Y-123090656D01*
X185616487Y-123091771D01*
X185600640Y-123092071D01*
X185584655Y-123091569D01*
X185568581Y-123090276D01*
X185552467Y-123088205D01*
X185536363Y-123085366D01*
X185520318Y-123081771D01*
X185504382Y-123077432D01*
X185488603Y-123072361D01*
X185473032Y-123066569D01*
X185457717Y-123060067D01*
X185442709Y-123052868D01*
X185428056Y-123044983D01*
X185413809Y-123036423D01*
X185400015Y-123027201D01*
X185386726Y-123017327D01*
X185373990Y-123006814D01*
X185361856Y-122995674D01*
X185350375Y-122983917D01*
X185339595Y-122971555D01*
X185329566Y-122958600D01*
X185320337Y-122945064D01*
X185311959Y-122930959D01*
X185299869Y-122908275D01*
X185289407Y-122887654D01*
X185280589Y-122868800D01*
X185273429Y-122851418D01*
X185270476Y-122843188D01*
X185267944Y-122835215D01*
X185265834Y-122827463D01*
X185264148Y-122819896D01*
X185262889Y-122812475D01*
X185262058Y-122805165D01*
X185261657Y-122797929D01*
X185261689Y-122790730D01*
X185262154Y-122783530D01*
X185263056Y-122776294D01*
X185264395Y-122768984D01*
X185266174Y-122761563D01*
X185268396Y-122753996D01*
X185271060Y-122746244D01*
X185274171Y-122738271D01*
X185277729Y-122730041D01*
X185286197Y-122712659D01*
X185296478Y-122693805D01*
X185302254Y-122683968D01*
X185487861Y-122683968D01*
X185487864Y-122686375D01*
X185488128Y-122688753D01*
X185488651Y-122691097D01*
X185489429Y-122693403D01*
X185490461Y-122695664D01*
X185491742Y-122697877D01*
X185493271Y-122700037D01*
X185495043Y-122702139D01*
X185497057Y-122704178D01*
X185499310Y-122706149D01*
X185501797Y-122708047D01*
X185504518Y-122709868D01*
X185507467Y-122711606D01*
X185514045Y-122714817D01*
X185521505Y-122717640D01*
X185529826Y-122720036D01*
X185538985Y-122721968D01*
X185548957Y-122723395D01*
X185559720Y-122724280D01*
X185571250Y-122724584D01*
X185577109Y-122724507D01*
X185582780Y-122724280D01*
X185588259Y-122723908D01*
X185593543Y-122723395D01*
X185598630Y-122722747D01*
X185603516Y-122721968D01*
X185608198Y-122721062D01*
X185612674Y-122720036D01*
X185616941Y-122718894D01*
X185620995Y-122717640D01*
X185624835Y-122716279D01*
X185628456Y-122714817D01*
X185631857Y-122713258D01*
X185635033Y-122711606D01*
X185637983Y-122709868D01*
X185640704Y-122708047D01*
X185643191Y-122706149D01*
X185645444Y-122704178D01*
X185647458Y-122702139D01*
X185649230Y-122700037D01*
X185650759Y-122697877D01*
X185652040Y-122695664D01*
X185653072Y-122693403D01*
X185653850Y-122691097D01*
X185654373Y-122688753D01*
X185654637Y-122686375D01*
X185654639Y-122683968D01*
X185654377Y-122681537D01*
X185653847Y-122679087D01*
X185653047Y-122676622D01*
X185651974Y-122674147D01*
X185650625Y-122671667D01*
X185649075Y-122668722D01*
X185647408Y-122665841D01*
X185643742Y-122660278D01*
X185639672Y-122654994D01*
X185635246Y-122650004D01*
X185630510Y-122645325D01*
X185625510Y-122640971D01*
X185620294Y-122636959D01*
X185614906Y-122633303D01*
X185609395Y-122630018D01*
X185603806Y-122627122D01*
X185598186Y-122624629D01*
X185592582Y-122622554D01*
X185587040Y-122620913D01*
X185581606Y-122619722D01*
X185576327Y-122618996D01*
X185571250Y-122618750D01*
X185568739Y-122618812D01*
X185566173Y-122618996D01*
X185563556Y-122619300D01*
X185560894Y-122619722D01*
X185555460Y-122620913D01*
X185549918Y-122622554D01*
X185544314Y-122624629D01*
X185538694Y-122627122D01*
X185533105Y-122630018D01*
X185527594Y-122633303D01*
X185522207Y-122636959D01*
X185516990Y-122640971D01*
X185511990Y-122645325D01*
X185509586Y-122647625D01*
X185507254Y-122650004D01*
X185504999Y-122652461D01*
X185502828Y-122654994D01*
X185500746Y-122657600D01*
X185498758Y-122660278D01*
X185496872Y-122663025D01*
X185495092Y-122665841D01*
X185493424Y-122668722D01*
X185491875Y-122671667D01*
X185490525Y-122674147D01*
X185489452Y-122676622D01*
X185488653Y-122679087D01*
X185488123Y-122681537D01*
X185487861Y-122683968D01*
X185302254Y-122683968D01*
X185308588Y-122673184D01*
X185322543Y-122650500D01*
X185337052Y-122630018D01*
X185352725Y-122611221D01*
X185369456Y-122594091D01*
X185387138Y-122578608D01*
X185405666Y-122564753D01*
X185424932Y-122552506D01*
X185444829Y-122541849D01*
X185465252Y-122532761D01*
X185486093Y-122525223D01*
X185507247Y-122519216D01*
X185528606Y-122514721D01*
X185550063Y-122511718D01*
X185571513Y-122510188D01*
X185592849Y-122510111D01*
X185613963Y-122511468D01*
G37*
G36*
X184256141Y-122513052D02*
G01*
X184264481Y-122514208D01*
X184273137Y-122516152D01*
X184282068Y-122518870D01*
X184291231Y-122522348D01*
X184300585Y-122526571D01*
X184310088Y-122531525D01*
X184319698Y-122537194D01*
X184329375Y-122543566D01*
X184339076Y-122550624D01*
X184348759Y-122558355D01*
X184358383Y-122566743D01*
X184367907Y-122575775D01*
X184377288Y-122585436D01*
X184386485Y-122595711D01*
X184395456Y-122606586D01*
X184404159Y-122618046D01*
X184412554Y-122630076D01*
X184420598Y-122642663D01*
X184428249Y-122655792D01*
X184502335Y-122803959D01*
X184571125Y-122655792D01*
X184578236Y-122640352D01*
X184585661Y-122625785D01*
X184593370Y-122612095D01*
X184601335Y-122599289D01*
X184609530Y-122587370D01*
X184617925Y-122576343D01*
X184626492Y-122566214D01*
X184635204Y-122556987D01*
X184644032Y-122548666D01*
X184652948Y-122541258D01*
X184661925Y-122534766D01*
X184670933Y-122529195D01*
X184679945Y-122524551D01*
X184688933Y-122520838D01*
X184697869Y-122518061D01*
X184706724Y-122516224D01*
X184715471Y-122515334D01*
X184724081Y-122515394D01*
X184732526Y-122516409D01*
X184740779Y-122518384D01*
X184748811Y-122521325D01*
X184756593Y-122525235D01*
X184764099Y-122530121D01*
X184771299Y-122535985D01*
X184778166Y-122542835D01*
X184784672Y-122550673D01*
X184790788Y-122559506D01*
X184796486Y-122569337D01*
X184801739Y-122580173D01*
X184806518Y-122592017D01*
X184810795Y-122604874D01*
X184814542Y-122618750D01*
X184817700Y-122629531D01*
X184821198Y-122640010D01*
X184825006Y-122650132D01*
X184829094Y-122659843D01*
X184833429Y-122669090D01*
X184837982Y-122677816D01*
X184842721Y-122685970D01*
X184845150Y-122689814D01*
X184847615Y-122693495D01*
X184850110Y-122697005D01*
X184852632Y-122700338D01*
X184855178Y-122703487D01*
X184857743Y-122706445D01*
X184860324Y-122709206D01*
X184862916Y-122711761D01*
X184865516Y-122714106D01*
X184868120Y-122716233D01*
X184870724Y-122718135D01*
X184873324Y-122719805D01*
X184875916Y-122721237D01*
X184878497Y-122722424D01*
X184881062Y-122723358D01*
X184883608Y-122724035D01*
X184886130Y-122724445D01*
X184888626Y-122724584D01*
X184890686Y-122724445D01*
X184892894Y-122724035D01*
X184897720Y-122722424D01*
X184903043Y-122719805D01*
X184908800Y-122716233D01*
X184914928Y-122711761D01*
X184921367Y-122706445D01*
X184928054Y-122700338D01*
X184934927Y-122693495D01*
X184941924Y-122685970D01*
X184948983Y-122677816D01*
X184956042Y-122669090D01*
X184963039Y-122659843D01*
X184969912Y-122650132D01*
X184976599Y-122640010D01*
X184983038Y-122629531D01*
X184989166Y-122618750D01*
X184995361Y-122608101D01*
X185002008Y-122597985D01*
X185009067Y-122588411D01*
X185016493Y-122579383D01*
X185024245Y-122570910D01*
X185032280Y-122562998D01*
X185040556Y-122555654D01*
X185049029Y-122548884D01*
X185057657Y-122542695D01*
X185066397Y-122537095D01*
X185075207Y-122532090D01*
X185084045Y-122527686D01*
X185092867Y-122523891D01*
X185101630Y-122520711D01*
X185110293Y-122518153D01*
X185118813Y-122516224D01*
X185127146Y-122514931D01*
X185135251Y-122514280D01*
X185143084Y-122514278D01*
X185150604Y-122514932D01*
X185157767Y-122516249D01*
X185164531Y-122518236D01*
X185170852Y-122520898D01*
X185176690Y-122524244D01*
X185182000Y-122528280D01*
X185186741Y-122533012D01*
X185190869Y-122538448D01*
X185194342Y-122544594D01*
X185197118Y-122551458D01*
X185199154Y-122559044D01*
X185200406Y-122567362D01*
X185200833Y-122576417D01*
X185200178Y-122586645D01*
X185198260Y-122598399D01*
X185190911Y-122626016D01*
X185179346Y-122658330D01*
X185164122Y-122694404D01*
X185145798Y-122733300D01*
X185124931Y-122774079D01*
X185102080Y-122815804D01*
X185077802Y-122857537D01*
X185052657Y-122898339D01*
X185027201Y-122937273D01*
X185001993Y-122973402D01*
X184977592Y-123005786D01*
X184954554Y-123033488D01*
X184933439Y-123055571D01*
X184923777Y-123064212D01*
X184914805Y-123071096D01*
X184906592Y-123076106D01*
X184899209Y-123079125D01*
X184896141Y-123079932D01*
X184892895Y-123080373D01*
X184889481Y-123080454D01*
X184885907Y-123080179D01*
X184882182Y-123079556D01*
X184878315Y-123078590D01*
X184870187Y-123075653D01*
X184861595Y-123071413D01*
X184852607Y-123065917D01*
X184843294Y-123059212D01*
X184833724Y-123051344D01*
X184823969Y-123042360D01*
X184814098Y-123032307D01*
X184804180Y-123021230D01*
X184794285Y-123009176D01*
X184784483Y-122996192D01*
X184774845Y-122982325D01*
X184765438Y-122967620D01*
X184756334Y-122952125D01*
X184682251Y-122803959D01*
X184624042Y-122952125D01*
X184620989Y-122959984D01*
X184617790Y-122967680D01*
X184614454Y-122975205D01*
X184610988Y-122982552D01*
X184603706Y-122996681D01*
X184596013Y-123010003D01*
X184587978Y-123022457D01*
X184579672Y-123033981D01*
X184575440Y-123039375D01*
X184571165Y-123044513D01*
X184566858Y-123049387D01*
X184562526Y-123053990D01*
X184558179Y-123058314D01*
X184553825Y-123062351D01*
X184549473Y-123066094D01*
X184545132Y-123069534D01*
X184540810Y-123072664D01*
X184536516Y-123075477D01*
X184532259Y-123077964D01*
X184528048Y-123080117D01*
X184523890Y-123081930D01*
X184519796Y-123083394D01*
X184515774Y-123084501D01*
X184511832Y-123085244D01*
X184507979Y-123085614D01*
X184504224Y-123085605D01*
X184500575Y-123085209D01*
X184497042Y-123084417D01*
X184489659Y-123080932D01*
X184481446Y-123075514D01*
X184462812Y-123059333D01*
X184441697Y-123036780D01*
X184418660Y-123008762D01*
X184394258Y-122976187D01*
X184369050Y-122939960D01*
X184343594Y-122900990D01*
X184318449Y-122860182D01*
X184294171Y-122818445D01*
X184271320Y-122776684D01*
X184250453Y-122735806D01*
X184232128Y-122696720D01*
X184216904Y-122660330D01*
X184205339Y-122627545D01*
X184197990Y-122599272D01*
X184196072Y-122587110D01*
X184195417Y-122576417D01*
X184195860Y-122565996D01*
X184197160Y-122556554D01*
X184199276Y-122548074D01*
X184202166Y-122540543D01*
X184205788Y-122533946D01*
X184210102Y-122528269D01*
X184215065Y-122523496D01*
X184220635Y-122519614D01*
X184226771Y-122516608D01*
X184233431Y-122514463D01*
X184240574Y-122513165D01*
X184248158Y-122512700D01*
X184256141Y-122513052D01*
G37*
G36*
X183808154Y-122517196D02*
G01*
X183833174Y-122519713D01*
X183858076Y-122523611D01*
X183882733Y-122528855D01*
X183907021Y-122535406D01*
X183930813Y-122543229D01*
X183953982Y-122552287D01*
X183976404Y-122562541D01*
X183997951Y-122573957D01*
X184018499Y-122586497D01*
X184037920Y-122600123D01*
X184056090Y-122614800D01*
X184072882Y-122630491D01*
X184088170Y-122647158D01*
X184101829Y-122664765D01*
X184113731Y-122683276D01*
X184123752Y-122702652D01*
X184131766Y-122722858D01*
X184137646Y-122743856D01*
X184141266Y-122765610D01*
X184142501Y-122788084D01*
X184141949Y-122801534D01*
X184140321Y-122815075D01*
X184137656Y-122828673D01*
X184133995Y-122842292D01*
X184129375Y-122855900D01*
X184123839Y-122869462D01*
X184117424Y-122882945D01*
X184110172Y-122896315D01*
X184102121Y-122909537D01*
X184093311Y-122922578D01*
X184073574Y-122947981D01*
X184051280Y-122972252D01*
X184026745Y-122995120D01*
X184000288Y-123016314D01*
X183972226Y-123035562D01*
X183942878Y-123052593D01*
X183912561Y-123067136D01*
X183897138Y-123073390D01*
X183881593Y-123078920D01*
X183865964Y-123083692D01*
X183850291Y-123087673D01*
X183834615Y-123090828D01*
X183818974Y-123093123D01*
X183803409Y-123094525D01*
X183787959Y-123095000D01*
X183761594Y-123094174D01*
X183736100Y-123091742D01*
X183711512Y-123087771D01*
X183687862Y-123082329D01*
X183665185Y-123075484D01*
X183643514Y-123067304D01*
X183622884Y-123057857D01*
X183603329Y-123047210D01*
X183584882Y-123035431D01*
X183567578Y-123022589D01*
X183551450Y-123008750D01*
X183536532Y-122993983D01*
X183522859Y-122978356D01*
X183510463Y-122961936D01*
X183499379Y-122944791D01*
X183489641Y-122926990D01*
X183481283Y-122908599D01*
X183474338Y-122889687D01*
X183468842Y-122870322D01*
X183464826Y-122850571D01*
X183462326Y-122830502D01*
X183461376Y-122810183D01*
X183461568Y-122803959D01*
X183666250Y-122803959D01*
X183666512Y-122824685D01*
X183667356Y-122843264D01*
X183668866Y-122859781D01*
X183669898Y-122867293D01*
X183671128Y-122874321D01*
X183672568Y-122880877D01*
X183674227Y-122886970D01*
X183676118Y-122892612D01*
X183678249Y-122897813D01*
X183680633Y-122902584D01*
X183683279Y-122906935D01*
X183686198Y-122910878D01*
X183689401Y-122914422D01*
X183692899Y-122917579D01*
X183696701Y-122920358D01*
X183700820Y-122922772D01*
X183705266Y-122924830D01*
X183710048Y-122926543D01*
X183715178Y-122927921D01*
X183720667Y-122928976D01*
X183726525Y-122929718D01*
X183732763Y-122930158D01*
X183739392Y-122930306D01*
X183746421Y-122930173D01*
X183753863Y-122929770D01*
X183770023Y-122928195D01*
X183787959Y-122925667D01*
X183801475Y-122923312D01*
X183807949Y-122921857D01*
X183814231Y-122920220D01*
X183820320Y-122918401D01*
X183826213Y-122916400D01*
X183831908Y-122914219D01*
X183837403Y-122911859D01*
X183842697Y-122909320D01*
X183847787Y-122906605D01*
X183852672Y-122903713D01*
X183857350Y-122900645D01*
X183861818Y-122897403D01*
X183866076Y-122893988D01*
X183870120Y-122890400D01*
X183873948Y-122886641D01*
X183877560Y-122882711D01*
X183880953Y-122878612D01*
X183884125Y-122874344D01*
X183887074Y-122869908D01*
X183889798Y-122865306D01*
X183892296Y-122860538D01*
X183894565Y-122855605D01*
X183896603Y-122850509D01*
X183898409Y-122845249D01*
X183899980Y-122839828D01*
X183901315Y-122834247D01*
X183902412Y-122828505D01*
X183903268Y-122822604D01*
X183903882Y-122816546D01*
X183904252Y-122810330D01*
X183904375Y-122803959D01*
X183904252Y-122797587D01*
X183903882Y-122791372D01*
X183903268Y-122785313D01*
X183902412Y-122779412D01*
X183901315Y-122773671D01*
X183899980Y-122768089D01*
X183898409Y-122762668D01*
X183896603Y-122757409D01*
X183894565Y-122752312D01*
X183892296Y-122747379D01*
X183889798Y-122742611D01*
X183887074Y-122738009D01*
X183884125Y-122733574D01*
X183880953Y-122729306D01*
X183877560Y-122725206D01*
X183873948Y-122721276D01*
X183870120Y-122717517D01*
X183866076Y-122713929D01*
X183861818Y-122710514D01*
X183857350Y-122707272D01*
X183852672Y-122704205D01*
X183847787Y-122701312D01*
X183842697Y-122698597D01*
X183837403Y-122696058D01*
X183831908Y-122693698D01*
X183826213Y-122691517D01*
X183814231Y-122687697D01*
X183801475Y-122684605D01*
X183787959Y-122682250D01*
X183770023Y-122679722D01*
X183753863Y-122678147D01*
X183739392Y-122677611D01*
X183732763Y-122677759D01*
X183726525Y-122678199D01*
X183720667Y-122678941D01*
X183715178Y-122679996D01*
X183710048Y-122681374D01*
X183705266Y-122683087D01*
X183700820Y-122685145D01*
X183696701Y-122687559D01*
X183692899Y-122690338D01*
X183689401Y-122693495D01*
X183686198Y-122697039D01*
X183683279Y-122700982D01*
X183680633Y-122705333D01*
X183678249Y-122710104D01*
X183676118Y-122715305D01*
X183674227Y-122720947D01*
X183672568Y-122727040D01*
X183671128Y-122733596D01*
X183668866Y-122748136D01*
X183667356Y-122764654D01*
X183666512Y-122783233D01*
X183666250Y-122803959D01*
X183461568Y-122803959D01*
X183462008Y-122789682D01*
X183464258Y-122769067D01*
X183468159Y-122748405D01*
X183473744Y-122727764D01*
X183481049Y-122707213D01*
X183490106Y-122686818D01*
X183500950Y-122666649D01*
X183513615Y-122646772D01*
X183528134Y-122627255D01*
X183544542Y-122608167D01*
X183561156Y-122591231D01*
X183579163Y-122576120D01*
X183598437Y-122562794D01*
X183618853Y-122551219D01*
X183640284Y-122541357D01*
X183662604Y-122533171D01*
X183685689Y-122526625D01*
X183709410Y-122521681D01*
X183733644Y-122518303D01*
X183758263Y-122516454D01*
X183783141Y-122516097D01*
X183808154Y-122517196D01*
G37*
G36*
X182168222Y-122505043D02*
G01*
X182175583Y-122508008D01*
X182182879Y-122512720D01*
X182190062Y-122519189D01*
X182197086Y-122527421D01*
X182203902Y-122537427D01*
X182210464Y-122549214D01*
X182216723Y-122562793D01*
X182222632Y-122578170D01*
X182228144Y-122595355D01*
X182233212Y-122614358D01*
X182237787Y-122635185D01*
X182241823Y-122657847D01*
X182245271Y-122682352D01*
X182248084Y-122708708D01*
X182250317Y-122733640D01*
X182251619Y-122745459D01*
X182253045Y-122756850D01*
X182254595Y-122767815D01*
X182256270Y-122778355D01*
X182258068Y-122788473D01*
X182259990Y-122798171D01*
X182262036Y-122807450D01*
X182264207Y-122816312D01*
X182266501Y-122824759D01*
X182268920Y-122832794D01*
X182271462Y-122840418D01*
X182274128Y-122847633D01*
X182276919Y-122854441D01*
X182279833Y-122860844D01*
X182282872Y-122866844D01*
X182286035Y-122872443D01*
X182289321Y-122877642D01*
X182292732Y-122882445D01*
X182296266Y-122886852D01*
X182299925Y-122890865D01*
X182303708Y-122894488D01*
X182307615Y-122897720D01*
X182311645Y-122900565D01*
X182315800Y-122903025D01*
X182320079Y-122905101D01*
X182324482Y-122906795D01*
X182329009Y-122908109D01*
X182333660Y-122909045D01*
X182338435Y-122909606D01*
X182343334Y-122909792D01*
X182353007Y-122909045D01*
X182362185Y-122906795D01*
X182370867Y-122903025D01*
X182379052Y-122897720D01*
X182386742Y-122890865D01*
X182393935Y-122882445D01*
X182400632Y-122872443D01*
X182406834Y-122860844D01*
X182412539Y-122847633D01*
X182417748Y-122832794D01*
X182422461Y-122816312D01*
X182426678Y-122798171D01*
X182430398Y-122778355D01*
X182433623Y-122756850D01*
X182436352Y-122733640D01*
X182438584Y-122708708D01*
X182441637Y-122681220D01*
X182444899Y-122656236D01*
X182448456Y-122633655D01*
X182452392Y-122613376D01*
X182454529Y-122604068D01*
X182456793Y-122595298D01*
X182459195Y-122587053D01*
X182461745Y-122579321D01*
X182464454Y-122572089D01*
X182467333Y-122565344D01*
X182470391Y-122559074D01*
X182473641Y-122553266D01*
X182477092Y-122547907D01*
X182480756Y-122542986D01*
X182484642Y-122538489D01*
X182488762Y-122534404D01*
X182493125Y-122530718D01*
X182497744Y-122527419D01*
X182502628Y-122524493D01*
X182507789Y-122521929D01*
X182513236Y-122519714D01*
X182518980Y-122517835D01*
X182525033Y-122516280D01*
X182531405Y-122515036D01*
X182538106Y-122514090D01*
X182545147Y-122513430D01*
X182552539Y-122513043D01*
X182560292Y-122512917D01*
X182575374Y-122513379D01*
X182588921Y-122514881D01*
X182601010Y-122517591D01*
X182606533Y-122519453D01*
X182611720Y-122521681D01*
X182616582Y-122524297D01*
X182621128Y-122527322D01*
X182625368Y-122530777D01*
X182629311Y-122534683D01*
X182632967Y-122539062D01*
X182636346Y-122543936D01*
X182639458Y-122549325D01*
X182642312Y-122555250D01*
X182647286Y-122568797D01*
X182651345Y-122584747D01*
X182654567Y-122603270D01*
X182657030Y-122624538D01*
X182658810Y-122648720D01*
X182659985Y-122675987D01*
X182660634Y-122706510D01*
X182660833Y-122740458D01*
X182660006Y-122788914D01*
X182657443Y-122833176D01*
X182655471Y-122853781D01*
X182653019Y-122873392D01*
X182650071Y-122892029D01*
X182646612Y-122909709D01*
X182642625Y-122926452D01*
X182638095Y-122942274D01*
X182633008Y-122957196D01*
X182627347Y-122971235D01*
X182621097Y-122984410D01*
X182614242Y-122996739D01*
X182606767Y-123008240D01*
X182598656Y-123018933D01*
X182589895Y-123028834D01*
X182580466Y-123037964D01*
X182570356Y-123046339D01*
X182559548Y-123053980D01*
X182548026Y-123060903D01*
X182535776Y-123067127D01*
X182522782Y-123072672D01*
X182509029Y-123077554D01*
X182494500Y-123081794D01*
X182479180Y-123085408D01*
X182463055Y-123088416D01*
X182446107Y-123090835D01*
X182428323Y-123092685D01*
X182409686Y-123093984D01*
X182369791Y-123095000D01*
X182329897Y-123093984D01*
X182293476Y-123090835D01*
X182276529Y-123088416D01*
X182260403Y-123085408D01*
X182245084Y-123081794D01*
X182230555Y-123077554D01*
X182216801Y-123072672D01*
X182203807Y-123067127D01*
X182191557Y-123060903D01*
X182180036Y-123053980D01*
X182169228Y-123046339D01*
X182159117Y-123037964D01*
X182149689Y-123028834D01*
X182140927Y-123018933D01*
X182132817Y-123008240D01*
X182125341Y-122996739D01*
X182118487Y-122984410D01*
X182112236Y-122971235D01*
X182106575Y-122957196D01*
X182101488Y-122942274D01*
X182096958Y-122926452D01*
X182092971Y-122909709D01*
X182086563Y-122873392D01*
X182082140Y-122833176D01*
X182079577Y-122788914D01*
X182078750Y-122740458D01*
X182079160Y-122713469D01*
X182080361Y-122688070D01*
X182082303Y-122664270D01*
X182084941Y-122642077D01*
X182088225Y-122621500D01*
X182092109Y-122602548D01*
X182096546Y-122585230D01*
X182101487Y-122569554D01*
X182106886Y-122555529D01*
X182112695Y-122543164D01*
X182118866Y-122532468D01*
X182125352Y-122523449D01*
X182132105Y-122516115D01*
X182139079Y-122510476D01*
X182146224Y-122506541D01*
X182153495Y-122504318D01*
X182160843Y-122503816D01*
X182168222Y-122505043D01*
G37*
G36*
X181666000Y-122523500D02*
G01*
X181920000Y-122528792D01*
X181920000Y-122803959D01*
X181920000Y-123079125D01*
X181697751Y-123079125D01*
X181640793Y-123079293D01*
X181588858Y-123077740D01*
X181564716Y-123076285D01*
X181541760Y-123074358D01*
X181519967Y-123071947D01*
X181499313Y-123069038D01*
X181479775Y-123065617D01*
X181461331Y-123061671D01*
X181443956Y-123057187D01*
X181427627Y-123052150D01*
X181412322Y-123046547D01*
X181398017Y-123040365D01*
X181384688Y-123033590D01*
X181372313Y-123026209D01*
X181360868Y-123018207D01*
X181350330Y-123009571D01*
X181340675Y-123000289D01*
X181331881Y-122990345D01*
X181323924Y-122979727D01*
X181316781Y-122968421D01*
X181310429Y-122956414D01*
X181304844Y-122943692D01*
X181300003Y-122930241D01*
X181295883Y-122916047D01*
X181292461Y-122901098D01*
X181289713Y-122885380D01*
X181287616Y-122868879D01*
X181286147Y-122851581D01*
X181285283Y-122833473D01*
X181285000Y-122814542D01*
X181285180Y-122803959D01*
X181496667Y-122803959D01*
X181496929Y-122824685D01*
X181497772Y-122843264D01*
X181499283Y-122859781D01*
X181500314Y-122867293D01*
X181501545Y-122874321D01*
X181502985Y-122880877D01*
X181504644Y-122886970D01*
X181506534Y-122892612D01*
X181508666Y-122897813D01*
X181511049Y-122902584D01*
X181513695Y-122906935D01*
X181516615Y-122910878D01*
X181519818Y-122914422D01*
X181523316Y-122917579D01*
X181527118Y-122920358D01*
X181531237Y-122922772D01*
X181535683Y-122924830D01*
X181540465Y-122926543D01*
X181545595Y-122927921D01*
X181551084Y-122928976D01*
X181556942Y-122929718D01*
X181563180Y-122930158D01*
X181569809Y-122930306D01*
X181576838Y-122930173D01*
X181584279Y-122929770D01*
X181600440Y-122928195D01*
X181618376Y-122925667D01*
X181631892Y-122923312D01*
X181638366Y-122921857D01*
X181644648Y-122920220D01*
X181650736Y-122918401D01*
X181656629Y-122916400D01*
X181662324Y-122914219D01*
X181667820Y-122911859D01*
X181673113Y-122909320D01*
X181678204Y-122906605D01*
X181683089Y-122903713D01*
X181687767Y-122900645D01*
X181692235Y-122897403D01*
X181696492Y-122893988D01*
X181700536Y-122890400D01*
X181704365Y-122886641D01*
X181707977Y-122882711D01*
X181711370Y-122878612D01*
X181714542Y-122874344D01*
X181717491Y-122869908D01*
X181720215Y-122865306D01*
X181722713Y-122860538D01*
X181724981Y-122855605D01*
X181727020Y-122850509D01*
X181728825Y-122845249D01*
X181730397Y-122839828D01*
X181731732Y-122834247D01*
X181732828Y-122828505D01*
X181733684Y-122822604D01*
X181734298Y-122816546D01*
X181734668Y-122810330D01*
X181734792Y-122803959D01*
X181734668Y-122797587D01*
X181734298Y-122791372D01*
X181733684Y-122785313D01*
X181732828Y-122779412D01*
X181731732Y-122773671D01*
X181730397Y-122768089D01*
X181728825Y-122762668D01*
X181727020Y-122757409D01*
X181724981Y-122752312D01*
X181722713Y-122747379D01*
X181720215Y-122742611D01*
X181717491Y-122738009D01*
X181714542Y-122733574D01*
X181711370Y-122729306D01*
X181707977Y-122725206D01*
X181704365Y-122721276D01*
X181700536Y-122717517D01*
X181696492Y-122713929D01*
X181692235Y-122710514D01*
X181687767Y-122707272D01*
X181683089Y-122704205D01*
X181678204Y-122701312D01*
X181673113Y-122698597D01*
X181667820Y-122696058D01*
X181662324Y-122693698D01*
X181656629Y-122691517D01*
X181644648Y-122687697D01*
X181631892Y-122684605D01*
X181618376Y-122682250D01*
X181600440Y-122679722D01*
X181584279Y-122678147D01*
X181569809Y-122677611D01*
X181563180Y-122677759D01*
X181556942Y-122678199D01*
X181551084Y-122678941D01*
X181545595Y-122679996D01*
X181540465Y-122681374D01*
X181535683Y-122683087D01*
X181531237Y-122685145D01*
X181527118Y-122687559D01*
X181523316Y-122690338D01*
X181519818Y-122693495D01*
X181516615Y-122697039D01*
X181513695Y-122700982D01*
X181511049Y-122705333D01*
X181508666Y-122710104D01*
X181506534Y-122715305D01*
X181504644Y-122720947D01*
X181502985Y-122727040D01*
X181501545Y-122733596D01*
X181499283Y-122748136D01*
X181497772Y-122764654D01*
X181496929Y-122783233D01*
X181496667Y-122803959D01*
X181285180Y-122803959D01*
X181285306Y-122796578D01*
X181286209Y-122778482D01*
X181287686Y-122760371D01*
X181289713Y-122742360D01*
X181292267Y-122724567D01*
X181295325Y-122707107D01*
X181298864Y-122690096D01*
X181302860Y-122673651D01*
X181307290Y-122657889D01*
X181312130Y-122642925D01*
X181317359Y-122628875D01*
X181322951Y-122615856D01*
X181328885Y-122603985D01*
X181335137Y-122593377D01*
X181341683Y-122584149D01*
X181345059Y-122580089D01*
X181348500Y-122576417D01*
X181355728Y-122570532D01*
X181365398Y-122564810D01*
X181377347Y-122559290D01*
X181391412Y-122554010D01*
X181407431Y-122549009D01*
X181425240Y-122544326D01*
X181444677Y-122539999D01*
X181465578Y-122536068D01*
X181487782Y-122532571D01*
X181511126Y-122529546D01*
X181535446Y-122527034D01*
X181560580Y-122525071D01*
X181586366Y-122523698D01*
X181612639Y-122522952D01*
X181639238Y-122522874D01*
X181666000Y-122523500D01*
G37*
G36*
X179678318Y-122514901D02*
G01*
X179715273Y-122517970D01*
X179751833Y-122523697D01*
X179787416Y-122532075D01*
X179821441Y-122543096D01*
X179837688Y-122549595D01*
X179853327Y-122556753D01*
X179868286Y-122564567D01*
X179882492Y-122573037D01*
X179895873Y-122582163D01*
X179908355Y-122591942D01*
X179919866Y-122602374D01*
X179930334Y-122613459D01*
X179948766Y-122635550D01*
X179964427Y-122658101D01*
X179977400Y-122681014D01*
X179987767Y-122704192D01*
X179995612Y-122727537D01*
X180001016Y-122750950D01*
X180004061Y-122774335D01*
X180004831Y-122797592D01*
X180003407Y-122820625D01*
X179999871Y-122843335D01*
X179994307Y-122865624D01*
X179986796Y-122887395D01*
X179977420Y-122908550D01*
X179966263Y-122928991D01*
X179953407Y-122948620D01*
X179938933Y-122967339D01*
X179922924Y-122985050D01*
X179905463Y-123001656D01*
X179886632Y-123017058D01*
X179866513Y-123031159D01*
X179845189Y-123043861D01*
X179822742Y-123055066D01*
X179799254Y-123064676D01*
X179774808Y-123072593D01*
X179749486Y-123078720D01*
X179723370Y-123082958D01*
X179696544Y-123085210D01*
X179669088Y-123085378D01*
X179641086Y-123083364D01*
X179612620Y-123079070D01*
X179583772Y-123072398D01*
X179554625Y-123063250D01*
X179533714Y-123056104D01*
X179514586Y-123048492D01*
X179497163Y-123040321D01*
X179481369Y-123031500D01*
X179474057Y-123026816D01*
X179467124Y-123021935D01*
X179460559Y-123016844D01*
X179454352Y-123011532D01*
X179448495Y-123005988D01*
X179442976Y-123000200D01*
X179437787Y-122994156D01*
X179432917Y-122987844D01*
X179428358Y-122981253D01*
X179424098Y-122974372D01*
X179420130Y-122967188D01*
X179416443Y-122959691D01*
X179409872Y-122943707D01*
X179404309Y-122926328D01*
X179399676Y-122907461D01*
X179395896Y-122887013D01*
X179392890Y-122864890D01*
X179390583Y-122841000D01*
X179388967Y-122822916D01*
X179388542Y-122814160D01*
X179544964Y-122814160D01*
X179545695Y-122823472D01*
X179547202Y-122832752D01*
X179549504Y-122841967D01*
X179552619Y-122851080D01*
X179556568Y-122860058D01*
X179561370Y-122868866D01*
X179567043Y-122877468D01*
X179573608Y-122885830D01*
X179581084Y-122893917D01*
X179589170Y-122901392D01*
X179597532Y-122907957D01*
X179606134Y-122913631D01*
X179614942Y-122918432D01*
X179623920Y-122922381D01*
X179633034Y-122925496D01*
X179642248Y-122927798D01*
X179651529Y-122929305D01*
X179660840Y-122930037D01*
X179670148Y-122930013D01*
X179679417Y-122929253D01*
X179688612Y-122927775D01*
X179697699Y-122925600D01*
X179706642Y-122922747D01*
X179715407Y-122919235D01*
X179723959Y-122915084D01*
X179732262Y-122910312D01*
X179740283Y-122904940D01*
X179747986Y-122898986D01*
X179755336Y-122892470D01*
X179762299Y-122885412D01*
X179768840Y-122877830D01*
X179774922Y-122869745D01*
X179780513Y-122861175D01*
X179785577Y-122852140D01*
X179790079Y-122842659D01*
X179793983Y-122832752D01*
X179797256Y-122822438D01*
X179799863Y-122811737D01*
X179801768Y-122800667D01*
X179802936Y-122789248D01*
X179803334Y-122777500D01*
X179803225Y-122771144D01*
X179802901Y-122764975D01*
X179802361Y-122758994D01*
X179801608Y-122753202D01*
X179800641Y-122747600D01*
X179799462Y-122742188D01*
X179798071Y-122736969D01*
X179796471Y-122731942D01*
X179794661Y-122727109D01*
X179792643Y-122722471D01*
X179790418Y-122718029D01*
X179787986Y-122713783D01*
X179785348Y-122709735D01*
X179782507Y-122705886D01*
X179779462Y-122702236D01*
X179776214Y-122698787D01*
X179772765Y-122695539D01*
X179769115Y-122692494D01*
X179765265Y-122689652D01*
X179761217Y-122687015D01*
X179756972Y-122684583D01*
X179752529Y-122682358D01*
X179747891Y-122680339D01*
X179743058Y-122678530D01*
X179738031Y-122676929D01*
X179732812Y-122675539D01*
X179727401Y-122674360D01*
X179721798Y-122673393D01*
X179716006Y-122672639D01*
X179710025Y-122672100D01*
X179703856Y-122671775D01*
X179697500Y-122671667D01*
X179685752Y-122672064D01*
X179674333Y-122673233D01*
X179663263Y-122675138D01*
X179652562Y-122677744D01*
X179642248Y-122681017D01*
X179632341Y-122684922D01*
X179622860Y-122689424D01*
X179613825Y-122694487D01*
X179605256Y-122700078D01*
X179597170Y-122706161D01*
X179589589Y-122712701D01*
X179582530Y-122719664D01*
X179576014Y-122727014D01*
X179570061Y-122734717D01*
X179564688Y-122742738D01*
X179559917Y-122751042D01*
X179555765Y-122759594D01*
X179552253Y-122768359D01*
X179549400Y-122777302D01*
X179547225Y-122786389D01*
X179545748Y-122795584D01*
X179544987Y-122804853D01*
X179544964Y-122814160D01*
X179388542Y-122814160D01*
X179388072Y-122804475D01*
X179387874Y-122785818D01*
X179388351Y-122767082D01*
X179389479Y-122748409D01*
X179391235Y-122729937D01*
X179393595Y-122711807D01*
X179396537Y-122694157D01*
X179400037Y-122677127D01*
X179404071Y-122660856D01*
X179408618Y-122645485D01*
X179413652Y-122631153D01*
X179419152Y-122617999D01*
X179425093Y-122606162D01*
X179431453Y-122595783D01*
X179434783Y-122591183D01*
X179438209Y-122587001D01*
X179447235Y-122577420D01*
X179457397Y-122568520D01*
X179468624Y-122560300D01*
X179480842Y-122552760D01*
X179493978Y-122545897D01*
X179507960Y-122539713D01*
X179522716Y-122534204D01*
X179538172Y-122529371D01*
X179570894Y-122521727D01*
X179605547Y-122516772D01*
X179641549Y-122514500D01*
X179678318Y-122514901D01*
G37*
G36*
X178624274Y-122515304D02*
G01*
X178658382Y-122519192D01*
X178690513Y-122525567D01*
X178705651Y-122529695D01*
X178720070Y-122534454D01*
X178733698Y-122539847D01*
X178746458Y-122545876D01*
X178758276Y-122552545D01*
X178769078Y-122559856D01*
X178778789Y-122567812D01*
X178787334Y-122576417D01*
X178807860Y-122605119D01*
X178817146Y-122619407D01*
X178825781Y-122633643D01*
X178833765Y-122647822D01*
X178841098Y-122661935D01*
X178847780Y-122675976D01*
X178853810Y-122689940D01*
X178859190Y-122703817D01*
X178863918Y-122717603D01*
X178867995Y-122731290D01*
X178871421Y-122744872D01*
X178874197Y-122758341D01*
X178876320Y-122771691D01*
X178877793Y-122784914D01*
X178878615Y-122798005D01*
X178878785Y-122810957D01*
X178878305Y-122823762D01*
X178877173Y-122836414D01*
X178875390Y-122848907D01*
X178872956Y-122861232D01*
X178869871Y-122873385D01*
X178866135Y-122885357D01*
X178861748Y-122897142D01*
X178856709Y-122908733D01*
X178851020Y-122920123D01*
X178844679Y-122931307D01*
X178837687Y-122942276D01*
X178830045Y-122953024D01*
X178821751Y-122963545D01*
X178812805Y-122973831D01*
X178803209Y-122983875D01*
X178774914Y-123009741D01*
X178745707Y-123031862D01*
X178715762Y-123050371D01*
X178685252Y-123065400D01*
X178654351Y-123077080D01*
X178623231Y-123085544D01*
X178592067Y-123090922D01*
X178561032Y-123093347D01*
X178530299Y-123092950D01*
X178500042Y-123089864D01*
X178470434Y-123084219D01*
X178441649Y-123076149D01*
X178413860Y-123065784D01*
X178387240Y-123053256D01*
X178361964Y-123038697D01*
X178338203Y-123022240D01*
X178316133Y-123004015D01*
X178295925Y-122984154D01*
X178277755Y-122962790D01*
X178261794Y-122940054D01*
X178248218Y-122916077D01*
X178237198Y-122890992D01*
X178228908Y-122864930D01*
X178223523Y-122838024D01*
X178221215Y-122810404D01*
X178222157Y-122782203D01*
X178226524Y-122753552D01*
X178232742Y-122730935D01*
X178432833Y-122730935D01*
X178432886Y-122737656D01*
X178433732Y-122752499D01*
X178435493Y-122769280D01*
X178438083Y-122788084D01*
X178440598Y-122802547D01*
X178444127Y-122816167D01*
X178448597Y-122828939D01*
X178453938Y-122840855D01*
X178460076Y-122851912D01*
X178466942Y-122862102D01*
X178474462Y-122871420D01*
X178482566Y-122879861D01*
X178491182Y-122887418D01*
X178500237Y-122894085D01*
X178509661Y-122899857D01*
X178519381Y-122904728D01*
X178529325Y-122908691D01*
X178539423Y-122911743D01*
X178549603Y-122913875D01*
X178559792Y-122915084D01*
X178569919Y-122915362D01*
X178579912Y-122914704D01*
X178589700Y-122913104D01*
X178599210Y-122910557D01*
X178608372Y-122907056D01*
X178617114Y-122902596D01*
X178625363Y-122897171D01*
X178633048Y-122890775D01*
X178640098Y-122883402D01*
X178646440Y-122875047D01*
X178652003Y-122865704D01*
X178656716Y-122855366D01*
X178660506Y-122844029D01*
X178663302Y-122831686D01*
X178665032Y-122818331D01*
X178665625Y-122803959D01*
X178665501Y-122797587D01*
X178665130Y-122791372D01*
X178664513Y-122785313D01*
X178663651Y-122779412D01*
X178662544Y-122773671D01*
X178661195Y-122768089D01*
X178659603Y-122762668D01*
X178657770Y-122757409D01*
X178655697Y-122752312D01*
X178653384Y-122747379D01*
X178650833Y-122742611D01*
X178648045Y-122738009D01*
X178645020Y-122733574D01*
X178641760Y-122729306D01*
X178638265Y-122725206D01*
X178634537Y-122721276D01*
X178630576Y-122717517D01*
X178626383Y-122713929D01*
X178621960Y-122710514D01*
X178617308Y-122707272D01*
X178612426Y-122704205D01*
X178607317Y-122701312D01*
X178601982Y-122698597D01*
X178596420Y-122696058D01*
X178590634Y-122693698D01*
X178584624Y-122691517D01*
X178571936Y-122687697D01*
X178558364Y-122684605D01*
X178543917Y-122682250D01*
X178525113Y-122679660D01*
X178508332Y-122677899D01*
X178493490Y-122677053D01*
X178486768Y-122676999D01*
X178480499Y-122677207D01*
X178474672Y-122677685D01*
X178469277Y-122678446D01*
X178464301Y-122679499D01*
X178459736Y-122680855D01*
X178455570Y-122682525D01*
X178451792Y-122684520D01*
X178448392Y-122686850D01*
X178445360Y-122689526D01*
X178442684Y-122692559D01*
X178440353Y-122695959D01*
X178438359Y-122699736D01*
X178436688Y-122703903D01*
X178435332Y-122708468D01*
X178434279Y-122713443D01*
X178433518Y-122718839D01*
X178433040Y-122724666D01*
X178432833Y-122730935D01*
X178232742Y-122730935D01*
X178234489Y-122724583D01*
X178246224Y-122695429D01*
X178261904Y-122666220D01*
X178281702Y-122637089D01*
X178305792Y-122608167D01*
X178315779Y-122598028D01*
X178326838Y-122588451D01*
X178338896Y-122579437D01*
X178351877Y-122570991D01*
X178365707Y-122563114D01*
X178380311Y-122555810D01*
X178395614Y-122549081D01*
X178411543Y-122542930D01*
X178444976Y-122532377D01*
X178480014Y-122524172D01*
X178516060Y-122518339D01*
X178552516Y-122514901D01*
X178588786Y-122513882D01*
X178624274Y-122515304D01*
G37*
G36*
X180503518Y-122187679D02*
G01*
X180515051Y-122188882D01*
X180527048Y-122191229D01*
X180539464Y-122194693D01*
X180552257Y-122199251D01*
X180565381Y-122204876D01*
X180578795Y-122211544D01*
X180592453Y-122219229D01*
X180606313Y-122227907D01*
X180620331Y-122237551D01*
X180648667Y-122259640D01*
X180677111Y-122285295D01*
X180705314Y-122314314D01*
X180732929Y-122346495D01*
X180759605Y-122381638D01*
X180784995Y-122419540D01*
X180797099Y-122439463D01*
X180808750Y-122460000D01*
X180941042Y-122698125D01*
X180956917Y-122444125D01*
X180959912Y-122407323D01*
X180963015Y-122374186D01*
X180966335Y-122344538D01*
X180969981Y-122318200D01*
X180971960Y-122306216D01*
X180974061Y-122294993D01*
X180976297Y-122284509D01*
X180978683Y-122274740D01*
X180981232Y-122265665D01*
X180983956Y-122257262D01*
X180986871Y-122249508D01*
X180989990Y-122242380D01*
X180993325Y-122235858D01*
X180996891Y-122229917D01*
X181000701Y-122224537D01*
X181004769Y-122219694D01*
X181009108Y-122215367D01*
X181013732Y-122211533D01*
X181018655Y-122208170D01*
X181023889Y-122205256D01*
X181029450Y-122202768D01*
X181035349Y-122200684D01*
X181041601Y-122198982D01*
X181048219Y-122197639D01*
X181055217Y-122196633D01*
X181062608Y-122195943D01*
X181070406Y-122195545D01*
X181078625Y-122195417D01*
X181094579Y-122195927D01*
X181108773Y-122197763D01*
X181121309Y-122201382D01*
X181132286Y-122207240D01*
X181141806Y-122215797D01*
X181149970Y-122227508D01*
X181156877Y-122242831D01*
X181162630Y-122262224D01*
X181167329Y-122286144D01*
X181171074Y-122315048D01*
X181173967Y-122349393D01*
X181176107Y-122389638D01*
X181178536Y-122489652D01*
X181179166Y-122618750D01*
X181178970Y-122681185D01*
X181178339Y-122737720D01*
X181177213Y-122788659D01*
X181175528Y-122834303D01*
X181174457Y-122855234D01*
X181173223Y-122874956D01*
X181171819Y-122893504D01*
X181170237Y-122910919D01*
X181168468Y-122927236D01*
X181166506Y-122942494D01*
X181164342Y-122956731D01*
X181161968Y-122969985D01*
X181159378Y-122982293D01*
X181156563Y-122993692D01*
X181153515Y-123004222D01*
X181150228Y-123013920D01*
X181146692Y-123022823D01*
X181142900Y-123030969D01*
X181138845Y-123038397D01*
X181134518Y-123045143D01*
X181129912Y-123051246D01*
X181125020Y-123056743D01*
X181119833Y-123061672D01*
X181114344Y-123066072D01*
X181108545Y-123069979D01*
X181102427Y-123073432D01*
X181095985Y-123076468D01*
X181089209Y-123079125D01*
X181072436Y-123084618D01*
X181055733Y-123087104D01*
X181047352Y-123087171D01*
X181038921Y-123086427D01*
X181030419Y-123084854D01*
X181021823Y-123082433D01*
X181004259Y-123074965D01*
X180986052Y-123063870D01*
X180967024Y-123048993D01*
X180946995Y-123030177D01*
X180925788Y-123007269D01*
X180903225Y-122980113D01*
X180879127Y-122948555D01*
X180853316Y-122912438D01*
X180825613Y-122871608D01*
X180795841Y-122825911D01*
X180729375Y-122719292D01*
X180623542Y-122539375D01*
X180607667Y-122819833D01*
X180604676Y-122861349D01*
X180601600Y-122898702D01*
X180598354Y-122932071D01*
X180596640Y-122947317D01*
X180594851Y-122961634D01*
X180592978Y-122975044D01*
X180591008Y-122987569D01*
X180588932Y-122999232D01*
X180586738Y-123010055D01*
X180584417Y-123020060D01*
X180581957Y-123029269D01*
X180579348Y-123037705D01*
X180576579Y-123045391D01*
X180573639Y-123052348D01*
X180570518Y-123058598D01*
X180567206Y-123064164D01*
X180563690Y-123069069D01*
X180559962Y-123073334D01*
X180556010Y-123076982D01*
X180551823Y-123080035D01*
X180547391Y-123082515D01*
X180542704Y-123084445D01*
X180537750Y-123085847D01*
X180532519Y-123086743D01*
X180527000Y-123087156D01*
X180521182Y-123087107D01*
X180515056Y-123086620D01*
X180508609Y-123085715D01*
X180501833Y-123084417D01*
X180488614Y-123080770D01*
X180476698Y-123075580D01*
X180466022Y-123068546D01*
X180456524Y-123059364D01*
X180448142Y-123047733D01*
X180440814Y-123033350D01*
X180434479Y-123015913D01*
X180429073Y-122995120D01*
X180424536Y-122970668D01*
X180420805Y-122942255D01*
X180417818Y-122909579D01*
X180415513Y-122872337D01*
X180412702Y-122782947D01*
X180411875Y-122671667D01*
X180412123Y-122591372D01*
X180412868Y-122514488D01*
X180414108Y-122442937D01*
X180415844Y-122378641D01*
X180418077Y-122323523D01*
X180420805Y-122279505D01*
X180422356Y-122262259D01*
X180424030Y-122248509D01*
X180425828Y-122238496D01*
X180427751Y-122232459D01*
X180433154Y-122222238D01*
X180439413Y-122213387D01*
X180446483Y-122205882D01*
X180454323Y-122199696D01*
X180462886Y-122194804D01*
X180472131Y-122191182D01*
X180482014Y-122188804D01*
X180492491Y-122187645D01*
X180503518Y-122187679D01*
G37*
G36*
X178025334Y-122311834D02*
G01*
X177941886Y-122408107D01*
X177908899Y-122447744D01*
X177894555Y-122465773D01*
X177881632Y-122482738D01*
X177870119Y-122498734D01*
X177860008Y-122513856D01*
X177851287Y-122528202D01*
X177843949Y-122541866D01*
X177837983Y-122554945D01*
X177833379Y-122567535D01*
X177830127Y-122579731D01*
X177828219Y-122591630D01*
X177827644Y-122603328D01*
X177828392Y-122614920D01*
X177830454Y-122626502D01*
X177833821Y-122638170D01*
X177838481Y-122650021D01*
X177844427Y-122662149D01*
X177851648Y-122674652D01*
X177860134Y-122687625D01*
X177869876Y-122701163D01*
X177880864Y-122715363D01*
X177906540Y-122746133D01*
X177937083Y-122780700D01*
X177972417Y-122819833D01*
X178011616Y-122863910D01*
X178045901Y-122903064D01*
X178075318Y-122937582D01*
X178099913Y-122967752D01*
X178110417Y-122981296D01*
X178119734Y-122993860D01*
X178127868Y-123005481D01*
X178134826Y-123016194D01*
X178140613Y-123026034D01*
X178145236Y-123035039D01*
X178148700Y-123043243D01*
X178151011Y-123050683D01*
X178152174Y-123057394D01*
X178152197Y-123063412D01*
X178151083Y-123068773D01*
X178148840Y-123073513D01*
X178145473Y-123077668D01*
X178140988Y-123081274D01*
X178135390Y-123084366D01*
X178128686Y-123086980D01*
X178120882Y-123089153D01*
X178111982Y-123090919D01*
X178101993Y-123092316D01*
X178090921Y-123093378D01*
X178065551Y-123094642D01*
X178035917Y-123095000D01*
X178019859Y-123094195D01*
X178003444Y-123091786D01*
X177986687Y-123087780D01*
X177969606Y-123082185D01*
X177952214Y-123075008D01*
X177934528Y-123066258D01*
X177916562Y-123055942D01*
X177898334Y-123044068D01*
X177879857Y-123030644D01*
X177861147Y-123015677D01*
X177842221Y-122999175D01*
X177823093Y-122981147D01*
X177803779Y-122961599D01*
X177784294Y-122940539D01*
X177764655Y-122917976D01*
X177744876Y-122893917D01*
X177586125Y-122698125D01*
X177580833Y-122899209D01*
X177580637Y-122928496D01*
X177580006Y-122954916D01*
X177578880Y-122978576D01*
X177578111Y-122989405D01*
X177577195Y-122999585D01*
X177576124Y-123009129D01*
X177574890Y-123018052D01*
X177573486Y-123026365D01*
X177571904Y-123034084D01*
X177570135Y-123041222D01*
X177568172Y-123047791D01*
X177566009Y-123053807D01*
X177563635Y-123059282D01*
X177561045Y-123064229D01*
X177558230Y-123068663D01*
X177555182Y-123072598D01*
X177551895Y-123076045D01*
X177548359Y-123079020D01*
X177544567Y-123081536D01*
X177540512Y-123083606D01*
X177536185Y-123085244D01*
X177531579Y-123086463D01*
X177526687Y-123087277D01*
X177521500Y-123087700D01*
X177516010Y-123087745D01*
X177510211Y-123087425D01*
X177504094Y-123086755D01*
X177497651Y-123085748D01*
X177490875Y-123084417D01*
X177476721Y-123080759D01*
X177463962Y-123075498D01*
X177452505Y-123068267D01*
X177442258Y-123058703D01*
X177433127Y-123046441D01*
X177425019Y-123031118D01*
X177417841Y-123012368D01*
X177411500Y-122989828D01*
X177405903Y-122963134D01*
X177400958Y-122931920D01*
X177396571Y-122895823D01*
X177392648Y-122854478D01*
X177385827Y-122754587D01*
X177379750Y-122629334D01*
X177377041Y-122557313D01*
X177374944Y-122493704D01*
X177373576Y-122437985D01*
X177373053Y-122389638D01*
X177373145Y-122368066D01*
X177373491Y-122348143D01*
X177374107Y-122329803D01*
X177375006Y-122312981D01*
X177376204Y-122297612D01*
X177377715Y-122283632D01*
X177379554Y-122270976D01*
X177381735Y-122259578D01*
X177384272Y-122249374D01*
X177387180Y-122240299D01*
X177390474Y-122232288D01*
X177394168Y-122225276D01*
X177398277Y-122219197D01*
X177402814Y-122213988D01*
X177407796Y-122209583D01*
X177413236Y-122205918D01*
X177419149Y-122202926D01*
X177425549Y-122200544D01*
X177432452Y-122198707D01*
X177439870Y-122197350D01*
X177447820Y-122196407D01*
X177456315Y-122195814D01*
X177465370Y-122195505D01*
X177475000Y-122195417D01*
X177489269Y-122195856D01*
X177502337Y-122197195D01*
X177508432Y-122198211D01*
X177514242Y-122199463D01*
X177519770Y-122200956D01*
X177525023Y-122202693D01*
X177530004Y-122204678D01*
X177534718Y-122206915D01*
X177539171Y-122209408D01*
X177543368Y-122212160D01*
X177547312Y-122215176D01*
X177551009Y-122218459D01*
X177554464Y-122222014D01*
X177557682Y-122225844D01*
X177560667Y-122229953D01*
X177563425Y-122234345D01*
X177565959Y-122239023D01*
X177568276Y-122243993D01*
X177570379Y-122249257D01*
X177572274Y-122254819D01*
X177573966Y-122260684D01*
X177575459Y-122266854D01*
X177577868Y-122280130D01*
X177579541Y-122294677D01*
X177580517Y-122310526D01*
X177580833Y-122327709D01*
X177580895Y-122334606D01*
X177581079Y-122341403D01*
X177581382Y-122348091D01*
X177581805Y-122354663D01*
X177582343Y-122361111D01*
X177582996Y-122367427D01*
X177583761Y-122373604D01*
X177584637Y-122379633D01*
X177585621Y-122385508D01*
X177586711Y-122391219D01*
X177587907Y-122396760D01*
X177589205Y-122402123D01*
X177590604Y-122407299D01*
X177592101Y-122412282D01*
X177593696Y-122417064D01*
X177595386Y-122421636D01*
X177597168Y-122425991D01*
X177599042Y-122430121D01*
X177601004Y-122434019D01*
X177603054Y-122437676D01*
X177605190Y-122441085D01*
X177607408Y-122444239D01*
X177609708Y-122447129D01*
X177612087Y-122449748D01*
X177614544Y-122452087D01*
X177617077Y-122454140D01*
X177619683Y-122455898D01*
X177622361Y-122457354D01*
X177625108Y-122458500D01*
X177627924Y-122459328D01*
X177630805Y-122459831D01*
X177633750Y-122460000D01*
X177636337Y-122459831D01*
X177639132Y-122459328D01*
X177645305Y-122457354D01*
X177652191Y-122454140D01*
X177659712Y-122449748D01*
X177667792Y-122444239D01*
X177676352Y-122437676D01*
X177685315Y-122430121D01*
X177694604Y-122421636D01*
X177704141Y-122412282D01*
X177713848Y-122402123D01*
X177723649Y-122391219D01*
X177733465Y-122379633D01*
X177743219Y-122367427D01*
X177752833Y-122354663D01*
X177762230Y-122341403D01*
X177771333Y-122327709D01*
X177781619Y-122312270D01*
X177792603Y-122297716D01*
X177804238Y-122284060D01*
X177816478Y-122271319D01*
X177829276Y-122259509D01*
X177842585Y-122248644D01*
X177856359Y-122238740D01*
X177870552Y-122229813D01*
X177885117Y-122221878D01*
X177900008Y-122214951D01*
X177915177Y-122209047D01*
X177930579Y-122204181D01*
X177946167Y-122200370D01*
X177961895Y-122197629D01*
X177977716Y-122195972D01*
X177993583Y-122195417D01*
X178125876Y-122195417D01*
X178025334Y-122311834D01*
G37*
G36*
X182909442Y-122143256D02*
G01*
X182919081Y-122145570D01*
X182927898Y-122149511D01*
X182935917Y-122155151D01*
X182943161Y-122162557D01*
X182949653Y-122171801D01*
X182955416Y-122182951D01*
X182960474Y-122196078D01*
X182964850Y-122211252D01*
X182968566Y-122228541D01*
X182971648Y-122248017D01*
X182974116Y-122269748D01*
X182975996Y-122293805D01*
X182977310Y-122320257D01*
X182978081Y-122349174D01*
X182978333Y-122380625D01*
X182978502Y-122401056D01*
X182979005Y-122420668D01*
X182979833Y-122439449D01*
X182980979Y-122457385D01*
X182982435Y-122474466D01*
X182984193Y-122490677D01*
X182986246Y-122506006D01*
X182988586Y-122520441D01*
X182991205Y-122533969D01*
X182994095Y-122546578D01*
X182997248Y-122558254D01*
X183000658Y-122568986D01*
X183004315Y-122578760D01*
X183008213Y-122587565D01*
X183012343Y-122595387D01*
X183016698Y-122602214D01*
X183021270Y-122608033D01*
X183026051Y-122612832D01*
X183031034Y-122616598D01*
X183036211Y-122619319D01*
X183038870Y-122620283D01*
X183041574Y-122620981D01*
X183044322Y-122621412D01*
X183047115Y-122621573D01*
X183049950Y-122621464D01*
X183052826Y-122621082D01*
X183058701Y-122619494D01*
X183064730Y-122616799D01*
X183070906Y-122612982D01*
X183077223Y-122608031D01*
X183083670Y-122601935D01*
X183090242Y-122594679D01*
X183096930Y-122586252D01*
X183103727Y-122576641D01*
X183110625Y-122565834D01*
X183114567Y-122560502D01*
X183119403Y-122555424D01*
X183125067Y-122550605D01*
X183131492Y-122546052D01*
X183138610Y-122541770D01*
X183146356Y-122537766D01*
X183154661Y-122534044D01*
X183163459Y-122530611D01*
X183182268Y-122524635D01*
X183202248Y-122519883D01*
X183222863Y-122516403D01*
X183243578Y-122514240D01*
X183263860Y-122513441D01*
X183283173Y-122514054D01*
X183292299Y-122514904D01*
X183300982Y-122516123D01*
X183309155Y-122517719D01*
X183316752Y-122519697D01*
X183323705Y-122522062D01*
X183329949Y-122524821D01*
X183335415Y-122527978D01*
X183340037Y-122531541D01*
X183343749Y-122535515D01*
X183346482Y-122539905D01*
X183348172Y-122544718D01*
X183348750Y-122549959D01*
X183348321Y-122553479D01*
X183347055Y-122558031D01*
X183344983Y-122563528D01*
X183342135Y-122569885D01*
X183338544Y-122577018D01*
X183334240Y-122584840D01*
X183329253Y-122593267D01*
X183323615Y-122602214D01*
X183317357Y-122611594D01*
X183310510Y-122621324D01*
X183303105Y-122631317D01*
X183295173Y-122641488D01*
X183286744Y-122651752D01*
X183277851Y-122662024D01*
X183268523Y-122672219D01*
X183258792Y-122682250D01*
X183244846Y-122698291D01*
X183232799Y-122712843D01*
X183222690Y-122726155D01*
X183218374Y-122732423D01*
X183214557Y-122738474D01*
X183211244Y-122744340D01*
X183208440Y-122750050D01*
X183206149Y-122755636D01*
X183204377Y-122761129D01*
X183203128Y-122766560D01*
X183202407Y-122771961D01*
X183202219Y-122777361D01*
X183202568Y-122782792D01*
X183203461Y-122788285D01*
X183204900Y-122793871D01*
X183206892Y-122799582D01*
X183209441Y-122805447D01*
X183212552Y-122811498D01*
X183216230Y-122817767D01*
X183220480Y-122824283D01*
X183225306Y-122831078D01*
X183236707Y-122845630D01*
X183250473Y-122861671D01*
X183266641Y-122879447D01*
X183285251Y-122899209D01*
X183297023Y-122912095D01*
X183308484Y-122924912D01*
X183319574Y-122937590D01*
X183330230Y-122950058D01*
X183340389Y-122962247D01*
X183349991Y-122974088D01*
X183358972Y-122985510D01*
X183367271Y-122996443D01*
X183374826Y-123006818D01*
X183381575Y-123016566D01*
X183387456Y-123025616D01*
X183392407Y-123033898D01*
X183396365Y-123041343D01*
X183399269Y-123047882D01*
X183400307Y-123050789D01*
X183401057Y-123053443D01*
X183401514Y-123055836D01*
X183401667Y-123057958D01*
X183401132Y-123065030D01*
X183399559Y-123071368D01*
X183396993Y-123076986D01*
X183393482Y-123081895D01*
X183389071Y-123086106D01*
X183383808Y-123089631D01*
X183377738Y-123092482D01*
X183370909Y-123094669D01*
X183363367Y-123096206D01*
X183355158Y-123097103D01*
X183346329Y-123097373D01*
X183336927Y-123097026D01*
X183316587Y-123094530D01*
X183294511Y-123089709D01*
X183271070Y-123082655D01*
X183246638Y-123073462D01*
X183221585Y-123062222D01*
X183196284Y-123049029D01*
X183171107Y-123033976D01*
X183146427Y-123017155D01*
X183122614Y-122998660D01*
X183100042Y-122978584D01*
X182978333Y-122867459D01*
X182978333Y-122978584D01*
X182978241Y-122984970D01*
X182977965Y-122991227D01*
X182977509Y-122997351D01*
X182976876Y-123003337D01*
X182976068Y-123009178D01*
X182975089Y-123014872D01*
X182973941Y-123020413D01*
X182972628Y-123025795D01*
X182971152Y-123031015D01*
X182969516Y-123036067D01*
X182967723Y-123040947D01*
X182965776Y-123045649D01*
X182963677Y-123050169D01*
X182961431Y-123054503D01*
X182959039Y-123058644D01*
X182956505Y-123062589D01*
X182953831Y-123066332D01*
X182951021Y-123069869D01*
X182948077Y-123073194D01*
X182945002Y-123076304D01*
X182941799Y-123079192D01*
X182938471Y-123081855D01*
X182935021Y-123084287D01*
X182931452Y-123086484D01*
X182927767Y-123088440D01*
X182923968Y-123090152D01*
X182920059Y-123091613D01*
X182916042Y-123092820D01*
X182911921Y-123093766D01*
X182907698Y-123094449D01*
X182903376Y-123094862D01*
X182898958Y-123095000D01*
X182887602Y-123093896D01*
X182877316Y-123090380D01*
X182868053Y-123084152D01*
X182859767Y-123074908D01*
X182852411Y-123062347D01*
X182845939Y-123046166D01*
X182840303Y-123026063D01*
X182835459Y-123001735D01*
X182831358Y-122972880D01*
X182827955Y-122939196D01*
X182823056Y-122856131D01*
X182820389Y-122750122D01*
X182819583Y-122618750D01*
X182819777Y-122549743D01*
X182820389Y-122487379D01*
X182821467Y-122431355D01*
X182822194Y-122405626D01*
X182823056Y-122381369D01*
X182824057Y-122358547D01*
X182825203Y-122337120D01*
X182826501Y-122317052D01*
X182827955Y-122298305D01*
X182829572Y-122280840D01*
X182831358Y-122264621D01*
X182833318Y-122249609D01*
X182835459Y-122235766D01*
X182837785Y-122223055D01*
X182840303Y-122211438D01*
X182843019Y-122200877D01*
X182845939Y-122191334D01*
X182849067Y-122182773D01*
X182852411Y-122175153D01*
X182855976Y-122168439D01*
X182859767Y-122162592D01*
X182863791Y-122157574D01*
X182868053Y-122153348D01*
X182870276Y-122151520D01*
X182872560Y-122149876D01*
X182874907Y-122148411D01*
X182877316Y-122147120D01*
X182882329Y-122145042D01*
X182887602Y-122143605D01*
X182893144Y-122142770D01*
X182898958Y-122142500D01*
X182909442Y-122143256D01*
G37*
G36*
X179136258Y-122144690D02*
G01*
X179155145Y-122151337D01*
X179172111Y-122162557D01*
X179187185Y-122178467D01*
X179200398Y-122199183D01*
X179211783Y-122224821D01*
X179221369Y-122255497D01*
X179229187Y-122291328D01*
X179235269Y-122332431D01*
X179239646Y-122378920D01*
X179242349Y-122430913D01*
X179243408Y-122488526D01*
X179242856Y-122551875D01*
X179240721Y-122621076D01*
X179231833Y-122777500D01*
X179227854Y-122823793D01*
X179223813Y-122865567D01*
X179219648Y-122903016D01*
X179217500Y-122920179D01*
X179215297Y-122936333D01*
X179213032Y-122951503D01*
X179210698Y-122965712D01*
X179208286Y-122978986D01*
X179205789Y-122991348D01*
X179203198Y-123002822D01*
X179200507Y-123013433D01*
X179197708Y-123023205D01*
X179194792Y-123032162D01*
X179191752Y-123040328D01*
X179188581Y-123047728D01*
X179185269Y-123054386D01*
X179181811Y-123060325D01*
X179178198Y-123065571D01*
X179174421Y-123070148D01*
X179170475Y-123074079D01*
X179166349Y-123077389D01*
X179162038Y-123080102D01*
X179157533Y-123082243D01*
X179152827Y-123083835D01*
X179147911Y-123084903D01*
X179142778Y-123085471D01*
X179137421Y-123085563D01*
X179131831Y-123085203D01*
X179126000Y-123084417D01*
X179115769Y-123081769D01*
X179105912Y-123077806D01*
X179096434Y-123072547D01*
X179087336Y-123066010D01*
X179070294Y-123049175D01*
X179054811Y-123027449D01*
X179040909Y-123000979D01*
X179028611Y-122969912D01*
X179017941Y-122934396D01*
X179008922Y-122894578D01*
X179001578Y-122850606D01*
X178995931Y-122802625D01*
X178992005Y-122750785D01*
X178989822Y-122695231D01*
X178989408Y-122636112D01*
X178990784Y-122573575D01*
X178993973Y-122507766D01*
X178999000Y-122438834D01*
X179002982Y-122396264D01*
X179007041Y-122357733D01*
X179011255Y-122323062D01*
X179013445Y-122307118D01*
X179015702Y-122292073D01*
X179018037Y-122277903D01*
X179020459Y-122264587D01*
X179022977Y-122252103D01*
X179025603Y-122240427D01*
X179028345Y-122229538D01*
X179031212Y-122219414D01*
X179034216Y-122210032D01*
X179037364Y-122201370D01*
X179040668Y-122193406D01*
X179044137Y-122186116D01*
X179047779Y-122179480D01*
X179051606Y-122173475D01*
X179055627Y-122168078D01*
X179059851Y-122163268D01*
X179064289Y-122159021D01*
X179068949Y-122155316D01*
X179073842Y-122152130D01*
X179078977Y-122149442D01*
X179084364Y-122147228D01*
X179090012Y-122145466D01*
X179095932Y-122144135D01*
X179102133Y-122143212D01*
X179108625Y-122142675D01*
X179115417Y-122142500D01*
X179136258Y-122144690D01*
G37*
G36*
X172762193Y-121613808D02*
G01*
X172778408Y-121615390D01*
X172793026Y-121618322D01*
X172806179Y-121622842D01*
X172812247Y-121625773D01*
X172817999Y-121629192D01*
X172823450Y-121633128D01*
X172828617Y-121637611D01*
X172833517Y-121642672D01*
X172838165Y-121648340D01*
X172846776Y-121661620D01*
X172854581Y-121677690D01*
X172861711Y-121696791D01*
X172868298Y-121719163D01*
X172874475Y-121745046D01*
X172880372Y-121774681D01*
X172886123Y-121808309D01*
X172897708Y-121888500D01*
X172908480Y-121962062D01*
X172919144Y-122028275D01*
X172929962Y-122087604D01*
X172941199Y-122140516D01*
X172947057Y-122164710D01*
X172953119Y-122187474D01*
X172959416Y-122208866D01*
X172965983Y-122228945D01*
X172972853Y-122247767D01*
X172980057Y-122265392D01*
X172987630Y-122281877D01*
X172995604Y-122297282D01*
X173004012Y-122311662D01*
X173012888Y-122325078D01*
X173022263Y-122337587D01*
X173032171Y-122349247D01*
X173042644Y-122360117D01*
X173053717Y-122370254D01*
X173065421Y-122379716D01*
X173077790Y-122388563D01*
X173090857Y-122396851D01*
X173104654Y-122404639D01*
X173119215Y-122411986D01*
X173134572Y-122418949D01*
X173150759Y-122425586D01*
X173167808Y-122431956D01*
X173204625Y-122444125D01*
X173232317Y-122452431D01*
X173257986Y-122459473D01*
X173281841Y-122465229D01*
X173304092Y-122469674D01*
X173324947Y-122472786D01*
X173344617Y-122474542D01*
X173354072Y-122474904D01*
X173363309Y-122474918D01*
X173372355Y-122474581D01*
X173381235Y-122473891D01*
X173389975Y-122472844D01*
X173398602Y-122471438D01*
X173407141Y-122469669D01*
X173415620Y-122467535D01*
X173424064Y-122465032D01*
X173432499Y-122462159D01*
X173440951Y-122458912D01*
X173449448Y-122455287D01*
X173466675Y-122446896D01*
X173484391Y-122436963D01*
X173502805Y-122425464D01*
X173522125Y-122412375D01*
X173657600Y-122322541D01*
X173715927Y-122284337D01*
X173768518Y-122250318D01*
X173815777Y-122220268D01*
X173858105Y-122193970D01*
X173895906Y-122171207D01*
X173929584Y-122151761D01*
X173959540Y-122135415D01*
X173986180Y-122121954D01*
X174009904Y-122111159D01*
X174031117Y-122102813D01*
X174040908Y-122099491D01*
X174050222Y-122096699D01*
X174059110Y-122094412D01*
X174067622Y-122092602D01*
X174075808Y-122091241D01*
X174083719Y-122090302D01*
X174098917Y-122089584D01*
X174111241Y-122091213D01*
X174126259Y-122095982D01*
X174143780Y-122103715D01*
X174163616Y-122114233D01*
X174209468Y-122142918D01*
X174262297Y-122180617D01*
X174320583Y-122225912D01*
X174382806Y-122277386D01*
X174447448Y-122333619D01*
X174512990Y-122393193D01*
X174577911Y-122454689D01*
X174640693Y-122516689D01*
X174699816Y-122577775D01*
X174753761Y-122636527D01*
X174801008Y-122691527D01*
X174840040Y-122741358D01*
X174869335Y-122784599D01*
X174879857Y-122803306D01*
X174887375Y-122819833D01*
X174896158Y-122845372D01*
X174902568Y-122870600D01*
X174906467Y-122895829D01*
X174907715Y-122921368D01*
X174906173Y-122947526D01*
X174901700Y-122974615D01*
X174894158Y-123002944D01*
X174883407Y-123032823D01*
X174869307Y-123064563D01*
X174851719Y-123098473D01*
X174830503Y-123134864D01*
X174805520Y-123174045D01*
X174776630Y-123216326D01*
X174743694Y-123262019D01*
X174706572Y-123311431D01*
X174665125Y-123364875D01*
X174634295Y-123405001D01*
X174607247Y-123442297D01*
X174583921Y-123477159D01*
X174564253Y-123509983D01*
X174555771Y-123525753D01*
X174548181Y-123541163D01*
X174541475Y-123556260D01*
X174535644Y-123571095D01*
X174530682Y-123585717D01*
X174526580Y-123600175D01*
X174523331Y-123614518D01*
X174520927Y-123628797D01*
X174519360Y-123643060D01*
X174518622Y-123657357D01*
X174518706Y-123671738D01*
X174519604Y-123686251D01*
X174521308Y-123700946D01*
X174523811Y-123715873D01*
X174527104Y-123731081D01*
X174531180Y-123746619D01*
X174541649Y-123778885D01*
X174555158Y-123813065D01*
X174571642Y-123849555D01*
X174591042Y-123888750D01*
X174602982Y-123911470D01*
X174615123Y-123932096D01*
X174627668Y-123950770D01*
X174640817Y-123967629D01*
X174654772Y-123982814D01*
X174669735Y-123996465D01*
X174685907Y-124008720D01*
X174703490Y-124019719D01*
X174722685Y-124029602D01*
X174743694Y-124038509D01*
X174766719Y-124046578D01*
X174791960Y-124053950D01*
X174819620Y-124060763D01*
X174849899Y-124067158D01*
X174883001Y-124073274D01*
X174919125Y-124079250D01*
X174974657Y-124086619D01*
X175032979Y-124096531D01*
X175092417Y-124108551D01*
X175151297Y-124122245D01*
X175207945Y-124137179D01*
X175260686Y-124152920D01*
X175307846Y-124169033D01*
X175328810Y-124177093D01*
X175347750Y-124185084D01*
X175517083Y-124253875D01*
X175517083Y-124804209D01*
X175516833Y-124877784D01*
X175516071Y-124945833D01*
X175514781Y-125008533D01*
X175512949Y-125066063D01*
X175510559Y-125118602D01*
X175507596Y-125166326D01*
X175504043Y-125209415D01*
X175499886Y-125248047D01*
X175495108Y-125282400D01*
X175489695Y-125312653D01*
X175483631Y-125338983D01*
X175480350Y-125350734D01*
X175476900Y-125361570D01*
X175473280Y-125371515D01*
X175469487Y-125380591D01*
X175465520Y-125388820D01*
X175461376Y-125396224D01*
X175457054Y-125402826D01*
X175452552Y-125408648D01*
X175447868Y-125413713D01*
X175443000Y-125418042D01*
X175433483Y-125424292D01*
X175420934Y-125431085D01*
X175387520Y-125445989D01*
X175344309Y-125462132D01*
X175292849Y-125478896D01*
X175234693Y-125495660D01*
X175171389Y-125511804D01*
X175104489Y-125526707D01*
X175035542Y-125539750D01*
X174964087Y-125552332D01*
X174900212Y-125564503D01*
X174843438Y-125576597D01*
X174793283Y-125588946D01*
X174770538Y-125595321D01*
X174749268Y-125601885D01*
X174729412Y-125608679D01*
X174710911Y-125615746D01*
X174693704Y-125623126D01*
X174677732Y-125630862D01*
X174662934Y-125638996D01*
X174649250Y-125647568D01*
X174636621Y-125656621D01*
X174624986Y-125666196D01*
X174614284Y-125676335D01*
X174604457Y-125687080D01*
X174595444Y-125698472D01*
X174587184Y-125710552D01*
X174579619Y-125723364D01*
X174572687Y-125736947D01*
X174566328Y-125751345D01*
X174560483Y-125766598D01*
X174555092Y-125782748D01*
X174550094Y-125799838D01*
X174541037Y-125836999D01*
X174532834Y-125878417D01*
X174528512Y-125905325D01*
X174525547Y-125930713D01*
X174524055Y-125954924D01*
X174524152Y-125978297D01*
X174525954Y-126001174D01*
X174529578Y-126023896D01*
X174535140Y-126046804D01*
X174542755Y-126070240D01*
X174552542Y-126094543D01*
X174564615Y-126120056D01*
X174579090Y-126147119D01*
X174596085Y-126176073D01*
X174615716Y-126207260D01*
X174638098Y-126241020D01*
X174663349Y-126277695D01*
X174691583Y-126317625D01*
X174711163Y-126344693D01*
X174730155Y-126372196D01*
X174748464Y-126399946D01*
X174765997Y-126427758D01*
X174782663Y-126455446D01*
X174798367Y-126482825D01*
X174813018Y-126509707D01*
X174826521Y-126535907D01*
X174838784Y-126561239D01*
X174849713Y-126585516D01*
X174859217Y-126608554D01*
X174867201Y-126630165D01*
X174873572Y-126650163D01*
X174878239Y-126668364D01*
X174881107Y-126684580D01*
X174882083Y-126698626D01*
X174880181Y-126714541D01*
X174874619Y-126733364D01*
X174865611Y-126754871D01*
X174853372Y-126778838D01*
X174820064Y-126833257D01*
X174776415Y-126894831D01*
X174724147Y-126961768D01*
X174664980Y-127032280D01*
X174600635Y-127104574D01*
X174532833Y-127176860D01*
X174463295Y-127247348D01*
X174393741Y-127314247D01*
X174325893Y-127375766D01*
X174261470Y-127430116D01*
X174202195Y-127475505D01*
X174149787Y-127510142D01*
X174126696Y-127522869D01*
X174105968Y-127532237D01*
X174087817Y-127538023D01*
X174072458Y-127540001D01*
X174061081Y-127538843D01*
X174046920Y-127535453D01*
X174030170Y-127529955D01*
X174011026Y-127522472D01*
X173989679Y-127513129D01*
X173966326Y-127502049D01*
X173914370Y-127475178D01*
X173856709Y-127442849D01*
X173794894Y-127406055D01*
X173730474Y-127365789D01*
X173665000Y-127323042D01*
X173564427Y-127253072D01*
X173522579Y-127224839D01*
X173485497Y-127200838D01*
X173452539Y-127180867D01*
X173437405Y-127172331D01*
X173423061Y-127164726D01*
X173409427Y-127158029D01*
X173396421Y-127152213D01*
X173383963Y-127147253D01*
X173371974Y-127143125D01*
X173360372Y-127139804D01*
X173349077Y-127137263D01*
X173338009Y-127135478D01*
X173327088Y-127134423D01*
X173316232Y-127134074D01*
X173305362Y-127134405D01*
X173294397Y-127135391D01*
X173283256Y-127137007D01*
X173271859Y-127139228D01*
X173260127Y-127142028D01*
X173235331Y-127149265D01*
X173208226Y-127158517D01*
X173178167Y-127169584D01*
X173138857Y-127186675D01*
X173104042Y-127202626D01*
X173073382Y-127218034D01*
X173046537Y-127233497D01*
X173023163Y-127249611D01*
X173012672Y-127258099D01*
X173002922Y-127266973D01*
X172993869Y-127276309D01*
X172985470Y-127286180D01*
X172977685Y-127296662D01*
X172970469Y-127307828D01*
X172963780Y-127319755D01*
X172957576Y-127332515D01*
X172946450Y-127360838D01*
X172936750Y-127393393D01*
X172928135Y-127430777D01*
X172920265Y-127473587D01*
X172912798Y-127522420D01*
X172897708Y-127640542D01*
X172888294Y-127710481D01*
X172877710Y-127773660D01*
X172865652Y-127830391D01*
X172858977Y-127856434D01*
X172851820Y-127880982D01*
X172844143Y-127904072D01*
X172835910Y-127925744D01*
X172827081Y-127946036D01*
X172817620Y-127964987D01*
X172807489Y-127982636D01*
X172796649Y-127999022D01*
X172785063Y-128014182D01*
X172772693Y-128028157D01*
X172759501Y-128040984D01*
X172745450Y-128052703D01*
X172730502Y-128063352D01*
X172714619Y-128072970D01*
X172697763Y-128081597D01*
X172679896Y-128089269D01*
X172660981Y-128096027D01*
X172640980Y-128101909D01*
X172619855Y-128106954D01*
X172597568Y-128111201D01*
X172574081Y-128114688D01*
X172549358Y-128117454D01*
X172496047Y-128120978D01*
X172437334Y-128122084D01*
X172183333Y-128122084D01*
X172193917Y-127264834D01*
X172209792Y-126407584D01*
X172500833Y-126322917D01*
X172609877Y-126287981D01*
X172712882Y-126250549D01*
X172810012Y-126210482D01*
X172901429Y-126167640D01*
X172987296Y-126121883D01*
X173067776Y-126073072D01*
X173143031Y-126021067D01*
X173213224Y-125965730D01*
X173278518Y-125906919D01*
X173339077Y-125844497D01*
X173395062Y-125778323D01*
X173446636Y-125708257D01*
X173493963Y-125634161D01*
X173537204Y-125555894D01*
X173576523Y-125473318D01*
X173612083Y-125386292D01*
X173640672Y-125304009D01*
X173664928Y-125221889D01*
X173684858Y-125139970D01*
X173700471Y-125058291D01*
X173711774Y-124976892D01*
X173718775Y-124895810D01*
X173721481Y-124815085D01*
X173719901Y-124734756D01*
X173714042Y-124654860D01*
X173703913Y-124575437D01*
X173689519Y-124496526D01*
X173670871Y-124418165D01*
X173647974Y-124340393D01*
X173620838Y-124263249D01*
X173589469Y-124186772D01*
X173553875Y-124111000D01*
X173518330Y-124042276D01*
X173481094Y-123976931D01*
X173442091Y-123914873D01*
X173401244Y-123856008D01*
X173358474Y-123800244D01*
X173313704Y-123747487D01*
X173266856Y-123697646D01*
X173217854Y-123650625D01*
X173166620Y-123606333D01*
X173113075Y-123564677D01*
X173057143Y-123525563D01*
X172998746Y-123488899D01*
X172937807Y-123454591D01*
X172874247Y-123422546D01*
X172807990Y-123392672D01*
X172738958Y-123364875D01*
X172474375Y-123264333D01*
X172458500Y-122539375D01*
X172456774Y-122428134D01*
X172455606Y-122328101D01*
X172455059Y-122238580D01*
X172455193Y-122158871D01*
X172456071Y-122088279D01*
X172457756Y-122026104D01*
X172460309Y-121971650D01*
X172463792Y-121924219D01*
X172465901Y-121902919D01*
X172468267Y-121883113D01*
X172470896Y-121864714D01*
X172473796Y-121847635D01*
X172476976Y-121831788D01*
X172480442Y-121817086D01*
X172484203Y-121803442D01*
X172488266Y-121790770D01*
X172492639Y-121778981D01*
X172497330Y-121767988D01*
X172502346Y-121757705D01*
X172507696Y-121748044D01*
X172513387Y-121738917D01*
X172519427Y-121730238D01*
X172525823Y-121721920D01*
X172532583Y-121713875D01*
X172542925Y-121703153D01*
X172554050Y-121692843D01*
X172565872Y-121682982D01*
X172578307Y-121673609D01*
X172591268Y-121664763D01*
X172604672Y-121656483D01*
X172618432Y-121648808D01*
X172632464Y-121641776D01*
X172646681Y-121635427D01*
X172660999Y-121629798D01*
X172675333Y-121624929D01*
X172689597Y-121620858D01*
X172703706Y-121617624D01*
X172717575Y-121615266D01*
X172731118Y-121613823D01*
X172744250Y-121613334D01*
X172762193Y-121613808D01*
G37*
G36*
X171396198Y-121617302D02*
G01*
X171419540Y-121619966D01*
X171443782Y-121624971D01*
X171468705Y-121632301D01*
X171494094Y-121641942D01*
X171519731Y-121653876D01*
X171545398Y-121668090D01*
X171570880Y-121684567D01*
X171595958Y-121703292D01*
X171615575Y-121719768D01*
X171632835Y-121736127D01*
X171647862Y-121753370D01*
X171660781Y-121772497D01*
X171671716Y-121794507D01*
X171680790Y-121820401D01*
X171688128Y-121851178D01*
X171693854Y-121887839D01*
X171698092Y-121931383D01*
X171700965Y-121982810D01*
X171703115Y-122113313D01*
X171701296Y-122287349D01*
X171696500Y-122512917D01*
X171680625Y-123227292D01*
X171363125Y-123375458D01*
X171292354Y-123410633D01*
X171224839Y-123446762D01*
X171160486Y-123483929D01*
X171099203Y-123522219D01*
X171040897Y-123561720D01*
X170985474Y-123602514D01*
X170932841Y-123644689D01*
X170882906Y-123688328D01*
X170835576Y-123733518D01*
X170790757Y-123780343D01*
X170748356Y-123828890D01*
X170708281Y-123879242D01*
X170670439Y-123931485D01*
X170634735Y-123985706D01*
X170601079Y-124041988D01*
X170569375Y-124100417D01*
X170530357Y-124183251D01*
X170496594Y-124266933D01*
X170468009Y-124351287D01*
X170444525Y-124436138D01*
X170426063Y-124521311D01*
X170412547Y-124606630D01*
X170403899Y-124691920D01*
X170400042Y-124777006D01*
X170400897Y-124861712D01*
X170406388Y-124945863D01*
X170416436Y-125029283D01*
X170430965Y-125111797D01*
X170449897Y-125193230D01*
X170473154Y-125273406D01*
X170500658Y-125352150D01*
X170532333Y-125429287D01*
X170568101Y-125504640D01*
X170607884Y-125578036D01*
X170651605Y-125649298D01*
X170699186Y-125718251D01*
X170750550Y-125784720D01*
X170805619Y-125848529D01*
X170864316Y-125909502D01*
X170926563Y-125967466D01*
X170992282Y-126022243D01*
X171061397Y-126073660D01*
X171133829Y-126121539D01*
X171209501Y-126165707D01*
X171288336Y-126205987D01*
X171370257Y-126242205D01*
X171455184Y-126274184D01*
X171543042Y-126301750D01*
X171604309Y-126320261D01*
X171664089Y-126339702D01*
X171720891Y-126359514D01*
X171773229Y-126379141D01*
X171819614Y-126398024D01*
X171840109Y-126407011D01*
X171858557Y-126415604D01*
X171874773Y-126423731D01*
X171888571Y-126431324D01*
X171899764Y-126438312D01*
X171908167Y-126444625D01*
X171916726Y-126453728D01*
X171924548Y-126467342D01*
X171931642Y-126485762D01*
X171938015Y-126509283D01*
X171943675Y-126538199D01*
X171948629Y-126572804D01*
X171956453Y-126660261D01*
X171961549Y-126774011D01*
X171963977Y-126916411D01*
X171963802Y-127089816D01*
X171961084Y-127296584D01*
X171945208Y-128095626D01*
X171691208Y-128111501D01*
X171635350Y-128114503D01*
X171584662Y-128115428D01*
X171538857Y-128114058D01*
X171517697Y-128112445D01*
X171497649Y-128110178D01*
X171478679Y-128107227D01*
X171460751Y-128103568D01*
X171443828Y-128099172D01*
X171427876Y-128094013D01*
X171412857Y-128088063D01*
X171398736Y-128081296D01*
X171385478Y-128073683D01*
X171373047Y-128065198D01*
X171361406Y-128055815D01*
X171350520Y-128045504D01*
X171340353Y-128034241D01*
X171330869Y-128021997D01*
X171322032Y-128008745D01*
X171313806Y-127994459D01*
X171306156Y-127979110D01*
X171299046Y-127962672D01*
X171292440Y-127945119D01*
X171286302Y-127926421D01*
X171280595Y-127906554D01*
X171275285Y-127885488D01*
X171265711Y-127839657D01*
X171257292Y-127788709D01*
X171245358Y-127711819D01*
X171233262Y-127641658D01*
X171220840Y-127577885D01*
X171207930Y-127520157D01*
X171201241Y-127493454D01*
X171194369Y-127468134D01*
X171187294Y-127444156D01*
X171179994Y-127421475D01*
X171172450Y-127400051D01*
X171164642Y-127379840D01*
X171156549Y-127360799D01*
X171148151Y-127342886D01*
X171139427Y-127326058D01*
X171130358Y-127310273D01*
X171120922Y-127295488D01*
X171111099Y-127281660D01*
X171100870Y-127268746D01*
X171090213Y-127256705D01*
X171079108Y-127245493D01*
X171067536Y-127235068D01*
X171055475Y-127225387D01*
X171042906Y-127216408D01*
X171029807Y-127208087D01*
X171016159Y-127200383D01*
X171001941Y-127193252D01*
X170987134Y-127186653D01*
X170971716Y-127180541D01*
X170955667Y-127174876D01*
X170882596Y-127148913D01*
X170852487Y-127139157D01*
X170825525Y-127131881D01*
X170800857Y-127127333D01*
X170789117Y-127126160D01*
X170777631Y-127125762D01*
X170766292Y-127126171D01*
X170754994Y-127127416D01*
X170743630Y-127129529D01*
X170732094Y-127132542D01*
X170720278Y-127136485D01*
X170708077Y-127141389D01*
X170695384Y-127147285D01*
X170682092Y-127154205D01*
X170653285Y-127171237D01*
X170620803Y-127192735D01*
X170583795Y-127218945D01*
X170541408Y-127250116D01*
X170437083Y-127328334D01*
X170408095Y-127349896D01*
X170378813Y-127370853D01*
X170349438Y-127391097D01*
X170320171Y-127410520D01*
X170291214Y-127429012D01*
X170262768Y-127446466D01*
X170235036Y-127462773D01*
X170208219Y-127477823D01*
X170182518Y-127491510D01*
X170158134Y-127503724D01*
X170135270Y-127514356D01*
X170114126Y-127523299D01*
X170094905Y-127530443D01*
X170077808Y-127535680D01*
X170063036Y-127538902D01*
X170056586Y-127539724D01*
X170050792Y-127540001D01*
X170035838Y-127538053D01*
X170017917Y-127532359D01*
X169997253Y-127523140D01*
X169974073Y-127510617D01*
X169921067Y-127476551D01*
X169860705Y-127431935D01*
X169794793Y-127378544D01*
X169725137Y-127318154D01*
X169653543Y-127252539D01*
X169581818Y-127183474D01*
X169511766Y-127112736D01*
X169445196Y-127042098D01*
X169383911Y-126973336D01*
X169329719Y-126908225D01*
X169284426Y-126848540D01*
X169249838Y-126796056D01*
X169237122Y-126773069D01*
X169227761Y-126752549D01*
X169221978Y-126734716D01*
X169220000Y-126719792D01*
X169221098Y-126706557D01*
X169224320Y-126690802D01*
X169229558Y-126672737D01*
X169236702Y-126652572D01*
X169245644Y-126630515D01*
X169256277Y-126606776D01*
X169268491Y-126581564D01*
X169282177Y-126555089D01*
X169297228Y-126527560D01*
X169313534Y-126499185D01*
X169349481Y-126440739D01*
X169368903Y-126411086D01*
X169389147Y-126381425D01*
X169410105Y-126351965D01*
X169431667Y-126322917D01*
X169510070Y-126216350D01*
X169541404Y-126172635D01*
X169567762Y-126134153D01*
X169589344Y-126100043D01*
X169598408Y-126084358D01*
X169606354Y-126069444D01*
X169613206Y-126055192D01*
X169618991Y-126041496D01*
X169623733Y-126028247D01*
X169627458Y-126015339D01*
X169630191Y-126002663D01*
X169631957Y-125990112D01*
X169632781Y-125977578D01*
X169632688Y-125964954D01*
X169631704Y-125952133D01*
X169629854Y-125939006D01*
X169627162Y-125925467D01*
X169623655Y-125911407D01*
X169619357Y-125896720D01*
X169614294Y-125881297D01*
X169601972Y-125847814D01*
X169569250Y-125767292D01*
X169555897Y-125737357D01*
X169543288Y-125710872D01*
X169530927Y-125687564D01*
X169518318Y-125667164D01*
X169504965Y-125649399D01*
X169490371Y-125633998D01*
X169482454Y-125627099D01*
X169474041Y-125620690D01*
X169465070Y-125614736D01*
X169455479Y-125609203D01*
X169434189Y-125599267D01*
X169409673Y-125590610D01*
X169381437Y-125582961D01*
X169348984Y-125576048D01*
X169311819Y-125569600D01*
X169269444Y-125563346D01*
X169167083Y-125550334D01*
X169131452Y-125545998D01*
X169096101Y-125540949D01*
X169061183Y-125535218D01*
X169026854Y-125528836D01*
X168993270Y-125521834D01*
X168960584Y-125514243D01*
X168928953Y-125506094D01*
X168898531Y-125497417D01*
X168869474Y-125488245D01*
X168841935Y-125478607D01*
X168816071Y-125468535D01*
X168792036Y-125458060D01*
X168769986Y-125447213D01*
X168750075Y-125436026D01*
X168732459Y-125424528D01*
X168717292Y-125412750D01*
X168695749Y-125395401D01*
X168676664Y-125378634D01*
X168659888Y-125361788D01*
X168645275Y-125344207D01*
X168632678Y-125325230D01*
X168621949Y-125304199D01*
X168612940Y-125280455D01*
X168605505Y-125253339D01*
X168599497Y-125222192D01*
X168594767Y-125186356D01*
X168591169Y-125145171D01*
X168588555Y-125097979D01*
X168585692Y-124982937D01*
X168585000Y-124835959D01*
X168585149Y-124758956D01*
X168585692Y-124690231D01*
X168586779Y-124629134D01*
X168588555Y-124575013D01*
X168591169Y-124527218D01*
X168592836Y-124505488D01*
X168594767Y-124485096D01*
X168596981Y-124465960D01*
X168599497Y-124447998D01*
X168602332Y-124431129D01*
X168605505Y-124415271D01*
X168609035Y-124400344D01*
X168612940Y-124386265D01*
X168617238Y-124372954D01*
X168621949Y-124360329D01*
X168627089Y-124348308D01*
X168632678Y-124336811D01*
X168638734Y-124325755D01*
X168645275Y-124315060D01*
X168652321Y-124304644D01*
X168659888Y-124294426D01*
X168667996Y-124284324D01*
X168676664Y-124274256D01*
X168685908Y-124264143D01*
X168695749Y-124253901D01*
X168717292Y-124232708D01*
X168731662Y-124218142D01*
X168746923Y-124204235D01*
X168762975Y-124191025D01*
X168779717Y-124178552D01*
X168797048Y-124166854D01*
X168814867Y-124155969D01*
X168833074Y-124145938D01*
X168851568Y-124136797D01*
X168870248Y-124128587D01*
X168889013Y-124121346D01*
X168907762Y-124115113D01*
X168926395Y-124109925D01*
X168944811Y-124105824D01*
X168962910Y-124102846D01*
X168980590Y-124101031D01*
X168997750Y-124100417D01*
X169060791Y-124099717D01*
X169119097Y-124097544D01*
X169172891Y-124093789D01*
X169198166Y-124091285D01*
X169222398Y-124088345D01*
X169245614Y-124084956D01*
X169267843Y-124081103D01*
X169289113Y-124076773D01*
X169309452Y-124071954D01*
X169328888Y-124066630D01*
X169347448Y-124060789D01*
X169365162Y-124054417D01*
X169382057Y-124047500D01*
X169398162Y-124040026D01*
X169413504Y-124031979D01*
X169428111Y-124023348D01*
X169442012Y-124014117D01*
X169455235Y-124004275D01*
X169467808Y-123993806D01*
X169479759Y-123982698D01*
X169491115Y-123970936D01*
X169501906Y-123958509D01*
X169512159Y-123945401D01*
X169521903Y-123931599D01*
X169531165Y-123917090D01*
X169539973Y-123901860D01*
X169548356Y-123885895D01*
X169556342Y-123869183D01*
X169563958Y-123851709D01*
X169578619Y-123814757D01*
X169590706Y-123780829D01*
X169600003Y-123749227D01*
X169606292Y-123719252D01*
X169609356Y-123690207D01*
X169609611Y-123675815D01*
X169608979Y-123661395D01*
X169607432Y-123646858D01*
X169604943Y-123632117D01*
X169601485Y-123617086D01*
X169597031Y-123601677D01*
X169585027Y-123569377D01*
X169568713Y-123534519D01*
X169547872Y-123496405D01*
X169522287Y-123454338D01*
X169491741Y-123407619D01*
X169456017Y-123355553D01*
X169368167Y-123232583D01*
X169353422Y-123211403D01*
X169339011Y-123189640D01*
X169325018Y-123167460D01*
X169311529Y-123145023D01*
X169298630Y-123122493D01*
X169286404Y-123100034D01*
X169274939Y-123077806D01*
X169264318Y-123055974D01*
X169254627Y-123034700D01*
X169245952Y-123014147D01*
X169238377Y-122994478D01*
X169231989Y-122975855D01*
X169226872Y-122958441D01*
X169223111Y-122942400D01*
X169220792Y-122927893D01*
X169220000Y-122915083D01*
X169221932Y-122900611D01*
X169227581Y-122883140D01*
X169236726Y-122862898D01*
X169249146Y-122840111D01*
X169282926Y-122787812D01*
X169327156Y-122728056D01*
X169380068Y-122662657D01*
X169439894Y-122593429D01*
X169504866Y-122522185D01*
X169573219Y-122450740D01*
X169643184Y-122380907D01*
X169712993Y-122314500D01*
X169780881Y-122253333D01*
X169845078Y-122199220D01*
X169903819Y-122153975D01*
X169955335Y-122119411D01*
X169977832Y-122106702D01*
X169997859Y-122097343D01*
X170015198Y-122091561D01*
X170029625Y-122089584D01*
X170040819Y-122090559D01*
X170054440Y-122093418D01*
X170070309Y-122098060D01*
X170088247Y-122104384D01*
X170108076Y-122112289D01*
X170129619Y-122121675D01*
X170177130Y-122144485D01*
X170229354Y-122172007D01*
X170284865Y-122203437D01*
X170342236Y-122237967D01*
X170400042Y-122274792D01*
X170452976Y-122310286D01*
X170501059Y-122341455D01*
X170544893Y-122368437D01*
X170585085Y-122391374D01*
X170622237Y-122410404D01*
X170639863Y-122418497D01*
X170656956Y-122425666D01*
X170673592Y-122431929D01*
X170689846Y-122437301D01*
X170705793Y-122441802D01*
X170721510Y-122445448D01*
X170737073Y-122448257D01*
X170752555Y-122450246D01*
X170768034Y-122451433D01*
X170783584Y-122451836D01*
X170799282Y-122451470D01*
X170815202Y-122450355D01*
X170831421Y-122448507D01*
X170848014Y-122445944D01*
X170882625Y-122438743D01*
X170919638Y-122428891D01*
X170959659Y-122416528D01*
X171003292Y-122401792D01*
X171029560Y-122392987D01*
X171052953Y-122384181D01*
X171073694Y-122375003D01*
X171092010Y-122365081D01*
X171108124Y-122354043D01*
X171115425Y-122347989D01*
X171122261Y-122341517D01*
X171128659Y-122334579D01*
X171134647Y-122327130D01*
X171140253Y-122319123D01*
X171145505Y-122310511D01*
X171155061Y-122291287D01*
X171163540Y-122269087D01*
X171171166Y-122243538D01*
X171178165Y-122214268D01*
X171184760Y-122180906D01*
X171191177Y-122143079D01*
X171204375Y-122052542D01*
X171212530Y-121991264D01*
X171220994Y-121931412D01*
X171229583Y-121874413D01*
X171238109Y-121821693D01*
X171246388Y-121774678D01*
X171254232Y-121734794D01*
X171261457Y-121703468D01*
X171264778Y-121691459D01*
X171267875Y-121682125D01*
X171271700Y-121673506D01*
X171276210Y-121665504D01*
X171281380Y-121658118D01*
X171287181Y-121651347D01*
X171293587Y-121645188D01*
X171300571Y-121639640D01*
X171308105Y-121634700D01*
X171316162Y-121630366D01*
X171324715Y-121626637D01*
X171333737Y-121623511D01*
X171343201Y-121620986D01*
X171353079Y-121619059D01*
X171363345Y-121617730D01*
X171373972Y-121616995D01*
X171384932Y-121616853D01*
X171396198Y-121617302D01*
G37*
D11*
X187675200Y-97356266D02*
X187627580Y-97499123D01*
X187627580Y-97499123D02*
X187627580Y-97737218D01*
X187627580Y-97737218D02*
X187675200Y-97832456D01*
X187675200Y-97832456D02*
X187722819Y-97880075D01*
X187722819Y-97880075D02*
X187818057Y-97927694D01*
X187818057Y-97927694D02*
X187913295Y-97927694D01*
X187913295Y-97927694D02*
X188008533Y-97880075D01*
X188008533Y-97880075D02*
X188056152Y-97832456D01*
X188056152Y-97832456D02*
X188103771Y-97737218D01*
X188103771Y-97737218D02*
X188151390Y-97546742D01*
X188151390Y-97546742D02*
X188199009Y-97451504D01*
X188199009Y-97451504D02*
X188246628Y-97403885D01*
X188246628Y-97403885D02*
X188341866Y-97356266D01*
X188341866Y-97356266D02*
X188437104Y-97356266D01*
X188437104Y-97356266D02*
X188532342Y-97403885D01*
X188532342Y-97403885D02*
X188579961Y-97451504D01*
X188579961Y-97451504D02*
X188627580Y-97546742D01*
X188627580Y-97546742D02*
X188627580Y-97784837D01*
X188627580Y-97784837D02*
X188579961Y-97927694D01*
X187627580Y-98356266D02*
X188627580Y-98356266D01*
X188627580Y-98356266D02*
X188627580Y-98594361D01*
X188627580Y-98594361D02*
X188579961Y-98737218D01*
X188579961Y-98737218D02*
X188484723Y-98832456D01*
X188484723Y-98832456D02*
X188389485Y-98880075D01*
X188389485Y-98880075D02*
X188199009Y-98927694D01*
X188199009Y-98927694D02*
X188056152Y-98927694D01*
X188056152Y-98927694D02*
X187865676Y-98880075D01*
X187865676Y-98880075D02*
X187770438Y-98832456D01*
X187770438Y-98832456D02*
X187675200Y-98737218D01*
X187675200Y-98737218D02*
X187627580Y-98594361D01*
X187627580Y-98594361D02*
X187627580Y-98356266D01*
X187913295Y-99308647D02*
X187913295Y-99784837D01*
X187627580Y-99213409D02*
X188627580Y-99546742D01*
X188627580Y-99546742D02*
X187627580Y-99880075D01*
X185075200Y-97356265D02*
X185027580Y-97499122D01*
X185027580Y-97499122D02*
X185027580Y-97737217D01*
X185027580Y-97737217D02*
X185075200Y-97832455D01*
X185075200Y-97832455D02*
X185122819Y-97880074D01*
X185122819Y-97880074D02*
X185218057Y-97927693D01*
X185218057Y-97927693D02*
X185313295Y-97927693D01*
X185313295Y-97927693D02*
X185408533Y-97880074D01*
X185408533Y-97880074D02*
X185456152Y-97832455D01*
X185456152Y-97832455D02*
X185503771Y-97737217D01*
X185503771Y-97737217D02*
X185551390Y-97546741D01*
X185551390Y-97546741D02*
X185599009Y-97451503D01*
X185599009Y-97451503D02*
X185646628Y-97403884D01*
X185646628Y-97403884D02*
X185741866Y-97356265D01*
X185741866Y-97356265D02*
X185837104Y-97356265D01*
X185837104Y-97356265D02*
X185932342Y-97403884D01*
X185932342Y-97403884D02*
X185979961Y-97451503D01*
X185979961Y-97451503D02*
X186027580Y-97546741D01*
X186027580Y-97546741D02*
X186027580Y-97784836D01*
X186027580Y-97784836D02*
X185979961Y-97927693D01*
X185122819Y-98927693D02*
X185075200Y-98880074D01*
X185075200Y-98880074D02*
X185027580Y-98737217D01*
X185027580Y-98737217D02*
X185027580Y-98641979D01*
X185027580Y-98641979D02*
X185075200Y-98499122D01*
X185075200Y-98499122D02*
X185170438Y-98403884D01*
X185170438Y-98403884D02*
X185265676Y-98356265D01*
X185265676Y-98356265D02*
X185456152Y-98308646D01*
X185456152Y-98308646D02*
X185599009Y-98308646D01*
X185599009Y-98308646D02*
X185789485Y-98356265D01*
X185789485Y-98356265D02*
X185884723Y-98403884D01*
X185884723Y-98403884D02*
X185979961Y-98499122D01*
X185979961Y-98499122D02*
X186027580Y-98641979D01*
X186027580Y-98641979D02*
X186027580Y-98737217D01*
X186027580Y-98737217D02*
X185979961Y-98880074D01*
X185979961Y-98880074D02*
X185932342Y-98927693D01*
X185027580Y-99832455D02*
X185027580Y-99356265D01*
X185027580Y-99356265D02*
X186027580Y-99356265D01*
X181027580Y-97261027D02*
X180027580Y-97594360D01*
X180027580Y-97594360D02*
X181027580Y-97927693D01*
X180122819Y-98832455D02*
X180075200Y-98784836D01*
X180075200Y-98784836D02*
X180027580Y-98641979D01*
X180027580Y-98641979D02*
X180027580Y-98546741D01*
X180027580Y-98546741D02*
X180075200Y-98403884D01*
X180075200Y-98403884D02*
X180170438Y-98308646D01*
X180170438Y-98308646D02*
X180265676Y-98261027D01*
X180265676Y-98261027D02*
X180456152Y-98213408D01*
X180456152Y-98213408D02*
X180599009Y-98213408D01*
X180599009Y-98213408D02*
X180789485Y-98261027D01*
X180789485Y-98261027D02*
X180884723Y-98308646D01*
X180884723Y-98308646D02*
X180979961Y-98403884D01*
X180979961Y-98403884D02*
X181027580Y-98546741D01*
X181027580Y-98546741D02*
X181027580Y-98641979D01*
X181027580Y-98641979D02*
X180979961Y-98784836D01*
X180979961Y-98784836D02*
X180932342Y-98832455D01*
X180122819Y-99832455D02*
X180075200Y-99784836D01*
X180075200Y-99784836D02*
X180027580Y-99641979D01*
X180027580Y-99641979D02*
X180027580Y-99546741D01*
X180027580Y-99546741D02*
X180075200Y-99403884D01*
X180075200Y-99403884D02*
X180170438Y-99308646D01*
X180170438Y-99308646D02*
X180265676Y-99261027D01*
X180265676Y-99261027D02*
X180456152Y-99213408D01*
X180456152Y-99213408D02*
X180599009Y-99213408D01*
X180599009Y-99213408D02*
X180789485Y-99261027D01*
X180789485Y-99261027D02*
X180884723Y-99308646D01*
X180884723Y-99308646D02*
X180979961Y-99403884D01*
X180979961Y-99403884D02*
X181027580Y-99546741D01*
X181027580Y-99546741D02*
X181027580Y-99641979D01*
X181027580Y-99641979D02*
X180979961Y-99784836D01*
X180979961Y-99784836D02*
X180932342Y-99832455D01*
X183279961Y-97927694D02*
X183327580Y-97832456D01*
X183327580Y-97832456D02*
X183327580Y-97689599D01*
X183327580Y-97689599D02*
X183279961Y-97546742D01*
X183279961Y-97546742D02*
X183184723Y-97451504D01*
X183184723Y-97451504D02*
X183089485Y-97403885D01*
X183089485Y-97403885D02*
X182899009Y-97356266D01*
X182899009Y-97356266D02*
X182756152Y-97356266D01*
X182756152Y-97356266D02*
X182565676Y-97403885D01*
X182565676Y-97403885D02*
X182470438Y-97451504D01*
X182470438Y-97451504D02*
X182375200Y-97546742D01*
X182375200Y-97546742D02*
X182327580Y-97689599D01*
X182327580Y-97689599D02*
X182327580Y-97784837D01*
X182327580Y-97784837D02*
X182375200Y-97927694D01*
X182375200Y-97927694D02*
X182422819Y-97975313D01*
X182422819Y-97975313D02*
X182756152Y-97975313D01*
X182756152Y-97975313D02*
X182756152Y-97784837D01*
X182327580Y-98403885D02*
X183327580Y-98403885D01*
X183327580Y-98403885D02*
X182327580Y-98975313D01*
X182327580Y-98975313D02*
X183327580Y-98975313D01*
X182327580Y-99451504D02*
X183327580Y-99451504D01*
X183327580Y-99451504D02*
X183327580Y-99689599D01*
X183327580Y-99689599D02*
X183279961Y-99832456D01*
X183279961Y-99832456D02*
X183184723Y-99927694D01*
X183184723Y-99927694D02*
X183089485Y-99975313D01*
X183089485Y-99975313D02*
X182899009Y-100022932D01*
X182899009Y-100022932D02*
X182756152Y-100022932D01*
X182756152Y-100022932D02*
X182565676Y-99975313D01*
X182565676Y-99975313D02*
X182470438Y-99927694D01*
X182470438Y-99927694D02*
X182375200Y-99832456D01*
X182375200Y-99832456D02*
X182327580Y-99689599D01*
X182327580Y-99689599D02*
X182327580Y-99451504D01*
X200613295Y-97156265D02*
X200613295Y-97632455D01*
X200327580Y-97061027D02*
X201327580Y-97394360D01*
X201327580Y-97394360D02*
X200327580Y-97727693D01*
X201232342Y-98013408D02*
X201279961Y-98061027D01*
X201279961Y-98061027D02*
X201327580Y-98156265D01*
X201327580Y-98156265D02*
X201327580Y-98394360D01*
X201327580Y-98394360D02*
X201279961Y-98489598D01*
X201279961Y-98489598D02*
X201232342Y-98537217D01*
X201232342Y-98537217D02*
X201137104Y-98584836D01*
X201137104Y-98584836D02*
X201041866Y-98584836D01*
X201041866Y-98584836D02*
X200899009Y-98537217D01*
X200899009Y-98537217D02*
X200327580Y-97965789D01*
X200327580Y-97965789D02*
X200327580Y-98584836D01*
X195513295Y-97256264D02*
X195513295Y-97732454D01*
X195227580Y-97161026D02*
X196227580Y-97494359D01*
X196227580Y-97494359D02*
X195227580Y-97827692D01*
X196227580Y-98351502D02*
X196227580Y-98446740D01*
X196227580Y-98446740D02*
X196179961Y-98541978D01*
X196179961Y-98541978D02*
X196132342Y-98589597D01*
X196132342Y-98589597D02*
X196037104Y-98637216D01*
X196037104Y-98637216D02*
X195846628Y-98684835D01*
X195846628Y-98684835D02*
X195608533Y-98684835D01*
X195608533Y-98684835D02*
X195418057Y-98637216D01*
X195418057Y-98637216D02*
X195322819Y-98589597D01*
X195322819Y-98589597D02*
X195275200Y-98541978D01*
X195275200Y-98541978D02*
X195227580Y-98446740D01*
X195227580Y-98446740D02*
X195227580Y-98351502D01*
X195227580Y-98351502D02*
X195275200Y-98256264D01*
X195275200Y-98256264D02*
X195322819Y-98208645D01*
X195322819Y-98208645D02*
X195418057Y-98161026D01*
X195418057Y-98161026D02*
X195608533Y-98113407D01*
X195608533Y-98113407D02*
X195846628Y-98113407D01*
X195846628Y-98113407D02*
X196037104Y-98161026D01*
X196037104Y-98161026D02*
X196132342Y-98208645D01*
X196132342Y-98208645D02*
X196179961Y-98256264D01*
X196179961Y-98256264D02*
X196227580Y-98351502D01*
X203313294Y-97256265D02*
X203313294Y-97732455D01*
X203027579Y-97161027D02*
X204027579Y-97494360D01*
X204027579Y-97494360D02*
X203027579Y-97827693D01*
X204027579Y-98065789D02*
X204027579Y-98684836D01*
X204027579Y-98684836D02*
X203646627Y-98351503D01*
X203646627Y-98351503D02*
X203646627Y-98494360D01*
X203646627Y-98494360D02*
X203599008Y-98589598D01*
X203599008Y-98589598D02*
X203551389Y-98637217D01*
X203551389Y-98637217D02*
X203456151Y-98684836D01*
X203456151Y-98684836D02*
X203218056Y-98684836D01*
X203218056Y-98684836D02*
X203122818Y-98637217D01*
X203122818Y-98637217D02*
X203075199Y-98589598D01*
X203075199Y-98589598D02*
X203027579Y-98494360D01*
X203027579Y-98494360D02*
X203027579Y-98208646D01*
X203027579Y-98208646D02*
X203075199Y-98113408D01*
X203075199Y-98113408D02*
X203122818Y-98065789D01*
X198313295Y-97256264D02*
X198313295Y-97732454D01*
X198027580Y-97161026D02*
X199027580Y-97494359D01*
X199027580Y-97494359D02*
X198027580Y-97827692D01*
X198027580Y-98684835D02*
X198027580Y-98113407D01*
X198027580Y-98399121D02*
X199027580Y-98399121D01*
X199027580Y-98399121D02*
X198884723Y-98303883D01*
X198884723Y-98303883D02*
X198789485Y-98208645D01*
X198789485Y-98208645D02*
X198741866Y-98113407D01*
X190313295Y-97356265D02*
X190313295Y-97832455D01*
X190027580Y-97261027D02*
X191027580Y-97594360D01*
X191027580Y-97594360D02*
X190027580Y-97927693D01*
X190027580Y-98261027D02*
X191027580Y-98261027D01*
X191027580Y-98261027D02*
X191027580Y-98499122D01*
X191027580Y-98499122D02*
X190979961Y-98641979D01*
X190979961Y-98641979D02*
X190884723Y-98737217D01*
X190884723Y-98737217D02*
X190789485Y-98784836D01*
X190789485Y-98784836D02*
X190599009Y-98832455D01*
X190599009Y-98832455D02*
X190456152Y-98832455D01*
X190456152Y-98832455D02*
X190265676Y-98784836D01*
X190265676Y-98784836D02*
X190170438Y-98737217D01*
X190170438Y-98737217D02*
X190075200Y-98641979D01*
X190075200Y-98641979D02*
X190027580Y-98499122D01*
X190027580Y-98499122D02*
X190027580Y-98261027D01*
X190027580Y-99261027D02*
X191027580Y-99261027D01*
X191027580Y-99261027D02*
X191027580Y-99499122D01*
X191027580Y-99499122D02*
X190979961Y-99641979D01*
X190979961Y-99641979D02*
X190884723Y-99737217D01*
X190884723Y-99737217D02*
X190789485Y-99784836D01*
X190789485Y-99784836D02*
X190599009Y-99832455D01*
X190599009Y-99832455D02*
X190456152Y-99832455D01*
X190456152Y-99832455D02*
X190265676Y-99784836D01*
X190265676Y-99784836D02*
X190170438Y-99737217D01*
X190170438Y-99737217D02*
X190075200Y-99641979D01*
X190075200Y-99641979D02*
X190027580Y-99499122D01*
X190027580Y-99499122D02*
X190027580Y-99261027D01*
X190027580Y-100832455D02*
X190503771Y-100499122D01*
X190027580Y-100261027D02*
X191027580Y-100261027D01*
X191027580Y-100261027D02*
X191027580Y-100641979D01*
X191027580Y-100641979D02*
X190979961Y-100737217D01*
X190979961Y-100737217D02*
X190932342Y-100784836D01*
X190932342Y-100784836D02*
X190837104Y-100832455D01*
X190837104Y-100832455D02*
X190694247Y-100832455D01*
X190694247Y-100832455D02*
X190599009Y-100784836D01*
X190599009Y-100784836D02*
X190551390Y-100737217D01*
X190551390Y-100737217D02*
X190503771Y-100641979D01*
X190503771Y-100641979D02*
X190503771Y-100261027D01*
X193013295Y-97356265D02*
X193013295Y-97832455D01*
X192727580Y-97261027D02*
X193727580Y-97594360D01*
X193727580Y-97594360D02*
X192727580Y-97927693D01*
X192727580Y-98737217D02*
X192727580Y-98261027D01*
X192727580Y-98261027D02*
X193727580Y-98261027D01*
X193251390Y-99070551D02*
X193251390Y-99403884D01*
X192727580Y-99546741D02*
X192727580Y-99070551D01*
X192727580Y-99070551D02*
X193727580Y-99070551D01*
X193727580Y-99070551D02*
X193727580Y-99546741D01*
X192727580Y-100546741D02*
X193203771Y-100213408D01*
X192727580Y-99975313D02*
X193727580Y-99975313D01*
X193727580Y-99975313D02*
X193727580Y-100356265D01*
X193727580Y-100356265D02*
X193679961Y-100451503D01*
X193679961Y-100451503D02*
X193632342Y-100499122D01*
X193632342Y-100499122D02*
X193537104Y-100546741D01*
X193537104Y-100546741D02*
X193394247Y-100546741D01*
X193394247Y-100546741D02*
X193299009Y-100499122D01*
X193299009Y-100499122D02*
X193251390Y-100451503D01*
X193251390Y-100451503D02*
X193203771Y-100356265D01*
X193203771Y-100356265D02*
X193203771Y-99975313D01*
X193727580Y-100832456D02*
X193727580Y-101403884D01*
X192727580Y-101118170D02*
X193727580Y-101118170D01*
D12*
X189554819Y-65123333D02*
X190269104Y-65123333D01*
X190269104Y-65123333D02*
X190411961Y-65170952D01*
X190411961Y-65170952D02*
X190507200Y-65266190D01*
X190507200Y-65266190D02*
X190554819Y-65409047D01*
X190554819Y-65409047D02*
X190554819Y-65504285D01*
X190554819Y-64123333D02*
X190554819Y-64694761D01*
X190554819Y-64409047D02*
X189554819Y-64409047D01*
X189554819Y-64409047D02*
X189697676Y-64504285D01*
X189697676Y-64504285D02*
X189792914Y-64599523D01*
X189792914Y-64599523D02*
X189840533Y-64694761D01*
X172649798Y-74278796D02*
X172144722Y-74783872D01*
X172144722Y-74783872D02*
X172010035Y-74851216D01*
X172010035Y-74851216D02*
X171875348Y-74851216D01*
X171875348Y-74851216D02*
X171740661Y-74783872D01*
X171740661Y-74783872D02*
X171673317Y-74716529D01*
X172649798Y-75693010D02*
X172245737Y-75288949D01*
X172447768Y-75490979D02*
X173154875Y-74783872D01*
X173154875Y-74783872D02*
X172986516Y-74817544D01*
X172986516Y-74817544D02*
X172851829Y-74817544D01*
X172851829Y-74817544D02*
X172750814Y-74783872D01*
X168266666Y-103554819D02*
X168266666Y-104269104D01*
X168266666Y-104269104D02*
X168219047Y-104411961D01*
X168219047Y-104411961D02*
X168123809Y-104507200D01*
X168123809Y-104507200D02*
X167980952Y-104554819D01*
X167980952Y-104554819D02*
X167885714Y-104554819D01*
X169266666Y-104554819D02*
X168695238Y-104554819D01*
X168980952Y-104554819D02*
X168980952Y-103554819D01*
X168980952Y-103554819D02*
X168885714Y-103697676D01*
X168885714Y-103697676D02*
X168790476Y-103792914D01*
X168790476Y-103792914D02*
X168695238Y-103840533D01*
D13*
%TO.C,J1*%
X190100000Y-63220000D02*
X190100000Y-66380000D01*
X191020001Y-67379999D02*
G75*
G02*
X189179999Y-67379999I-920001J0D01*
G01*
X189179999Y-67379999D02*
G75*
G02*
X191020001Y-67379999I920001J0D01*
G01*
X191020000Y-62300000D02*
G75*
G02*
X189180000Y-62300000I-920000J0D01*
G01*
X189180000Y-62300000D02*
G75*
G02*
X191020000Y-62300000I920000J0D01*
G01*
X171588595Y-73068594D02*
G75*
G02*
X169748593Y-73068594I-920001J0D01*
G01*
X169748593Y-73068594D02*
G75*
G02*
X171588595Y-73068594I920001J0D01*
G01*
X175180696Y-76660696D02*
G75*
G02*
X173340696Y-76660696I-920000J0D01*
G01*
X173340696Y-76660696D02*
G75*
G02*
X175180696Y-76660696I920000J0D01*
G01*
X173610158Y-76010158D02*
X171375700Y-73775700D01*
X172110000Y-104100000D02*
G75*
G02*
X170270000Y-104100000I-920000J0D01*
G01*
X170270000Y-104100000D02*
G75*
G02*
X172110000Y-104100000I920000J0D01*
G01*
X167030000Y-104100000D02*
G75*
G02*
X165190000Y-104100000I-920000J0D01*
G01*
X165190000Y-104100000D02*
G75*
G02*
X167030000Y-104100000I920000J0D01*
G01*
X167030000Y-104100000D02*
X170190000Y-104100000D01*
D11*
X203662050Y-116700000D02*
X197262050Y-116700000D01*
X197262050Y-108100000D01*
X203662050Y-108100000D01*
X203662050Y-116700000D01*
D13*
X202417050Y-107490000D02*
X202087050Y-107250000D01*
X202417051Y-107010000D01*
X202417050Y-107490000D01*
G36*
X202417050Y-107490000D02*
G01*
X202087050Y-107250000D01*
X202417051Y-107010000D01*
X202417050Y-107490000D01*
G37*
D11*
X202062050Y-118600000D02*
X198862049Y-118600000D01*
X198862050Y-116600000D01*
X202062050Y-116600000D01*
X202062050Y-118600000D01*
X201662050Y-108000000D02*
X199262050Y-108000000D01*
X199262050Y-106000000D01*
X201662050Y-106000000D01*
X201662050Y-108000000D01*
X202024101Y-112400000D02*
G75*
G02*
X198899999Y-112400000I-1562051J0D01*
G01*
X198899999Y-112400000D02*
G75*
G02*
X202024101Y-112400000I1562051J0D01*
G01*
%TO.C,J3*%
X203662050Y-82100000D02*
X197262050Y-82100000D01*
X197262050Y-73500000D01*
X203662050Y-73500000D01*
X203662050Y-82100000D01*
D13*
X202417050Y-72890000D02*
X202087050Y-72650000D01*
X202417051Y-72410000D01*
X202417050Y-72890000D01*
G36*
X202417050Y-72890000D02*
G01*
X202087050Y-72650000D01*
X202417051Y-72410000D01*
X202417050Y-72890000D01*
G37*
D11*
X202062050Y-84000000D02*
X198862049Y-84000000D01*
X198862050Y-82000000D01*
X202062050Y-82000000D01*
X202062050Y-84000000D01*
X201662050Y-73400000D02*
X199262050Y-73400000D01*
X199262050Y-71400000D01*
X201662050Y-71400000D01*
X201662050Y-73400000D01*
X202024101Y-77800000D02*
G75*
G02*
X198899999Y-77800000I-1562051J0D01*
G01*
X198899999Y-77800000D02*
G75*
G02*
X202024101Y-77800000I1562051J0D01*
G01*
D13*
%TO.C,REF\u002A\u002A*%
X166180000Y-100320000D02*
X164800000Y-100319999D01*
X166179999Y-98940000D02*
X166180000Y-100320000D01*
X166180000Y-97670000D02*
X166180000Y-87400000D01*
X166180000Y-97670000D02*
X163420000Y-97670000D01*
X166180000Y-87400000D02*
X163420000Y-87400000D01*
X163420000Y-97670000D02*
X163420000Y-87400000D01*
%TD*%
M02*
