%TF.GenerationSoftware,KiCad,Pcbnew,9.0.5*%
%TF.CreationDate,2026-03-25T11:36:55+01:00*%
%TF.ProjectId,System_pomiaru_ci_nienia_Chemsilium,53797374-656d-45f7-906f-6d696172755f,rev?*%
%TF.SameCoordinates,Original*%
%TF.FileFunction,Soldermask,Top*%
%TF.FilePolarity,Negative*%
%FSLAX46Y46*%
G04 Gerber Fmt 4.6, Leading zero omitted, Abs format (unit mm)*
G04 Created by KiCad (PCBNEW 9.0.5) date 2026-03-25 11:36:55*
%MOMM*%
%LPD*%
G01*
G04 APERTURE LIST*
%ADD10C,1.400000*%
%ADD11R,3.300000X2.000000*%
%ADD12R,0.400000X2.000000*%
%ADD13C,3.200000*%
%ADD14C,1.700000*%
%ADD15R,1.700000X1.700000*%
G04 APERTURE END LIST*
D10*
%TO.C,J1*%
X190100000Y-62300000D03*
X190100000Y-67379999D03*
%TD*%
%TO.C,J1*%
X170668594Y-73068594D03*
X174260696Y-76660696D03*
%TD*%
%TO.C,J1*%
X171189999Y-104100000D03*
X166110000Y-104100000D03*
%TD*%
D11*
%TO.C,J1*%
X200462050Y-117600000D03*
D12*
X199487050Y-107025000D03*
X200137051Y-107025000D03*
X200787050Y-107025000D03*
X201437049Y-107025000D03*
%TD*%
D13*
%TO.C,REF\u002A\u002A*%
X206464467Y-63635534D03*
%TD*%
%TO.C,REF\u002A\u002A*%
X163567766Y-63667767D03*
%TD*%
%TO.C,*%
X200462050Y-121400000D03*
%TD*%
D11*
%TO.C,J3*%
X200462050Y-83000000D03*
D12*
X199487050Y-72425000D03*
X200137051Y-72425000D03*
X200787050Y-72425000D03*
X201437049Y-72425000D03*
%TD*%
D13*
%TO.C,*%
X200462050Y-86800000D03*
%TD*%
%TO.C,REF\u002A\u002A*%
X206432234Y-126532233D03*
%TD*%
%TO.C,REF\u002A\u002A*%
X163567767Y-126532233D03*
%TD*%
D14*
%TO.C,REF\u002A\u002A*%
X164800000Y-88780000D03*
X164800000Y-91320000D03*
X164800000Y-93860001D03*
X164800000Y-96400000D03*
D15*
X164800000Y-98940000D03*
%TD*%
D13*
%TO.C,*%
X206462050Y-109899999D03*
%TD*%
%TO.C,*%
X194462050Y-109900000D03*
%TD*%
%TO.C,*%
X194462050Y-75300000D03*
%TD*%
%TO.C,*%
X206462050Y-75300000D03*
%TD*%
D14*
%TO.C,REF\u002A\u002A*%
X203360000Y-94925000D03*
X200820000Y-94925000D03*
X198280001Y-94925000D03*
X195740000Y-94925000D03*
X193200000Y-94925000D03*
X190660000Y-94925000D03*
X188120000Y-94925000D03*
X185579999Y-94925000D03*
X183040000Y-94925000D03*
D15*
X180500000Y-94925000D03*
%TD*%
M02*
