%TF.GenerationSoftware,KiCad,Pcbnew,9.0.5*%
%TF.CreationDate,2026-03-25T11:36:55+01:00*%
%TF.ProjectId,System_pomiaru_ci_nienia_Chemsilium,53797374-656d-45f7-906f-6d696172755f,rev?*%
%TF.SameCoordinates,Original*%
%TF.FileFunction,AssemblyDrawing,Bot*%
%FSLAX46Y46*%
G04 Gerber Fmt 4.6, Leading zero omitted, Abs format (unit mm)*
G04 Created by KiCad (PCBNEW 9.0.5) date 2026-03-25 11:36:55*
%MOMM*%
%LPD*%
G01*
G04 APERTURE LIST*
%ADD10C,0.150000*%
%ADD11C,0.100000*%
G04 APERTURE END LIST*
D10*
X193263334Y-95379819D02*
X193596667Y-94903628D01*
X193834762Y-95379819D02*
X193834762Y-94379819D01*
X193834762Y-94379819D02*
X193453810Y-94379819D01*
X193453810Y-94379819D02*
X193358572Y-94427438D01*
X193358572Y-94427438D02*
X193310953Y-94475057D01*
X193310953Y-94475057D02*
X193263334Y-94570295D01*
X193263334Y-94570295D02*
X193263334Y-94713152D01*
X193263334Y-94713152D02*
X193310953Y-94808390D01*
X193310953Y-94808390D02*
X193358572Y-94856009D01*
X193358572Y-94856009D02*
X193453810Y-94903628D01*
X193453810Y-94903628D02*
X193834762Y-94903628D01*
X192834762Y-94856009D02*
X192501429Y-94856009D01*
X192358572Y-95379819D02*
X192834762Y-95379819D01*
X192834762Y-95379819D02*
X192834762Y-94379819D01*
X192834762Y-94379819D02*
X192358572Y-94379819D01*
X191596667Y-94856009D02*
X191930000Y-94856009D01*
X191930000Y-95379819D02*
X191930000Y-94379819D01*
X191930000Y-94379819D02*
X191453810Y-94379819D01*
X190930000Y-94379819D02*
X190930000Y-94617914D01*
X191168095Y-94522676D02*
X190930000Y-94617914D01*
X190930000Y-94617914D02*
X190691905Y-94522676D01*
X191072857Y-94808390D02*
X190930000Y-94617914D01*
X190930000Y-94617914D02*
X190787143Y-94808390D01*
X190168095Y-94379819D02*
X190168095Y-94617914D01*
X190406190Y-94522676D02*
X190168095Y-94617914D01*
X190168095Y-94617914D02*
X189930000Y-94522676D01*
X190310952Y-94808390D02*
X190168095Y-94617914D01*
X190168095Y-94617914D02*
X190025238Y-94808390D01*
D11*
%TO.C,REF\u002A\u002A*%
X204630000Y-96195000D02*
X204630000Y-93655000D01*
X204630000Y-93655000D02*
X179230000Y-93655000D01*
X179865000Y-96195000D02*
X204630000Y-96195000D01*
X179230000Y-95560000D02*
X179865000Y-96195000D01*
X179230000Y-93655000D02*
X179230000Y-95560000D01*
%TD*%
M02*
