%TF.GenerationSoftware,KiCad,Pcbnew,9.0.5*%
%TF.CreationDate,2026-03-25T11:36:55+01:00*%
%TF.ProjectId,System_pomiaru_ci_nienia_Chemsilium,53797374-656d-45f7-906f-6d696172755f,rev?*%
%TF.SameCoordinates,Original*%
%TF.FileFunction,AssemblyDrawing,Top*%
%FSLAX46Y46*%
G04 Gerber Fmt 4.6, Leading zero omitted, Abs format (unit mm)*
G04 Created by KiCad (PCBNEW 9.0.5) date 2026-03-25 11:36:55*
%MOMM*%
%LPD*%
G01*
G04 APERTURE LIST*
%ADD10C,0.150000*%
%ADD11C,0.100000*%
G04 APERTURE END LIST*
D10*
X165254819Y-95193334D02*
X164778628Y-95526667D01*
X165254819Y-95764762D02*
X164254819Y-95764762D01*
X164254819Y-95764762D02*
X164254819Y-95383810D01*
X164254819Y-95383810D02*
X164302438Y-95288572D01*
X164302438Y-95288572D02*
X164350057Y-95240953D01*
X164350057Y-95240953D02*
X164445295Y-95193334D01*
X164445295Y-95193334D02*
X164588152Y-95193334D01*
X164588152Y-95193334D02*
X164683390Y-95240953D01*
X164683390Y-95240953D02*
X164731009Y-95288572D01*
X164731009Y-95288572D02*
X164778628Y-95383810D01*
X164778628Y-95383810D02*
X164778628Y-95764762D01*
X164731009Y-94764762D02*
X164731009Y-94431429D01*
X165254819Y-94288572D02*
X165254819Y-94764762D01*
X165254819Y-94764762D02*
X164254819Y-94764762D01*
X164254819Y-94764762D02*
X164254819Y-94288572D01*
X164731009Y-93526667D02*
X164731009Y-93860000D01*
X165254819Y-93860000D02*
X164254819Y-93860000D01*
X164254819Y-93860000D02*
X164254819Y-93383810D01*
X164254819Y-92860000D02*
X164492914Y-92860000D01*
X164397676Y-93098095D02*
X164492914Y-92860000D01*
X164492914Y-92860000D02*
X164397676Y-92621905D01*
X164683390Y-93002857D02*
X164492914Y-92860000D01*
X164492914Y-92860000D02*
X164683390Y-92717143D01*
X164254819Y-92098095D02*
X164492914Y-92098095D01*
X164397676Y-92336190D02*
X164492914Y-92098095D01*
X164492914Y-92098095D02*
X164397676Y-91860000D01*
X164683390Y-92240952D02*
X164492914Y-92098095D01*
X164492914Y-92098095D02*
X164683390Y-91955238D01*
D11*
%TO.C,J1*%
X190100000Y-62300000D02*
X190100000Y-67379999D01*
X190899999Y-62300000D02*
G75*
G02*
X189300001Y-62300000I-799999J0D01*
G01*
X189300001Y-62300000D02*
G75*
G02*
X190899999Y-62300000I799999J0D01*
G01*
X175060695Y-76660696D02*
G75*
G02*
X173460697Y-76660696I-799999J0D01*
G01*
X173460697Y-76660696D02*
G75*
G02*
X175060695Y-76660696I799999J0D01*
G01*
X174260696Y-76660696D02*
X170668594Y-73068594D01*
X166909999Y-104100000D02*
G75*
G02*
X165310001Y-104100000I-799999J0D01*
G01*
X165310001Y-104100000D02*
G75*
G02*
X166909999Y-104100000I799999J0D01*
G01*
X166110000Y-104100000D02*
X171189999Y-104100000D01*
%TO.C,REF\u002A\u002A*%
X166070000Y-99575000D02*
X165435000Y-100210000D01*
X166070000Y-87510000D02*
X166070000Y-99575000D01*
X165435000Y-100210000D02*
X163530000Y-100210000D01*
X163530000Y-100210000D02*
X163530000Y-87510000D01*
X163530000Y-87510000D02*
X166070000Y-87510000D01*
%TD*%
M02*
