%TF.GenerationSoftware,KiCad,Pcbnew,10.0.1-10.0.1~ubuntu25.10.1*%
%TF.CreationDate,2026-05-04T19:13:13+02:00*%
%TF.ProjectId,LPSN,4c50534e-2e6b-4696-9361-645f70636258,rev?*%
%TF.SameCoordinates,Original*%
%TF.FileFunction,Soldermask,Top*%
%TF.FilePolarity,Negative*%
%FSLAX46Y46*%
G04 Gerber Fmt 4.6, Leading zero omitted, Abs format (unit mm)*
G04 Created by KiCad (PCBNEW 10.0.1-10.0.1~ubuntu25.10.1) date 2026-05-04 19:13:13*
%MOMM*%
%LPD*%
G01*
G04 APERTURE LIST*
G04 Aperture macros list*
%AMRoundRect*
0 Rectangle with rounded corners*
0 $1 Rounding radius*
0 $2 $3 $4 $5 $6 $7 $8 $9 X,Y pos of 4 corners*
0 Add a 4 corners polygon primitive as box body*
4,1,4,$2,$3,$4,$5,$6,$7,$8,$9,$2,$3,0*
0 Add four circle primitives for the rounded corners*
1,1,$1+$1,$2,$3*
1,1,$1+$1,$4,$5*
1,1,$1+$1,$6,$7*
1,1,$1+$1,$8,$9*
0 Add four rect primitives between the rounded corners*
20,1,$1+$1,$2,$3,$4,$5,0*
20,1,$1+$1,$4,$5,$6,$7,0*
20,1,$1+$1,$6,$7,$8,$9,0*
20,1,$1+$1,$8,$9,$2,$3,0*%
%AMFreePoly0*
4,1,23,0.550000,-0.750000,0.000000,-0.750000,0.000000,-0.745722,-0.065263,-0.745722,-0.191342,-0.711940,-0.304381,-0.646677,-0.396677,-0.554381,-0.461940,-0.441342,-0.495722,-0.315263,-0.495722,-0.250000,-0.500000,-0.250000,-0.500000,0.250000,-0.495722,0.250000,-0.495722,0.315263,-0.461940,0.441342,-0.396677,0.554381,-0.304381,0.646677,-0.191342,0.711940,-0.065263,0.745722,0.000000,0.745722,
0.000000,0.750000,0.550000,0.750000,0.550000,-0.750000,0.550000,-0.750000,$1*%
%AMFreePoly1*
4,1,23,0.000000,0.745722,0.065263,0.745722,0.191342,0.711940,0.304381,0.646677,0.396677,0.554381,0.461940,0.441342,0.495722,0.315263,0.495722,0.250000,0.500000,0.250000,0.500000,-0.250000,0.495722,-0.250000,0.495722,-0.315263,0.461940,-0.441342,0.396677,-0.554381,0.304381,-0.646677,0.191342,-0.711940,0.065263,-0.745722,0.000000,-0.745722,0.000000,-0.750000,-0.550000,-0.750000,
-0.550000,0.750000,0.000000,0.750000,0.000000,0.745722,0.000000,0.745722,$1*%
G04 Aperture macros list end*
%ADD10RoundRect,0.100000X-0.100000X0.637500X-0.100000X-0.637500X0.100000X-0.637500X0.100000X0.637500X0*%
%ADD11RoundRect,0.225000X-0.250000X0.225000X-0.250000X-0.225000X0.250000X-0.225000X0.250000X0.225000X0*%
%ADD12C,2.200000*%
%ADD13RoundRect,0.200000X-0.200000X-0.275000X0.200000X-0.275000X0.200000X0.275000X-0.200000X0.275000X0*%
%ADD14RoundRect,0.225000X0.225000X0.250000X-0.225000X0.250000X-0.225000X-0.250000X0.225000X-0.250000X0*%
%ADD15R,0.300000X0.500000*%
%ADD16RoundRect,0.225000X-0.225000X-0.250000X0.225000X-0.250000X0.225000X0.250000X-0.225000X0.250000X0*%
%ADD17R,1.700000X1.700000*%
%ADD18C,1.700000*%
%ADD19RoundRect,0.105000X0.295000X-0.245000X0.295000X0.245000X-0.295000X0.245000X-0.295000X-0.245000X0*%
%ADD20RoundRect,0.105000X0.245000X0.295000X-0.245000X0.295000X-0.245000X-0.295000X0.245000X-0.295000X0*%
%ADD21RoundRect,0.105000X-0.245000X-0.295000X0.245000X-0.295000X0.245000X0.295000X-0.245000X0.295000X0*%
%ADD22RoundRect,0.087500X0.125000X0.087500X-0.125000X0.087500X-0.125000X-0.087500X0.125000X-0.087500X0*%
%ADD23RoundRect,0.087500X0.087500X0.125000X-0.087500X0.125000X-0.087500X-0.125000X0.087500X-0.125000X0*%
%ADD24RoundRect,0.225000X0.250000X-0.225000X0.250000X0.225000X-0.250000X0.225000X-0.250000X-0.225000X0*%
%ADD25RoundRect,0.250000X-0.337500X-0.475000X0.337500X-0.475000X0.337500X0.475000X-0.337500X0.475000X0*%
%ADD26FreePoly0,270.000000*%
%ADD27R,1.500000X1.000000*%
%ADD28FreePoly1,270.000000*%
%ADD29RoundRect,0.250000X-0.475000X0.337500X-0.475000X-0.337500X0.475000X-0.337500X0.475000X0.337500X0*%
G04 APERTURE END LIST*
%TO.C,REF\u002A\u002A*%
G36*
X186550000Y-103650000D02*
G01*
X188050000Y-103650000D01*
X188050000Y-105150000D01*
X186550000Y-105150000D01*
X186550000Y-103650000D01*
G37*
%TD*%
D10*
%TO.C,U5*%
X190725000Y-119362500D03*
X190075000Y-119362500D03*
X189425000Y-119362500D03*
X188775000Y-119362500D03*
X188125000Y-119362500D03*
X187475000Y-119362500D03*
X186825000Y-119362500D03*
X186175000Y-119362500D03*
X185525000Y-119362500D03*
X184875000Y-119362500D03*
X184875000Y-113637500D03*
X185525000Y-113637500D03*
X186175000Y-113637500D03*
X186825000Y-113637500D03*
X187475000Y-113637500D03*
X188125000Y-113637500D03*
X188775000Y-113637500D03*
X189425000Y-113637500D03*
X190075000Y-113637500D03*
X190725000Y-113637500D03*
%TD*%
D11*
%TO.C,REF\u002A\u002A*%
X192900000Y-99025000D03*
X192900000Y-100575000D03*
%TD*%
D12*
%TO.C,*%
X174100000Y-119500000D03*
%TD*%
D13*
%TO.C,REF\u002A\u002A*%
X192975000Y-97600000D03*
X194625000Y-97600000D03*
%TD*%
D14*
%TO.C,REF\u002A\u002A*%
X193375000Y-115600000D03*
X191825000Y-115600000D03*
%TD*%
D15*
%TO.C,U2*%
X177000000Y-100442500D03*
X177800000Y-100442500D03*
X177800000Y-99042500D03*
X177000000Y-99042500D03*
%TD*%
D16*
%TO.C,REF\u002A\u002A*%
X193025000Y-96100000D03*
X194575000Y-96100000D03*
%TD*%
D17*
%TO.C,REF\u002A\u002A*%
X200600000Y-108840000D03*
D18*
X200600000Y-106300000D03*
X200600000Y-103760000D03*
X200600000Y-101220000D03*
X200600000Y-98680000D03*
%TD*%
D19*
%TO.C,REF\u002A\u002A*%
X191300000Y-95700000D03*
X191300000Y-96800000D03*
X191300000Y-97900000D03*
X191300000Y-99000000D03*
X191300000Y-100100000D03*
D20*
X189800000Y-100500000D03*
X188700000Y-100500000D03*
X187600000Y-100500000D03*
X186500000Y-100500000D03*
D21*
X185400000Y-100500000D03*
D19*
X183900000Y-100100000D03*
X183900000Y-99000000D03*
X183900000Y-97900000D03*
X183900000Y-96800000D03*
X183900000Y-95700000D03*
%TD*%
D22*
%TO.C,U3*%
X176962500Y-105587500D03*
X176962500Y-105087500D03*
D23*
X176699999Y-104575000D03*
X176200000Y-104575000D03*
X175700001Y-104575000D03*
D22*
X175437500Y-105087500D03*
X175437500Y-105587500D03*
D23*
X175700001Y-106100000D03*
X176200000Y-106100000D03*
X176699999Y-106100000D03*
%TD*%
D24*
%TO.C,REF\u002A\u002A*%
X186800000Y-111875000D03*
X186800000Y-110325000D03*
%TD*%
D25*
%TO.C,REF\u002A\u002A*%
X190862500Y-111600000D03*
X192937500Y-111600000D03*
%TD*%
D14*
%TO.C,REF\u002A\u002A*%
X178175000Y-96242500D03*
X176625000Y-96242500D03*
%TD*%
D26*
%TO.C,REF\u002A\u002A*%
X187300000Y-103100000D03*
D27*
X187300000Y-104400000D03*
D28*
X187300000Y-105700000D03*
%TD*%
D12*
%TO.C,*%
X201100000Y-119500000D03*
%TD*%
D11*
%TO.C,REF\u002A\u002A*%
X177000000Y-107125000D03*
X177000000Y-108675000D03*
%TD*%
D29*
%TO.C,REF\u002A\u002A*%
X194700000Y-99262500D03*
X194700000Y-101337500D03*
%TD*%
D24*
%TO.C,REF\u002A\u002A*%
X189400000Y-111875000D03*
X189400000Y-110325000D03*
%TD*%
M02*
