M48
; DRILL file KiCad 10.0.1-10.0.1~ubuntu25.10.1 date 2026-05-04T19:13:11
; FORMAT={-:-/ absolute / metric / decimal}
; #@! TF.CreationDate,2026-05-04T19:13:11+02:00
; #@! TF.GenerationSoftware,Kicad,Pcbnew,10.0.1-10.0.1~ubuntu25.10.1
; #@! TF.FileFunction,Plated,1,2,PTH
FMAT,2
METRIC
; #@! TA.AperFunction,Plated,PTH,ViaDrill
T1C0.300
; #@! TA.AperFunction,Plated,PTH,ComponentDrill
T2C1.000
%
G90
G05
T1
X174.1Y-94.7
X174.5Y-103.3
X174.75Y-113.4
X175.6Y-96.3
X175.7Y-103.8
X175.9Y-106.8
X176.1Y-108.7
X177.1Y-122.0
X177.4Y-104.5
X177.8Y-107.2
X178.135Y-104.815
X179.0Y-111.7
X179.1Y-118.3
X179.4Y-108.7
X179.9Y-104.8
X180.3Y-95.9
X181.0Y-99.3
X181.1Y-121.9
X181.2Y-103.4
X182.3Y-113.3
X183.5Y-118.3
X183.7Y-103.5
X183.7Y-104.6
X183.8Y-105.9
X184.7Y-96.8
X185.4Y-105.9
X185.8Y-115.4
X186.7Y-98.6
X186.8Y-107.9
X186.9Y-116.1
X187.3Y-102.1
X187.9Y-110.8
X188.1Y-109.8
X188.4Y-117.6
X188.9Y-98.6
X189.4Y-116.0
X190.1Y-114.9
X190.4Y-99.6
X190.8Y-107.0
X190.8Y-118.1
X192.7Y-104.8
X192.7Y-110.5
X192.9Y-101.5
X193.3Y-110.5
X193.4Y-119.2
X193.8Y-121.9
X194.3Y-115.5
X194.4Y-102.4
X195.0Y-102.4
X195.5Y-96.0
X196.6Y-108.7
X197.2Y-111.7
X197.2Y-116.3
X197.8Y-121.1
X198.4Y-101.1
X199.0Y-94.9
T2
X200.6Y-98.68
X200.6Y-101.22
X200.6Y-103.76
X200.6Y-106.3
X200.6Y-108.84
M30
