%TF.GenerationSoftware,KiCad,Pcbnew,10.0.1-10.0.1~ubuntu25.10.1*%
%TF.CreationDate,2026-05-04T19:13:13+02:00*%
%TF.ProjectId,LPSN,4c50534e-2e6b-4696-9361-645f70636258,rev?*%
%TF.SameCoordinates,Original*%
%TF.FileFunction,Copper,L2,Bot*%
%TF.FilePolarity,Positive*%
%FSLAX46Y46*%
G04 Gerber Fmt 4.6, Leading zero omitted, Abs format (unit mm)*
G04 Created by KiCad (PCBNEW 10.0.1-10.0.1~ubuntu25.10.1) date 2026-05-04 19:13:13*
%MOMM*%
%LPD*%
G01*
G04 APERTURE LIST*
%TA.AperFunction,ComponentPad*%
%ADD10R,1.700000X1.700000*%
%TD*%
%TA.AperFunction,ComponentPad*%
%ADD11C,1.700000*%
%TD*%
%TA.AperFunction,SMDPad,CuDef*%
%ADD12R,5.000000X5.000000*%
%TD*%
%TA.AperFunction,SMDPad,CuDef*%
%ADD13R,4.000000X4.000000*%
%TD*%
%TA.AperFunction,ViaPad*%
%ADD14C,0.600000*%
%TD*%
%TA.AperFunction,Conductor*%
%ADD15C,0.200000*%
%TD*%
%TA.AperFunction,Conductor*%
%ADD16C,0.600000*%
%TD*%
%TA.AperFunction,Conductor*%
%ADD17C,0.400000*%
%TD*%
G04 APERTURE END LIST*
D10*
%TO.P,REF\u002A\u002A,1*%
%TO.N,GND*%
X200600000Y-108840000D03*
D11*
%TO.P,REF\u002A\u002A,2*%
%TO.N,SW_DIO*%
X200600000Y-106300000D03*
%TO.P,REF\u002A\u002A,3*%
%TO.N,SW_CLK*%
X200600000Y-103760000D03*
%TO.P,REF\u002A\u002A,4*%
%TO.N,N/C*%
X200600000Y-101220000D03*
%TO.P,REF\u002A\u002A,5*%
%TO.N,VCC*%
X200600000Y-98680000D03*
%TD*%
D12*
%TO.P,BT1,1,+*%
%TO.N,VCC*%
X174650000Y-113400000D03*
X200550000Y-113400000D03*
D13*
%TO.P,BT1,2,-*%
%TO.N,GND*%
X187600000Y-113400000D03*
%TD*%
D14*
%TO.N,GND*%
X198400000Y-101100000D03*
X196600000Y-108700000D03*
X197200000Y-111700000D03*
X197200000Y-116300000D03*
X193400000Y-119200000D03*
X183500000Y-118300000D03*
X181000000Y-99300000D03*
X180300000Y-95900000D03*
X188900000Y-98600000D03*
X186700000Y-98600000D03*
X188400000Y-117600000D03*
X182300000Y-113300000D03*
X179400000Y-108700000D03*
X179000000Y-111700000D03*
X174500000Y-103300000D03*
X174100000Y-94700000D03*
X181200000Y-103400000D03*
X179100000Y-118300000D03*
X177100000Y-122000000D03*
X197800000Y-121100000D03*
X199000000Y-94900000D03*
X192700000Y-104800000D03*
X190800000Y-107000000D03*
X185800000Y-115400000D03*
X195500000Y-96000000D03*
%TO.N,*%
X183800000Y-105900000D03*
X186900000Y-116100000D03*
X189400000Y-116000000D03*
X185400000Y-105900000D03*
%TO.N,VCC*%
X177800000Y-107200000D03*
X174750000Y-113400000D03*
X193800000Y-121900000D03*
X181100000Y-121900000D03*
%TO.N,GND*%
X192900000Y-101500000D03*
X193300000Y-110500000D03*
X176100000Y-108700000D03*
X187300000Y-102100000D03*
X184700000Y-96800000D03*
X195000000Y-102400000D03*
X194400000Y-102400000D03*
X187900000Y-110800000D03*
X175600000Y-96300000D03*
X194300000Y-115500000D03*
X192700000Y-110500000D03*
X183700000Y-103500000D03*
X186800000Y-107900000D03*
X175900000Y-106800000D03*
X190100000Y-114900000D03*
X190800000Y-118100000D03*
X175700000Y-103800000D03*
X190400000Y-99600000D03*
X177400000Y-104500000D03*
X183700000Y-104600000D03*
X188100000Y-109800000D03*
%TO.N,I2C_SCL*%
X178135318Y-104815136D03*
X179900000Y-104800000D03*
%TD*%
%TO.N,*%
D15*
X186900000Y-116100000D02*
X189300000Y-116100000D01*
X189300000Y-116100000D02*
X189400000Y-116000000D01*
X185400000Y-105900000D02*
X183800000Y-105900000D01*
%TO.N,VCC*%
D16*
X178200000Y-107600000D02*
X177800000Y-107200000D01*
X200650000Y-113400000D02*
X200650000Y-112550000D01*
X200650000Y-115050000D02*
X193800000Y-121900000D01*
X174750000Y-113400000D02*
X178200000Y-109950000D01*
X201380000Y-98680000D02*
X200600000Y-98680000D01*
X202500000Y-111550000D02*
X202500000Y-99800000D01*
X200650000Y-113400000D02*
X200650000Y-115050000D01*
X200650000Y-113400000D02*
X202500000Y-111550000D01*
X202500000Y-99800000D02*
X201380000Y-98680000D01*
X181000000Y-121900000D02*
X174750000Y-115650000D01*
X174750000Y-115650000D02*
X174750000Y-113400000D01*
X181100000Y-121900000D02*
X181000000Y-121900000D01*
X178200000Y-109950000D02*
X178200000Y-107600000D01*
%TO.N,GND*%
D17*
X188500000Y-113400000D02*
X188700000Y-113600000D01*
X190100000Y-114900000D02*
X189200000Y-114900000D01*
X187700000Y-113400000D02*
X188500000Y-113400000D01*
X189200000Y-114900000D02*
X187700000Y-113400000D01*
%TO.N,I2C_SCL*%
D15*
X178135318Y-104815136D02*
X178220182Y-104900000D01*
X178220182Y-104900000D02*
X179700000Y-104900000D01*
X179800000Y-104800000D02*
X179900000Y-104800000D01*
X179700000Y-104900000D02*
X179800000Y-104800000D01*
%TD*%
%TA.AperFunction,Conductor*%
%TO.N,GND*%
G36*
X181242539Y-92820185D02*
G01*
X181288294Y-92872989D01*
X181299500Y-92924500D01*
X181299500Y-93907317D01*
X181330044Y-94119764D01*
X181330047Y-94119774D01*
X181390517Y-94325715D01*
X181479672Y-94520938D01*
X181479681Y-94520954D01*
X181595719Y-94701512D01*
X181595725Y-94701519D01*
X181736274Y-94863723D01*
X181736276Y-94863725D01*
X181898480Y-95004274D01*
X181898487Y-95004280D01*
X182079045Y-95120318D01*
X182079061Y-95120327D01*
X182274284Y-95209482D01*
X182274288Y-95209483D01*
X182274290Y-95209484D01*
X182480231Y-95269954D01*
X182480232Y-95269954D01*
X182480235Y-95269955D01*
X182543584Y-95279062D01*
X182692682Y-95300500D01*
X182692683Y-95300500D01*
X192507317Y-95300500D01*
X192507318Y-95300500D01*
X192677851Y-95275980D01*
X192719764Y-95269955D01*
X192719765Y-95269954D01*
X192719769Y-95269954D01*
X192925710Y-95209484D01*
X192925713Y-95209482D01*
X192925715Y-95209482D01*
X193120938Y-95120327D01*
X193120942Y-95120324D01*
X193120950Y-95120321D01*
X193301513Y-95004280D01*
X193463724Y-94863724D01*
X193604280Y-94701513D01*
X193720321Y-94520950D01*
X193720324Y-94520942D01*
X193720327Y-94520938D01*
X193809482Y-94325715D01*
X193809482Y-94325713D01*
X193809484Y-94325710D01*
X193869954Y-94119769D01*
X193900500Y-93907318D01*
X193900500Y-93800000D01*
X193900500Y-93752406D01*
X193900500Y-93752405D01*
X193900500Y-92924500D01*
X193920185Y-92857461D01*
X193972989Y-92811706D01*
X194024500Y-92800500D01*
X198552405Y-92800500D01*
X198597294Y-92800500D01*
X198602702Y-92800617D01*
X199004202Y-92818147D01*
X199014937Y-92819087D01*
X199410693Y-92871189D01*
X199421331Y-92873064D01*
X199811043Y-92959462D01*
X199821484Y-92962260D01*
X200202169Y-93082288D01*
X200212315Y-93085981D01*
X200581102Y-93238738D01*
X200590893Y-93243304D01*
X200944942Y-93427611D01*
X200954310Y-93433019D01*
X201290954Y-93647484D01*
X201299815Y-93653689D01*
X201616492Y-93896684D01*
X201624773Y-93903633D01*
X201628795Y-93907318D01*
X201919056Y-94173294D01*
X201926705Y-94180943D01*
X202196361Y-94475220D01*
X202203315Y-94483507D01*
X202446310Y-94800184D01*
X202452515Y-94809045D01*
X202666980Y-95145689D01*
X202672388Y-95155057D01*
X202856692Y-95509099D01*
X202861264Y-95518903D01*
X203014014Y-95887674D01*
X203017714Y-95897840D01*
X203137738Y-96278512D01*
X203140538Y-96288960D01*
X203226933Y-96678660D01*
X203228811Y-96689314D01*
X203280910Y-97085042D01*
X203281853Y-97095818D01*
X203299382Y-97497297D01*
X203299500Y-97502706D01*
X203299500Y-110596495D01*
X203279815Y-110663534D01*
X203227011Y-110709289D01*
X203157853Y-110719233D01*
X203145906Y-110716912D01*
X203131628Y-110713403D01*
X203128231Y-110711133D01*
X203097600Y-110705040D01*
X203094906Y-110704378D01*
X203067002Y-110688156D01*
X203038397Y-110673193D01*
X203036978Y-110670701D01*
X203034502Y-110669262D01*
X203019801Y-110640537D01*
X203003823Y-110612477D01*
X203003345Y-110608382D01*
X203002671Y-110607064D01*
X203002909Y-110604640D01*
X203000500Y-110583961D01*
X203000500Y-99734108D01*
X202999532Y-99730496D01*
X202999531Y-99730492D01*
X202988716Y-99690129D01*
X202966392Y-99606814D01*
X202900500Y-99492686D01*
X202807314Y-99399500D01*
X202807313Y-99399499D01*
X202802983Y-99395169D01*
X202802972Y-99395159D01*
X201687316Y-98279502D01*
X201687315Y-98279501D01*
X201687314Y-98279500D01*
X201573186Y-98213608D01*
X201573185Y-98213607D01*
X201566147Y-98209544D01*
X201567578Y-98207064D01*
X201523949Y-98171902D01*
X201522706Y-98170078D01*
X201482405Y-98109763D01*
X201415977Y-98010345D01*
X201415975Y-98010342D01*
X201269657Y-97864024D01*
X201112492Y-97759011D01*
X201097598Y-97749059D01*
X200906420Y-97669870D01*
X200906412Y-97669868D01*
X200703469Y-97629500D01*
X200703465Y-97629500D01*
X200496535Y-97629500D01*
X200496530Y-97629500D01*
X200293587Y-97669868D01*
X200293579Y-97669870D01*
X200102403Y-97749058D01*
X199930342Y-97864024D01*
X199784024Y-98010342D01*
X199669058Y-98182403D01*
X199589870Y-98373579D01*
X199589868Y-98373587D01*
X199549500Y-98576530D01*
X199549500Y-98783469D01*
X199589868Y-98986412D01*
X199589870Y-98986420D01*
X199669058Y-99177596D01*
X199784024Y-99349657D01*
X199930342Y-99495975D01*
X199930345Y-99495977D01*
X200102402Y-99610941D01*
X200293580Y-99690130D01*
X200496495Y-99730492D01*
X200496530Y-99730499D01*
X200496534Y-99730500D01*
X200496535Y-99730500D01*
X200703466Y-99730500D01*
X200703467Y-99730499D01*
X200906420Y-99690130D01*
X201097598Y-99610941D01*
X201269655Y-99495977D01*
X201291227Y-99474403D01*
X201352546Y-99440919D01*
X201422238Y-99445901D01*
X201466590Y-99474403D01*
X201963181Y-99970994D01*
X201996666Y-100032317D01*
X201999500Y-100058675D01*
X201999500Y-110575500D01*
X201979815Y-110642539D01*
X201927011Y-110688294D01*
X201875500Y-110699500D01*
X198030247Y-110699500D01*
X197971770Y-110711131D01*
X197971769Y-110711132D01*
X197905447Y-110755447D01*
X197861132Y-110821769D01*
X197861131Y-110821770D01*
X197849500Y-110880247D01*
X197849500Y-115919752D01*
X197861131Y-115978229D01*
X197861132Y-115978230D01*
X197905447Y-116044552D01*
X197971769Y-116088867D01*
X197971770Y-116088868D01*
X198030247Y-116100499D01*
X198030250Y-116100500D01*
X198030252Y-116100500D01*
X198592324Y-116100500D01*
X198659363Y-116120185D01*
X198705118Y-116172989D01*
X198715062Y-116242147D01*
X198686037Y-116305703D01*
X198680005Y-116312181D01*
X193399502Y-121592683D01*
X193399500Y-121592686D01*
X193333608Y-121706812D01*
X193299500Y-121834108D01*
X193299500Y-121965891D01*
X193333608Y-122093187D01*
X193366554Y-122150250D01*
X193399500Y-122207314D01*
X193492686Y-122300500D01*
X193606814Y-122366392D01*
X193734108Y-122400500D01*
X193734110Y-122400500D01*
X193865890Y-122400500D01*
X193865892Y-122400500D01*
X193993186Y-122366392D01*
X194107314Y-122300500D01*
X197014101Y-119393713D01*
X199749500Y-119393713D01*
X199749500Y-119606286D01*
X199767388Y-119719230D01*
X199782754Y-119816243D01*
X199814828Y-119914957D01*
X199848444Y-120018414D01*
X199944951Y-120207820D01*
X200069890Y-120379786D01*
X200220213Y-120530109D01*
X200392179Y-120655048D01*
X200392181Y-120655049D01*
X200392184Y-120655051D01*
X200581588Y-120751557D01*
X200783757Y-120817246D01*
X200993713Y-120850500D01*
X200993714Y-120850500D01*
X201206286Y-120850500D01*
X201206287Y-120850500D01*
X201416243Y-120817246D01*
X201618412Y-120751557D01*
X201807816Y-120655051D01*
X201899177Y-120588674D01*
X201979786Y-120530109D01*
X201979788Y-120530106D01*
X201979792Y-120530104D01*
X202130104Y-120379792D01*
X202130106Y-120379788D01*
X202130109Y-120379786D01*
X202255048Y-120207820D01*
X202255047Y-120207820D01*
X202255051Y-120207816D01*
X202351557Y-120018412D01*
X202417246Y-119816243D01*
X202450500Y-119606287D01*
X202450500Y-119393713D01*
X202417246Y-119183757D01*
X202351557Y-118981588D01*
X202255051Y-118792184D01*
X202255049Y-118792181D01*
X202255048Y-118792179D01*
X202130109Y-118620213D01*
X201979786Y-118469890D01*
X201807820Y-118344951D01*
X201618414Y-118248444D01*
X201618413Y-118248443D01*
X201618412Y-118248443D01*
X201416243Y-118182754D01*
X201416241Y-118182753D01*
X201416240Y-118182753D01*
X201254957Y-118157208D01*
X201206287Y-118149500D01*
X200993713Y-118149500D01*
X200945042Y-118157208D01*
X200783760Y-118182753D01*
X200581585Y-118248444D01*
X200392179Y-118344951D01*
X200220213Y-118469890D01*
X200069890Y-118620213D01*
X199944951Y-118792179D01*
X199848444Y-118981585D01*
X199782753Y-119183760D01*
X199749500Y-119393713D01*
X197014101Y-119393713D01*
X200270995Y-116136819D01*
X200332318Y-116103334D01*
X200358676Y-116100500D01*
X203069750Y-116100500D01*
X203069751Y-116100499D01*
X203084485Y-116097568D01*
X203140210Y-116086485D01*
X203140434Y-116087612D01*
X203197511Y-116081473D01*
X203259991Y-116112745D01*
X203295647Y-116172832D01*
X203299500Y-116203504D01*
X203299500Y-119497293D01*
X203299382Y-119502702D01*
X203281853Y-119904181D01*
X203280910Y-119914957D01*
X203228811Y-120310685D01*
X203226933Y-120321339D01*
X203140538Y-120711039D01*
X203137738Y-120721487D01*
X203017714Y-121102159D01*
X203014014Y-121112325D01*
X202861264Y-121481096D01*
X202856692Y-121490900D01*
X202672388Y-121844942D01*
X202666980Y-121854310D01*
X202452515Y-122190954D01*
X202446310Y-122199815D01*
X202203315Y-122516492D01*
X202196361Y-122524779D01*
X201926705Y-122819056D01*
X201919056Y-122826705D01*
X201624779Y-123096361D01*
X201616492Y-123103315D01*
X201299815Y-123346310D01*
X201290954Y-123352515D01*
X200954310Y-123566980D01*
X200944942Y-123572388D01*
X200590900Y-123756692D01*
X200581096Y-123761264D01*
X200212325Y-123914014D01*
X200202159Y-123917714D01*
X199821487Y-124037738D01*
X199811039Y-124040538D01*
X199421339Y-124126933D01*
X199410685Y-124128811D01*
X199014957Y-124180910D01*
X199004181Y-124181853D01*
X198602703Y-124199382D01*
X198597294Y-124199500D01*
X176602706Y-124199500D01*
X176597297Y-124199382D01*
X176195818Y-124181853D01*
X176185042Y-124180910D01*
X175789314Y-124128811D01*
X175778660Y-124126933D01*
X175388960Y-124040538D01*
X175378512Y-124037738D01*
X174997840Y-123917714D01*
X174987674Y-123914014D01*
X174618903Y-123761264D01*
X174609099Y-123756692D01*
X174255057Y-123572388D01*
X174245689Y-123566980D01*
X173909045Y-123352515D01*
X173900184Y-123346310D01*
X173583507Y-123103315D01*
X173575220Y-123096361D01*
X173280943Y-122826705D01*
X173273294Y-122819056D01*
X173003638Y-122524779D01*
X172996684Y-122516492D01*
X172753689Y-122199815D01*
X172747484Y-122190954D01*
X172533019Y-121854310D01*
X172527611Y-121844942D01*
X172396294Y-121592686D01*
X172343304Y-121490893D01*
X172338735Y-121481096D01*
X172319065Y-121433608D01*
X172185981Y-121112315D01*
X172182285Y-121102159D01*
X172092453Y-120817246D01*
X172062260Y-120721484D01*
X172059461Y-120711039D01*
X172019350Y-120530109D01*
X171973064Y-120321331D01*
X171971188Y-120310685D01*
X171919087Y-119914937D01*
X171918147Y-119904202D01*
X171900618Y-119502702D01*
X171900500Y-119497293D01*
X171900500Y-119393713D01*
X172749500Y-119393713D01*
X172749500Y-119606286D01*
X172767388Y-119719230D01*
X172782754Y-119816243D01*
X172814828Y-119914957D01*
X172848444Y-120018414D01*
X172944951Y-120207820D01*
X173069890Y-120379786D01*
X173220213Y-120530109D01*
X173392179Y-120655048D01*
X173392181Y-120655049D01*
X173392184Y-120655051D01*
X173581588Y-120751557D01*
X173783757Y-120817246D01*
X173993713Y-120850500D01*
X173993714Y-120850500D01*
X174206286Y-120850500D01*
X174206287Y-120850500D01*
X174416243Y-120817246D01*
X174618412Y-120751557D01*
X174807816Y-120655051D01*
X174899177Y-120588674D01*
X174979786Y-120530109D01*
X174979788Y-120530106D01*
X174979792Y-120530104D01*
X175130104Y-120379792D01*
X175130106Y-120379788D01*
X175130109Y-120379786D01*
X175255048Y-120207820D01*
X175255047Y-120207820D01*
X175255051Y-120207816D01*
X175351557Y-120018412D01*
X175417246Y-119816243D01*
X175450500Y-119606287D01*
X175450500Y-119393713D01*
X175417246Y-119183757D01*
X175351557Y-118981588D01*
X175255051Y-118792184D01*
X175255049Y-118792181D01*
X175255048Y-118792179D01*
X175130109Y-118620213D01*
X174979786Y-118469890D01*
X174807820Y-118344951D01*
X174618414Y-118248444D01*
X174618413Y-118248443D01*
X174618412Y-118248443D01*
X174416243Y-118182754D01*
X174416241Y-118182753D01*
X174416240Y-118182753D01*
X174254957Y-118157208D01*
X174206287Y-118149500D01*
X173993713Y-118149500D01*
X173945042Y-118157208D01*
X173783760Y-118182753D01*
X173581585Y-118248444D01*
X173392179Y-118344951D01*
X173220213Y-118469890D01*
X173069890Y-118620213D01*
X172944951Y-118792179D01*
X172848444Y-118981585D01*
X172782753Y-119183760D01*
X172749500Y-119393713D01*
X171900500Y-119393713D01*
X171900500Y-116203504D01*
X171920185Y-116136465D01*
X171972989Y-116090710D01*
X172042147Y-116080766D01*
X172071432Y-116088800D01*
X172130247Y-116100499D01*
X172130250Y-116100500D01*
X172130252Y-116100500D01*
X174441324Y-116100500D01*
X174508363Y-116120185D01*
X174529005Y-116136819D01*
X180599500Y-122207314D01*
X180692686Y-122300500D01*
X180806814Y-122366392D01*
X180934108Y-122400500D01*
X180934110Y-122400500D01*
X181165890Y-122400500D01*
X181165892Y-122400500D01*
X181293186Y-122366392D01*
X181407314Y-122300500D01*
X181500500Y-122207314D01*
X181566392Y-122093186D01*
X181600500Y-121965892D01*
X181600500Y-121834108D01*
X181566392Y-121706814D01*
X181500500Y-121592686D01*
X181407314Y-121499500D01*
X181341421Y-121461456D01*
X181293185Y-121433607D01*
X181254566Y-121423259D01*
X181198980Y-121391166D01*
X176119995Y-116312181D01*
X176086510Y-116250858D01*
X176091494Y-116181166D01*
X176133366Y-116125233D01*
X176198830Y-116100816D01*
X176207676Y-116100500D01*
X177169750Y-116100500D01*
X177169751Y-116100499D01*
X177184568Y-116097552D01*
X177228229Y-116088868D01*
X177228229Y-116088867D01*
X177228231Y-116088867D01*
X177294552Y-116044552D01*
X177301531Y-116034108D01*
X186399500Y-116034108D01*
X186399500Y-116165891D01*
X186433608Y-116293187D01*
X186466554Y-116350250D01*
X186499500Y-116407314D01*
X186592686Y-116500500D01*
X186706814Y-116566392D01*
X186834108Y-116600500D01*
X186834110Y-116600500D01*
X186965890Y-116600500D01*
X186965892Y-116600500D01*
X187093186Y-116566392D01*
X187207314Y-116500500D01*
X187270995Y-116436819D01*
X187332318Y-116403334D01*
X187358676Y-116400500D01*
X189059460Y-116400500D01*
X189121460Y-116417113D01*
X189206814Y-116466392D01*
X189334108Y-116500500D01*
X189334110Y-116500500D01*
X189465890Y-116500500D01*
X189465892Y-116500500D01*
X189593186Y-116466392D01*
X189707314Y-116400500D01*
X189800500Y-116307314D01*
X189866392Y-116193186D01*
X189900500Y-116065892D01*
X189900500Y-115934108D01*
X189866392Y-115806814D01*
X189800500Y-115692686D01*
X189707314Y-115599500D01*
X189650250Y-115566554D01*
X189593187Y-115533608D01*
X189529539Y-115516554D01*
X189465892Y-115499500D01*
X189334108Y-115499500D01*
X189206812Y-115533608D01*
X189092686Y-115599500D01*
X189092683Y-115599502D01*
X188999501Y-115692684D01*
X188973627Y-115737500D01*
X188923060Y-115785716D01*
X188866240Y-115799500D01*
X187358676Y-115799500D01*
X187291637Y-115779815D01*
X187270995Y-115763181D01*
X187207316Y-115699502D01*
X187207314Y-115699500D01*
X187150250Y-115666554D01*
X187093187Y-115633608D01*
X187029539Y-115616554D01*
X186965892Y-115599500D01*
X186834108Y-115599500D01*
X186706812Y-115633608D01*
X186592686Y-115699500D01*
X186592683Y-115699502D01*
X186499502Y-115792683D01*
X186499500Y-115792686D01*
X186433608Y-115906812D01*
X186399500Y-116034108D01*
X177301531Y-116034108D01*
X177338867Y-115978231D01*
X177350500Y-115919748D01*
X177350500Y-111558676D01*
X177370185Y-111491637D01*
X177386819Y-111470995D01*
X177977567Y-110880247D01*
X178600500Y-110257314D01*
X178666392Y-110143186D01*
X178700500Y-110015892D01*
X178700500Y-109884107D01*
X178700500Y-107534108D01*
X178696848Y-107520480D01*
X178666392Y-107406814D01*
X178658524Y-107393186D01*
X178600500Y-107292686D01*
X178507314Y-107199500D01*
X178107314Y-106799500D01*
X178050250Y-106766554D01*
X177993187Y-106733608D01*
X177929539Y-106716554D01*
X177865892Y-106699500D01*
X177734108Y-106699500D01*
X177606812Y-106733608D01*
X177492686Y-106799500D01*
X177492683Y-106799502D01*
X177399502Y-106892683D01*
X177399500Y-106892686D01*
X177333608Y-107006812D01*
X177304359Y-107115975D01*
X177299500Y-107134108D01*
X177299500Y-107265892D01*
X177333608Y-107393186D01*
X177399500Y-107507314D01*
X177399502Y-107507316D01*
X177663181Y-107770995D01*
X177696666Y-107832318D01*
X177699500Y-107858676D01*
X177699500Y-109691324D01*
X177679815Y-109758363D01*
X177663181Y-109779005D01*
X176779005Y-110663181D01*
X176717682Y-110696666D01*
X176691324Y-110699500D01*
X172130247Y-110699500D01*
X172059790Y-110713515D01*
X172059565Y-110712388D01*
X172002480Y-110718524D01*
X171940002Y-110687248D01*
X171904351Y-110627158D01*
X171900500Y-110596495D01*
X171900500Y-105834108D01*
X183299500Y-105834108D01*
X183299500Y-105965891D01*
X183333608Y-106093187D01*
X183353962Y-106128440D01*
X183399500Y-106207314D01*
X183492686Y-106300500D01*
X183606814Y-106366392D01*
X183734108Y-106400500D01*
X183734110Y-106400500D01*
X183865890Y-106400500D01*
X183865892Y-106400500D01*
X183993186Y-106366392D01*
X184107314Y-106300500D01*
X184170995Y-106236819D01*
X184232318Y-106203334D01*
X184258676Y-106200500D01*
X184941324Y-106200500D01*
X185008363Y-106220185D01*
X185029005Y-106236819D01*
X185092686Y-106300500D01*
X185206814Y-106366392D01*
X185334108Y-106400500D01*
X185334110Y-106400500D01*
X185465890Y-106400500D01*
X185465892Y-106400500D01*
X185593186Y-106366392D01*
X185707314Y-106300500D01*
X185800500Y-106207314D01*
X185806726Y-106196530D01*
X199549500Y-106196530D01*
X199549500Y-106403469D01*
X199589868Y-106606412D01*
X199589870Y-106606420D01*
X199669059Y-106797598D01*
X199726541Y-106883626D01*
X199784024Y-106969657D01*
X199930342Y-107115975D01*
X199930345Y-107115977D01*
X200102402Y-107230941D01*
X200293580Y-107310130D01*
X200496530Y-107350499D01*
X200496534Y-107350500D01*
X200496535Y-107350500D01*
X200703466Y-107350500D01*
X200703467Y-107350499D01*
X200906420Y-107310130D01*
X201097598Y-107230941D01*
X201269655Y-107115977D01*
X201415977Y-106969655D01*
X201530941Y-106797598D01*
X201610130Y-106606420D01*
X201650500Y-106403465D01*
X201650500Y-106196535D01*
X201610130Y-105993580D01*
X201530941Y-105802402D01*
X201415977Y-105630345D01*
X201415975Y-105630342D01*
X201269657Y-105484024D01*
X201143156Y-105399500D01*
X201097598Y-105369059D01*
X200906420Y-105289870D01*
X200906412Y-105289868D01*
X200703469Y-105249500D01*
X200703465Y-105249500D01*
X200496535Y-105249500D01*
X200496530Y-105249500D01*
X200293587Y-105289868D01*
X200293579Y-105289870D01*
X200102403Y-105369058D01*
X199930342Y-105484024D01*
X199784024Y-105630342D01*
X199669058Y-105802403D01*
X199589870Y-105993579D01*
X199589868Y-105993587D01*
X199549500Y-106196530D01*
X185806726Y-106196530D01*
X185866392Y-106093186D01*
X185900500Y-105965892D01*
X185900500Y-105834108D01*
X185866392Y-105706814D01*
X185800500Y-105592686D01*
X185707314Y-105499500D01*
X185650250Y-105466554D01*
X185593187Y-105433608D01*
X185529539Y-105416554D01*
X185465892Y-105399500D01*
X185334108Y-105399500D01*
X185206812Y-105433608D01*
X185092686Y-105499500D01*
X185092683Y-105499502D01*
X185029005Y-105563181D01*
X184967682Y-105596666D01*
X184941324Y-105599500D01*
X184258676Y-105599500D01*
X184191637Y-105579815D01*
X184170995Y-105563181D01*
X184107316Y-105499502D01*
X184107314Y-105499500D01*
X184050250Y-105466554D01*
X183993187Y-105433608D01*
X183929539Y-105416554D01*
X183865892Y-105399500D01*
X183734108Y-105399500D01*
X183606812Y-105433608D01*
X183492686Y-105499500D01*
X183492683Y-105499502D01*
X183399502Y-105592683D01*
X183399500Y-105592686D01*
X183333608Y-105706812D01*
X183299500Y-105834108D01*
X171900500Y-105834108D01*
X171900500Y-104749244D01*
X177634818Y-104749244D01*
X177634818Y-104881027D01*
X177668926Y-105008323D01*
X177701872Y-105065386D01*
X177734818Y-105122450D01*
X177828004Y-105215636D01*
X177915912Y-105266390D01*
X177942128Y-105281526D01*
X177942132Y-105281528D01*
X178069426Y-105315636D01*
X178069428Y-105315636D01*
X178201208Y-105315636D01*
X178201210Y-105315636D01*
X178328504Y-105281528D01*
X178440074Y-105217113D01*
X178502074Y-105200500D01*
X179559460Y-105200500D01*
X179621460Y-105217113D01*
X179706814Y-105266392D01*
X179834108Y-105300500D01*
X179834110Y-105300500D01*
X179965890Y-105300500D01*
X179965892Y-105300500D01*
X180093186Y-105266392D01*
X180207314Y-105200500D01*
X180300500Y-105107314D01*
X180366392Y-104993186D01*
X180400500Y-104865892D01*
X180400500Y-104734108D01*
X180366392Y-104606814D01*
X180300500Y-104492686D01*
X180207314Y-104399500D01*
X180150250Y-104366554D01*
X180093187Y-104333608D01*
X180022381Y-104314636D01*
X179965892Y-104299500D01*
X179834108Y-104299500D01*
X179706812Y-104333608D01*
X179592686Y-104399500D01*
X179592683Y-104399502D01*
X179499501Y-104492684D01*
X179473627Y-104537500D01*
X179423060Y-104585716D01*
X179366240Y-104599500D01*
X178660340Y-104599500D01*
X178593301Y-104579815D01*
X178552953Y-104537500D01*
X178535820Y-104507825D01*
X178535816Y-104507820D01*
X178442634Y-104414638D01*
X178442632Y-104414636D01*
X178385568Y-104381690D01*
X178328505Y-104348744D01*
X178264857Y-104331690D01*
X178201210Y-104314636D01*
X178069426Y-104314636D01*
X177942130Y-104348744D01*
X177828004Y-104414636D01*
X177828001Y-104414638D01*
X177734820Y-104507819D01*
X177734818Y-104507822D01*
X177668926Y-104621948D01*
X177634818Y-104749244D01*
X171900500Y-104749244D01*
X171900500Y-103656530D01*
X199549500Y-103656530D01*
X199549500Y-103863469D01*
X199589868Y-104066412D01*
X199589870Y-104066420D01*
X199669058Y-104257596D01*
X199784024Y-104429657D01*
X199930342Y-104575975D01*
X199930345Y-104575977D01*
X200102402Y-104690941D01*
X200293580Y-104770130D01*
X200496530Y-104810499D01*
X200496534Y-104810500D01*
X200496535Y-104810500D01*
X200703466Y-104810500D01*
X200703467Y-104810499D01*
X200906420Y-104770130D01*
X201097598Y-104690941D01*
X201269655Y-104575977D01*
X201415977Y-104429655D01*
X201530941Y-104257598D01*
X201610130Y-104066420D01*
X201650500Y-103863465D01*
X201650500Y-103656535D01*
X201610130Y-103453580D01*
X201530941Y-103262402D01*
X201415977Y-103090345D01*
X201415975Y-103090342D01*
X201269657Y-102944024D01*
X201183626Y-102886541D01*
X201097598Y-102829059D01*
X200906420Y-102749870D01*
X200906412Y-102749868D01*
X200703469Y-102709500D01*
X200703465Y-102709500D01*
X200496535Y-102709500D01*
X200496530Y-102709500D01*
X200293587Y-102749868D01*
X200293579Y-102749870D01*
X200102403Y-102829058D01*
X199930342Y-102944024D01*
X199784024Y-103090342D01*
X199669058Y-103262403D01*
X199589870Y-103453579D01*
X199589868Y-103453587D01*
X199549500Y-103656530D01*
X171900500Y-103656530D01*
X171900500Y-101435372D01*
X174599487Y-101435372D01*
X174599499Y-101492440D01*
X174599499Y-101540141D01*
X174599507Y-101540268D01*
X174599512Y-101571393D01*
X174630293Y-101726016D01*
X174630295Y-101726024D01*
X174630297Y-101726028D01*
X174690643Y-101871675D01*
X174690646Y-101871682D01*
X174702657Y-101889655D01*
X174778246Y-102002770D01*
X174778249Y-102002773D01*
X174778250Y-102002774D01*
X174889724Y-102114248D01*
X174889729Y-102114252D01*
X174889732Y-102114255D01*
X175020820Y-102201855D01*
X175020827Y-102201858D01*
X175020831Y-102201860D01*
X175166472Y-102262204D01*
X175166476Y-102262204D01*
X175166477Y-102262205D01*
X175321107Y-102292987D01*
X175360416Y-102292993D01*
X175360439Y-102293000D01*
X175394308Y-102293000D01*
X175399939Y-102293001D01*
X175447534Y-102293011D01*
X175447536Y-102293010D01*
X175457151Y-102293012D01*
X175457316Y-102293000D01*
X176352827Y-102293000D01*
X176352843Y-102293001D01*
X176360439Y-102293001D01*
X176439561Y-102293001D01*
X176439563Y-102293001D01*
X176515990Y-102272522D01*
X176584512Y-102232961D01*
X176640461Y-102177012D01*
X176680022Y-102108490D01*
X176700501Y-102032063D01*
X176700501Y-101452938D01*
X176700501Y-101413657D01*
X176700501Y-101413654D01*
X176669739Y-101259008D01*
X176669738Y-101259007D01*
X176669738Y-101259003D01*
X176609394Y-101113321D01*
X176609392Y-101113318D01*
X176609390Y-101113314D01*
X176521789Y-100982211D01*
X176521786Y-100982207D01*
X176410293Y-100870714D01*
X176410289Y-100870711D01*
X176279186Y-100783110D01*
X176279176Y-100783105D01*
X176133498Y-100722763D01*
X176133493Y-100722761D01*
X176050307Y-100706214D01*
X175988397Y-100673828D01*
X175953823Y-100613112D01*
X175950500Y-100584597D01*
X175950500Y-98900402D01*
X175970185Y-98833363D01*
X176022989Y-98787608D01*
X176050309Y-98778785D01*
X176091036Y-98770683D01*
X176133498Y-98762237D01*
X176279180Y-98701894D01*
X176410290Y-98614289D01*
X176521790Y-98502789D01*
X176609395Y-98371679D01*
X176669738Y-98225997D01*
X176700500Y-98071345D01*
X178099499Y-98071345D01*
X178130261Y-98225991D01*
X178130263Y-98225997D01*
X178190605Y-98371675D01*
X178190610Y-98371685D01*
X178278211Y-98502788D01*
X178278214Y-98502792D01*
X178389707Y-98614285D01*
X178389711Y-98614288D01*
X178520814Y-98701889D01*
X178520818Y-98701891D01*
X178520821Y-98701893D01*
X178666503Y-98762237D01*
X178704790Y-98769852D01*
X178749692Y-98778785D01*
X178811603Y-98811170D01*
X178846177Y-98871886D01*
X178849501Y-98900402D01*
X178849501Y-100584597D01*
X178829816Y-100651636D01*
X178777012Y-100697391D01*
X178749694Y-100706214D01*
X178666507Y-100722761D01*
X178666502Y-100722763D01*
X178520824Y-100783105D01*
X178520814Y-100783110D01*
X178389711Y-100870711D01*
X178389707Y-100870714D01*
X178278214Y-100982207D01*
X178278211Y-100982211D01*
X178190610Y-101113314D01*
X178190605Y-101113324D01*
X178130263Y-101259002D01*
X178130261Y-101259008D01*
X178099500Y-101413654D01*
X178099500Y-101413657D01*
X178099500Y-101452938D01*
X178099500Y-102032063D01*
X178100549Y-102035977D01*
X178119979Y-102108491D01*
X178119982Y-102108496D01*
X178159535Y-102177005D01*
X178159539Y-102177010D01*
X178159540Y-102177012D01*
X178215489Y-102232961D01*
X178215491Y-102232962D01*
X178215495Y-102232965D01*
X178280507Y-102270499D01*
X178284011Y-102272522D01*
X178360438Y-102293001D01*
X178360440Y-102293001D01*
X178448189Y-102293001D01*
X178448217Y-102292999D01*
X179478842Y-102292999D01*
X179478843Y-102292998D01*
X179633497Y-102262237D01*
X179779179Y-102201893D01*
X179910289Y-102114288D01*
X180021789Y-102002788D01*
X180109394Y-101871678D01*
X180169738Y-101725996D01*
X180200500Y-101571340D01*
X180200500Y-101492498D01*
X180200500Y-101444903D01*
X180200500Y-101116530D01*
X199549500Y-101116530D01*
X199549500Y-101323469D01*
X199589868Y-101526412D01*
X199589870Y-101526420D01*
X199654406Y-101682224D01*
X199669059Y-101717598D01*
X199674672Y-101725998D01*
X199784024Y-101889657D01*
X199930342Y-102035975D01*
X199930345Y-102035977D01*
X200102402Y-102150941D01*
X200293580Y-102230130D01*
X200454828Y-102262204D01*
X200496530Y-102270499D01*
X200496534Y-102270500D01*
X200496535Y-102270500D01*
X200703466Y-102270500D01*
X200703467Y-102270499D01*
X200906420Y-102230130D01*
X201097598Y-102150941D01*
X201269655Y-102035977D01*
X201415977Y-101889655D01*
X201530941Y-101717598D01*
X201610130Y-101526420D01*
X201650500Y-101323465D01*
X201650500Y-101116535D01*
X201610130Y-100913580D01*
X201530941Y-100722402D01*
X201415977Y-100550345D01*
X201415975Y-100550342D01*
X201269657Y-100404024D01*
X201183626Y-100346541D01*
X201097598Y-100289059D01*
X200906420Y-100209870D01*
X200906412Y-100209868D01*
X200703469Y-100169500D01*
X200703465Y-100169500D01*
X200496535Y-100169500D01*
X200496530Y-100169500D01*
X200293587Y-100209868D01*
X200293579Y-100209870D01*
X200102403Y-100289058D01*
X199930342Y-100404024D01*
X199784024Y-100550342D01*
X199669058Y-100722403D01*
X199589870Y-100913579D01*
X199589868Y-100913587D01*
X199549500Y-101116530D01*
X180200500Y-101116530D01*
X180200500Y-98040062D01*
X180200511Y-98040032D01*
X180200501Y-97992438D01*
X180200500Y-97992375D01*
X180200501Y-97952937D01*
X180200500Y-97952933D01*
X180200500Y-97944076D01*
X180200491Y-97943955D01*
X180200487Y-97913606D01*
X180169705Y-97758976D01*
X180137270Y-97680693D01*
X180109360Y-97613331D01*
X180109358Y-97613327D01*
X180109355Y-97613320D01*
X180021755Y-97482232D01*
X180021752Y-97482229D01*
X180021748Y-97482224D01*
X179910272Y-97370748D01*
X179910262Y-97370740D01*
X179822878Y-97312346D01*
X179779182Y-97283146D01*
X179779176Y-97283143D01*
X179779170Y-97283140D01*
X179633530Y-97222798D01*
X179633529Y-97222797D01*
X179633525Y-97222796D01*
X179633522Y-97222795D01*
X179633518Y-97222794D01*
X179478893Y-97192012D01*
X179478896Y-97192012D01*
X179448001Y-97192007D01*
X179448000Y-97192007D01*
X179439577Y-97192005D01*
X179439562Y-97192001D01*
X179411177Y-97192000D01*
X179411162Y-97191999D01*
X179400078Y-97191999D01*
X179400073Y-97191997D01*
X179400064Y-97191999D01*
X179343604Y-97191987D01*
X179343426Y-97192000D01*
X178447174Y-97192000D01*
X178447158Y-97191999D01*
X178439562Y-97191999D01*
X178360438Y-97191999D01*
X178322224Y-97202238D01*
X178284009Y-97212478D01*
X178284004Y-97212481D01*
X178215495Y-97252034D01*
X178215487Y-97252040D01*
X178159541Y-97307986D01*
X178159535Y-97307994D01*
X178119982Y-97376503D01*
X178119979Y-97376508D01*
X178106326Y-97427461D01*
X178099500Y-97452937D01*
X178099500Y-97944905D01*
X178099500Y-97944906D01*
X178099500Y-97992501D01*
X178099500Y-98071343D01*
X178099500Y-98071345D01*
X178099499Y-98071345D01*
X176700500Y-98071345D01*
X176700501Y-98071342D01*
X176700501Y-97992500D01*
X176700501Y-97944905D01*
X176700501Y-97452937D01*
X176680022Y-97376510D01*
X176676674Y-97370711D01*
X176640465Y-97307994D01*
X176640459Y-97307986D01*
X176584513Y-97252040D01*
X176584505Y-97252034D01*
X176515996Y-97212481D01*
X176515991Y-97212478D01*
X176490514Y-97205651D01*
X176439563Y-97191999D01*
X176360439Y-97191999D01*
X176356599Y-97191999D01*
X176356567Y-97192000D01*
X175321156Y-97192000D01*
X175166511Y-97222761D01*
X175166499Y-97222764D01*
X175020826Y-97283103D01*
X175020824Y-97283104D01*
X174889712Y-97370711D01*
X174889708Y-97370714D01*
X174778214Y-97482208D01*
X174778211Y-97482212D01*
X174690610Y-97613315D01*
X174690603Y-97613328D01*
X174630265Y-97758999D01*
X174630262Y-97759011D01*
X174599501Y-97913654D01*
X174599501Y-97952939D01*
X174599499Y-101435218D01*
X174599487Y-101435372D01*
X171900500Y-101435372D01*
X171900500Y-97502706D01*
X171900618Y-97497297D01*
X171902555Y-97452937D01*
X171918147Y-97095795D01*
X171919087Y-97085064D01*
X171971189Y-96689302D01*
X171973063Y-96678672D01*
X172059463Y-96288950D01*
X172062261Y-96278512D01*
X172154400Y-95986282D01*
X172182291Y-95897823D01*
X172185978Y-95887691D01*
X172338741Y-95518888D01*
X172343299Y-95509114D01*
X172527617Y-95155046D01*
X172533012Y-95145700D01*
X172747493Y-94809031D01*
X172753689Y-94800184D01*
X172765775Y-94784433D01*
X172996689Y-94483500D01*
X173003623Y-94475237D01*
X173273304Y-94180932D01*
X173280932Y-94173304D01*
X173575237Y-93903623D01*
X173583500Y-93896689D01*
X173900186Y-93653687D01*
X173909031Y-93647493D01*
X174245700Y-93433012D01*
X174255046Y-93427617D01*
X174609114Y-93243299D01*
X174618888Y-93238741D01*
X174987691Y-93085978D01*
X174997823Y-93082291D01*
X175378521Y-92962258D01*
X175388950Y-92959463D01*
X175778672Y-92873063D01*
X175789302Y-92871189D01*
X176185064Y-92819087D01*
X176195795Y-92818147D01*
X176597297Y-92800617D01*
X176602706Y-92800500D01*
X176647595Y-92800500D01*
X181175500Y-92800500D01*
X181242539Y-92820185D01*
G37*
%TD.AperFunction*%
%TD*%
M02*
