%TF.GenerationSoftware,KiCad,Pcbnew,10.0.1-10.0.1~ubuntu25.10.1*%
%TF.CreationDate,2026-05-04T19:13:13+02:00*%
%TF.ProjectId,LPSN,4c50534e-2e6b-4696-9361-645f70636258,rev?*%
%TF.SameCoordinates,Original*%
%TF.FileFunction,Copper,L1,Top*%
%TF.FilePolarity,Positive*%
%FSLAX46Y46*%
G04 Gerber Fmt 4.6, Leading zero omitted, Abs format (unit mm)*
G04 Created by KiCad (PCBNEW 10.0.1-10.0.1~ubuntu25.10.1) date 2026-05-04 19:13:13*
%MOMM*%
%LPD*%
G01*
G04 APERTURE LIST*
G04 Aperture macros list*
%AMRoundRect*
0 Rectangle with rounded corners*
0 $1 Rounding radius*
0 $2 $3 $4 $5 $6 $7 $8 $9 X,Y pos of 4 corners*
0 Add a 4 corners polygon primitive as box body*
4,1,4,$2,$3,$4,$5,$6,$7,$8,$9,$2,$3,0*
0 Add four circle primitives for the rounded corners*
1,1,$1+$1,$2,$3*
1,1,$1+$1,$4,$5*
1,1,$1+$1,$6,$7*
1,1,$1+$1,$8,$9*
0 Add four rect primitives between the rounded corners*
20,1,$1+$1,$2,$3,$4,$5,0*
20,1,$1+$1,$4,$5,$6,$7,0*
20,1,$1+$1,$6,$7,$8,$9,0*
20,1,$1+$1,$8,$9,$2,$3,0*%
%AMFreePoly0*
4,1,23,0.550000,-0.750000,0.000000,-0.750000,0.000000,-0.745722,-0.065263,-0.745722,-0.191342,-0.711940,-0.304381,-0.646677,-0.396677,-0.554381,-0.461940,-0.441342,-0.495722,-0.315263,-0.495722,-0.250000,-0.500000,-0.250000,-0.500000,0.250000,-0.495722,0.250000,-0.495722,0.315263,-0.461940,0.441342,-0.396677,0.554381,-0.304381,0.646677,-0.191342,0.711940,-0.065263,0.745722,0.000000,0.745722,
0.000000,0.750000,0.550000,0.750000,0.550000,-0.750000,0.550000,-0.750000,$1*%
%AMFreePoly1*
4,1,23,0.000000,0.745722,0.065263,0.745722,0.191342,0.711940,0.304381,0.646677,0.396677,0.554381,0.461940,0.441342,0.495722,0.315263,0.495722,0.250000,0.500000,0.250000,0.500000,-0.250000,0.495722,-0.250000,0.495722,-0.315263,0.461940,-0.441342,0.396677,-0.554381,0.304381,-0.646677,0.191342,-0.711940,0.065263,-0.745722,0.000000,-0.745722,0.000000,-0.750000,-0.550000,-0.750000,
-0.550000,0.750000,0.000000,0.750000,0.000000,0.745722,0.000000,0.745722,$1*%
G04 Aperture macros list end*
%TA.AperFunction,EtchedComponent*%
%ADD10C,0.000000*%
%TD*%
%TA.AperFunction,SMDPad,CuDef*%
%ADD11RoundRect,0.100000X-0.100000X0.637500X-0.100000X-0.637500X0.100000X-0.637500X0.100000X0.637500X0*%
%TD*%
%TA.AperFunction,SMDPad,CuDef*%
%ADD12RoundRect,0.225000X-0.250000X0.225000X-0.250000X-0.225000X0.250000X-0.225000X0.250000X0.225000X0*%
%TD*%
%TA.AperFunction,SMDPad,CuDef*%
%ADD13RoundRect,0.200000X-0.200000X-0.275000X0.200000X-0.275000X0.200000X0.275000X-0.200000X0.275000X0*%
%TD*%
%TA.AperFunction,SMDPad,CuDef*%
%ADD14RoundRect,0.225000X0.225000X0.250000X-0.225000X0.250000X-0.225000X-0.250000X0.225000X-0.250000X0*%
%TD*%
%TA.AperFunction,SMDPad,CuDef*%
%ADD15R,0.300000X0.500000*%
%TD*%
%TA.AperFunction,SMDPad,CuDef*%
%ADD16RoundRect,0.225000X-0.225000X-0.250000X0.225000X-0.250000X0.225000X0.250000X-0.225000X0.250000X0*%
%TD*%
%TA.AperFunction,ComponentPad*%
%ADD17R,1.700000X1.700000*%
%TD*%
%TA.AperFunction,ComponentPad*%
%ADD18C,1.700000*%
%TD*%
%TA.AperFunction,SMDPad,CuDef*%
%ADD19RoundRect,0.105000X0.295000X-0.245000X0.295000X0.245000X-0.295000X0.245000X-0.295000X-0.245000X0*%
%TD*%
%TA.AperFunction,SMDPad,CuDef*%
%ADD20RoundRect,0.105000X0.245000X0.295000X-0.245000X0.295000X-0.245000X-0.295000X0.245000X-0.295000X0*%
%TD*%
%TA.AperFunction,SMDPad,CuDef*%
%ADD21RoundRect,0.105000X-0.245000X-0.295000X0.245000X-0.295000X0.245000X0.295000X-0.245000X0.295000X0*%
%TD*%
%TA.AperFunction,SMDPad,CuDef*%
%ADD22RoundRect,0.087500X0.125000X0.087500X-0.125000X0.087500X-0.125000X-0.087500X0.125000X-0.087500X0*%
%TD*%
%TA.AperFunction,SMDPad,CuDef*%
%ADD23RoundRect,0.087500X0.087500X0.125000X-0.087500X0.125000X-0.087500X-0.125000X0.087500X-0.125000X0*%
%TD*%
%TA.AperFunction,SMDPad,CuDef*%
%ADD24RoundRect,0.225000X0.250000X-0.225000X0.250000X0.225000X-0.250000X0.225000X-0.250000X-0.225000X0*%
%TD*%
%TA.AperFunction,SMDPad,CuDef*%
%ADD25RoundRect,0.250000X-0.337500X-0.475000X0.337500X-0.475000X0.337500X0.475000X-0.337500X0.475000X0*%
%TD*%
%TA.AperFunction,SMDPad,CuDef*%
%ADD26FreePoly0,270.000000*%
%TD*%
%TA.AperFunction,SMDPad,CuDef*%
%ADD27R,1.500000X1.000000*%
%TD*%
%TA.AperFunction,SMDPad,CuDef*%
%ADD28FreePoly1,270.000000*%
%TD*%
%TA.AperFunction,SMDPad,CuDef*%
%ADD29RoundRect,0.250000X-0.475000X0.337500X-0.475000X-0.337500X0.475000X-0.337500X0.475000X0.337500X0*%
%TD*%
%TA.AperFunction,ViaPad*%
%ADD30C,0.600000*%
%TD*%
%TA.AperFunction,Conductor*%
%ADD31C,0.600000*%
%TD*%
%TA.AperFunction,Conductor*%
%ADD32C,0.400000*%
%TD*%
%TA.AperFunction,Conductor*%
%ADD33C,0.200000*%
%TD*%
%TA.AperFunction,Conductor*%
%ADD34C,0.300000*%
%TD*%
G04 APERTURE END LIST*
D10*
%TA.AperFunction,EtchedComponent*%
%TO.C,REF\u002A\u002A*%
G36*
X187600000Y-104000000D02*
G01*
X187000000Y-104000000D01*
X187000000Y-103500000D01*
X187600000Y-103500000D01*
X187600000Y-104000000D01*
G37*
%TD.AperFunction*%
%TD*%
D11*
%TO.P,U5,20,PF3*%
%TO.N,N/C*%
X190725000Y-119362500D03*
%TO.P,U5,19,PB7*%
%TO.N,unconnected-(U5-PB7-Pad19)*%
X190075000Y-119362500D03*
%TO.P,U5,18,PA14/PB4/PB5/PB6*%
%TO.N,SW_DIO*%
X189425000Y-119362500D03*
%TO.P,U5,17,PA13*%
%TO.N,SW_CLK*%
X188775000Y-119362500D03*
%TO.P,U5,16,PA12*%
%TO.N,unconnected-(U5-PA12-Pad16)*%
X188125000Y-119362500D03*
%TO.P,U5,15,PA11*%
%TO.N,N/C*%
X187475000Y-119362500D03*
%TO.P,U5,14,PA8/PA9/PA10*%
X186825000Y-119362500D03*
%TO.P,U5,13,PB1*%
%TO.N,PRESS_INT_READY*%
X186175000Y-119362500D03*
%TO.P,U5,12,PA7/PB0*%
%TO.N,I2C_SCL*%
X185525000Y-119362500D03*
%TO.P,U5,11,PA5/PA6*%
%TO.N,I2C_SDA*%
X184875000Y-119362500D03*
%TO.P,U5,10,PA3/PA4*%
%TO.N,LPUART_RX*%
X184875000Y-113637500D03*
%TO.P,U5,9,PA1/PA2*%
%TO.N,LPUART_TX*%
X185525000Y-113637500D03*
%TO.P,U5,8,PA0*%
%TO.N,GPIO_WAKEUP*%
X186175000Y-113637500D03*
%TO.P,U5,7,VDDA*%
%TO.N,VCC*%
X186825000Y-113637500D03*
%TO.P,U5,6,PF2*%
%TO.N,N/C*%
X187475000Y-113637500D03*
%TO.P,U5,5,PC15*%
X188125000Y-113637500D03*
%TO.P,U5,4,PC14*%
X188775000Y-113637500D03*
%TO.P,U5,3,VDD*%
%TO.N,VCC*%
X189425000Y-113637500D03*
%TO.P,U5,2,VSS*%
%TO.N,N/C*%
X190075000Y-113637500D03*
%TO.P,U5,1,PB8/PB9*%
%TO.N,unconnected-(U5-PB8{slash}PB9-Pad1)*%
X190725000Y-113637500D03*
%TD*%
D12*
%TO.P,REF\u002A\u002A,1*%
%TO.N,VCC*%
X192900000Y-99025000D03*
%TO.P,REF\u002A\u002A,2*%
%TO.N,GND*%
X192900000Y-100575000D03*
%TD*%
D13*
%TO.P,REF\u002A\u002A,1*%
%TO.N,VCC*%
X192975000Y-97600000D03*
%TO.P,REF\u002A\u002A,2*%
X194625000Y-97600000D03*
%TD*%
D14*
%TO.P,REF\u002A\u002A,1*%
%TO.N,GND*%
X193375000Y-115600000D03*
%TO.P,REF\u002A\u002A,2*%
%TO.N,N/C*%
X191825000Y-115600000D03*
%TD*%
D15*
%TO.P,U2,1,SDA*%
%TO.N,I2C_SDA*%
X177000000Y-100442500D03*
%TO.P,U2,2,SCL*%
%TO.N,I2C_SCL*%
X177800000Y-100442500D03*
%TO.P,U2,3,VDD*%
%TO.N,VCC*%
X177800000Y-99042500D03*
%TO.P,U2,4,VSS*%
%TO.N,GND*%
X177000000Y-99042500D03*
%TD*%
D16*
%TO.P,REF\u002A\u002A,1*%
%TO.N,VCC*%
X193025000Y-96100000D03*
%TO.P,REF\u002A\u002A,2*%
%TO.N,GND*%
X194575000Y-96100000D03*
%TD*%
D17*
%TO.P,REF\u002A\u002A,1*%
%TO.N,GND*%
X200600000Y-108840000D03*
D18*
%TO.P,REF\u002A\u002A,2*%
%TO.N,SW_DIO*%
X200600000Y-106300000D03*
%TO.P,REF\u002A\u002A,3*%
%TO.N,SW_CLK*%
X200600000Y-103760000D03*
%TO.P,REF\u002A\u002A,4*%
%TO.N,N/C*%
X200600000Y-101220000D03*
%TO.P,REF\u002A\u002A,5*%
%TO.N,VCC*%
X200600000Y-98680000D03*
%TD*%
D19*
%TO.P,REF\u002A\u002A,1*%
%TO.N,N/C*%
X191300000Y-95700000D03*
%TO.P,REF\u002A\u002A,2*%
X191300000Y-96800000D03*
%TO.P,REF\u002A\u002A,3*%
%TO.N,VCC*%
X191300000Y-97900000D03*
%TO.P,REF\u002A\u002A,4*%
X191300000Y-99000000D03*
%TO.P,REF\u002A\u002A,5*%
%TO.N,GND*%
X191300000Y-100100000D03*
D20*
%TO.P,REF\u002A\u002A,6*%
%TO.N,N/C*%
X189800000Y-100500000D03*
%TO.P,REF\u002A\u002A,7*%
%TO.N,GPIO_WAKEUP*%
X188700000Y-100500000D03*
%TO.P,REF\u002A\u002A,8*%
%TO.N,N/C*%
X187600000Y-100500000D03*
%TO.P,REF\u002A\u002A,9*%
X186500000Y-100500000D03*
D21*
%TO.P,REF\u002A\u002A,10*%
X185400000Y-100500000D03*
D19*
%TO.P,REF\u002A\u002A,11*%
%TO.N,LPUART_TX*%
X183900000Y-100100000D03*
%TO.P,REF\u002A\u002A,12*%
%TO.N,LPUART_RX*%
X183900000Y-99000000D03*
%TO.P,REF\u002A\u002A,13*%
%TO.N,N/C*%
X183900000Y-97900000D03*
%TO.P,REF\u002A\u002A,14*%
%TO.N,GND*%
X183900000Y-96800000D03*
%TO.P,REF\u002A\u002A,15*%
%TO.N,N/C*%
X183900000Y-95700000D03*
%TD*%
D22*
%TO.P,U3,1,Vdd_IO*%
%TO.N,VCC*%
X176962500Y-105587500D03*
%TO.P,U3,2,SCL*%
%TO.N,I2C_SCL*%
X176962500Y-105087500D03*
D23*
%TO.P,U3,3,GND*%
%TO.N,N/C*%
X176699999Y-104575000D03*
%TO.P,U3,4,SDA*%
%TO.N,I2C_SDA*%
X176200000Y-104575000D03*
%TO.P,U3,5,SA0*%
%TO.N,N/C*%
X175700001Y-104575000D03*
D22*
%TO.P,U3,6,~{CS}*%
%TO.N,VCC*%
X175437500Y-105087500D03*
%TO.P,U3,7,INT_DRDY*%
%TO.N,PRESS_INT_READY*%
X175437500Y-105587500D03*
D23*
%TO.P,U3,8,GND*%
%TO.N,N/C*%
X175700001Y-106100000D03*
%TO.P,U3,9,GND*%
X176200000Y-106100000D03*
%TO.P,U3,10,VDD*%
%TO.N,VCC*%
X176699999Y-106100000D03*
%TD*%
D24*
%TO.P,REF\u002A\u002A,1*%
%TO.N,VCC*%
X186800000Y-111875000D03*
%TO.P,REF\u002A\u002A,2*%
%TO.N,GND*%
X186800000Y-110325000D03*
%TD*%
D25*
%TO.P,REF\u002A\u002A,1*%
%TO.N,VCC*%
X190862500Y-111600000D03*
%TO.P,REF\u002A\u002A,2*%
%TO.N,GND*%
X192937500Y-111600000D03*
%TD*%
D14*
%TO.P,REF\u002A\u002A,1*%
%TO.N,VCC*%
X178175000Y-96242500D03*
%TO.P,REF\u002A\u002A,2*%
%TO.N,GND*%
X176625000Y-96242500D03*
%TD*%
D26*
%TO.P,REF\u002A\u002A,1*%
%TO.N,N/C*%
X187300000Y-103100000D03*
D27*
%TO.P,REF\u002A\u002A,2*%
X187300000Y-104400000D03*
D28*
%TO.P,REF\u002A\u002A,3*%
X187300000Y-105700000D03*
%TD*%
D12*
%TO.P,REF\u002A\u002A,1*%
%TO.N,VCC*%
X177000000Y-107125000D03*
%TO.P,REF\u002A\u002A,2*%
%TO.N,GND*%
X177000000Y-108675000D03*
%TD*%
D29*
%TO.P,REF\u002A\u002A,1*%
%TO.N,VCC*%
X194700000Y-99262500D03*
%TO.P,REF\u002A\u002A,2*%
%TO.N,GND*%
X194700000Y-101337500D03*
%TD*%
D24*
%TO.P,REF\u002A\u002A,1*%
%TO.N,VCC*%
X189400000Y-111875000D03*
%TO.P,REF\u002A\u002A,2*%
%TO.N,GND*%
X189400000Y-110325000D03*
%TD*%
D30*
%TO.N,GND*%
X198400000Y-101100000D03*
X196600000Y-108700000D03*
X197200000Y-111700000D03*
X197200000Y-116300000D03*
X193400000Y-119200000D03*
X183500000Y-118300000D03*
X181000000Y-99300000D03*
X180300000Y-95900000D03*
X188900000Y-98600000D03*
X186700000Y-98600000D03*
X188400000Y-117600000D03*
X182300000Y-113300000D03*
X179400000Y-108700000D03*
X179000000Y-111700000D03*
X174500000Y-103300000D03*
X174100000Y-94700000D03*
X181200000Y-103400000D03*
X179100000Y-118300000D03*
X177100000Y-122000000D03*
X197800000Y-121100000D03*
X199000000Y-94900000D03*
X192700000Y-104800000D03*
X190800000Y-107000000D03*
X185800000Y-115400000D03*
X195500000Y-96000000D03*
%TO.N,*%
X183800000Y-105900000D03*
X186900000Y-116100000D03*
X189400000Y-116000000D03*
X185400000Y-105900000D03*
%TO.N,VCC*%
X177800000Y-107200000D03*
X174750000Y-113400000D03*
X193800000Y-121900000D03*
X181100000Y-121900000D03*
%TO.N,GND*%
X192900000Y-101500000D03*
X193300000Y-110500000D03*
X176100000Y-108700000D03*
X187300000Y-102100000D03*
X184700000Y-96800000D03*
X195000000Y-102400000D03*
X194400000Y-102400000D03*
X187900000Y-110800000D03*
X175600000Y-96300000D03*
X194300000Y-115500000D03*
X192700000Y-110500000D03*
X183700000Y-103500000D03*
X186800000Y-107900000D03*
X175900000Y-106800000D03*
X190100000Y-114900000D03*
X190800000Y-118100000D03*
X175700000Y-103800000D03*
X190400000Y-99600000D03*
X177400000Y-104500000D03*
X183700000Y-104600000D03*
X188100000Y-109800000D03*
%TO.N,I2C_SCL*%
X178135318Y-104815136D03*
X179900000Y-104800000D03*
%TD*%
%TO.N,GND*%
D31*
X195000000Y-102400000D02*
X194400000Y-102400000D01*
X195000000Y-102400000D02*
X195000000Y-101637500D01*
X195000000Y-101637500D02*
X194700000Y-101337500D01*
X194400000Y-102400000D02*
X194400000Y-101637500D01*
X194400000Y-101637500D02*
X194700000Y-101337500D01*
D32*
X188100000Y-109800000D02*
X188600000Y-110300000D01*
X188600000Y-110300000D02*
X189375000Y-110300000D01*
X189375000Y-110300000D02*
X189400000Y-110325000D01*
X187900000Y-110800000D02*
X187400000Y-110300000D01*
X186825000Y-110300000D02*
X186800000Y-110325000D01*
X187400000Y-110300000D02*
X186825000Y-110300000D01*
%TO.N,VCC*%
D31*
X192900000Y-99025000D02*
X191325000Y-99025000D01*
X191325000Y-99025000D02*
X191300000Y-99000000D01*
%TO.N,GND*%
X194575000Y-96100000D02*
X195400000Y-96100000D01*
X195400000Y-96100000D02*
X195500000Y-96000000D01*
X175600000Y-96300000D02*
X176567500Y-96300000D01*
X176567500Y-96300000D02*
X176625000Y-96242500D01*
%TO.N,*%
D33*
X191300000Y-96800000D02*
X191500000Y-96600000D01*
X184000000Y-115100002D02*
X184000000Y-106300000D01*
X184000000Y-106300000D02*
X183600000Y-105900000D01*
X200600000Y-101400000D02*
X200600000Y-101220000D01*
X185800000Y-105800000D02*
X185900000Y-105700000D01*
X186500000Y-101200000D02*
X186100000Y-101600000D01*
X186100000Y-104000000D02*
X186500000Y-104400000D01*
X186500000Y-100500000D02*
X186500000Y-101200000D01*
X185400000Y-105900000D02*
X185500000Y-105800000D01*
X182800000Y-96800000D02*
X183900000Y-95700000D01*
X186900000Y-116100000D02*
X187475000Y-115525000D01*
X191900000Y-115600000D02*
X197800000Y-109700000D01*
X185500000Y-105800000D02*
X185800000Y-105800000D01*
X191825000Y-115600000D02*
X191900000Y-115600000D01*
X183600000Y-105900000D02*
X183800000Y-105900000D01*
X183600000Y-115400000D02*
X183600000Y-106900000D01*
X188775000Y-113637500D02*
X188775000Y-116025000D01*
X190900000Y-115600000D02*
X190500000Y-116000000D01*
X191825000Y-115600000D02*
X190900000Y-115600000D01*
X188775000Y-116025000D02*
X187800000Y-117000000D01*
X197800000Y-104200000D02*
X200600000Y-101400000D01*
X187800000Y-117000000D02*
X185200000Y-117000000D01*
X185900000Y-105700000D02*
X187300000Y-105700000D01*
X187500002Y-116600000D02*
X185499998Y-116600000D01*
X191200000Y-95700000D02*
X191300000Y-95700000D01*
X197800000Y-109700000D02*
X197800000Y-104200000D01*
X186500000Y-104400000D02*
X187300000Y-104400000D01*
X186600000Y-100600000D02*
X186500000Y-100500000D01*
X191200000Y-96900000D02*
X191300000Y-96800000D01*
X185200000Y-117000000D02*
X183600000Y-115400000D01*
X185499998Y-116600000D02*
X184000000Y-115100002D01*
X186100000Y-101600000D02*
X186100000Y-104000000D01*
X188125000Y-115975002D02*
X187500002Y-116600000D01*
X188125000Y-113637500D02*
X188125000Y-115975002D01*
X187475000Y-115525000D02*
X187475000Y-113637500D01*
X183600000Y-106900000D02*
X182800000Y-106100000D01*
X189400000Y-116000000D02*
X190500000Y-116000000D01*
X182800000Y-106100000D02*
X182800000Y-96800000D01*
%TO.N,VCC*%
D32*
X186825000Y-113637500D02*
X186825000Y-111900000D01*
D31*
X196700000Y-105090000D02*
X196700000Y-99762500D01*
D33*
X177800000Y-107200000D02*
X177075000Y-107200000D01*
D32*
X189400000Y-111875000D02*
X189400000Y-113612500D01*
X173400000Y-112050000D02*
X173400000Y-98700000D01*
D34*
X177750000Y-98692500D02*
X177750000Y-96667500D01*
D32*
X192775000Y-97800000D02*
X191400000Y-97800000D01*
D34*
X178175000Y-96242500D02*
X178175000Y-95875000D01*
D31*
X192937500Y-99062500D02*
X192900000Y-99025000D01*
D34*
X177300000Y-95000000D02*
X175700000Y-95000000D01*
D32*
X174750000Y-113400000D02*
X173400000Y-112050000D01*
D31*
X200320000Y-98400000D02*
X200600000Y-98680000D01*
D33*
X189425000Y-111900000D02*
X189400000Y-111875000D01*
D31*
X181100000Y-121900000D02*
X193800000Y-121900000D01*
D33*
X189400000Y-113612500D02*
X189425000Y-113637500D01*
D34*
X175700000Y-95000000D02*
X173400000Y-97300000D01*
D31*
X195237500Y-106500000D02*
X195290000Y-106500000D01*
D34*
X173400000Y-97300000D02*
X173400000Y-98700000D01*
D31*
X197400000Y-99062500D02*
X197862500Y-99062500D01*
X196700000Y-99762500D02*
X197400000Y-99062500D01*
D32*
X190862500Y-111600000D02*
X189675000Y-111600000D01*
D31*
X198525000Y-98400000D02*
X200320000Y-98400000D01*
D34*
X177750000Y-96667500D02*
X178175000Y-96242500D01*
D32*
X186825000Y-111900000D02*
X186800000Y-111875000D01*
X194625000Y-98987500D02*
X194700000Y-99062500D01*
D33*
X176799999Y-106924999D02*
X177000000Y-107125000D01*
D32*
X186800000Y-111875000D02*
X189400000Y-111875000D01*
X192975000Y-96150000D02*
X193025000Y-96100000D01*
D31*
X190862500Y-110875000D02*
X195237500Y-106500000D01*
D32*
X192975000Y-97600000D02*
X192775000Y-97800000D01*
D31*
X197862500Y-99062500D02*
X198525000Y-98400000D01*
D32*
X194625000Y-97600000D02*
X194625000Y-98987500D01*
X192975000Y-97600000D02*
X192975000Y-96150000D01*
D34*
X177800000Y-98742500D02*
X177750000Y-98692500D01*
D32*
X191400000Y-97800000D02*
X191300000Y-97900000D01*
D31*
X197400000Y-99062500D02*
X194700000Y-99062500D01*
X194700000Y-99062500D02*
X192937500Y-99062500D01*
D33*
X177075000Y-107200000D02*
X177000000Y-107125000D01*
D34*
X177800000Y-99042500D02*
X177800000Y-98742500D01*
D33*
X189500000Y-113562500D02*
X189425000Y-113637500D01*
X191300000Y-97900000D02*
X191300000Y-98100000D01*
D32*
X192975000Y-96250000D02*
X192925000Y-96200000D01*
X189675000Y-111600000D02*
X189400000Y-111875000D01*
D34*
X178175000Y-95875000D02*
X177300000Y-95000000D01*
D31*
X190862500Y-111600000D02*
X190862500Y-110875000D01*
D33*
X176699999Y-106100000D02*
X176699999Y-106824999D01*
D31*
X195290000Y-106500000D02*
X196700000Y-105090000D01*
%TO.N,GND*%
D32*
X177000000Y-108675000D02*
X176125000Y-108675000D01*
D33*
X177050000Y-98951078D02*
X177050000Y-98992500D01*
X175700001Y-106100000D02*
X175700001Y-106600001D01*
D32*
X192937500Y-111600000D02*
X192937500Y-110862500D01*
D33*
X176200000Y-106500000D02*
X175900000Y-106800000D01*
D32*
X190100000Y-114900000D02*
X190075000Y-114875000D01*
X192900000Y-101500000D02*
X192900000Y-100575000D01*
X192937500Y-111600000D02*
X192937500Y-110737500D01*
X176125000Y-108675000D02*
X176100000Y-108700000D01*
X184700000Y-96800000D02*
X183900000Y-96800000D01*
X190900000Y-100100000D02*
X191300000Y-100100000D01*
X190075000Y-114875000D02*
X190075000Y-113637500D01*
D33*
X175700001Y-104575000D02*
X175700000Y-103800000D01*
X177325000Y-104575000D02*
X177400000Y-104500000D01*
X187300000Y-103100000D02*
X187300000Y-102100000D01*
X177100000Y-96717500D02*
X177100000Y-98901078D01*
D32*
X194400000Y-101437500D02*
X194700000Y-101137500D01*
D33*
X175700001Y-106600001D02*
X175900000Y-106800000D01*
X177100000Y-98901078D02*
X177050000Y-98951078D01*
D32*
X193300000Y-110500000D02*
X192700000Y-110500000D01*
D33*
X190725000Y-118175000D02*
X190800000Y-118100000D01*
X176699999Y-104575000D02*
X177325000Y-104575000D01*
X190725000Y-119362500D02*
X190725000Y-118175000D01*
D32*
X190400000Y-99600000D02*
X190900000Y-100100000D01*
X192937500Y-110862500D02*
X193300000Y-110500000D01*
D33*
X176200000Y-106100000D02*
X176200000Y-106500000D01*
D32*
X194300000Y-115500000D02*
X193475000Y-115500000D01*
X195000000Y-101437500D02*
X194700000Y-101137500D01*
X192937500Y-110737500D02*
X192700000Y-110500000D01*
X193475000Y-115500000D02*
X193375000Y-115600000D01*
D33*
X176625000Y-96242500D02*
X177100000Y-96717500D01*
X177050000Y-98992500D02*
X177000000Y-99042500D01*
%TO.N,I2C_SDA*%
X177200000Y-103148529D02*
X176200000Y-104148529D01*
X176200000Y-104148529D02*
X176200000Y-104575000D01*
X177000000Y-100442500D02*
X177050000Y-100492500D01*
X184875000Y-119362500D02*
X184875000Y-118575000D01*
X177200000Y-103000000D02*
X177200000Y-103148529D01*
X184875000Y-118575000D02*
X180500000Y-114200000D01*
X177150000Y-100592500D02*
X177200000Y-100642500D01*
X180500000Y-114200000D02*
X180500000Y-106300000D01*
X177050000Y-100533922D02*
X177108578Y-100592500D01*
X180500000Y-106300000D02*
X177200000Y-103000000D01*
X177108578Y-100592500D02*
X177150000Y-100592500D01*
X177050000Y-100492500D02*
X177050000Y-100533922D01*
X177200000Y-100642500D02*
X177200000Y-103000000D01*
%TO.N,I2C_SCL*%
X185525000Y-118625001D02*
X185525000Y-119362500D01*
X177691422Y-100592500D02*
X177750000Y-100533922D01*
X177750000Y-100533922D02*
X177750000Y-100492500D01*
X178135318Y-104815136D02*
X177933393Y-104815136D01*
X179900000Y-104800000D02*
X177600000Y-102500000D01*
X177648529Y-105100000D02*
X177151471Y-105100000D01*
X181000000Y-105900000D02*
X181000000Y-114100001D01*
X177933393Y-104815136D02*
X177648529Y-105100000D01*
X179900000Y-104800000D02*
X181000000Y-105900000D01*
X177600000Y-102500000D02*
X177600000Y-100642500D01*
X181000000Y-114100001D02*
X185525000Y-118625001D01*
X177600000Y-100642500D02*
X177650000Y-100592500D01*
X177138971Y-105087500D02*
X176962500Y-105087500D01*
X177750000Y-100492500D02*
X177800000Y-100442500D01*
X177151471Y-105100000D02*
X177138971Y-105087500D01*
X177650000Y-100592500D02*
X177691422Y-100592500D01*
%TO.N,GPIO_WAKEUP*%
X186200000Y-109200000D02*
X185800000Y-109600000D01*
X188700000Y-108500000D02*
X188000000Y-109200000D01*
X186175000Y-112775000D02*
X186175000Y-113637500D01*
X185800000Y-112400000D02*
X186175000Y-112775000D01*
X188700000Y-100500000D02*
X188700000Y-108500000D01*
X188000000Y-109200000D02*
X186200000Y-109200000D01*
X185800000Y-109600000D02*
X185800000Y-112400000D01*
%TO.N,LPUART_TX*%
X185525000Y-112981544D02*
X184800000Y-112256544D01*
X185525000Y-113637500D02*
X185525000Y-112981544D01*
X184800000Y-102934314D02*
X184700000Y-102834315D01*
X183600000Y-100400000D02*
X183900000Y-100100000D01*
X184700000Y-102700000D02*
X183600000Y-101600000D01*
X184800000Y-112256544D02*
X184800000Y-102934314D01*
X183600000Y-101600000D02*
X183600000Y-100400000D01*
X184700000Y-102834315D02*
X184700000Y-102700000D01*
%TO.N,LPUART_RX*%
X184400000Y-113162500D02*
X184400000Y-103100000D01*
X184100000Y-99300000D02*
X183700000Y-99300000D01*
X183200000Y-101900000D02*
X183200000Y-99300000D01*
X183500000Y-99000000D02*
X183900000Y-99000000D01*
X183200000Y-99300000D02*
X183500000Y-99000000D01*
X184875000Y-113637500D02*
X184400000Y-113162500D01*
X184400000Y-103100000D02*
X183200000Y-101900000D01*
%TO.N,PRESS_INT_READY*%
X174600000Y-110400000D02*
X184800000Y-120600000D01*
X186175000Y-120099999D02*
X186175000Y-119362500D01*
X185674999Y-120600000D02*
X186175000Y-120099999D01*
X175437500Y-105587500D02*
X174600000Y-106425000D01*
X174600000Y-106425000D02*
X174600000Y-110400000D01*
X184800000Y-120600000D02*
X185674999Y-120600000D01*
%TO.N,SW_CLK*%
X188775000Y-119362500D02*
X188775000Y-118600002D01*
X198200000Y-112564382D02*
X198200000Y-106130000D01*
X190375002Y-117000000D02*
X193764382Y-117000000D01*
X193764382Y-117000000D02*
X198200000Y-112564382D01*
X188775000Y-118600002D02*
X190375002Y-117000000D01*
X198230000Y-106130000D02*
X200600000Y-103760000D01*
X198200000Y-106130000D02*
X198230000Y-106130000D01*
%TO.N,SW_DIO*%
X198600000Y-108300000D02*
X200600000Y-106300000D01*
X189425000Y-119362500D02*
X189425000Y-118575000D01*
X189425000Y-118575000D02*
X190600000Y-117400000D01*
X198600000Y-112730068D02*
X198600000Y-108300000D01*
X193930068Y-117400000D02*
X198600000Y-112730068D01*
X190600000Y-117400000D02*
X193930068Y-117400000D01*
%TD*%
%TA.AperFunction,Conductor*%
%TO.N,GND*%
G36*
X181242539Y-92820185D02*
G01*
X181288294Y-92872989D01*
X181299500Y-92924500D01*
X181299500Y-93907317D01*
X181330044Y-94119764D01*
X181330047Y-94119774D01*
X181390517Y-94325715D01*
X181479672Y-94520938D01*
X181479681Y-94520954D01*
X181595719Y-94701512D01*
X181595725Y-94701519D01*
X181736274Y-94863723D01*
X181736276Y-94863725D01*
X181898480Y-95004274D01*
X181898487Y-95004280D01*
X182079045Y-95120318D01*
X182079061Y-95120327D01*
X182274284Y-95209482D01*
X182274288Y-95209483D01*
X182274290Y-95209484D01*
X182480231Y-95269954D01*
X182480232Y-95269954D01*
X182480235Y-95269955D01*
X182543584Y-95279062D01*
X182692682Y-95300500D01*
X182760438Y-95300500D01*
X183175500Y-95300500D01*
X183242539Y-95320185D01*
X183288294Y-95372989D01*
X183299500Y-95424500D01*
X183299500Y-95824167D01*
X183279815Y-95891206D01*
X183263181Y-95911848D01*
X182559541Y-96615487D01*
X182559535Y-96615495D01*
X182519984Y-96684001D01*
X182519979Y-96684009D01*
X182518558Y-96689314D01*
X182499500Y-96760438D01*
X182499500Y-106139562D01*
X182519979Y-106215989D01*
X182545642Y-106260438D01*
X182550466Y-106268793D01*
X182559542Y-106284514D01*
X182559543Y-106284515D01*
X183263181Y-106988152D01*
X183296666Y-107049475D01*
X183299500Y-107075833D01*
X183299500Y-115439562D01*
X183311981Y-115486142D01*
X183319979Y-115515990D01*
X183319982Y-115515995D01*
X183359535Y-115584504D01*
X183359539Y-115584509D01*
X183359540Y-115584511D01*
X185015489Y-117240460D01*
X185074829Y-117274720D01*
X185084008Y-117280020D01*
X185084012Y-117280022D01*
X185160438Y-117300500D01*
X185160440Y-117300500D01*
X187839560Y-117300500D01*
X187839562Y-117300500D01*
X187915989Y-117280021D01*
X187984511Y-117240460D01*
X188040460Y-117184511D01*
X188870897Y-116354072D01*
X188932220Y-116320588D01*
X189001911Y-116325572D01*
X189046259Y-116354073D01*
X189092686Y-116400500D01*
X189206814Y-116466392D01*
X189334108Y-116500500D01*
X189334110Y-116500500D01*
X189465890Y-116500500D01*
X189465892Y-116500500D01*
X189593186Y-116466392D01*
X189707314Y-116400500D01*
X189770995Y-116336819D01*
X189832318Y-116303334D01*
X189858676Y-116300500D01*
X190539560Y-116300500D01*
X190539562Y-116300500D01*
X190615989Y-116280021D01*
X190684511Y-116240460D01*
X190740460Y-116184511D01*
X190986274Y-115938696D01*
X191047595Y-115905213D01*
X191117286Y-115910197D01*
X191173220Y-115952068D01*
X191185033Y-115974847D01*
X191185851Y-115974431D01*
X191190280Y-115983124D01*
X191190281Y-115983126D01*
X191251472Y-116103220D01*
X191251474Y-116103222D01*
X191251476Y-116103225D01*
X191346774Y-116198523D01*
X191346778Y-116198526D01*
X191346780Y-116198528D01*
X191466874Y-116259719D01*
X191466876Y-116259719D01*
X191466878Y-116259720D01*
X191566507Y-116275500D01*
X191566512Y-116275500D01*
X192083493Y-116275500D01*
X192183121Y-116259720D01*
X192183121Y-116259719D01*
X192183126Y-116259719D01*
X192303220Y-116198528D01*
X192398528Y-116103220D01*
X192459719Y-115983126D01*
X192459720Y-115983121D01*
X192475500Y-115883493D01*
X192475500Y-115500833D01*
X192495185Y-115433794D01*
X192511819Y-115413152D01*
X197687819Y-110237152D01*
X197749142Y-110203667D01*
X197818834Y-110208651D01*
X197874767Y-110250523D01*
X197899184Y-110315987D01*
X197899500Y-110324833D01*
X197899500Y-112388549D01*
X197879815Y-112455588D01*
X197863181Y-112476230D01*
X193676230Y-116663181D01*
X193614907Y-116696666D01*
X193588549Y-116699500D01*
X190335440Y-116699500D01*
X190259012Y-116719978D01*
X190190491Y-116759540D01*
X190190488Y-116759542D01*
X188534542Y-118415488D01*
X188529592Y-118421940D01*
X188527907Y-118420647D01*
X188485466Y-118461106D01*
X188416857Y-118474322D01*
X188378572Y-118464319D01*
X188324603Y-118440490D01*
X188294992Y-118427415D01*
X188269865Y-118424500D01*
X187980143Y-118424500D01*
X187980117Y-118424502D01*
X187955013Y-118427413D01*
X187925397Y-118440490D01*
X187858799Y-118469896D01*
X187850086Y-118473743D01*
X187780807Y-118482814D01*
X187749914Y-118473743D01*
X187742404Y-118470427D01*
X187644991Y-118427415D01*
X187619865Y-118424500D01*
X187330143Y-118424500D01*
X187330117Y-118424502D01*
X187305013Y-118427413D01*
X187275397Y-118440490D01*
X187208799Y-118469896D01*
X187200086Y-118473743D01*
X187130807Y-118482814D01*
X187099914Y-118473743D01*
X187092404Y-118470427D01*
X186994991Y-118427415D01*
X186969865Y-118424500D01*
X186680143Y-118424500D01*
X186680117Y-118424502D01*
X186655013Y-118427413D01*
X186625397Y-118440490D01*
X186558799Y-118469896D01*
X186550086Y-118473743D01*
X186480807Y-118482814D01*
X186449914Y-118473743D01*
X186442404Y-118470427D01*
X186344991Y-118427415D01*
X186319865Y-118424500D01*
X186030143Y-118424500D01*
X186030117Y-118424502D01*
X186005013Y-118427413D01*
X185977237Y-118439677D01*
X185907466Y-118470484D01*
X185886262Y-118473260D01*
X185866229Y-118480733D01*
X185852312Y-118477705D01*
X185838190Y-118479555D01*
X185818852Y-118470427D01*
X185797956Y-118465882D01*
X185778727Y-118451488D01*
X185775005Y-118449731D01*
X185769701Y-118444731D01*
X185740458Y-118415488D01*
X185709511Y-118384541D01*
X181336819Y-114011849D01*
X181303334Y-113950526D01*
X181300500Y-113924168D01*
X181300500Y-105860439D01*
X181295179Y-105840581D01*
X181280021Y-105784011D01*
X181280017Y-105784004D01*
X181240464Y-105715495D01*
X181240458Y-105715487D01*
X180436819Y-104911848D01*
X180403334Y-104850525D01*
X180400500Y-104824167D01*
X180400500Y-104734110D01*
X180400500Y-104734108D01*
X180366392Y-104606814D01*
X180361924Y-104599076D01*
X180348587Y-104575975D01*
X180300500Y-104492686D01*
X180207314Y-104399500D01*
X180130131Y-104354938D01*
X180093187Y-104333608D01*
X180000574Y-104308793D01*
X179965892Y-104299500D01*
X179875833Y-104299500D01*
X179808794Y-104279815D01*
X179788152Y-104263181D01*
X177936819Y-102411848D01*
X177903334Y-102350525D01*
X177900500Y-102324167D01*
X177900500Y-102191115D01*
X177920185Y-102124076D01*
X177972989Y-102078321D01*
X178042147Y-102068377D01*
X178105703Y-102097402D01*
X178131885Y-102129113D01*
X178131889Y-102129118D01*
X178159538Y-102177010D01*
X178159540Y-102177012D01*
X178215489Y-102232961D01*
X178215491Y-102232962D01*
X178215495Y-102232965D01*
X178280507Y-102270499D01*
X178284011Y-102272522D01*
X178360438Y-102293001D01*
X178360440Y-102293001D01*
X178448189Y-102293001D01*
X178448217Y-102292999D01*
X179478842Y-102292999D01*
X179478843Y-102292998D01*
X179633497Y-102262237D01*
X179779179Y-102201893D01*
X179910289Y-102114288D01*
X180021789Y-102002788D01*
X180109394Y-101871678D01*
X180169738Y-101725996D01*
X180200500Y-101571340D01*
X180200500Y-101492498D01*
X180200500Y-101444903D01*
X180200500Y-98040062D01*
X180200511Y-98040032D01*
X180200501Y-97992438D01*
X180200500Y-97992375D01*
X180200501Y-97952937D01*
X180200500Y-97952933D01*
X180200500Y-97944076D01*
X180200491Y-97943955D01*
X180200487Y-97913606D01*
X180169705Y-97758976D01*
X180137270Y-97680693D01*
X180109360Y-97613331D01*
X180109358Y-97613327D01*
X180109355Y-97613320D01*
X180021755Y-97482232D01*
X180021752Y-97482229D01*
X180021748Y-97482224D01*
X179910272Y-97370748D01*
X179910262Y-97370740D01*
X179822878Y-97312346D01*
X179779182Y-97283146D01*
X179779176Y-97283143D01*
X179779170Y-97283140D01*
X179633530Y-97222798D01*
X179633529Y-97222797D01*
X179633525Y-97222796D01*
X179633522Y-97222795D01*
X179633518Y-97222794D01*
X179478893Y-97192012D01*
X179478896Y-97192012D01*
X179448001Y-97192007D01*
X179448000Y-97192007D01*
X179439577Y-97192005D01*
X179439562Y-97192001D01*
X179411177Y-97192000D01*
X179411162Y-97191999D01*
X179400078Y-97191999D01*
X179400073Y-97191997D01*
X179400064Y-97191999D01*
X179343604Y-97191987D01*
X179343426Y-97192000D01*
X178439566Y-97192000D01*
X178439562Y-97191999D01*
X178360438Y-97191999D01*
X178284011Y-97212478D01*
X178266693Y-97222476D01*
X178244104Y-97226093D01*
X178231213Y-97224449D01*
X178218581Y-97227512D01*
X178197217Y-97220114D01*
X178174796Y-97217255D01*
X178164839Y-97208902D01*
X178152557Y-97204649D01*
X178138585Y-97186877D01*
X178121268Y-97172349D01*
X178117407Y-97159938D01*
X178109375Y-97149721D01*
X178101476Y-97108719D01*
X178100516Y-97105633D01*
X178100731Y-97104853D01*
X178100500Y-97103653D01*
X178100500Y-97042000D01*
X178120185Y-96974961D01*
X178172989Y-96929206D01*
X178224500Y-96918000D01*
X178433493Y-96918000D01*
X178533121Y-96902220D01*
X178533121Y-96902219D01*
X178533126Y-96902219D01*
X178653220Y-96841028D01*
X178748528Y-96745720D01*
X178809719Y-96625626D01*
X178809720Y-96625621D01*
X178825500Y-96525993D01*
X178825500Y-95959006D01*
X178809720Y-95859378D01*
X178809719Y-95859376D01*
X178809719Y-95859374D01*
X178748528Y-95739280D01*
X178748526Y-95739278D01*
X178748523Y-95739274D01*
X178653225Y-95643976D01*
X178653221Y-95643973D01*
X178653220Y-95643972D01*
X178533126Y-95582781D01*
X178533124Y-95582780D01*
X178533121Y-95582779D01*
X178433493Y-95567000D01*
X178433488Y-95567000D01*
X178414044Y-95567000D01*
X178347005Y-95547315D01*
X178326363Y-95530681D01*
X177515213Y-94719531D01*
X177515208Y-94719527D01*
X177435290Y-94673387D01*
X177435289Y-94673386D01*
X177435288Y-94673386D01*
X177346144Y-94649500D01*
X175653856Y-94649500D01*
X175564712Y-94673386D01*
X175564709Y-94673387D01*
X175484791Y-94719527D01*
X175484786Y-94719531D01*
X173119529Y-97084788D01*
X173101421Y-97116155D01*
X173101419Y-97116157D01*
X173073388Y-97164706D01*
X173073387Y-97164709D01*
X173073386Y-97164711D01*
X173073386Y-97164712D01*
X173057822Y-97222798D01*
X173049500Y-97253856D01*
X173049500Y-98472857D01*
X173032888Y-98534855D01*
X173026795Y-98545408D01*
X173026793Y-98545413D01*
X172999500Y-98647273D01*
X172999500Y-111997273D01*
X172999500Y-112102727D01*
X173006611Y-112129266D01*
X173026793Y-112204589D01*
X173053156Y-112250250D01*
X173079520Y-112295913D01*
X173079522Y-112295915D01*
X174226005Y-113442398D01*
X174258099Y-113497985D01*
X174283608Y-113593186D01*
X174349500Y-113707314D01*
X174442686Y-113800500D01*
X174556814Y-113866392D01*
X174684108Y-113900500D01*
X174684110Y-113900500D01*
X174815890Y-113900500D01*
X174815892Y-113900500D01*
X174943186Y-113866392D01*
X175057314Y-113800500D01*
X175150500Y-113707314D01*
X175216392Y-113593186D01*
X175250500Y-113465892D01*
X175250500Y-113334108D01*
X175216392Y-113206814D01*
X175150500Y-113092686D01*
X175057314Y-112999500D01*
X174943186Y-112933608D01*
X174847985Y-112908099D01*
X174792398Y-112876005D01*
X173836819Y-111920426D01*
X173803334Y-111859103D01*
X173800500Y-111832745D01*
X173800500Y-98647275D01*
X173800500Y-98647273D01*
X173773207Y-98545413D01*
X173771418Y-98542315D01*
X173767112Y-98534855D01*
X173750500Y-98472857D01*
X173750500Y-97496544D01*
X173770185Y-97429505D01*
X173786819Y-97408863D01*
X175808863Y-95386819D01*
X175870186Y-95353334D01*
X175896544Y-95350500D01*
X177103456Y-95350500D01*
X177170495Y-95370185D01*
X177191137Y-95386819D01*
X177518233Y-95713915D01*
X177551718Y-95775238D01*
X177546734Y-95844930D01*
X177541039Y-95857887D01*
X177540279Y-95859377D01*
X177524500Y-95959006D01*
X177524500Y-96345956D01*
X177504815Y-96412995D01*
X177502653Y-96416246D01*
X177496213Y-96425604D01*
X177469530Y-96452288D01*
X177428585Y-96523207D01*
X177426136Y-96527447D01*
X177426133Y-96527453D01*
X177423387Y-96532209D01*
X177423386Y-96532212D01*
X177399500Y-96621356D01*
X177399500Y-98738645D01*
X177417765Y-98806812D01*
X177425489Y-98835636D01*
X177422257Y-98836501D01*
X177428060Y-98890532D01*
X177396777Y-98953008D01*
X177336684Y-98988652D01*
X177306033Y-98992500D01*
X177150000Y-98992500D01*
X177150000Y-99168500D01*
X177147449Y-99177185D01*
X177148738Y-99186147D01*
X177137759Y-99210187D01*
X177130315Y-99235539D01*
X177123474Y-99241466D01*
X177119713Y-99249703D01*
X177097478Y-99263992D01*
X177077511Y-99281294D01*
X177066996Y-99283581D01*
X177060935Y-99287477D01*
X177026000Y-99292500D01*
X176974000Y-99292500D01*
X176906961Y-99272815D01*
X176861206Y-99220011D01*
X176850000Y-99168500D01*
X176850000Y-98992500D01*
X176650000Y-98992500D01*
X176650000Y-100161584D01*
X176649500Y-100171762D01*
X176649500Y-100712252D01*
X176661131Y-100770729D01*
X176668116Y-100781182D01*
X176688993Y-100847859D01*
X176670508Y-100915239D01*
X176618529Y-100961929D01*
X176549559Y-100973105D01*
X176485495Y-100945219D01*
X176477332Y-100937753D01*
X176410293Y-100870714D01*
X176410289Y-100870711D01*
X176279186Y-100783110D01*
X176279176Y-100783105D01*
X176133498Y-100722763D01*
X176133493Y-100722761D01*
X176050307Y-100706214D01*
X175988397Y-100673828D01*
X175953823Y-100613112D01*
X175950500Y-100584597D01*
X175950500Y-98900402D01*
X175970185Y-98833363D01*
X176022989Y-98787608D01*
X176050309Y-98778785D01*
X176091036Y-98770683D01*
X176133498Y-98762237D01*
X176261093Y-98709386D01*
X176279173Y-98701897D01*
X176279173Y-98701896D01*
X176279180Y-98701894D01*
X176410290Y-98614289D01*
X176521790Y-98502789D01*
X176609395Y-98371679D01*
X176669738Y-98225997D01*
X176700501Y-98071342D01*
X176700501Y-97992500D01*
X176700501Y-97944905D01*
X176700501Y-97452937D01*
X176680022Y-97376510D01*
X176649499Y-97323642D01*
X176640465Y-97307994D01*
X176640459Y-97307986D01*
X176584513Y-97252040D01*
X176584505Y-97252034D01*
X176515996Y-97212481D01*
X176515991Y-97212478D01*
X176468295Y-97199698D01*
X176439563Y-97191999D01*
X176360439Y-97191999D01*
X176356599Y-97191999D01*
X176356567Y-97192000D01*
X175321156Y-97192000D01*
X175166511Y-97222761D01*
X175166499Y-97222764D01*
X175020826Y-97283103D01*
X175020824Y-97283104D01*
X174889712Y-97370711D01*
X174889708Y-97370714D01*
X174778214Y-97482208D01*
X174778211Y-97482212D01*
X174690610Y-97613315D01*
X174690603Y-97613328D01*
X174630265Y-97758999D01*
X174630262Y-97759011D01*
X174599501Y-97913654D01*
X174599501Y-97913659D01*
X174599501Y-97952939D01*
X174599499Y-101444937D01*
X174599489Y-101444968D01*
X174599499Y-101492440D01*
X174599499Y-101540141D01*
X174599507Y-101540268D01*
X174599512Y-101571393D01*
X174630293Y-101726016D01*
X174630295Y-101726024D01*
X174650933Y-101775833D01*
X174690643Y-101871675D01*
X174690646Y-101871682D01*
X174748907Y-101958866D01*
X174778246Y-102002770D01*
X174778249Y-102002773D01*
X174778250Y-102002774D01*
X174889724Y-102114248D01*
X174889729Y-102114252D01*
X174889732Y-102114255D01*
X175020820Y-102201855D01*
X175020827Y-102201858D01*
X175020831Y-102201860D01*
X175166472Y-102262204D01*
X175166476Y-102262204D01*
X175166477Y-102262205D01*
X175321107Y-102292987D01*
X175360416Y-102292993D01*
X175360439Y-102293000D01*
X175394308Y-102293000D01*
X175399939Y-102293001D01*
X175447534Y-102293011D01*
X175447536Y-102293010D01*
X175457151Y-102293012D01*
X175457316Y-102293000D01*
X176352827Y-102293000D01*
X176352843Y-102293001D01*
X176360439Y-102293001D01*
X176439561Y-102293001D01*
X176439563Y-102293001D01*
X176515990Y-102272522D01*
X176584512Y-102232961D01*
X176640461Y-102177012D01*
X176668113Y-102129116D01*
X176718679Y-102080902D01*
X176787286Y-102067678D01*
X176852151Y-102093646D01*
X176892680Y-102150560D01*
X176899500Y-102191117D01*
X176899500Y-102972696D01*
X176879815Y-103039735D01*
X176863181Y-103060377D01*
X175959541Y-103964016D01*
X175959535Y-103964024D01*
X175919982Y-104032533D01*
X175919978Y-104032542D01*
X175909915Y-104070096D01*
X175873549Y-104129756D01*
X175810701Y-104160284D01*
X175790142Y-104162000D01*
X175569504Y-104162000D01*
X175569495Y-104162001D01*
X175545420Y-104164793D01*
X175545416Y-104164794D01*
X175446927Y-104208281D01*
X175446919Y-104208287D01*
X175370788Y-104284418D01*
X175370784Y-104284425D01*
X175327294Y-104382917D01*
X175327294Y-104382919D01*
X175324501Y-104406991D01*
X175324501Y-104599077D01*
X175304816Y-104666116D01*
X175252012Y-104711871D01*
X175250588Y-104712511D01*
X175146925Y-104758283D01*
X175146923Y-104758284D01*
X175146921Y-104758285D01*
X175146920Y-104758285D01*
X175146918Y-104758287D01*
X175070787Y-104834418D01*
X175070783Y-104834425D01*
X175027293Y-104932917D01*
X175027293Y-104932919D01*
X175024500Y-104956991D01*
X175024500Y-105217996D01*
X175024501Y-105218004D01*
X175027293Y-105242080D01*
X175047310Y-105287414D01*
X175056381Y-105356691D01*
X175055939Y-105359323D01*
X175053319Y-105373976D01*
X175027293Y-105432920D01*
X175024500Y-105456995D01*
X175024500Y-105535161D01*
X175022564Y-105545990D01*
X175011684Y-105567811D01*
X175004815Y-105591205D01*
X174992240Y-105606809D01*
X174991388Y-105608519D01*
X174990378Y-105609120D01*
X174988181Y-105611847D01*
X174415489Y-106184540D01*
X174359541Y-106240487D01*
X174359535Y-106240495D01*
X174319982Y-106309004D01*
X174319979Y-106309009D01*
X174313590Y-106332853D01*
X174299500Y-106385438D01*
X174299500Y-110439562D01*
X174308862Y-110474500D01*
X174319979Y-110515990D01*
X174319980Y-110515991D01*
X174349826Y-110567686D01*
X174359540Y-110584511D01*
X184559540Y-120784511D01*
X184615489Y-120840460D01*
X184615491Y-120840461D01*
X184615495Y-120840464D01*
X184684004Y-120880017D01*
X184684011Y-120880021D01*
X184760438Y-120900500D01*
X184760440Y-120900500D01*
X185714559Y-120900500D01*
X185714561Y-120900500D01*
X185790988Y-120880021D01*
X185859510Y-120840460D01*
X185915459Y-120784511D01*
X186415460Y-120284510D01*
X186415461Y-120284507D01*
X186419700Y-120280269D01*
X186481023Y-120246784D01*
X186550714Y-120251768D01*
X186557451Y-120254509D01*
X186655009Y-120297585D01*
X186680135Y-120300500D01*
X186969864Y-120300499D01*
X186969879Y-120300497D01*
X186969882Y-120300497D01*
X186994987Y-120297586D01*
X186994987Y-120297585D01*
X186994991Y-120297585D01*
X187097765Y-120252206D01*
X187097766Y-120252204D01*
X187099912Y-120251257D01*
X187169190Y-120242185D01*
X187200085Y-120251257D01*
X187305004Y-120297583D01*
X187305009Y-120297585D01*
X187330135Y-120300500D01*
X187619864Y-120300499D01*
X187619879Y-120300497D01*
X187619882Y-120300497D01*
X187644987Y-120297586D01*
X187644987Y-120297585D01*
X187644991Y-120297585D01*
X187747765Y-120252206D01*
X187747766Y-120252204D01*
X187749912Y-120251257D01*
X187819190Y-120242185D01*
X187850085Y-120251257D01*
X187955004Y-120297583D01*
X187955009Y-120297585D01*
X187980135Y-120300500D01*
X188269864Y-120300499D01*
X188269879Y-120300497D01*
X188269882Y-120300497D01*
X188294987Y-120297586D01*
X188294987Y-120297585D01*
X188294991Y-120297585D01*
X188397765Y-120252206D01*
X188397766Y-120252204D01*
X188399912Y-120251257D01*
X188469190Y-120242185D01*
X188500085Y-120251257D01*
X188605004Y-120297583D01*
X188605009Y-120297585D01*
X188630135Y-120300500D01*
X188919864Y-120300499D01*
X188919879Y-120300497D01*
X188919882Y-120300497D01*
X188944987Y-120297586D01*
X188944987Y-120297585D01*
X188944991Y-120297585D01*
X189047765Y-120252206D01*
X189047766Y-120252204D01*
X189049912Y-120251257D01*
X189119190Y-120242185D01*
X189150085Y-120251257D01*
X189255004Y-120297583D01*
X189255009Y-120297585D01*
X189280135Y-120300500D01*
X189569864Y-120300499D01*
X189569879Y-120300497D01*
X189569882Y-120300497D01*
X189594987Y-120297586D01*
X189594987Y-120297585D01*
X189594991Y-120297585D01*
X189697765Y-120252206D01*
X189697766Y-120252204D01*
X189699912Y-120251257D01*
X189769190Y-120242185D01*
X189800085Y-120251257D01*
X189905004Y-120297583D01*
X189905009Y-120297585D01*
X189930135Y-120300500D01*
X190219864Y-120300499D01*
X190219879Y-120300497D01*
X190219882Y-120300497D01*
X190244987Y-120297586D01*
X190244987Y-120297585D01*
X190244991Y-120297585D01*
X190347765Y-120252206D01*
X190347766Y-120252204D01*
X190349912Y-120251257D01*
X190419190Y-120242185D01*
X190450085Y-120251257D01*
X190555004Y-120297583D01*
X190555009Y-120297585D01*
X190580135Y-120300500D01*
X190869864Y-120300499D01*
X190869879Y-120300497D01*
X190869882Y-120300497D01*
X190894987Y-120297586D01*
X190894988Y-120297585D01*
X190894991Y-120297585D01*
X190997765Y-120252206D01*
X191077206Y-120172765D01*
X191122585Y-120069991D01*
X191125500Y-120044865D01*
X191125499Y-119393713D01*
X199749500Y-119393713D01*
X199749500Y-119606287D01*
X199754499Y-119637848D01*
X199767388Y-119719230D01*
X199782754Y-119816243D01*
X199814828Y-119914957D01*
X199848444Y-120018414D01*
X199944951Y-120207820D01*
X200069890Y-120379786D01*
X200220213Y-120530109D01*
X200392179Y-120655048D01*
X200392181Y-120655049D01*
X200392184Y-120655051D01*
X200581588Y-120751557D01*
X200783757Y-120817246D01*
X200993713Y-120850500D01*
X200993714Y-120850500D01*
X201206286Y-120850500D01*
X201206287Y-120850500D01*
X201416243Y-120817246D01*
X201618412Y-120751557D01*
X201807816Y-120655051D01*
X201899177Y-120588674D01*
X201979786Y-120530109D01*
X201979788Y-120530106D01*
X201979792Y-120530104D01*
X202130104Y-120379792D01*
X202130106Y-120379788D01*
X202130109Y-120379786D01*
X202255048Y-120207820D01*
X202255047Y-120207820D01*
X202255051Y-120207816D01*
X202351557Y-120018412D01*
X202417246Y-119816243D01*
X202450500Y-119606287D01*
X202450500Y-119393713D01*
X202417246Y-119183757D01*
X202351557Y-118981588D01*
X202255051Y-118792184D01*
X202255049Y-118792181D01*
X202255048Y-118792179D01*
X202130109Y-118620213D01*
X201979786Y-118469890D01*
X201807820Y-118344951D01*
X201618414Y-118248444D01*
X201618413Y-118248443D01*
X201618412Y-118248443D01*
X201416243Y-118182754D01*
X201416241Y-118182753D01*
X201416240Y-118182753D01*
X201254957Y-118157208D01*
X201206287Y-118149500D01*
X200993713Y-118149500D01*
X200945042Y-118157208D01*
X200783760Y-118182753D01*
X200581585Y-118248444D01*
X200392179Y-118344951D01*
X200220213Y-118469890D01*
X200069890Y-118620213D01*
X199944951Y-118792179D01*
X199848444Y-118981585D01*
X199782753Y-119183760D01*
X199750272Y-119388841D01*
X199749500Y-119393713D01*
X191125499Y-119393713D01*
X191125499Y-119183760D01*
X191125499Y-118680143D01*
X191125499Y-118680137D01*
X191125499Y-118680136D01*
X191125497Y-118680117D01*
X191122586Y-118655012D01*
X191122585Y-118655010D01*
X191122585Y-118655009D01*
X191077206Y-118552235D01*
X190997765Y-118472794D01*
X190971294Y-118461106D01*
X190894992Y-118427415D01*
X190869865Y-118424500D01*
X190580143Y-118424500D01*
X190580117Y-118424502D01*
X190555013Y-118427413D01*
X190525397Y-118440490D01*
X190458799Y-118469896D01*
X190450086Y-118473743D01*
X190416921Y-118478085D01*
X190383901Y-118483258D01*
X190381834Y-118482679D01*
X190380807Y-118482814D01*
X190349914Y-118473742D01*
X190238938Y-118424741D01*
X190185561Y-118379655D01*
X190165034Y-118312869D01*
X190183872Y-118245587D01*
X190201338Y-118223632D01*
X190688152Y-117736819D01*
X190749475Y-117703334D01*
X190775833Y-117700500D01*
X193969628Y-117700500D01*
X193969630Y-117700500D01*
X194046057Y-117680021D01*
X194114579Y-117640460D01*
X194170528Y-117584511D01*
X198840460Y-112914579D01*
X198850336Y-112897472D01*
X198868763Y-112865557D01*
X198872012Y-112859928D01*
X198880021Y-112846057D01*
X198900500Y-112769630D01*
X198900500Y-108475832D01*
X198920185Y-108408793D01*
X198936814Y-108388155D01*
X200037896Y-107287073D01*
X200099217Y-107253590D01*
X200168909Y-107258574D01*
X200173007Y-107260186D01*
X200293580Y-107310130D01*
X200496530Y-107350499D01*
X200496534Y-107350500D01*
X200496535Y-107350500D01*
X200703466Y-107350500D01*
X200703467Y-107350499D01*
X200906420Y-107310130D01*
X201097598Y-107230941D01*
X201269655Y-107115977D01*
X201415977Y-106969655D01*
X201530941Y-106797598D01*
X201610130Y-106606420D01*
X201650500Y-106403465D01*
X201650500Y-106196535D01*
X201610130Y-105993580D01*
X201530941Y-105802402D01*
X201415977Y-105630345D01*
X201415975Y-105630342D01*
X201269657Y-105484024D01*
X201125327Y-105387587D01*
X201097598Y-105369059D01*
X201093916Y-105367534D01*
X200906420Y-105289870D01*
X200906412Y-105289868D01*
X200703469Y-105249500D01*
X200703465Y-105249500D01*
X200496535Y-105249500D01*
X200496530Y-105249500D01*
X200293587Y-105289868D01*
X200293579Y-105289870D01*
X200102403Y-105369058D01*
X199930342Y-105484024D01*
X199784024Y-105630342D01*
X199669058Y-105802403D01*
X199589870Y-105993579D01*
X199589868Y-105993587D01*
X199549500Y-106196530D01*
X199549500Y-106403469D01*
X199589868Y-106606412D01*
X199589871Y-106606424D01*
X199639803Y-106726971D01*
X199647272Y-106796440D01*
X199615997Y-106858919D01*
X199612923Y-106862104D01*
X198712181Y-107762847D01*
X198650858Y-107796332D01*
X198581167Y-107791348D01*
X198525233Y-107749476D01*
X198500816Y-107684012D01*
X198500500Y-107675166D01*
X198500500Y-106335832D01*
X198520185Y-106268793D01*
X198536814Y-106248156D01*
X200037896Y-104747073D01*
X200099217Y-104713590D01*
X200168909Y-104718574D01*
X200173007Y-104720186D01*
X200293580Y-104770130D01*
X200441234Y-104799500D01*
X200496530Y-104810499D01*
X200496534Y-104810500D01*
X200496535Y-104810500D01*
X200703466Y-104810500D01*
X200703467Y-104810499D01*
X200906420Y-104770130D01*
X201097598Y-104690941D01*
X201269655Y-104575977D01*
X201415977Y-104429655D01*
X201530941Y-104257598D01*
X201610130Y-104066420D01*
X201650500Y-103863465D01*
X201650500Y-103656535D01*
X201610130Y-103453580D01*
X201530941Y-103262402D01*
X201415977Y-103090345D01*
X201415975Y-103090342D01*
X201269657Y-102944024D01*
X201134654Y-102853819D01*
X201097598Y-102829059D01*
X201076553Y-102820342D01*
X200906420Y-102749870D01*
X200906412Y-102749868D01*
X200703469Y-102709500D01*
X200703465Y-102709500D01*
X200496535Y-102709500D01*
X200496530Y-102709500D01*
X200293587Y-102749868D01*
X200293579Y-102749870D01*
X200102403Y-102829058D01*
X199930342Y-102944024D01*
X199784024Y-103090342D01*
X199669058Y-103262403D01*
X199589870Y-103453579D01*
X199589868Y-103453587D01*
X199549500Y-103656530D01*
X199549500Y-103863469D01*
X199589868Y-104066412D01*
X199589871Y-104066424D01*
X199639803Y-104186971D01*
X199647272Y-104256440D01*
X199615997Y-104318919D01*
X199612923Y-104322104D01*
X198312181Y-105622847D01*
X198250858Y-105656332D01*
X198181166Y-105651348D01*
X198125233Y-105609476D01*
X198100816Y-105544012D01*
X198100500Y-105535166D01*
X198100500Y-104375832D01*
X198120185Y-104308793D01*
X198136814Y-104288156D01*
X200165268Y-102259701D01*
X200226589Y-102226218D01*
X200288941Y-102228723D01*
X200293583Y-102230131D01*
X200496530Y-102270499D01*
X200496534Y-102270500D01*
X200496535Y-102270500D01*
X200703466Y-102270500D01*
X200703467Y-102270499D01*
X200906420Y-102230130D01*
X201097598Y-102150941D01*
X201269655Y-102035977D01*
X201415977Y-101889655D01*
X201530941Y-101717598D01*
X201610130Y-101526420D01*
X201650500Y-101323465D01*
X201650500Y-101116535D01*
X201610130Y-100913580D01*
X201530941Y-100722402D01*
X201415977Y-100550345D01*
X201415975Y-100550342D01*
X201269657Y-100404024D01*
X201183626Y-100346541D01*
X201097598Y-100289059D01*
X200906420Y-100209870D01*
X200906412Y-100209868D01*
X200703469Y-100169500D01*
X200703465Y-100169500D01*
X200496535Y-100169500D01*
X200496530Y-100169500D01*
X200293587Y-100209868D01*
X200293579Y-100209870D01*
X200102403Y-100289058D01*
X199930342Y-100404024D01*
X199784024Y-100550342D01*
X199669058Y-100722403D01*
X199589870Y-100913579D01*
X199589868Y-100913587D01*
X199549500Y-101116530D01*
X199549500Y-101323469D01*
X199589868Y-101526412D01*
X199589870Y-101526420D01*
X199654406Y-101682224D01*
X199669059Y-101717598D01*
X199674672Y-101725998D01*
X199687973Y-101745905D01*
X199708850Y-101812583D01*
X199690365Y-101879963D01*
X199672551Y-101902476D01*
X197615489Y-103959540D01*
X197559541Y-104015487D01*
X197559535Y-104015495D01*
X197519982Y-104084004D01*
X197519979Y-104084009D01*
X197513292Y-104108967D01*
X197499542Y-104160284D01*
X197499500Y-104160439D01*
X197499500Y-109524166D01*
X197479815Y-109591205D01*
X197463181Y-109611847D01*
X192186038Y-114888989D01*
X192124715Y-114922474D01*
X192088453Y-114923571D01*
X192088350Y-114924882D01*
X192083494Y-114924500D01*
X192083488Y-114924500D01*
X191566512Y-114924500D01*
X191566507Y-114924500D01*
X191466878Y-114940279D01*
X191346778Y-115001473D01*
X191346774Y-115001476D01*
X191251476Y-115096774D01*
X191251473Y-115096779D01*
X191185851Y-115225569D01*
X191183914Y-115224582D01*
X191151836Y-115271494D01*
X191087477Y-115298692D01*
X191073343Y-115299500D01*
X190860438Y-115299500D01*
X190822224Y-115309739D01*
X190784009Y-115319979D01*
X190784004Y-115319982D01*
X190715495Y-115359535D01*
X190715487Y-115359541D01*
X190411848Y-115663181D01*
X190350525Y-115696666D01*
X190324167Y-115699500D01*
X189858676Y-115699500D01*
X189791637Y-115679815D01*
X189770995Y-115663181D01*
X189707316Y-115599502D01*
X189707314Y-115599500D01*
X189644408Y-115563181D01*
X189593187Y-115533608D01*
X189527430Y-115515989D01*
X189465892Y-115499500D01*
X189334108Y-115499500D01*
X189334106Y-115499500D01*
X189231592Y-115526968D01*
X189161742Y-115525305D01*
X189103880Y-115486142D01*
X189076377Y-115421913D01*
X189075500Y-115407193D01*
X189075500Y-114683625D01*
X189095185Y-114616586D01*
X189147989Y-114570831D01*
X189217147Y-114560887D01*
X189249585Y-114570190D01*
X189255009Y-114572585D01*
X189280135Y-114575500D01*
X189569864Y-114575499D01*
X189569879Y-114575497D01*
X189569882Y-114575497D01*
X189594987Y-114572586D01*
X189594987Y-114572585D01*
X189594991Y-114572585D01*
X189697765Y-114527206D01*
X189697766Y-114527204D01*
X189699912Y-114526257D01*
X189769190Y-114517185D01*
X189800085Y-114526257D01*
X189905004Y-114572583D01*
X189905009Y-114572585D01*
X189930135Y-114575500D01*
X190219864Y-114575499D01*
X190219879Y-114575497D01*
X190219882Y-114575497D01*
X190244987Y-114572586D01*
X190244987Y-114572585D01*
X190244991Y-114572585D01*
X190347765Y-114527206D01*
X190347766Y-114527204D01*
X190349912Y-114526257D01*
X190419190Y-114517185D01*
X190450085Y-114526257D01*
X190555004Y-114572583D01*
X190555009Y-114572585D01*
X190580135Y-114575500D01*
X190869864Y-114575499D01*
X190869879Y-114575497D01*
X190869882Y-114575497D01*
X190894987Y-114572586D01*
X190894988Y-114572585D01*
X190894991Y-114572585D01*
X190997765Y-114527206D01*
X191077206Y-114447765D01*
X191122585Y-114344991D01*
X191125500Y-114319865D01*
X191125499Y-112955136D01*
X191125497Y-112955117D01*
X191122586Y-112930012D01*
X191122585Y-112930010D01*
X191122585Y-112930009D01*
X191077206Y-112827235D01*
X190997765Y-112747794D01*
X190989640Y-112739669D01*
X190991880Y-112737428D01*
X190959429Y-112697673D01*
X190951523Y-112628252D01*
X190982404Y-112565577D01*
X191042267Y-112529547D01*
X191073689Y-112525500D01*
X191254270Y-112525500D01*
X191284699Y-112522646D01*
X191284701Y-112522646D01*
X191365716Y-112494297D01*
X191412882Y-112477793D01*
X191522150Y-112397150D01*
X191602793Y-112287882D01*
X191625219Y-112223790D01*
X191647646Y-112159701D01*
X191647646Y-112159699D01*
X191650500Y-112129269D01*
X191650500Y-111070730D01*
X191647646Y-111040300D01*
X191647645Y-111040298D01*
X191610486Y-110934102D01*
X191606924Y-110864323D01*
X191639844Y-110805468D01*
X195461554Y-106983758D01*
X195487227Y-106964058D01*
X195597314Y-106900500D01*
X197100500Y-105397314D01*
X197166392Y-105283186D01*
X197200500Y-105155893D01*
X197200500Y-105024108D01*
X197200500Y-100021176D01*
X197220185Y-99954137D01*
X197236819Y-99933495D01*
X197570995Y-99599319D01*
X197632318Y-99565834D01*
X197658676Y-99563000D01*
X197928390Y-99563000D01*
X197928392Y-99563000D01*
X198055686Y-99528892D01*
X198169814Y-99463000D01*
X198695995Y-98936819D01*
X198757318Y-98903334D01*
X198783676Y-98900500D01*
X199471842Y-98900500D01*
X199538881Y-98920185D01*
X199584636Y-98972989D01*
X199588081Y-98982102D01*
X199592388Y-98992500D01*
X199669059Y-99177598D01*
X199690834Y-99210187D01*
X199784024Y-99349657D01*
X199930342Y-99495975D01*
X199930345Y-99495977D01*
X200102402Y-99610941D01*
X200293580Y-99690130D01*
X200496530Y-99730499D01*
X200496534Y-99730500D01*
X200496535Y-99730500D01*
X200703466Y-99730500D01*
X200703467Y-99730499D01*
X200906420Y-99690130D01*
X201097598Y-99610941D01*
X201269655Y-99495977D01*
X201415977Y-99349655D01*
X201530941Y-99177598D01*
X201610130Y-98986420D01*
X201650500Y-98783465D01*
X201650500Y-98576535D01*
X201610130Y-98373580D01*
X201530941Y-98182402D01*
X201415977Y-98010345D01*
X201415975Y-98010342D01*
X201269657Y-97864024D01*
X201112492Y-97759011D01*
X201097598Y-97749059D01*
X200906420Y-97669870D01*
X200906412Y-97669868D01*
X200703469Y-97629500D01*
X200703465Y-97629500D01*
X200496535Y-97629500D01*
X200496530Y-97629500D01*
X200293587Y-97669868D01*
X200293579Y-97669870D01*
X200102403Y-97749058D01*
X199930342Y-97864024D01*
X199925635Y-97867888D01*
X199924685Y-97866730D01*
X199869863Y-97896666D01*
X199843505Y-97899500D01*
X198459107Y-97899500D01*
X198347147Y-97929498D01*
X198347148Y-97929499D01*
X198331813Y-97933608D01*
X198217686Y-97999500D01*
X198217683Y-97999502D01*
X197691505Y-98525681D01*
X197630182Y-98559166D01*
X197603824Y-98562000D01*
X195482603Y-98562000D01*
X195415564Y-98542315D01*
X195408970Y-98537770D01*
X195387886Y-98522209D01*
X195387880Y-98522206D01*
X195259700Y-98477353D01*
X195229270Y-98474500D01*
X195229266Y-98474500D01*
X195149500Y-98474500D01*
X195140814Y-98471949D01*
X195131853Y-98473238D01*
X195107812Y-98462259D01*
X195082461Y-98454815D01*
X195076533Y-98447974D01*
X195068297Y-98444213D01*
X195054007Y-98421978D01*
X195036706Y-98402011D01*
X195034418Y-98391496D01*
X195030523Y-98385435D01*
X195025500Y-98350500D01*
X195025500Y-98292254D01*
X195045185Y-98225215D01*
X195061819Y-98204572D01*
X195063339Y-98203051D01*
X195063342Y-98203050D01*
X195153050Y-98113342D01*
X195210646Y-98000304D01*
X195210646Y-98000302D01*
X195210647Y-98000301D01*
X195221860Y-97929499D01*
X195225500Y-97906519D01*
X195225499Y-97293482D01*
X195210646Y-97199696D01*
X195153050Y-97086658D01*
X195153046Y-97086654D01*
X195153045Y-97086652D01*
X195063347Y-96996954D01*
X195063344Y-96996952D01*
X195063342Y-96996950D01*
X194956832Y-96942680D01*
X194950301Y-96939352D01*
X194856524Y-96924500D01*
X194393482Y-96924500D01*
X194312519Y-96937323D01*
X194299696Y-96939354D01*
X194186658Y-96996950D01*
X194186657Y-96996951D01*
X194186652Y-96996954D01*
X194096954Y-97086652D01*
X194096951Y-97086657D01*
X194096950Y-97086658D01*
X194077751Y-97124337D01*
X194039352Y-97199698D01*
X194024500Y-97293475D01*
X194024500Y-97906517D01*
X194035292Y-97974657D01*
X194039354Y-98000304D01*
X194096950Y-98113342D01*
X194186658Y-98203050D01*
X194186660Y-98203051D01*
X194188181Y-98204572D01*
X194202888Y-98231505D01*
X194219477Y-98257319D01*
X194220368Y-98263518D01*
X194221666Y-98265895D01*
X194224500Y-98292254D01*
X194224500Y-98359908D01*
X194204815Y-98426947D01*
X194152011Y-98472702D01*
X194141456Y-98476949D01*
X194012117Y-98522207D01*
X194012113Y-98522209D01*
X193991030Y-98537770D01*
X193925401Y-98561741D01*
X193917397Y-98562000D01*
X193565111Y-98562000D01*
X193540352Y-98554729D01*
X193514774Y-98551323D01*
X193504332Y-98544153D01*
X193498072Y-98542315D01*
X193484886Y-98532551D01*
X193481011Y-98529263D01*
X193403220Y-98451472D01*
X193368445Y-98433753D01*
X193357410Y-98424390D01*
X193345846Y-98406801D01*
X193330544Y-98392349D01*
X193327038Y-98378194D01*
X193319027Y-98366008D01*
X193318808Y-98344958D01*
X193313749Y-98324528D01*
X193318452Y-98310726D01*
X193318301Y-98296142D01*
X193329497Y-98278315D01*
X193336287Y-98258393D01*
X193348844Y-98247511D01*
X193355463Y-98236975D01*
X193367554Y-98231300D01*
X193381339Y-98219356D01*
X193413342Y-98203050D01*
X193503050Y-98113342D01*
X193560646Y-98000304D01*
X193560646Y-98000302D01*
X193560647Y-98000301D01*
X193571860Y-97929499D01*
X193575500Y-97906519D01*
X193575499Y-97293482D01*
X193560646Y-97199696D01*
X193503050Y-97086658D01*
X193503046Y-97086654D01*
X193503045Y-97086652D01*
X193411819Y-96995426D01*
X193397115Y-96968498D01*
X193380523Y-96942680D01*
X193379631Y-96936479D01*
X193378334Y-96934103D01*
X193375500Y-96907745D01*
X193375500Y-96839591D01*
X193395185Y-96772552D01*
X193443204Y-96729107D01*
X193503220Y-96698528D01*
X193598528Y-96603220D01*
X193659719Y-96483126D01*
X193659720Y-96483121D01*
X193675500Y-96383493D01*
X193675500Y-95816506D01*
X193659720Y-95716878D01*
X193659719Y-95716876D01*
X193659719Y-95716874D01*
X193598528Y-95596780D01*
X193598526Y-95596778D01*
X193598523Y-95596774D01*
X193503225Y-95501476D01*
X193503221Y-95501473D01*
X193503220Y-95501472D01*
X193383126Y-95440281D01*
X193383124Y-95440280D01*
X193383121Y-95440279D01*
X193283493Y-95424500D01*
X193283488Y-95424500D01*
X193024910Y-95424500D01*
X192957871Y-95404815D01*
X192912116Y-95352011D01*
X192902172Y-95282853D01*
X192931197Y-95219297D01*
X192973399Y-95187706D01*
X193120938Y-95120327D01*
X193120942Y-95120324D01*
X193120950Y-95120321D01*
X193301513Y-95004280D01*
X193463724Y-94863724D01*
X193604280Y-94701513D01*
X193720321Y-94520950D01*
X193720324Y-94520942D01*
X193720327Y-94520938D01*
X193809482Y-94325715D01*
X193809482Y-94325713D01*
X193809484Y-94325710D01*
X193869954Y-94119769D01*
X193900500Y-93907318D01*
X193900500Y-93800000D01*
X193900500Y-93752406D01*
X193900500Y-93752405D01*
X193900500Y-92924500D01*
X193920185Y-92857461D01*
X193972989Y-92811706D01*
X194024500Y-92800500D01*
X198552405Y-92800500D01*
X198597294Y-92800500D01*
X198602702Y-92800617D01*
X199004202Y-92818147D01*
X199014937Y-92819087D01*
X199410693Y-92871189D01*
X199421331Y-92873064D01*
X199811043Y-92959462D01*
X199821484Y-92962260D01*
X200202169Y-93082288D01*
X200212315Y-93085981D01*
X200581102Y-93238738D01*
X200590893Y-93243304D01*
X200944942Y-93427611D01*
X200954310Y-93433019D01*
X201290954Y-93647484D01*
X201299815Y-93653689D01*
X201616492Y-93896684D01*
X201624773Y-93903633D01*
X201628795Y-93907318D01*
X201919056Y-94173294D01*
X201926705Y-94180943D01*
X202196361Y-94475220D01*
X202203315Y-94483507D01*
X202446310Y-94800184D01*
X202452515Y-94809045D01*
X202666980Y-95145689D01*
X202672388Y-95155057D01*
X202856692Y-95509099D01*
X202861264Y-95518903D01*
X203014014Y-95887674D01*
X203017714Y-95897840D01*
X203137738Y-96278512D01*
X203140538Y-96288960D01*
X203226933Y-96678660D01*
X203228811Y-96689314D01*
X203280910Y-97085042D01*
X203281853Y-97095818D01*
X203299382Y-97497297D01*
X203299500Y-97502706D01*
X203299500Y-119497293D01*
X203299382Y-119502702D01*
X203281853Y-119904181D01*
X203280910Y-119914957D01*
X203228811Y-120310685D01*
X203226933Y-120321339D01*
X203140538Y-120711039D01*
X203137738Y-120721487D01*
X203017714Y-121102159D01*
X203014014Y-121112325D01*
X202861264Y-121481096D01*
X202856692Y-121490900D01*
X202672388Y-121844942D01*
X202666980Y-121854310D01*
X202452515Y-122190954D01*
X202446310Y-122199815D01*
X202203315Y-122516492D01*
X202196361Y-122524779D01*
X201926705Y-122819056D01*
X201919056Y-122826705D01*
X201624779Y-123096361D01*
X201616492Y-123103315D01*
X201299815Y-123346310D01*
X201290954Y-123352515D01*
X200954310Y-123566980D01*
X200944942Y-123572388D01*
X200590900Y-123756692D01*
X200581096Y-123761264D01*
X200212325Y-123914014D01*
X200202159Y-123917714D01*
X199821487Y-124037738D01*
X199811039Y-124040538D01*
X199421339Y-124126933D01*
X199410685Y-124128811D01*
X199014957Y-124180910D01*
X199004181Y-124181853D01*
X198602703Y-124199382D01*
X198597294Y-124199500D01*
X176602706Y-124199500D01*
X176597297Y-124199382D01*
X176195818Y-124181853D01*
X176185042Y-124180910D01*
X175789314Y-124128811D01*
X175778660Y-124126933D01*
X175388960Y-124040538D01*
X175378512Y-124037738D01*
X174997840Y-123917714D01*
X174987674Y-123914014D01*
X174618903Y-123761264D01*
X174609099Y-123756692D01*
X174255057Y-123572388D01*
X174245689Y-123566980D01*
X173909045Y-123352515D01*
X173900184Y-123346310D01*
X173583507Y-123103315D01*
X173575220Y-123096361D01*
X173280943Y-122826705D01*
X173273294Y-122819056D01*
X173003638Y-122524779D01*
X172996684Y-122516492D01*
X172753689Y-122199815D01*
X172747484Y-122190954D01*
X172557416Y-121892606D01*
X172533019Y-121854310D01*
X172527611Y-121844942D01*
X172521971Y-121834108D01*
X180599500Y-121834108D01*
X180599500Y-121965891D01*
X180633608Y-122093187D01*
X180666554Y-122150250D01*
X180699500Y-122207314D01*
X180792686Y-122300500D01*
X180906814Y-122366392D01*
X181034108Y-122400500D01*
X181034110Y-122400500D01*
X193865890Y-122400500D01*
X193865892Y-122400500D01*
X193993186Y-122366392D01*
X194107314Y-122300500D01*
X194200500Y-122207314D01*
X194266392Y-122093186D01*
X194300500Y-121965892D01*
X194300500Y-121834108D01*
X194266392Y-121706814D01*
X194200500Y-121592686D01*
X194107314Y-121499500D01*
X194050250Y-121466554D01*
X193993187Y-121433608D01*
X193929539Y-121416554D01*
X193865892Y-121399500D01*
X181165892Y-121399500D01*
X181034108Y-121399500D01*
X180906812Y-121433608D01*
X180792686Y-121499500D01*
X180792683Y-121499502D01*
X180699502Y-121592683D01*
X180699500Y-121592686D01*
X180633608Y-121706812D01*
X180599500Y-121834108D01*
X172521971Y-121834108D01*
X172396294Y-121592686D01*
X172343304Y-121490893D01*
X172338735Y-121481096D01*
X172319065Y-121433608D01*
X172185981Y-121112315D01*
X172182285Y-121102159D01*
X172092453Y-120817246D01*
X172062260Y-120721484D01*
X172059461Y-120711039D01*
X172019350Y-120530109D01*
X171973064Y-120321331D01*
X171971188Y-120310685D01*
X171969847Y-120300497D01*
X171919087Y-119914937D01*
X171918147Y-119904202D01*
X171900618Y-119502702D01*
X171900500Y-119497293D01*
X171900500Y-119393713D01*
X172749500Y-119393713D01*
X172749500Y-119606287D01*
X172754499Y-119637848D01*
X172767388Y-119719230D01*
X172782754Y-119816243D01*
X172814828Y-119914957D01*
X172848444Y-120018414D01*
X172944951Y-120207820D01*
X173069890Y-120379786D01*
X173220213Y-120530109D01*
X173392179Y-120655048D01*
X173392181Y-120655049D01*
X173392184Y-120655051D01*
X173581588Y-120751557D01*
X173783757Y-120817246D01*
X173993713Y-120850500D01*
X173993714Y-120850500D01*
X174206286Y-120850500D01*
X174206287Y-120850500D01*
X174416243Y-120817246D01*
X174618412Y-120751557D01*
X174807816Y-120655051D01*
X174899177Y-120588674D01*
X174979786Y-120530109D01*
X174979788Y-120530106D01*
X174979792Y-120530104D01*
X175130104Y-120379792D01*
X175130106Y-120379788D01*
X175130109Y-120379786D01*
X175255048Y-120207820D01*
X175255047Y-120207820D01*
X175255051Y-120207816D01*
X175351557Y-120018412D01*
X175417246Y-119816243D01*
X175450500Y-119606287D01*
X175450500Y-119393713D01*
X175417246Y-119183757D01*
X175351557Y-118981588D01*
X175255051Y-118792184D01*
X175255049Y-118792181D01*
X175255048Y-118792179D01*
X175130109Y-118620213D01*
X174979786Y-118469890D01*
X174807820Y-118344951D01*
X174618414Y-118248444D01*
X174618413Y-118248443D01*
X174618412Y-118248443D01*
X174416243Y-118182754D01*
X174416241Y-118182753D01*
X174416240Y-118182753D01*
X174254957Y-118157208D01*
X174206287Y-118149500D01*
X173993713Y-118149500D01*
X173945042Y-118157208D01*
X173783760Y-118182753D01*
X173581585Y-118248444D01*
X173392179Y-118344951D01*
X173220213Y-118469890D01*
X173069890Y-118620213D01*
X172944951Y-118792179D01*
X172848444Y-118981585D01*
X172782753Y-119183760D01*
X172750272Y-119388841D01*
X172749500Y-119393713D01*
X171900500Y-119393713D01*
X171900500Y-97502706D01*
X171900618Y-97497297D01*
X171905747Y-97379815D01*
X171918147Y-97095795D01*
X171919087Y-97085064D01*
X171971189Y-96689302D01*
X171973063Y-96678672D01*
X172059463Y-96288950D01*
X172062261Y-96278512D01*
X172182291Y-95897823D01*
X172185978Y-95887691D01*
X172338741Y-95518888D01*
X172343299Y-95509114D01*
X172527617Y-95155046D01*
X172533012Y-95145700D01*
X172747493Y-94809031D01*
X172753689Y-94800184D01*
X172815577Y-94719530D01*
X172996689Y-94483500D01*
X173003623Y-94475237D01*
X173273304Y-94180932D01*
X173280932Y-94173304D01*
X173575237Y-93903623D01*
X173583500Y-93896689D01*
X173900186Y-93653687D01*
X173909031Y-93647493D01*
X174245700Y-93433012D01*
X174255046Y-93427617D01*
X174609114Y-93243299D01*
X174618888Y-93238741D01*
X174987691Y-93085978D01*
X174997823Y-93082291D01*
X175378521Y-92962258D01*
X175388950Y-92959463D01*
X175778672Y-92873063D01*
X175789302Y-92871189D01*
X176185064Y-92819087D01*
X176195795Y-92818147D01*
X176597297Y-92800617D01*
X176602706Y-92800500D01*
X176647595Y-92800500D01*
X181175500Y-92800500D01*
X181242539Y-92820185D01*
G37*
%TD.AperFunction*%
%TA.AperFunction,Conductor*%
G36*
X178771433Y-104997644D02*
G01*
X178782463Y-105007434D01*
X180163181Y-106388152D01*
X180196666Y-106449475D01*
X180199500Y-106475833D01*
X180199500Y-114239562D01*
X180219979Y-114315989D01*
X180256948Y-114380022D01*
X180256950Y-114380025D01*
X180256949Y-114380025D01*
X180259396Y-114384261D01*
X180259540Y-114384511D01*
X180259543Y-114384514D01*
X184440481Y-118565452D01*
X184473966Y-118626775D01*
X184475974Y-118667419D01*
X184474501Y-118680119D01*
X184474500Y-118680137D01*
X184474500Y-119550167D01*
X184454815Y-119617206D01*
X184402011Y-119662961D01*
X184332853Y-119672905D01*
X184269297Y-119643880D01*
X184262819Y-119637848D01*
X174936819Y-110311848D01*
X174903334Y-110250525D01*
X174900500Y-110224167D01*
X174900500Y-106600832D01*
X174920185Y-106533793D01*
X174936815Y-106513155D01*
X175147407Y-106302562D01*
X175208730Y-106269078D01*
X175278422Y-106274062D01*
X175334355Y-106315934D01*
X175348522Y-106340157D01*
X175370786Y-106390579D01*
X175446922Y-106466715D01*
X175545421Y-106510207D01*
X175569496Y-106513000D01*
X175830505Y-106512999D01*
X175854581Y-106510207D01*
X175878820Y-106499504D01*
X175899912Y-106490191D01*
X175969190Y-106481118D01*
X176000088Y-106490191D01*
X176045416Y-106510206D01*
X176045418Y-106510206D01*
X176045420Y-106510207D01*
X176069495Y-106513000D01*
X176267285Y-106512999D01*
X176334325Y-106532683D01*
X176380080Y-106585487D01*
X176390024Y-106654645D01*
X176377772Y-106693292D01*
X176340279Y-106766877D01*
X176324500Y-106866506D01*
X176324500Y-107383493D01*
X176340279Y-107483121D01*
X176340280Y-107483124D01*
X176340281Y-107483126D01*
X176401472Y-107603220D01*
X176401473Y-107603221D01*
X176401476Y-107603225D01*
X176496774Y-107698523D01*
X176496778Y-107698526D01*
X176496780Y-107698528D01*
X176616874Y-107759719D01*
X176616876Y-107759719D01*
X176616878Y-107759720D01*
X176716507Y-107775500D01*
X176716512Y-107775500D01*
X177283493Y-107775500D01*
X177383121Y-107759720D01*
X177383121Y-107759719D01*
X177383126Y-107759719D01*
X177503220Y-107698528D01*
X177503226Y-107698521D01*
X177511115Y-107692791D01*
X177512657Y-107694913D01*
X177561140Y-107668432D01*
X177619603Y-107669818D01*
X177734108Y-107700500D01*
X177734111Y-107700500D01*
X177865890Y-107700500D01*
X177865892Y-107700500D01*
X177993186Y-107666392D01*
X178107314Y-107600500D01*
X178200500Y-107507314D01*
X178266392Y-107393186D01*
X178300500Y-107265892D01*
X178300500Y-107134108D01*
X178266392Y-107006814D01*
X178200500Y-106892686D01*
X178107314Y-106799500D01*
X178050250Y-106766554D01*
X177993187Y-106733608D01*
X177929539Y-106716554D01*
X177865892Y-106699500D01*
X177734108Y-106699500D01*
X177734104Y-106699501D01*
X177726054Y-106700561D01*
X177725854Y-106699043D01*
X177665145Y-106697596D01*
X177607285Y-106658431D01*
X177602589Y-106652371D01*
X177598530Y-106646785D01*
X177598528Y-106646780D01*
X177503220Y-106551472D01*
X177383126Y-106490281D01*
X177383124Y-106490280D01*
X177383121Y-106490279D01*
X177283493Y-106474500D01*
X177283488Y-106474500D01*
X177182461Y-106474500D01*
X177115422Y-106454815D01*
X177069667Y-106402011D01*
X177059723Y-106332853D01*
X177069026Y-106300414D01*
X177072706Y-106292080D01*
X177075499Y-106268005D01*
X177075498Y-106075922D01*
X177095182Y-106008884D01*
X177147986Y-105963129D01*
X177149412Y-105962489D01*
X177253073Y-105916718D01*
X177253074Y-105916717D01*
X177253079Y-105916715D01*
X177329215Y-105840579D01*
X177372707Y-105742080D01*
X177375500Y-105718005D01*
X177375499Y-105524500D01*
X177395183Y-105457461D01*
X177447987Y-105411706D01*
X177499499Y-105400500D01*
X177688089Y-105400500D01*
X177688091Y-105400500D01*
X177764518Y-105380021D01*
X177833040Y-105340460D01*
X177851949Y-105321550D01*
X177913269Y-105288065D01*
X177971719Y-105289455D01*
X178069426Y-105315636D01*
X178069429Y-105315636D01*
X178201208Y-105315636D01*
X178201210Y-105315636D01*
X178328504Y-105281528D01*
X178442632Y-105215636D01*
X178535818Y-105122450D01*
X178587396Y-105033113D01*
X178637961Y-104984900D01*
X178706568Y-104971676D01*
X178771433Y-104997644D01*
G37*
%TD.AperFunction*%
%TA.AperFunction,Conductor*%
G36*
X184505703Y-114429975D02*
G01*
X184514488Y-114439820D01*
X184514669Y-114439640D01*
X184522794Y-114447765D01*
X184602235Y-114527206D01*
X184705009Y-114572585D01*
X184730135Y-114575500D01*
X185019864Y-114575499D01*
X185019879Y-114575497D01*
X185019882Y-114575497D01*
X185044987Y-114572586D01*
X185044987Y-114572585D01*
X185044991Y-114572585D01*
X185147765Y-114527206D01*
X185147766Y-114527204D01*
X185149912Y-114526257D01*
X185219190Y-114517185D01*
X185250085Y-114526257D01*
X185355004Y-114572583D01*
X185355009Y-114572585D01*
X185380135Y-114575500D01*
X185669864Y-114575499D01*
X185669879Y-114575497D01*
X185669882Y-114575497D01*
X185694987Y-114572586D01*
X185694987Y-114572585D01*
X185694991Y-114572585D01*
X185797765Y-114527206D01*
X185797766Y-114527204D01*
X185799912Y-114526257D01*
X185869190Y-114517185D01*
X185900085Y-114526257D01*
X186005004Y-114572583D01*
X186005009Y-114572585D01*
X186030135Y-114575500D01*
X186319864Y-114575499D01*
X186319879Y-114575497D01*
X186319882Y-114575497D01*
X186344987Y-114572586D01*
X186344987Y-114572585D01*
X186344991Y-114572585D01*
X186447765Y-114527206D01*
X186447766Y-114527204D01*
X186449912Y-114526257D01*
X186519190Y-114517185D01*
X186550085Y-114526257D01*
X186655004Y-114572583D01*
X186655009Y-114572585D01*
X186680135Y-114575500D01*
X186969864Y-114575499D01*
X186969879Y-114575497D01*
X186969882Y-114575497D01*
X186994986Y-114572586D01*
X186994987Y-114572585D01*
X186994991Y-114572585D01*
X187000411Y-114570191D01*
X187069686Y-114561117D01*
X187132872Y-114590938D01*
X187169906Y-114650185D01*
X187174500Y-114683624D01*
X187174500Y-115349166D01*
X187165855Y-115378606D01*
X187159332Y-115408593D01*
X187155577Y-115413608D01*
X187154815Y-115416205D01*
X187138181Y-115436847D01*
X187011847Y-115563181D01*
X186950524Y-115596666D01*
X186924166Y-115599500D01*
X186834108Y-115599500D01*
X186706812Y-115633608D01*
X186592686Y-115699500D01*
X186592683Y-115699502D01*
X186499502Y-115792683D01*
X186499500Y-115792686D01*
X186433608Y-115906812D01*
X186399500Y-116034108D01*
X186399500Y-116174019D01*
X186396341Y-116174019D01*
X186387869Y-116228348D01*
X186341490Y-116280605D01*
X186275695Y-116299500D01*
X185675831Y-116299500D01*
X185608792Y-116279815D01*
X185588150Y-116263181D01*
X184336819Y-115011850D01*
X184303334Y-114950527D01*
X184300500Y-114924169D01*
X184300500Y-114523688D01*
X184320185Y-114456649D01*
X184372989Y-114410894D01*
X184442147Y-114400950D01*
X184505703Y-114429975D01*
G37*
%TD.AperFunction*%
%TA.AperFunction,Conductor*%
G36*
X188352152Y-106004924D02*
G01*
X188392680Y-106061838D01*
X188399500Y-106102395D01*
X188399500Y-108324167D01*
X188379815Y-108391206D01*
X188363181Y-108411848D01*
X187911848Y-108863181D01*
X187850525Y-108896666D01*
X187824167Y-108899500D01*
X186160438Y-108899500D01*
X186122224Y-108909739D01*
X186084009Y-108919979D01*
X186084004Y-108919982D01*
X186015495Y-108959535D01*
X186015487Y-108959541D01*
X185559541Y-109415487D01*
X185559535Y-109415495D01*
X185519982Y-109484004D01*
X185519979Y-109484009D01*
X185499500Y-109560439D01*
X185499500Y-112231711D01*
X185493261Y-112252956D01*
X185491682Y-112275045D01*
X185483609Y-112285828D01*
X185479815Y-112298750D01*
X185463081Y-112313249D01*
X185449810Y-112330978D01*
X185437189Y-112335685D01*
X185427011Y-112344505D01*
X185405093Y-112347656D01*
X185384346Y-112355395D01*
X185371185Y-112352532D01*
X185357853Y-112354449D01*
X185337709Y-112345249D01*
X185316073Y-112340543D01*
X185298347Y-112327274D01*
X185294297Y-112325424D01*
X185287819Y-112319392D01*
X185136819Y-112168392D01*
X185103334Y-112107069D01*
X185100500Y-112080711D01*
X185100500Y-106499504D01*
X185120185Y-106432465D01*
X185172989Y-106386710D01*
X185242147Y-106376766D01*
X185256571Y-106379724D01*
X185334108Y-106400500D01*
X185334111Y-106400500D01*
X185465890Y-106400500D01*
X185465892Y-106400500D01*
X185593186Y-106366392D01*
X185707314Y-106300500D01*
X185800500Y-106207314D01*
X185840625Y-106137813D01*
X185885064Y-106092980D01*
X185899609Y-106084409D01*
X185915989Y-106080021D01*
X185984511Y-106040460D01*
X185999301Y-106025669D01*
X186012885Y-106017666D01*
X186032091Y-106012825D01*
X186049475Y-106003334D01*
X186075833Y-106000500D01*
X186337262Y-106000500D01*
X186404301Y-106020185D01*
X186444649Y-106062500D01*
X186467682Y-106102395D01*
X186471933Y-106109757D01*
X186493463Y-106137815D01*
X186504592Y-106152318D01*
X186597683Y-106245409D01*
X186635023Y-106274062D01*
X186640243Y-106278067D01*
X186754257Y-106343893D01*
X186754262Y-106343895D01*
X186754268Y-106343898D01*
X186803811Y-106364419D01*
X186803813Y-106364419D01*
X186803819Y-106364422D01*
X186930986Y-106398497D01*
X186984174Y-106405500D01*
X186984180Y-106405500D01*
X187615820Y-106405500D01*
X187615826Y-106405500D01*
X187669014Y-106398497D01*
X187796181Y-106364422D01*
X187845743Y-106343893D01*
X187959757Y-106278067D01*
X188002317Y-106245409D01*
X188095409Y-106152317D01*
X188128067Y-106109757D01*
X188168113Y-106040394D01*
X188218680Y-105992179D01*
X188287287Y-105978956D01*
X188352152Y-106004924D01*
G37*
%TD.AperFunction*%
%TA.AperFunction,Conductor*%
G36*
X190642539Y-95320185D02*
G01*
X190688294Y-95372989D01*
X190699500Y-95424500D01*
X190699500Y-95990619D01*
X190702463Y-96016156D01*
X190702463Y-96016158D01*
X190748597Y-96120640D01*
X190790276Y-96162319D01*
X190823761Y-96223642D01*
X190818777Y-96293334D01*
X190790276Y-96337681D01*
X190748597Y-96379359D01*
X190702463Y-96483841D01*
X190702463Y-96483843D01*
X190699500Y-96509380D01*
X190699500Y-97090619D01*
X190702463Y-97116155D01*
X190702463Y-97116157D01*
X190748597Y-97220640D01*
X190790276Y-97262319D01*
X190823761Y-97323642D01*
X190818777Y-97393334D01*
X190790276Y-97437681D01*
X190748597Y-97479359D01*
X190702463Y-97583841D01*
X190702463Y-97583843D01*
X190699500Y-97609380D01*
X190699500Y-98190619D01*
X190702463Y-98216156D01*
X190702463Y-98216158D01*
X190748597Y-98320640D01*
X190790276Y-98362319D01*
X190823761Y-98423642D01*
X190818777Y-98493334D01*
X190790276Y-98537681D01*
X190748597Y-98579359D01*
X190702463Y-98683841D01*
X190702463Y-98683843D01*
X190699500Y-98709380D01*
X190699500Y-99290619D01*
X190702463Y-99316156D01*
X190702463Y-99316158D01*
X190748597Y-99420640D01*
X190829360Y-99501403D01*
X190933844Y-99547537D01*
X190959384Y-99550500D01*
X190959386Y-99550500D01*
X191640614Y-99550500D01*
X191640616Y-99550500D01*
X191666156Y-99547537D01*
X191692135Y-99536065D01*
X191742222Y-99525500D01*
X192272390Y-99525500D01*
X192339429Y-99545185D01*
X192360072Y-99561820D01*
X192396775Y-99598524D01*
X192396778Y-99598526D01*
X192396780Y-99598528D01*
X192516874Y-99659719D01*
X192516876Y-99659719D01*
X192516878Y-99659720D01*
X192616507Y-99675500D01*
X192616512Y-99675500D01*
X193183493Y-99675500D01*
X193283121Y-99659720D01*
X193283121Y-99659719D01*
X193283126Y-99659719D01*
X193403220Y-99598528D01*
X193403224Y-99598523D01*
X193411119Y-99592789D01*
X193412047Y-99594067D01*
X193429357Y-99584615D01*
X193455176Y-99568023D01*
X193461376Y-99567131D01*
X193463753Y-99565834D01*
X193490111Y-99563000D01*
X193653026Y-99563000D01*
X193720065Y-99582685D01*
X193765820Y-99635489D01*
X193776484Y-99675422D01*
X193777026Y-99681205D01*
X193777354Y-99684703D01*
X193822206Y-99812880D01*
X193822207Y-99812882D01*
X193902850Y-99922150D01*
X194012118Y-100002793D01*
X194054845Y-100017744D01*
X194140299Y-100047646D01*
X194170730Y-100050500D01*
X194170734Y-100050500D01*
X195229270Y-100050500D01*
X195259699Y-100047646D01*
X195259701Y-100047646D01*
X195342202Y-100018777D01*
X195387882Y-100002793D01*
X195497150Y-99922150D01*
X195577793Y-99812882D01*
X195618479Y-99696608D01*
X195622645Y-99684703D01*
X195622645Y-99684701D01*
X195622646Y-99684699D01*
X195623515Y-99675423D01*
X195649372Y-99610516D01*
X195706216Y-99569890D01*
X195746974Y-99563000D01*
X196075695Y-99563000D01*
X196142734Y-99582685D01*
X196188489Y-99635489D01*
X196196430Y-99688481D01*
X196199500Y-99688481D01*
X196199500Y-104831323D01*
X196179815Y-104898362D01*
X196163181Y-104919004D01*
X195065946Y-106016239D01*
X195040266Y-106035945D01*
X194930186Y-106099500D01*
X194930183Y-106099502D01*
X190462002Y-110567683D01*
X190462000Y-110567686D01*
X190411151Y-110655759D01*
X190360584Y-110703974D01*
X190344719Y-110710799D01*
X190312119Y-110722206D01*
X190202850Y-110802850D01*
X190122207Y-110912117D01*
X190122206Y-110912119D01*
X190077353Y-111040298D01*
X190077353Y-111040300D01*
X190074500Y-111070730D01*
X190074500Y-111075500D01*
X190071949Y-111084185D01*
X190073238Y-111093147D01*
X190062259Y-111117187D01*
X190054815Y-111142539D01*
X190047974Y-111148466D01*
X190044213Y-111156703D01*
X190021978Y-111170992D01*
X190002011Y-111188294D01*
X189991496Y-111190581D01*
X189985435Y-111194477D01*
X189950500Y-111199500D01*
X189735339Y-111199500D01*
X189735323Y-111199499D01*
X189727727Y-111199499D01*
X189622273Y-111199499D01*
X189544738Y-111220275D01*
X189512644Y-111224500D01*
X189116507Y-111224500D01*
X189016878Y-111240279D01*
X188896778Y-111301473D01*
X188896774Y-111301476D01*
X188801476Y-111396774D01*
X188801471Y-111396780D01*
X188796370Y-111406794D01*
X188748396Y-111457590D01*
X188685885Y-111474500D01*
X187514115Y-111474500D01*
X187447076Y-111454815D01*
X187403630Y-111406794D01*
X187398528Y-111396780D01*
X187398523Y-111396774D01*
X187303225Y-111301476D01*
X187303221Y-111301473D01*
X187303220Y-111301472D01*
X187183126Y-111240281D01*
X187183124Y-111240280D01*
X187183121Y-111240279D01*
X187083493Y-111224500D01*
X187083488Y-111224500D01*
X186516512Y-111224500D01*
X186516507Y-111224500D01*
X186416878Y-111240279D01*
X186416874Y-111240280D01*
X186416874Y-111240281D01*
X186296780Y-111301472D01*
X186296778Y-111301473D01*
X186288085Y-111305903D01*
X186287416Y-111304590D01*
X186231574Y-111324512D01*
X186163520Y-111308684D01*
X186114828Y-111258576D01*
X186100500Y-111200714D01*
X186100500Y-109775833D01*
X186109144Y-109746392D01*
X186115668Y-109716406D01*
X186119422Y-109711390D01*
X186120185Y-109708794D01*
X186136819Y-109688152D01*
X186288152Y-109536819D01*
X186349475Y-109503334D01*
X186375833Y-109500500D01*
X188039560Y-109500500D01*
X188039562Y-109500500D01*
X188115989Y-109480021D01*
X188184511Y-109440460D01*
X188240460Y-109384511D01*
X188940460Y-108684511D01*
X188980021Y-108615989D01*
X189000500Y-108539562D01*
X189000500Y-101185247D01*
X189020185Y-101118208D01*
X189053395Y-101083659D01*
X189063319Y-101076712D01*
X189120640Y-101051403D01*
X189170000Y-101002042D01*
X189178895Y-100995817D01*
X189202127Y-100987986D01*
X189223642Y-100976239D01*
X189234648Y-100977026D01*
X189245105Y-100973502D01*
X189268878Y-100979474D01*
X189293334Y-100981223D01*
X189304559Y-100988437D01*
X189312869Y-100990525D01*
X189320554Y-100998716D01*
X189337681Y-101009724D01*
X189379360Y-101051403D01*
X189483844Y-101097537D01*
X189509384Y-101100500D01*
X189509386Y-101100500D01*
X190090614Y-101100500D01*
X190090616Y-101100500D01*
X190116156Y-101097537D01*
X190220640Y-101051403D01*
X190301403Y-100970640D01*
X190347537Y-100866156D01*
X190350500Y-100840616D01*
X190350500Y-100159384D01*
X190347537Y-100133844D01*
X190301403Y-100029360D01*
X190220640Y-99948597D01*
X190186437Y-99933495D01*
X190116157Y-99902463D01*
X190090619Y-99899500D01*
X190090616Y-99899500D01*
X189509384Y-99899500D01*
X189509380Y-99899500D01*
X189483843Y-99902463D01*
X189483841Y-99902463D01*
X189379359Y-99948597D01*
X189337681Y-99990276D01*
X189276358Y-100023761D01*
X189206666Y-100018777D01*
X189162319Y-99990276D01*
X189120640Y-99948597D01*
X189016157Y-99902463D01*
X188990619Y-99899500D01*
X188990616Y-99899500D01*
X188409384Y-99899500D01*
X188409380Y-99899500D01*
X188383843Y-99902463D01*
X188383841Y-99902463D01*
X188279359Y-99948597D01*
X188237681Y-99990276D01*
X188176358Y-100023761D01*
X188106666Y-100018777D01*
X188062319Y-99990276D01*
X188020640Y-99948597D01*
X187916157Y-99902463D01*
X187890619Y-99899500D01*
X187890616Y-99899500D01*
X187309384Y-99899500D01*
X187309380Y-99899500D01*
X187283843Y-99902463D01*
X187283841Y-99902463D01*
X187179359Y-99948597D01*
X187137681Y-99990276D01*
X187076358Y-100023761D01*
X187006666Y-100018777D01*
X186962319Y-99990276D01*
X186920640Y-99948597D01*
X186816157Y-99902463D01*
X186790619Y-99899500D01*
X186790616Y-99899500D01*
X186209384Y-99899500D01*
X186209380Y-99899500D01*
X186183843Y-99902463D01*
X186183841Y-99902463D01*
X186079359Y-99948597D01*
X186037681Y-99990276D01*
X185976358Y-100023761D01*
X185906666Y-100018777D01*
X185862319Y-99990276D01*
X185820640Y-99948597D01*
X185716157Y-99902463D01*
X185690619Y-99899500D01*
X185690616Y-99899500D01*
X185109384Y-99899500D01*
X185109380Y-99899500D01*
X185083843Y-99902463D01*
X185083841Y-99902463D01*
X184979359Y-99948597D01*
X184898597Y-100029359D01*
X184852463Y-100133841D01*
X184852463Y-100133843D01*
X184849500Y-100159380D01*
X184849500Y-100840619D01*
X184852463Y-100866156D01*
X184852463Y-100866158D01*
X184894751Y-100961929D01*
X184898597Y-100970640D01*
X184979360Y-101051403D01*
X185083844Y-101097537D01*
X185109384Y-101100500D01*
X185109386Y-101100500D01*
X185690614Y-101100500D01*
X185690616Y-101100500D01*
X185716156Y-101097537D01*
X185820640Y-101051403D01*
X185862319Y-101009724D01*
X185870264Y-101005385D01*
X185875690Y-100998138D01*
X185900449Y-100988903D01*
X185923642Y-100976239D01*
X185932671Y-100976884D01*
X185941154Y-100973721D01*
X185966974Y-100979337D01*
X185993334Y-100981223D01*
X186002387Y-100987041D01*
X186009427Y-100988573D01*
X186037681Y-101009724D01*
X186063811Y-101035854D01*
X186097296Y-101097177D01*
X186092312Y-101166869D01*
X186063812Y-101211216D01*
X186018630Y-101256398D01*
X185915489Y-101359540D01*
X185859541Y-101415487D01*
X185859535Y-101415495D01*
X185819982Y-101484004D01*
X185819979Y-101484009D01*
X185817704Y-101492500D01*
X185799500Y-101560438D01*
X185799500Y-104039562D01*
X185811410Y-104084009D01*
X185819979Y-104115990D01*
X185820858Y-104117512D01*
X185846544Y-104162001D01*
X185848157Y-104164794D01*
X185859539Y-104184510D01*
X186313181Y-104638152D01*
X186346666Y-104699475D01*
X186349500Y-104725833D01*
X186349500Y-104919752D01*
X186363515Y-104990209D01*
X186362029Y-104990504D01*
X186368030Y-105046319D01*
X186366891Y-105051895D01*
X186344500Y-105149993D01*
X186344500Y-105275500D01*
X186324815Y-105342539D01*
X186272011Y-105388294D01*
X186220500Y-105399500D01*
X185860438Y-105399500D01*
X185822224Y-105409739D01*
X185784009Y-105419979D01*
X185763195Y-105431996D01*
X185761599Y-105432919D01*
X185760407Y-105433607D01*
X185760403Y-105433609D01*
X185738793Y-105446085D01*
X185670893Y-105462556D01*
X185614795Y-105446084D01*
X185593188Y-105433609D01*
X185593187Y-105433608D01*
X185593186Y-105433608D01*
X185465892Y-105399500D01*
X185334108Y-105399500D01*
X185282647Y-105413289D01*
X185256593Y-105420270D01*
X185186743Y-105418607D01*
X185128881Y-105379444D01*
X185101377Y-105315216D01*
X185100500Y-105300495D01*
X185100500Y-102894751D01*
X185096799Y-102880941D01*
X185096798Y-102880940D01*
X185094906Y-102873877D01*
X185080021Y-102818325D01*
X185057906Y-102780021D01*
X185049028Y-102764643D01*
X185040462Y-102749806D01*
X185040458Y-102749801D01*
X185036819Y-102746162D01*
X185003334Y-102684839D01*
X185001576Y-102668494D01*
X185001561Y-102668497D01*
X185000500Y-102660440D01*
X185000500Y-102660438D01*
X184980021Y-102584011D01*
X184968456Y-102563979D01*
X184940464Y-102515495D01*
X184940458Y-102515487D01*
X183936819Y-101511848D01*
X183903334Y-101450525D01*
X183900500Y-101424167D01*
X183900500Y-100774500D01*
X183920185Y-100707461D01*
X183972989Y-100661706D01*
X184024500Y-100650500D01*
X184240614Y-100650500D01*
X184240616Y-100650500D01*
X184266156Y-100647537D01*
X184370640Y-100601403D01*
X184451403Y-100520640D01*
X184497537Y-100416156D01*
X184500500Y-100390616D01*
X184500500Y-99809384D01*
X184497537Y-99783844D01*
X184451403Y-99679360D01*
X184409724Y-99637681D01*
X184376239Y-99576358D01*
X184381223Y-99506666D01*
X184409724Y-99462319D01*
X184451403Y-99420640D01*
X184497537Y-99316156D01*
X184500500Y-99290616D01*
X184500500Y-98709384D01*
X184497537Y-98683844D01*
X184451403Y-98579360D01*
X184409724Y-98537681D01*
X184376239Y-98476358D01*
X184381223Y-98406666D01*
X184409724Y-98362319D01*
X184429896Y-98342147D01*
X184451403Y-98320640D01*
X184497537Y-98216156D01*
X184500500Y-98190616D01*
X184500500Y-97609384D01*
X184497537Y-97583844D01*
X184485633Y-97556885D01*
X184480577Y-97545433D01*
X184451403Y-97479360D01*
X184370640Y-97398597D01*
X184362412Y-97394964D01*
X184266157Y-97352463D01*
X184240619Y-97349500D01*
X184240616Y-97349500D01*
X183559384Y-97349500D01*
X183559380Y-97349500D01*
X183533843Y-97352463D01*
X183533841Y-97352463D01*
X183429359Y-97398597D01*
X183348598Y-97479358D01*
X183348597Y-97479359D01*
X183348597Y-97479360D01*
X183347333Y-97482224D01*
X183337934Y-97503510D01*
X183292847Y-97556885D01*
X183226061Y-97577412D01*
X183158779Y-97558573D01*
X183112363Y-97506349D01*
X183100500Y-97453422D01*
X183100500Y-96975833D01*
X183120185Y-96908794D01*
X183136819Y-96888152D01*
X183738152Y-96286819D01*
X183799475Y-96253334D01*
X183825833Y-96250500D01*
X184240614Y-96250500D01*
X184240616Y-96250500D01*
X184266156Y-96247537D01*
X184370640Y-96201403D01*
X184451403Y-96120640D01*
X184497537Y-96016156D01*
X184500500Y-95990616D01*
X184500500Y-95424500D01*
X184520185Y-95357461D01*
X184572989Y-95311706D01*
X184624500Y-95300500D01*
X190575500Y-95300500D01*
X190642539Y-95320185D01*
G37*
%TD.AperFunction*%
%TA.AperFunction,Conductor*%
G36*
X183305703Y-102431120D02*
G01*
X183312181Y-102437152D01*
X184063181Y-103188152D01*
X184096666Y-103249475D01*
X184099500Y-103275833D01*
X184099500Y-105300495D01*
X184079815Y-105367534D01*
X184027011Y-105413289D01*
X183957853Y-105423233D01*
X183943407Y-105420270D01*
X183942321Y-105419979D01*
X183865892Y-105399500D01*
X183734108Y-105399500D01*
X183606812Y-105433608D01*
X183492686Y-105499500D01*
X183492683Y-105499502D01*
X183399502Y-105592683D01*
X183399500Y-105592686D01*
X183331887Y-105709794D01*
X183281319Y-105758009D01*
X183212712Y-105771231D01*
X183147848Y-105745263D01*
X183107320Y-105688349D01*
X183100500Y-105647793D01*
X183100500Y-102524833D01*
X183120185Y-102457794D01*
X183172989Y-102412039D01*
X183242147Y-102402095D01*
X183305703Y-102431120D01*
G37*
%TD.AperFunction*%
%TA.AperFunction,Conductor*%
G36*
X177317598Y-103558415D02*
G01*
X177361945Y-103586916D01*
X177943019Y-104167990D01*
X177976504Y-104229313D01*
X177971520Y-104299005D01*
X177929648Y-104354938D01*
X177917339Y-104363058D01*
X177828004Y-104414636D01*
X177828001Y-104414638D01*
X177734820Y-104507819D01*
X177734818Y-104507822D01*
X177668926Y-104621949D01*
X177665562Y-104634503D01*
X177657544Y-104648388D01*
X177654621Y-104661830D01*
X177633470Y-104690085D01*
X177560377Y-104763180D01*
X177499055Y-104796666D01*
X177472695Y-104799500D01*
X177345656Y-104799500D01*
X177278617Y-104779815D01*
X177257975Y-104763181D01*
X177253081Y-104758287D01*
X177253079Y-104758285D01*
X177253076Y-104758284D01*
X177253074Y-104758282D01*
X177149411Y-104712510D01*
X177096035Y-104667424D01*
X177075508Y-104600637D01*
X177075498Y-104599076D01*
X177075498Y-104407003D01*
X177075498Y-104406996D01*
X177072706Y-104382920D01*
X177072704Y-104382915D01*
X177029217Y-104284426D01*
X177029215Y-104284423D01*
X177029214Y-104284421D01*
X176953078Y-104208285D01*
X176899236Y-104184511D01*
X176849609Y-104162598D01*
X176796233Y-104117512D01*
X176775706Y-104050726D01*
X176794545Y-103983443D01*
X176812011Y-103961487D01*
X177186583Y-103586916D01*
X177247906Y-103553431D01*
X177317598Y-103558415D01*
G37*
%TD.AperFunction*%
%TA.AperFunction,Conductor*%
G36*
X188156606Y-100978596D02*
G01*
X188189604Y-100979900D01*
X188192039Y-100981130D01*
X188193334Y-100981223D01*
X188197422Y-100983850D01*
X188221105Y-100995817D01*
X188229999Y-101002042D01*
X188279360Y-101051403D01*
X188336680Y-101076712D01*
X188346605Y-101083659D01*
X188390240Y-101138228D01*
X188399500Y-101185247D01*
X188399500Y-102697604D01*
X188379815Y-102764643D01*
X188327011Y-102810398D01*
X188257853Y-102820342D01*
X188194297Y-102791317D01*
X188168113Y-102759604D01*
X188139185Y-102709500D01*
X188128067Y-102690243D01*
X188095409Y-102647683D01*
X188002317Y-102554591D01*
X188000012Y-102552822D01*
X187959759Y-102521934D01*
X187845745Y-102456108D01*
X187845731Y-102456101D01*
X187796188Y-102435580D01*
X187796181Y-102435578D01*
X187669014Y-102401503D01*
X187669009Y-102401502D01*
X187669007Y-102401502D01*
X187615832Y-102394500D01*
X187615826Y-102394500D01*
X186984174Y-102394500D01*
X186984167Y-102394500D01*
X186930992Y-102401502D01*
X186930986Y-102401503D01*
X186803811Y-102435580D01*
X186754268Y-102456101D01*
X186754254Y-102456108D01*
X186640236Y-102521936D01*
X186599987Y-102552822D01*
X186534818Y-102578017D01*
X186466373Y-102563979D01*
X186416383Y-102515166D01*
X186400500Y-102454447D01*
X186400500Y-101775833D01*
X186420185Y-101708794D01*
X186436819Y-101688152D01*
X186584830Y-101540141D01*
X186740460Y-101384511D01*
X186771296Y-101331101D01*
X186780021Y-101315989D01*
X186800500Y-101239562D01*
X186800500Y-101171742D01*
X186803407Y-101158555D01*
X186813993Y-101139293D01*
X186820185Y-101118208D01*
X186830490Y-101109277D01*
X186837061Y-101097324D01*
X186856381Y-101086843D01*
X186872989Y-101072453D01*
X186874258Y-101071882D01*
X186920640Y-101051403D01*
X186962319Y-101009724D01*
X187023642Y-100976239D01*
X187093334Y-100981223D01*
X187137681Y-101009724D01*
X187179360Y-101051403D01*
X187283844Y-101097537D01*
X187309384Y-101100500D01*
X187309386Y-101100500D01*
X187890614Y-101100500D01*
X187890616Y-101100500D01*
X187916156Y-101097537D01*
X188020640Y-101051403D01*
X188062319Y-101009724D01*
X188091311Y-100993892D01*
X188119789Y-100977142D01*
X188121839Y-100977223D01*
X188123642Y-100976239D01*
X188156606Y-100978596D01*
G37*
%TD.AperFunction*%
%TD*%
M02*
