%TF.GenerationSoftware,KiCad,Pcbnew,10.0.1-10.0.1~ubuntu25.10.1*%
%TF.CreationDate,2026-05-04T19:13:13+02:00*%
%TF.ProjectId,LPSN,4c50534e-2e6b-4696-9361-645f70636258,rev?*%
%TF.SameCoordinates,Original*%
%TF.FileFunction,Legend,Top*%
%TF.FilePolarity,Positive*%
%FSLAX46Y46*%
G04 Gerber Fmt 4.6, Leading zero omitted, Abs format (unit mm)*
G04 Created by KiCad (PCBNEW 10.0.1-10.0.1~ubuntu25.10.1) date 2026-05-04 19:13:13*
%MOMM*%
%LPD*%
G01*
G04 APERTURE LIST*
%ADD10C,0.150000*%
%ADD11C,0.200000*%
%ADD12C,0.100000*%
%ADD13C,0.125000*%
%ADD14C,0.120000*%
G04 APERTURE END LIST*
D10*
X194655485Y-100257142D02*
X194684057Y-100171428D01*
X194684057Y-100171428D02*
X194712628Y-100142857D01*
X194712628Y-100142857D02*
X194769771Y-100114285D01*
X194769771Y-100114285D02*
X194855485Y-100114285D01*
X194855485Y-100114285D02*
X194912628Y-100142857D01*
X194912628Y-100142857D02*
X194941200Y-100171428D01*
X194941200Y-100171428D02*
X194969771Y-100228571D01*
X194969771Y-100228571D02*
X194969771Y-100457142D01*
X194969771Y-100457142D02*
X194369771Y-100457142D01*
X194369771Y-100457142D02*
X194369771Y-100257142D01*
X194369771Y-100257142D02*
X194398342Y-100200000D01*
X194398342Y-100200000D02*
X194426914Y-100171428D01*
X194426914Y-100171428D02*
X194484057Y-100142857D01*
X194484057Y-100142857D02*
X194541200Y-100142857D01*
X194541200Y-100142857D02*
X194598342Y-100171428D01*
X194598342Y-100171428D02*
X194626914Y-100200000D01*
X194626914Y-100200000D02*
X194655485Y-100257142D01*
X194655485Y-100257142D02*
X194655485Y-100457142D01*
X193112628Y-99614285D02*
X193141200Y-99642857D01*
X193141200Y-99642857D02*
X193169771Y-99728571D01*
X193169771Y-99728571D02*
X193169771Y-99785714D01*
X193169771Y-99785714D02*
X193141200Y-99871428D01*
X193141200Y-99871428D02*
X193084057Y-99928571D01*
X193084057Y-99928571D02*
X193026914Y-99957142D01*
X193026914Y-99957142D02*
X192912628Y-99985714D01*
X192912628Y-99985714D02*
X192826914Y-99985714D01*
X192826914Y-99985714D02*
X192712628Y-99957142D01*
X192712628Y-99957142D02*
X192655485Y-99928571D01*
X192655485Y-99928571D02*
X192598342Y-99871428D01*
X192598342Y-99871428D02*
X192569771Y-99785714D01*
X192569771Y-99785714D02*
X192569771Y-99728571D01*
X192569771Y-99728571D02*
X192598342Y-99642857D01*
X192598342Y-99642857D02*
X192626914Y-99614285D01*
X177585714Y-96412628D02*
X177557142Y-96441200D01*
X177557142Y-96441200D02*
X177471428Y-96469771D01*
X177471428Y-96469771D02*
X177414285Y-96469771D01*
X177414285Y-96469771D02*
X177328571Y-96441200D01*
X177328571Y-96441200D02*
X177271428Y-96384057D01*
X177271428Y-96384057D02*
X177242857Y-96326914D01*
X177242857Y-96326914D02*
X177214285Y-96212628D01*
X177214285Y-96212628D02*
X177214285Y-96126914D01*
X177214285Y-96126914D02*
X177242857Y-96012628D01*
X177242857Y-96012628D02*
X177271428Y-95955485D01*
X177271428Y-95955485D02*
X177328571Y-95898342D01*
X177328571Y-95898342D02*
X177414285Y-95869771D01*
X177414285Y-95869771D02*
X177471428Y-95869771D01*
X177471428Y-95869771D02*
X177557142Y-95898342D01*
X177557142Y-95898342D02*
X177585714Y-95926914D01*
X177212628Y-107714285D02*
X177241200Y-107742857D01*
X177241200Y-107742857D02*
X177269771Y-107828571D01*
X177269771Y-107828571D02*
X177269771Y-107885714D01*
X177269771Y-107885714D02*
X177241200Y-107971428D01*
X177241200Y-107971428D02*
X177184057Y-108028571D01*
X177184057Y-108028571D02*
X177126914Y-108057142D01*
X177126914Y-108057142D02*
X177012628Y-108085714D01*
X177012628Y-108085714D02*
X176926914Y-108085714D01*
X176926914Y-108085714D02*
X176812628Y-108057142D01*
X176812628Y-108057142D02*
X176755485Y-108028571D01*
X176755485Y-108028571D02*
X176698342Y-107971428D01*
X176698342Y-107971428D02*
X176669771Y-107885714D01*
X176669771Y-107885714D02*
X176669771Y-107828571D01*
X176669771Y-107828571D02*
X176698342Y-107742857D01*
X176698342Y-107742857D02*
X176726914Y-107714285D01*
X192785714Y-115812628D02*
X192757142Y-115841200D01*
X192757142Y-115841200D02*
X192671428Y-115869771D01*
X192671428Y-115869771D02*
X192614285Y-115869771D01*
X192614285Y-115869771D02*
X192528571Y-115841200D01*
X192528571Y-115841200D02*
X192471428Y-115784057D01*
X192471428Y-115784057D02*
X192442857Y-115726914D01*
X192442857Y-115726914D02*
X192414285Y-115612628D01*
X192414285Y-115612628D02*
X192414285Y-115526914D01*
X192414285Y-115526914D02*
X192442857Y-115412628D01*
X192442857Y-115412628D02*
X192471428Y-115355485D01*
X192471428Y-115355485D02*
X192528571Y-115298342D01*
X192528571Y-115298342D02*
X192614285Y-115269771D01*
X192614285Y-115269771D02*
X192671428Y-115269771D01*
X192671428Y-115269771D02*
X192757142Y-115298342D01*
X192757142Y-115298342D02*
X192785714Y-115326914D01*
X191942857Y-111555485D02*
X192028571Y-111584057D01*
X192028571Y-111584057D02*
X192057142Y-111612628D01*
X192057142Y-111612628D02*
X192085714Y-111669771D01*
X192085714Y-111669771D02*
X192085714Y-111755485D01*
X192085714Y-111755485D02*
X192057142Y-111812628D01*
X192057142Y-111812628D02*
X192028571Y-111841200D01*
X192028571Y-111841200D02*
X191971428Y-111869771D01*
X191971428Y-111869771D02*
X191742857Y-111869771D01*
X191742857Y-111869771D02*
X191742857Y-111269771D01*
X191742857Y-111269771D02*
X191942857Y-111269771D01*
X191942857Y-111269771D02*
X192000000Y-111298342D01*
X192000000Y-111298342D02*
X192028571Y-111326914D01*
X192028571Y-111326914D02*
X192057142Y-111384057D01*
X192057142Y-111384057D02*
X192057142Y-111441200D01*
X192057142Y-111441200D02*
X192028571Y-111498342D01*
X192028571Y-111498342D02*
X192000000Y-111526914D01*
X192000000Y-111526914D02*
X191942857Y-111555485D01*
X191942857Y-111555485D02*
X191742857Y-111555485D01*
X189612628Y-110914285D02*
X189641200Y-110942857D01*
X189641200Y-110942857D02*
X189669771Y-111028571D01*
X189669771Y-111028571D02*
X189669771Y-111085714D01*
X189669771Y-111085714D02*
X189641200Y-111171428D01*
X189641200Y-111171428D02*
X189584057Y-111228571D01*
X189584057Y-111228571D02*
X189526914Y-111257142D01*
X189526914Y-111257142D02*
X189412628Y-111285714D01*
X189412628Y-111285714D02*
X189326914Y-111285714D01*
X189326914Y-111285714D02*
X189212628Y-111257142D01*
X189212628Y-111257142D02*
X189155485Y-111228571D01*
X189155485Y-111228571D02*
X189098342Y-111171428D01*
X189098342Y-111171428D02*
X189069771Y-111085714D01*
X189069771Y-111085714D02*
X189069771Y-111028571D01*
X189069771Y-111028571D02*
X189098342Y-110942857D01*
X189098342Y-110942857D02*
X189126914Y-110914285D01*
X187012628Y-110914285D02*
X187041200Y-110942857D01*
X187041200Y-110942857D02*
X187069771Y-111028571D01*
X187069771Y-111028571D02*
X187069771Y-111085714D01*
X187069771Y-111085714D02*
X187041200Y-111171428D01*
X187041200Y-111171428D02*
X186984057Y-111228571D01*
X186984057Y-111228571D02*
X186926914Y-111257142D01*
X186926914Y-111257142D02*
X186812628Y-111285714D01*
X186812628Y-111285714D02*
X186726914Y-111285714D01*
X186726914Y-111285714D02*
X186612628Y-111257142D01*
X186612628Y-111257142D02*
X186555485Y-111228571D01*
X186555485Y-111228571D02*
X186498342Y-111171428D01*
X186498342Y-111171428D02*
X186469771Y-111085714D01*
X186469771Y-111085714D02*
X186469771Y-111028571D01*
X186469771Y-111028571D02*
X186498342Y-110942857D01*
X186498342Y-110942857D02*
X186526914Y-110914285D01*
X193985714Y-97869771D02*
X193785714Y-97584057D01*
X193642857Y-97869771D02*
X193642857Y-97269771D01*
X193642857Y-97269771D02*
X193871428Y-97269771D01*
X193871428Y-97269771D02*
X193928571Y-97298342D01*
X193928571Y-97298342D02*
X193957142Y-97326914D01*
X193957142Y-97326914D02*
X193985714Y-97384057D01*
X193985714Y-97384057D02*
X193985714Y-97469771D01*
X193985714Y-97469771D02*
X193957142Y-97526914D01*
X193957142Y-97526914D02*
X193928571Y-97555485D01*
X193928571Y-97555485D02*
X193871428Y-97584057D01*
X193871428Y-97584057D02*
X193642857Y-97584057D01*
X193985714Y-96312628D02*
X193957142Y-96341200D01*
X193957142Y-96341200D02*
X193871428Y-96369771D01*
X193871428Y-96369771D02*
X193814285Y-96369771D01*
X193814285Y-96369771D02*
X193728571Y-96341200D01*
X193728571Y-96341200D02*
X193671428Y-96284057D01*
X193671428Y-96284057D02*
X193642857Y-96226914D01*
X193642857Y-96226914D02*
X193614285Y-96112628D01*
X193614285Y-96112628D02*
X193614285Y-96026914D01*
X193614285Y-96026914D02*
X193642857Y-95912628D01*
X193642857Y-95912628D02*
X193671428Y-95855485D01*
X193671428Y-95855485D02*
X193728571Y-95798342D01*
X193728571Y-95798342D02*
X193814285Y-95769771D01*
X193814285Y-95769771D02*
X193871428Y-95769771D01*
X193871428Y-95769771D02*
X193957142Y-95798342D01*
X193957142Y-95798342D02*
X193985714Y-95826914D01*
X186438094Y-123407200D02*
X186552380Y-123454819D01*
X186552380Y-123454819D02*
X186742856Y-123454819D01*
X186742856Y-123454819D02*
X186819047Y-123407200D01*
X186819047Y-123407200D02*
X186857142Y-123359580D01*
X186857142Y-123359580D02*
X186895237Y-123264342D01*
X186895237Y-123264342D02*
X186895237Y-123169104D01*
X186895237Y-123169104D02*
X186857142Y-123073866D01*
X186857142Y-123073866D02*
X186819047Y-123026247D01*
X186819047Y-123026247D02*
X186742856Y-122978628D01*
X186742856Y-122978628D02*
X186590475Y-122931009D01*
X186590475Y-122931009D02*
X186514285Y-122883390D01*
X186514285Y-122883390D02*
X186476190Y-122835771D01*
X186476190Y-122835771D02*
X186438094Y-122740533D01*
X186438094Y-122740533D02*
X186438094Y-122645295D01*
X186438094Y-122645295D02*
X186476190Y-122550057D01*
X186476190Y-122550057D02*
X186514285Y-122502438D01*
X186514285Y-122502438D02*
X186590475Y-122454819D01*
X186590475Y-122454819D02*
X186780952Y-122454819D01*
X186780952Y-122454819D02*
X186895237Y-122502438D01*
X187542857Y-123407200D02*
X187466666Y-123454819D01*
X187466666Y-123454819D02*
X187314285Y-123454819D01*
X187314285Y-123454819D02*
X187238095Y-123407200D01*
X187238095Y-123407200D02*
X187199999Y-123311961D01*
X187199999Y-123311961D02*
X187199999Y-122931009D01*
X187199999Y-122931009D02*
X187238095Y-122835771D01*
X187238095Y-122835771D02*
X187314285Y-122788152D01*
X187314285Y-122788152D02*
X187466666Y-122788152D01*
X187466666Y-122788152D02*
X187542857Y-122835771D01*
X187542857Y-122835771D02*
X187580952Y-122931009D01*
X187580952Y-122931009D02*
X187580952Y-123026247D01*
X187580952Y-123026247D02*
X187199999Y-123121485D01*
X187923809Y-122788152D02*
X187923809Y-123454819D01*
X187923809Y-122883390D02*
X187961904Y-122835771D01*
X187961904Y-122835771D02*
X188038094Y-122788152D01*
X188038094Y-122788152D02*
X188152380Y-122788152D01*
X188152380Y-122788152D02*
X188228571Y-122835771D01*
X188228571Y-122835771D02*
X188266666Y-122931009D01*
X188266666Y-122931009D02*
X188266666Y-123454819D01*
X188609523Y-123407200D02*
X188685714Y-123454819D01*
X188685714Y-123454819D02*
X188838095Y-123454819D01*
X188838095Y-123454819D02*
X188914285Y-123407200D01*
X188914285Y-123407200D02*
X188952381Y-123311961D01*
X188952381Y-123311961D02*
X188952381Y-123264342D01*
X188952381Y-123264342D02*
X188914285Y-123169104D01*
X188914285Y-123169104D02*
X188838095Y-123121485D01*
X188838095Y-123121485D02*
X188723809Y-123121485D01*
X188723809Y-123121485D02*
X188647619Y-123073866D01*
X188647619Y-123073866D02*
X188609523Y-122978628D01*
X188609523Y-122978628D02*
X188609523Y-122931009D01*
X188609523Y-122931009D02*
X188647619Y-122835771D01*
X188647619Y-122835771D02*
X188723809Y-122788152D01*
X188723809Y-122788152D02*
X188838095Y-122788152D01*
X188838095Y-122788152D02*
X188914285Y-122835771D01*
X189409523Y-123454819D02*
X189333333Y-123407200D01*
X189333333Y-123407200D02*
X189295238Y-123359580D01*
X189295238Y-123359580D02*
X189257142Y-123264342D01*
X189257142Y-123264342D02*
X189257142Y-122978628D01*
X189257142Y-122978628D02*
X189295238Y-122883390D01*
X189295238Y-122883390D02*
X189333333Y-122835771D01*
X189333333Y-122835771D02*
X189409523Y-122788152D01*
X189409523Y-122788152D02*
X189523809Y-122788152D01*
X189523809Y-122788152D02*
X189600000Y-122835771D01*
X189600000Y-122835771D02*
X189638095Y-122883390D01*
X189638095Y-122883390D02*
X189676190Y-122978628D01*
X189676190Y-122978628D02*
X189676190Y-123264342D01*
X189676190Y-123264342D02*
X189638095Y-123359580D01*
X189638095Y-123359580D02*
X189600000Y-123407200D01*
X189600000Y-123407200D02*
X189523809Y-123454819D01*
X189523809Y-123454819D02*
X189409523Y-123454819D01*
X190019048Y-123454819D02*
X190019048Y-122788152D01*
X190019048Y-122978628D02*
X190057143Y-122883390D01*
X190057143Y-122883390D02*
X190095238Y-122835771D01*
X190095238Y-122835771D02*
X190171429Y-122788152D01*
X190171429Y-122788152D02*
X190247619Y-122788152D01*
X191123810Y-123454819D02*
X191123810Y-122454819D01*
X191123810Y-122454819D02*
X191580953Y-123454819D01*
X191580953Y-123454819D02*
X191580953Y-122454819D01*
X192076190Y-123454819D02*
X192000000Y-123407200D01*
X192000000Y-123407200D02*
X191961905Y-123359580D01*
X191961905Y-123359580D02*
X191923809Y-123264342D01*
X191923809Y-123264342D02*
X191923809Y-122978628D01*
X191923809Y-122978628D02*
X191961905Y-122883390D01*
X191961905Y-122883390D02*
X192000000Y-122835771D01*
X192000000Y-122835771D02*
X192076190Y-122788152D01*
X192076190Y-122788152D02*
X192190476Y-122788152D01*
X192190476Y-122788152D02*
X192266667Y-122835771D01*
X192266667Y-122835771D02*
X192304762Y-122883390D01*
X192304762Y-122883390D02*
X192342857Y-122978628D01*
X192342857Y-122978628D02*
X192342857Y-123264342D01*
X192342857Y-123264342D02*
X192304762Y-123359580D01*
X192304762Y-123359580D02*
X192266667Y-123407200D01*
X192266667Y-123407200D02*
X192190476Y-123454819D01*
X192190476Y-123454819D02*
X192076190Y-123454819D01*
X193028572Y-123454819D02*
X193028572Y-122454819D01*
X193028572Y-123407200D02*
X192952381Y-123454819D01*
X192952381Y-123454819D02*
X192800000Y-123454819D01*
X192800000Y-123454819D02*
X192723810Y-123407200D01*
X192723810Y-123407200D02*
X192685715Y-123359580D01*
X192685715Y-123359580D02*
X192647619Y-123264342D01*
X192647619Y-123264342D02*
X192647619Y-122978628D01*
X192647619Y-122978628D02*
X192685715Y-122883390D01*
X192685715Y-122883390D02*
X192723810Y-122835771D01*
X192723810Y-122835771D02*
X192800000Y-122788152D01*
X192800000Y-122788152D02*
X192952381Y-122788152D01*
X192952381Y-122788152D02*
X193028572Y-122835771D01*
X193714287Y-123407200D02*
X193638096Y-123454819D01*
X193638096Y-123454819D02*
X193485715Y-123454819D01*
X193485715Y-123454819D02*
X193409525Y-123407200D01*
X193409525Y-123407200D02*
X193371429Y-123311961D01*
X193371429Y-123311961D02*
X193371429Y-122931009D01*
X193371429Y-122931009D02*
X193409525Y-122835771D01*
X193409525Y-122835771D02*
X193485715Y-122788152D01*
X193485715Y-122788152D02*
X193638096Y-122788152D01*
X193638096Y-122788152D02*
X193714287Y-122835771D01*
X193714287Y-122835771D02*
X193752382Y-122931009D01*
X193752382Y-122931009D02*
X193752382Y-123026247D01*
X193752382Y-123026247D02*
X193371429Y-123121485D01*
X194590477Y-122454819D02*
X194857144Y-123454819D01*
X194857144Y-123454819D02*
X195123810Y-122454819D01*
X196152382Y-122454819D02*
X196228572Y-122454819D01*
X196228572Y-122454819D02*
X196304763Y-122502438D01*
X196304763Y-122502438D02*
X196342858Y-122550057D01*
X196342858Y-122550057D02*
X196380953Y-122645295D01*
X196380953Y-122645295D02*
X196419048Y-122835771D01*
X196419048Y-122835771D02*
X196419048Y-123073866D01*
X196419048Y-123073866D02*
X196380953Y-123264342D01*
X196380953Y-123264342D02*
X196342858Y-123359580D01*
X196342858Y-123359580D02*
X196304763Y-123407200D01*
X196304763Y-123407200D02*
X196228572Y-123454819D01*
X196228572Y-123454819D02*
X196152382Y-123454819D01*
X196152382Y-123454819D02*
X196076191Y-123407200D01*
X196076191Y-123407200D02*
X196038096Y-123359580D01*
X196038096Y-123359580D02*
X196000001Y-123264342D01*
X196000001Y-123264342D02*
X195961905Y-123073866D01*
X195961905Y-123073866D02*
X195961905Y-122835771D01*
X195961905Y-122835771D02*
X196000001Y-122645295D01*
X196000001Y-122645295D02*
X196038096Y-122550057D01*
X196038096Y-122550057D02*
X196076191Y-122502438D01*
X196076191Y-122502438D02*
X196152382Y-122454819D01*
X196761906Y-123359580D02*
X196800001Y-123407200D01*
X196800001Y-123407200D02*
X196761906Y-123454819D01*
X196761906Y-123454819D02*
X196723810Y-123407200D01*
X196723810Y-123407200D02*
X196761906Y-123359580D01*
X196761906Y-123359580D02*
X196761906Y-123454819D01*
X197561905Y-123454819D02*
X197104762Y-123454819D01*
X197333334Y-123454819D02*
X197333334Y-122454819D01*
X197333334Y-122454819D02*
X197257143Y-122597676D01*
X197257143Y-122597676D02*
X197180953Y-122692914D01*
X197180953Y-122692914D02*
X197104762Y-122740533D01*
X184942858Y-116249847D02*
X184942858Y-115249847D01*
X184942858Y-115249847D02*
X185400001Y-116249847D01*
X185400001Y-116249847D02*
X185400001Y-115249847D01*
X185933334Y-115249847D02*
X186085715Y-115249847D01*
X186085715Y-115249847D02*
X186161905Y-115297466D01*
X186161905Y-115297466D02*
X186238096Y-115392704D01*
X186238096Y-115392704D02*
X186276191Y-115583180D01*
X186276191Y-115583180D02*
X186276191Y-115916513D01*
X186276191Y-115916513D02*
X186238096Y-116106989D01*
X186238096Y-116106989D02*
X186161905Y-116202228D01*
X186161905Y-116202228D02*
X186085715Y-116249847D01*
X186085715Y-116249847D02*
X185933334Y-116249847D01*
X185933334Y-116249847D02*
X185857143Y-116202228D01*
X185857143Y-116202228D02*
X185780953Y-116106989D01*
X185780953Y-116106989D02*
X185742857Y-115916513D01*
X185742857Y-115916513D02*
X185742857Y-115583180D01*
X185742857Y-115583180D02*
X185780953Y-115392704D01*
X185780953Y-115392704D02*
X185857143Y-115297466D01*
X185857143Y-115297466D02*
X185933334Y-115249847D01*
X187685715Y-116154608D02*
X187647619Y-116202228D01*
X187647619Y-116202228D02*
X187533334Y-116249847D01*
X187533334Y-116249847D02*
X187457143Y-116249847D01*
X187457143Y-116249847D02*
X187342857Y-116202228D01*
X187342857Y-116202228D02*
X187266667Y-116106989D01*
X187266667Y-116106989D02*
X187228572Y-116011751D01*
X187228572Y-116011751D02*
X187190476Y-115821275D01*
X187190476Y-115821275D02*
X187190476Y-115678418D01*
X187190476Y-115678418D02*
X187228572Y-115487942D01*
X187228572Y-115487942D02*
X187266667Y-115392704D01*
X187266667Y-115392704D02*
X187342857Y-115297466D01*
X187342857Y-115297466D02*
X187457143Y-115249847D01*
X187457143Y-115249847D02*
X187533334Y-115249847D01*
X187533334Y-115249847D02*
X187647619Y-115297466D01*
X187647619Y-115297466D02*
X187685715Y-115345085D01*
X187990476Y-115964132D02*
X188371429Y-115964132D01*
X187914286Y-116249847D02*
X188180953Y-115249847D01*
X188180953Y-115249847D02*
X188447619Y-116249847D01*
X188714286Y-116249847D02*
X188714286Y-115249847D01*
X188714286Y-115249847D02*
X189171429Y-116249847D01*
X189171429Y-116249847D02*
X189171429Y-115249847D01*
X189552381Y-116249847D02*
X189552381Y-115249847D01*
X189552381Y-115249847D02*
X189742857Y-115249847D01*
X189742857Y-115249847D02*
X189857143Y-115297466D01*
X189857143Y-115297466D02*
X189933333Y-115392704D01*
X189933333Y-115392704D02*
X189971428Y-115487942D01*
X189971428Y-115487942D02*
X190009524Y-115678418D01*
X190009524Y-115678418D02*
X190009524Y-115821275D01*
X190009524Y-115821275D02*
X189971428Y-116011751D01*
X189971428Y-116011751D02*
X189933333Y-116106989D01*
X189933333Y-116106989D02*
X189857143Y-116202228D01*
X189857143Y-116202228D02*
X189742857Y-116249847D01*
X189742857Y-116249847D02*
X189552381Y-116249847D01*
X190504762Y-115773656D02*
X190504762Y-116249847D01*
X190238095Y-115249847D02*
X190504762Y-115773656D01*
X190504762Y-115773656D02*
X190771428Y-115249847D01*
X186447619Y-117859791D02*
X186447619Y-116859791D01*
X186447619Y-117335981D02*
X186904762Y-117335981D01*
X186904762Y-117859791D02*
X186904762Y-116859791D01*
X187285714Y-117335981D02*
X187552380Y-117335981D01*
X187666666Y-117859791D02*
X187285714Y-117859791D01*
X187285714Y-117859791D02*
X187285714Y-116859791D01*
X187285714Y-116859791D02*
X187666666Y-116859791D01*
X188466667Y-117859791D02*
X188200000Y-117383600D01*
X188009524Y-117859791D02*
X188009524Y-116859791D01*
X188009524Y-116859791D02*
X188314286Y-116859791D01*
X188314286Y-116859791D02*
X188390476Y-116907410D01*
X188390476Y-116907410D02*
X188428571Y-116955029D01*
X188428571Y-116955029D02*
X188466667Y-117050267D01*
X188466667Y-117050267D02*
X188466667Y-117193124D01*
X188466667Y-117193124D02*
X188428571Y-117288362D01*
X188428571Y-117288362D02*
X188390476Y-117335981D01*
X188390476Y-117335981D02*
X188314286Y-117383600D01*
X188314286Y-117383600D02*
X188009524Y-117383600D01*
X188809524Y-117335981D02*
X189076190Y-117335981D01*
X189190476Y-117859791D02*
X188809524Y-117859791D01*
X188809524Y-117859791D02*
X188809524Y-116859791D01*
X188809524Y-116859791D02*
X189190476Y-116859791D01*
D11*
X196993482Y-108399838D02*
X196898244Y-108352219D01*
X196898244Y-108352219D02*
X196755387Y-108352219D01*
X196755387Y-108352219D02*
X196612530Y-108399838D01*
X196612530Y-108399838D02*
X196517292Y-108495076D01*
X196517292Y-108495076D02*
X196469673Y-108590314D01*
X196469673Y-108590314D02*
X196422054Y-108780790D01*
X196422054Y-108780790D02*
X196422054Y-108923647D01*
X196422054Y-108923647D02*
X196469673Y-109114123D01*
X196469673Y-109114123D02*
X196517292Y-109209361D01*
X196517292Y-109209361D02*
X196612530Y-109304600D01*
X196612530Y-109304600D02*
X196755387Y-109352219D01*
X196755387Y-109352219D02*
X196850625Y-109352219D01*
X196850625Y-109352219D02*
X196993482Y-109304600D01*
X196993482Y-109304600D02*
X197041101Y-109256980D01*
X197041101Y-109256980D02*
X197041101Y-108923647D01*
X197041101Y-108923647D02*
X196850625Y-108923647D01*
X197469673Y-109352219D02*
X197469673Y-108352219D01*
X197469673Y-108352219D02*
X198041101Y-109352219D01*
X198041101Y-109352219D02*
X198041101Y-108352219D01*
X198517292Y-109352219D02*
X198517292Y-108352219D01*
X198517292Y-108352219D02*
X198755387Y-108352219D01*
X198755387Y-108352219D02*
X198898244Y-108399838D01*
X198898244Y-108399838D02*
X198993482Y-108495076D01*
X198993482Y-108495076D02*
X199041101Y-108590314D01*
X199041101Y-108590314D02*
X199088720Y-108780790D01*
X199088720Y-108780790D02*
X199088720Y-108923647D01*
X199088720Y-108923647D02*
X199041101Y-109114123D01*
X199041101Y-109114123D02*
X198993482Y-109209361D01*
X198993482Y-109209361D02*
X198898244Y-109304600D01*
X198898244Y-109304600D02*
X198755387Y-109352219D01*
X198755387Y-109352219D02*
X198517292Y-109352219D01*
X196426816Y-97952219D02*
X196760149Y-98952219D01*
X196760149Y-98952219D02*
X197093482Y-97952219D01*
X197998244Y-98856980D02*
X197950625Y-98904600D01*
X197950625Y-98904600D02*
X197807768Y-98952219D01*
X197807768Y-98952219D02*
X197712530Y-98952219D01*
X197712530Y-98952219D02*
X197569673Y-98904600D01*
X197569673Y-98904600D02*
X197474435Y-98809361D01*
X197474435Y-98809361D02*
X197426816Y-98714123D01*
X197426816Y-98714123D02*
X197379197Y-98523647D01*
X197379197Y-98523647D02*
X197379197Y-98380790D01*
X197379197Y-98380790D02*
X197426816Y-98190314D01*
X197426816Y-98190314D02*
X197474435Y-98095076D01*
X197474435Y-98095076D02*
X197569673Y-97999838D01*
X197569673Y-97999838D02*
X197712530Y-97952219D01*
X197712530Y-97952219D02*
X197807768Y-97952219D01*
X197807768Y-97952219D02*
X197950625Y-97999838D01*
X197950625Y-97999838D02*
X197998244Y-98047457D01*
X198998244Y-98856980D02*
X198950625Y-98904600D01*
X198950625Y-98904600D02*
X198807768Y-98952219D01*
X198807768Y-98952219D02*
X198712530Y-98952219D01*
X198712530Y-98952219D02*
X198569673Y-98904600D01*
X198569673Y-98904600D02*
X198474435Y-98809361D01*
X198474435Y-98809361D02*
X198426816Y-98714123D01*
X198426816Y-98714123D02*
X198379197Y-98523647D01*
X198379197Y-98523647D02*
X198379197Y-98380790D01*
X198379197Y-98380790D02*
X198426816Y-98190314D01*
X198426816Y-98190314D02*
X198474435Y-98095076D01*
X198474435Y-98095076D02*
X198569673Y-97999838D01*
X198569673Y-97999838D02*
X198712530Y-97952219D01*
X198712530Y-97952219D02*
X198807768Y-97952219D01*
X198807768Y-97952219D02*
X198950625Y-97999838D01*
X198950625Y-97999838D02*
X198998244Y-98047457D01*
X195569673Y-101552219D02*
X195569673Y-100552219D01*
X195569673Y-100552219D02*
X196141101Y-101552219D01*
X196141101Y-101552219D02*
X196141101Y-100552219D01*
X197188720Y-101552219D02*
X196855387Y-101076028D01*
X196617292Y-101552219D02*
X196617292Y-100552219D01*
X196617292Y-100552219D02*
X196998244Y-100552219D01*
X196998244Y-100552219D02*
X197093482Y-100599838D01*
X197093482Y-100599838D02*
X197141101Y-100647457D01*
X197141101Y-100647457D02*
X197188720Y-100742695D01*
X197188720Y-100742695D02*
X197188720Y-100885552D01*
X197188720Y-100885552D02*
X197141101Y-100980790D01*
X197141101Y-100980790D02*
X197093482Y-101028409D01*
X197093482Y-101028409D02*
X196998244Y-101076028D01*
X196998244Y-101076028D02*
X196617292Y-101076028D01*
X197569673Y-101504600D02*
X197712530Y-101552219D01*
X197712530Y-101552219D02*
X197950625Y-101552219D01*
X197950625Y-101552219D02*
X198045863Y-101504600D01*
X198045863Y-101504600D02*
X198093482Y-101456980D01*
X198093482Y-101456980D02*
X198141101Y-101361742D01*
X198141101Y-101361742D02*
X198141101Y-101266504D01*
X198141101Y-101266504D02*
X198093482Y-101171266D01*
X198093482Y-101171266D02*
X198045863Y-101123647D01*
X198045863Y-101123647D02*
X197950625Y-101076028D01*
X197950625Y-101076028D02*
X197760149Y-101028409D01*
X197760149Y-101028409D02*
X197664911Y-100980790D01*
X197664911Y-100980790D02*
X197617292Y-100933171D01*
X197617292Y-100933171D02*
X197569673Y-100837933D01*
X197569673Y-100837933D02*
X197569673Y-100742695D01*
X197569673Y-100742695D02*
X197617292Y-100647457D01*
X197617292Y-100647457D02*
X197664911Y-100599838D01*
X197664911Y-100599838D02*
X197760149Y-100552219D01*
X197760149Y-100552219D02*
X197998244Y-100552219D01*
X197998244Y-100552219D02*
X198141101Y-100599838D01*
X198426816Y-100552219D02*
X198998244Y-100552219D01*
X198712530Y-101552219D02*
X198712530Y-100552219D01*
X197241101Y-104156980D02*
X197193482Y-104204600D01*
X197193482Y-104204600D02*
X197050625Y-104252219D01*
X197050625Y-104252219D02*
X196955387Y-104252219D01*
X196955387Y-104252219D02*
X196812530Y-104204600D01*
X196812530Y-104204600D02*
X196717292Y-104109361D01*
X196717292Y-104109361D02*
X196669673Y-104014123D01*
X196669673Y-104014123D02*
X196622054Y-103823647D01*
X196622054Y-103823647D02*
X196622054Y-103680790D01*
X196622054Y-103680790D02*
X196669673Y-103490314D01*
X196669673Y-103490314D02*
X196717292Y-103395076D01*
X196717292Y-103395076D02*
X196812530Y-103299838D01*
X196812530Y-103299838D02*
X196955387Y-103252219D01*
X196955387Y-103252219D02*
X197050625Y-103252219D01*
X197050625Y-103252219D02*
X197193482Y-103299838D01*
X197193482Y-103299838D02*
X197241101Y-103347457D01*
X198145863Y-104252219D02*
X197669673Y-104252219D01*
X197669673Y-104252219D02*
X197669673Y-103252219D01*
X198479197Y-104252219D02*
X198479197Y-103252219D01*
X199050625Y-104252219D02*
X198622054Y-103680790D01*
X199050625Y-103252219D02*
X198479197Y-103823647D01*
X196869673Y-106852219D02*
X196869673Y-105852219D01*
X196869673Y-105852219D02*
X197107768Y-105852219D01*
X197107768Y-105852219D02*
X197250625Y-105899838D01*
X197250625Y-105899838D02*
X197345863Y-105995076D01*
X197345863Y-105995076D02*
X197393482Y-106090314D01*
X197393482Y-106090314D02*
X197441101Y-106280790D01*
X197441101Y-106280790D02*
X197441101Y-106423647D01*
X197441101Y-106423647D02*
X197393482Y-106614123D01*
X197393482Y-106614123D02*
X197345863Y-106709361D01*
X197345863Y-106709361D02*
X197250625Y-106804600D01*
X197250625Y-106804600D02*
X197107768Y-106852219D01*
X197107768Y-106852219D02*
X196869673Y-106852219D01*
X197869673Y-106852219D02*
X197869673Y-105852219D01*
X198536339Y-105852219D02*
X198726815Y-105852219D01*
X198726815Y-105852219D02*
X198822053Y-105899838D01*
X198822053Y-105899838D02*
X198917291Y-105995076D01*
X198917291Y-105995076D02*
X198964910Y-106185552D01*
X198964910Y-106185552D02*
X198964910Y-106518885D01*
X198964910Y-106518885D02*
X198917291Y-106709361D01*
X198917291Y-106709361D02*
X198822053Y-106804600D01*
X198822053Y-106804600D02*
X198726815Y-106852219D01*
X198726815Y-106852219D02*
X198536339Y-106852219D01*
X198536339Y-106852219D02*
X198441101Y-106804600D01*
X198441101Y-106804600D02*
X198345863Y-106709361D01*
X198345863Y-106709361D02*
X198298244Y-106518885D01*
X198298244Y-106518885D02*
X198298244Y-106185552D01*
X198298244Y-106185552D02*
X198345863Y-105995076D01*
X198345863Y-105995076D02*
X198441101Y-105899838D01*
X198441101Y-105899838D02*
X198536339Y-105852219D01*
D12*
X184650000Y-96026109D02*
X184650000Y-95526109D01*
X184650000Y-95526109D02*
X184769048Y-95526109D01*
X184769048Y-95526109D02*
X184840476Y-95549919D01*
X184840476Y-95549919D02*
X184888095Y-95597538D01*
X184888095Y-95597538D02*
X184911905Y-95645157D01*
X184911905Y-95645157D02*
X184935714Y-95740395D01*
X184935714Y-95740395D02*
X184935714Y-95811823D01*
X184935714Y-95811823D02*
X184911905Y-95907061D01*
X184911905Y-95907061D02*
X184888095Y-95954680D01*
X184888095Y-95954680D02*
X184840476Y-96002300D01*
X184840476Y-96002300D02*
X184769048Y-96026109D01*
X184769048Y-96026109D02*
X184650000Y-96026109D01*
X185126191Y-95883252D02*
X185364286Y-95883252D01*
X185078572Y-96026109D02*
X185245238Y-95526109D01*
X185245238Y-95526109D02*
X185411905Y-96026109D01*
X185507143Y-95526109D02*
X185792857Y-95526109D01*
X185650000Y-96026109D02*
X185650000Y-95526109D01*
X185935714Y-95883252D02*
X186173809Y-95883252D01*
X185888095Y-96026109D02*
X186054761Y-95526109D01*
X186054761Y-95526109D02*
X186221428Y-96026109D01*
X181619047Y-96549919D02*
X181571428Y-96526109D01*
X181571428Y-96526109D02*
X181499999Y-96526109D01*
X181499999Y-96526109D02*
X181428571Y-96549919D01*
X181428571Y-96549919D02*
X181380952Y-96597538D01*
X181380952Y-96597538D02*
X181357142Y-96645157D01*
X181357142Y-96645157D02*
X181333333Y-96740395D01*
X181333333Y-96740395D02*
X181333333Y-96811823D01*
X181333333Y-96811823D02*
X181357142Y-96907061D01*
X181357142Y-96907061D02*
X181380952Y-96954680D01*
X181380952Y-96954680D02*
X181428571Y-97002300D01*
X181428571Y-97002300D02*
X181499999Y-97026109D01*
X181499999Y-97026109D02*
X181547618Y-97026109D01*
X181547618Y-97026109D02*
X181619047Y-97002300D01*
X181619047Y-97002300D02*
X181642856Y-96978490D01*
X181642856Y-96978490D02*
X181642856Y-96811823D01*
X181642856Y-96811823D02*
X181547618Y-96811823D01*
X181857142Y-97026109D02*
X181857142Y-96526109D01*
X181857142Y-96526109D02*
X182142856Y-97026109D01*
X182142856Y-97026109D02*
X182142856Y-96526109D01*
X182380952Y-97026109D02*
X182380952Y-96526109D01*
X182380952Y-96526109D02*
X182500000Y-96526109D01*
X182500000Y-96526109D02*
X182571428Y-96549919D01*
X182571428Y-96549919D02*
X182619047Y-96597538D01*
X182619047Y-96597538D02*
X182642857Y-96645157D01*
X182642857Y-96645157D02*
X182666666Y-96740395D01*
X182666666Y-96740395D02*
X182666666Y-96811823D01*
X182666666Y-96811823D02*
X182642857Y-96907061D01*
X182642857Y-96907061D02*
X182619047Y-96954680D01*
X182619047Y-96954680D02*
X182571428Y-97002300D01*
X182571428Y-97002300D02*
X182500000Y-97026109D01*
X182500000Y-97026109D02*
X182380952Y-97026109D01*
X184623809Y-98026109D02*
X184385714Y-98026109D01*
X184385714Y-98026109D02*
X184385714Y-97526109D01*
X184790476Y-98026109D02*
X184790476Y-97526109D01*
X185028571Y-98026109D02*
X185028571Y-97526109D01*
X185028571Y-97526109D02*
X185314285Y-98026109D01*
X185314285Y-98026109D02*
X185314285Y-97526109D01*
X185552381Y-98026109D02*
X185552381Y-97526109D01*
X185838095Y-98026109D02*
X185623810Y-97740395D01*
X185838095Y-97526109D02*
X185552381Y-97811823D01*
X181919048Y-98726109D02*
X182204762Y-98726109D01*
X182061905Y-99226109D02*
X182061905Y-98726109D01*
X182323809Y-98726109D02*
X182657142Y-99226109D01*
X182657142Y-98726109D02*
X182323809Y-99226109D01*
X182216666Y-100426109D02*
X182050000Y-100188014D01*
X181930952Y-100426109D02*
X181930952Y-99926109D01*
X181930952Y-99926109D02*
X182121428Y-99926109D01*
X182121428Y-99926109D02*
X182169047Y-99949919D01*
X182169047Y-99949919D02*
X182192857Y-99973728D01*
X182192857Y-99973728D02*
X182216666Y-100021347D01*
X182216666Y-100021347D02*
X182216666Y-100092776D01*
X182216666Y-100092776D02*
X182192857Y-100140395D01*
X182192857Y-100140395D02*
X182169047Y-100164204D01*
X182169047Y-100164204D02*
X182121428Y-100188014D01*
X182121428Y-100188014D02*
X181930952Y-100188014D01*
X182383333Y-99926109D02*
X182716666Y-100426109D01*
X182716666Y-99926109D02*
X182383333Y-100426109D01*
X185621428Y-102126109D02*
X185621428Y-101626109D01*
X185621428Y-101626109D02*
X185788095Y-101983252D01*
X185788095Y-101983252D02*
X185954761Y-101626109D01*
X185954761Y-101626109D02*
X185954761Y-102126109D01*
X186288095Y-101626109D02*
X186383333Y-101626109D01*
X186383333Y-101626109D02*
X186430952Y-101649919D01*
X186430952Y-101649919D02*
X186478571Y-101697538D01*
X186478571Y-101697538D02*
X186502381Y-101792776D01*
X186502381Y-101792776D02*
X186502381Y-101959442D01*
X186502381Y-101959442D02*
X186478571Y-102054680D01*
X186478571Y-102054680D02*
X186430952Y-102102300D01*
X186430952Y-102102300D02*
X186383333Y-102126109D01*
X186383333Y-102126109D02*
X186288095Y-102126109D01*
X186288095Y-102126109D02*
X186240476Y-102102300D01*
X186240476Y-102102300D02*
X186192857Y-102054680D01*
X186192857Y-102054680D02*
X186169048Y-101959442D01*
X186169048Y-101959442D02*
X186169048Y-101792776D01*
X186169048Y-101792776D02*
X186192857Y-101697538D01*
X186192857Y-101697538D02*
X186240476Y-101649919D01*
X186240476Y-101649919D02*
X186288095Y-101626109D01*
X186716667Y-102126109D02*
X186716667Y-101626109D01*
X186716667Y-101626109D02*
X186835715Y-101626109D01*
X186835715Y-101626109D02*
X186907143Y-101649919D01*
X186907143Y-101649919D02*
X186954762Y-101697538D01*
X186954762Y-101697538D02*
X186978572Y-101745157D01*
X186978572Y-101745157D02*
X187002381Y-101840395D01*
X187002381Y-101840395D02*
X187002381Y-101911823D01*
X187002381Y-101911823D02*
X186978572Y-102007061D01*
X186978572Y-102007061D02*
X186954762Y-102054680D01*
X186954762Y-102054680D02*
X186907143Y-102102300D01*
X186907143Y-102102300D02*
X186835715Y-102126109D01*
X186835715Y-102126109D02*
X186716667Y-102126109D01*
X187985714Y-101526109D02*
X188104762Y-102026109D01*
X188104762Y-102026109D02*
X188200000Y-101668966D01*
X188200000Y-101668966D02*
X188295238Y-102026109D01*
X188295238Y-102026109D02*
X188414286Y-101526109D01*
X188604762Y-102026109D02*
X188604762Y-101526109D01*
X188890476Y-102026109D02*
X188676191Y-101740395D01*
X188890476Y-101526109D02*
X188604762Y-101811823D01*
X189104762Y-102026109D02*
X189104762Y-101526109D01*
X189104762Y-101526109D02*
X189295238Y-101526109D01*
X189295238Y-101526109D02*
X189342857Y-101549919D01*
X189342857Y-101549919D02*
X189366667Y-101573728D01*
X189366667Y-101573728D02*
X189390476Y-101621347D01*
X189390476Y-101621347D02*
X189390476Y-101692776D01*
X189390476Y-101692776D02*
X189366667Y-101740395D01*
X189366667Y-101740395D02*
X189342857Y-101764204D01*
X189342857Y-101764204D02*
X189295238Y-101788014D01*
X189295238Y-101788014D02*
X189104762Y-101788014D01*
X187373890Y-96061905D02*
X187873890Y-96061905D01*
X187873890Y-96061905D02*
X187873890Y-96180953D01*
X187873890Y-96180953D02*
X187850080Y-96252381D01*
X187850080Y-96252381D02*
X187802461Y-96300000D01*
X187802461Y-96300000D02*
X187754842Y-96323810D01*
X187754842Y-96323810D02*
X187659604Y-96347619D01*
X187659604Y-96347619D02*
X187588176Y-96347619D01*
X187588176Y-96347619D02*
X187492938Y-96323810D01*
X187492938Y-96323810D02*
X187445319Y-96300000D01*
X187445319Y-96300000D02*
X187397700Y-96252381D01*
X187397700Y-96252381D02*
X187373890Y-96180953D01*
X187373890Y-96180953D02*
X187373890Y-96061905D01*
X187373890Y-96561905D02*
X187873890Y-96561905D01*
X187397700Y-96776191D02*
X187373890Y-96847619D01*
X187373890Y-96847619D02*
X187373890Y-96966667D01*
X187373890Y-96966667D02*
X187397700Y-97014286D01*
X187397700Y-97014286D02*
X187421509Y-97038095D01*
X187421509Y-97038095D02*
X187469128Y-97061905D01*
X187469128Y-97061905D02*
X187516747Y-97061905D01*
X187516747Y-97061905D02*
X187564366Y-97038095D01*
X187564366Y-97038095D02*
X187588176Y-97014286D01*
X187588176Y-97014286D02*
X187611985Y-96966667D01*
X187611985Y-96966667D02*
X187635795Y-96871429D01*
X187635795Y-96871429D02*
X187659604Y-96823810D01*
X187659604Y-96823810D02*
X187683414Y-96800000D01*
X187683414Y-96800000D02*
X187731033Y-96776191D01*
X187731033Y-96776191D02*
X187778652Y-96776191D01*
X187778652Y-96776191D02*
X187826271Y-96800000D01*
X187826271Y-96800000D02*
X187850080Y-96823810D01*
X187850080Y-96823810D02*
X187873890Y-96871429D01*
X187873890Y-96871429D02*
X187873890Y-96990476D01*
X187873890Y-96990476D02*
X187850080Y-97061905D01*
X187421509Y-97561904D02*
X187397700Y-97538095D01*
X187397700Y-97538095D02*
X187373890Y-97466666D01*
X187373890Y-97466666D02*
X187373890Y-97419047D01*
X187373890Y-97419047D02*
X187397700Y-97347619D01*
X187397700Y-97347619D02*
X187445319Y-97300000D01*
X187445319Y-97300000D02*
X187492938Y-97276190D01*
X187492938Y-97276190D02*
X187588176Y-97252381D01*
X187588176Y-97252381D02*
X187659604Y-97252381D01*
X187659604Y-97252381D02*
X187754842Y-97276190D01*
X187754842Y-97276190D02*
X187802461Y-97300000D01*
X187802461Y-97300000D02*
X187850080Y-97347619D01*
X187850080Y-97347619D02*
X187873890Y-97419047D01*
X187873890Y-97419047D02*
X187873890Y-97466666D01*
X187873890Y-97466666D02*
X187850080Y-97538095D01*
X187850080Y-97538095D02*
X187826271Y-97561904D01*
D13*
X189826190Y-98124809D02*
X189659524Y-97886714D01*
X189540476Y-98124809D02*
X189540476Y-97624809D01*
X189540476Y-97624809D02*
X189730952Y-97624809D01*
X189730952Y-97624809D02*
X189778571Y-97648619D01*
X189778571Y-97648619D02*
X189802381Y-97672428D01*
X189802381Y-97672428D02*
X189826190Y-97720047D01*
X189826190Y-97720047D02*
X189826190Y-97791476D01*
X189826190Y-97791476D02*
X189802381Y-97839095D01*
X189802381Y-97839095D02*
X189778571Y-97862904D01*
X189778571Y-97862904D02*
X189730952Y-97886714D01*
X189730952Y-97886714D02*
X189540476Y-97886714D01*
X190016667Y-98101000D02*
X190088095Y-98124809D01*
X190088095Y-98124809D02*
X190207143Y-98124809D01*
X190207143Y-98124809D02*
X190254762Y-98101000D01*
X190254762Y-98101000D02*
X190278571Y-98077190D01*
X190278571Y-98077190D02*
X190302381Y-98029571D01*
X190302381Y-98029571D02*
X190302381Y-97981952D01*
X190302381Y-97981952D02*
X190278571Y-97934333D01*
X190278571Y-97934333D02*
X190254762Y-97910523D01*
X190254762Y-97910523D02*
X190207143Y-97886714D01*
X190207143Y-97886714D02*
X190111905Y-97862904D01*
X190111905Y-97862904D02*
X190064286Y-97839095D01*
X190064286Y-97839095D02*
X190040476Y-97815285D01*
X190040476Y-97815285D02*
X190016667Y-97767666D01*
X190016667Y-97767666D02*
X190016667Y-97720047D01*
X190016667Y-97720047D02*
X190040476Y-97672428D01*
X190040476Y-97672428D02*
X190064286Y-97648619D01*
X190064286Y-97648619D02*
X190111905Y-97624809D01*
X190111905Y-97624809D02*
X190230952Y-97624809D01*
X190230952Y-97624809D02*
X190302381Y-97648619D01*
X190445238Y-97624809D02*
X190730952Y-97624809D01*
X190588095Y-98124809D02*
X190588095Y-97624809D01*
D12*
X189433334Y-98726109D02*
X189600000Y-99226109D01*
X189600000Y-99226109D02*
X189766667Y-98726109D01*
X190219047Y-99178490D02*
X190195238Y-99202300D01*
X190195238Y-99202300D02*
X190123809Y-99226109D01*
X190123809Y-99226109D02*
X190076190Y-99226109D01*
X190076190Y-99226109D02*
X190004762Y-99202300D01*
X190004762Y-99202300D02*
X189957143Y-99154680D01*
X189957143Y-99154680D02*
X189933333Y-99107061D01*
X189933333Y-99107061D02*
X189909524Y-99011823D01*
X189909524Y-99011823D02*
X189909524Y-98940395D01*
X189909524Y-98940395D02*
X189933333Y-98845157D01*
X189933333Y-98845157D02*
X189957143Y-98797538D01*
X189957143Y-98797538D02*
X190004762Y-98749919D01*
X190004762Y-98749919D02*
X190076190Y-98726109D01*
X190076190Y-98726109D02*
X190123809Y-98726109D01*
X190123809Y-98726109D02*
X190195238Y-98749919D01*
X190195238Y-98749919D02*
X190219047Y-98773728D01*
X190719047Y-99178490D02*
X190695238Y-99202300D01*
X190695238Y-99202300D02*
X190623809Y-99226109D01*
X190623809Y-99226109D02*
X190576190Y-99226109D01*
X190576190Y-99226109D02*
X190504762Y-99202300D01*
X190504762Y-99202300D02*
X190457143Y-99154680D01*
X190457143Y-99154680D02*
X190433333Y-99107061D01*
X190433333Y-99107061D02*
X190409524Y-99011823D01*
X190409524Y-99011823D02*
X190409524Y-98940395D01*
X190409524Y-98940395D02*
X190433333Y-98845157D01*
X190433333Y-98845157D02*
X190457143Y-98797538D01*
X190457143Y-98797538D02*
X190504762Y-98749919D01*
X190504762Y-98749919D02*
X190576190Y-98726109D01*
X190576190Y-98726109D02*
X190623809Y-98726109D01*
X190623809Y-98726109D02*
X190695238Y-98749919D01*
X190695238Y-98749919D02*
X190719047Y-98773728D01*
X191119047Y-100649919D02*
X191071428Y-100626109D01*
X191071428Y-100626109D02*
X190999999Y-100626109D01*
X190999999Y-100626109D02*
X190928571Y-100649919D01*
X190928571Y-100649919D02*
X190880952Y-100697538D01*
X190880952Y-100697538D02*
X190857142Y-100745157D01*
X190857142Y-100745157D02*
X190833333Y-100840395D01*
X190833333Y-100840395D02*
X190833333Y-100911823D01*
X190833333Y-100911823D02*
X190857142Y-101007061D01*
X190857142Y-101007061D02*
X190880952Y-101054680D01*
X190880952Y-101054680D02*
X190928571Y-101102300D01*
X190928571Y-101102300D02*
X190999999Y-101126109D01*
X190999999Y-101126109D02*
X191047618Y-101126109D01*
X191047618Y-101126109D02*
X191119047Y-101102300D01*
X191119047Y-101102300D02*
X191142856Y-101078490D01*
X191142856Y-101078490D02*
X191142856Y-100911823D01*
X191142856Y-100911823D02*
X191047618Y-100911823D01*
X191357142Y-101126109D02*
X191357142Y-100626109D01*
X191357142Y-100626109D02*
X191642856Y-101126109D01*
X191642856Y-101126109D02*
X191642856Y-100626109D01*
X191880952Y-101126109D02*
X191880952Y-100626109D01*
X191880952Y-100626109D02*
X192000000Y-100626109D01*
X192000000Y-100626109D02*
X192071428Y-100649919D01*
X192071428Y-100649919D02*
X192119047Y-100697538D01*
X192119047Y-100697538D02*
X192142857Y-100745157D01*
X192142857Y-100745157D02*
X192166666Y-100840395D01*
X192166666Y-100840395D02*
X192166666Y-100911823D01*
X192166666Y-100911823D02*
X192142857Y-101007061D01*
X192142857Y-101007061D02*
X192119047Y-101054680D01*
X192119047Y-101054680D02*
X192071428Y-101102300D01*
X192071428Y-101102300D02*
X192000000Y-101126109D01*
X192000000Y-101126109D02*
X191880952Y-101126109D01*
X188640476Y-96002300D02*
X188711904Y-96026109D01*
X188711904Y-96026109D02*
X188830952Y-96026109D01*
X188830952Y-96026109D02*
X188878571Y-96002300D01*
X188878571Y-96002300D02*
X188902380Y-95978490D01*
X188902380Y-95978490D02*
X188926190Y-95930871D01*
X188926190Y-95930871D02*
X188926190Y-95883252D01*
X188926190Y-95883252D02*
X188902380Y-95835633D01*
X188902380Y-95835633D02*
X188878571Y-95811823D01*
X188878571Y-95811823D02*
X188830952Y-95788014D01*
X188830952Y-95788014D02*
X188735714Y-95764204D01*
X188735714Y-95764204D02*
X188688095Y-95740395D01*
X188688095Y-95740395D02*
X188664285Y-95716585D01*
X188664285Y-95716585D02*
X188640476Y-95668966D01*
X188640476Y-95668966D02*
X188640476Y-95621347D01*
X188640476Y-95621347D02*
X188664285Y-95573728D01*
X188664285Y-95573728D02*
X188688095Y-95549919D01*
X188688095Y-95549919D02*
X188735714Y-95526109D01*
X188735714Y-95526109D02*
X188854761Y-95526109D01*
X188854761Y-95526109D02*
X188926190Y-95549919D01*
X189092856Y-95526109D02*
X189211904Y-96026109D01*
X189211904Y-96026109D02*
X189307142Y-95668966D01*
X189307142Y-95668966D02*
X189402380Y-96026109D01*
X189402380Y-96026109D02*
X189521428Y-95526109D01*
X189711904Y-96026109D02*
X189711904Y-95526109D01*
X189711904Y-95526109D02*
X189830952Y-95526109D01*
X189830952Y-95526109D02*
X189902380Y-95549919D01*
X189902380Y-95549919D02*
X189949999Y-95597538D01*
X189949999Y-95597538D02*
X189973809Y-95645157D01*
X189973809Y-95645157D02*
X189997618Y-95740395D01*
X189997618Y-95740395D02*
X189997618Y-95811823D01*
X189997618Y-95811823D02*
X189973809Y-95907061D01*
X189973809Y-95907061D02*
X189949999Y-95954680D01*
X189949999Y-95954680D02*
X189902380Y-96002300D01*
X189902380Y-96002300D02*
X189830952Y-96026109D01*
X189830952Y-96026109D02*
X189711904Y-96026109D01*
X190211904Y-96026109D02*
X190211904Y-95526109D01*
X190545237Y-95526109D02*
X190640475Y-95526109D01*
X190640475Y-95526109D02*
X190688094Y-95549919D01*
X190688094Y-95549919D02*
X190735713Y-95597538D01*
X190735713Y-95597538D02*
X190759523Y-95692776D01*
X190759523Y-95692776D02*
X190759523Y-95859442D01*
X190759523Y-95859442D02*
X190735713Y-95954680D01*
X190735713Y-95954680D02*
X190688094Y-96002300D01*
X190688094Y-96002300D02*
X190640475Y-96026109D01*
X190640475Y-96026109D02*
X190545237Y-96026109D01*
X190545237Y-96026109D02*
X190497618Y-96002300D01*
X190497618Y-96002300D02*
X190449999Y-95954680D01*
X190449999Y-95954680D02*
X190426190Y-95859442D01*
X190426190Y-95859442D02*
X190426190Y-95692776D01*
X190426190Y-95692776D02*
X190449999Y-95597538D01*
X190449999Y-95597538D02*
X190497618Y-95549919D01*
X190497618Y-95549919D02*
X190545237Y-95526109D01*
X188469048Y-96902300D02*
X188540476Y-96926109D01*
X188540476Y-96926109D02*
X188659524Y-96926109D01*
X188659524Y-96926109D02*
X188707143Y-96902300D01*
X188707143Y-96902300D02*
X188730952Y-96878490D01*
X188730952Y-96878490D02*
X188754762Y-96830871D01*
X188754762Y-96830871D02*
X188754762Y-96783252D01*
X188754762Y-96783252D02*
X188730952Y-96735633D01*
X188730952Y-96735633D02*
X188707143Y-96711823D01*
X188707143Y-96711823D02*
X188659524Y-96688014D01*
X188659524Y-96688014D02*
X188564286Y-96664204D01*
X188564286Y-96664204D02*
X188516667Y-96640395D01*
X188516667Y-96640395D02*
X188492857Y-96616585D01*
X188492857Y-96616585D02*
X188469048Y-96568966D01*
X188469048Y-96568966D02*
X188469048Y-96521347D01*
X188469048Y-96521347D02*
X188492857Y-96473728D01*
X188492857Y-96473728D02*
X188516667Y-96449919D01*
X188516667Y-96449919D02*
X188564286Y-96426109D01*
X188564286Y-96426109D02*
X188683333Y-96426109D01*
X188683333Y-96426109D02*
X188754762Y-96449919D01*
X188921428Y-96426109D02*
X189040476Y-96926109D01*
X189040476Y-96926109D02*
X189135714Y-96568966D01*
X189135714Y-96568966D02*
X189230952Y-96926109D01*
X189230952Y-96926109D02*
X189350000Y-96426109D01*
X189826190Y-96878490D02*
X189802381Y-96902300D01*
X189802381Y-96902300D02*
X189730952Y-96926109D01*
X189730952Y-96926109D02*
X189683333Y-96926109D01*
X189683333Y-96926109D02*
X189611905Y-96902300D01*
X189611905Y-96902300D02*
X189564286Y-96854680D01*
X189564286Y-96854680D02*
X189540476Y-96807061D01*
X189540476Y-96807061D02*
X189516667Y-96711823D01*
X189516667Y-96711823D02*
X189516667Y-96640395D01*
X189516667Y-96640395D02*
X189540476Y-96545157D01*
X189540476Y-96545157D02*
X189564286Y-96497538D01*
X189564286Y-96497538D02*
X189611905Y-96449919D01*
X189611905Y-96449919D02*
X189683333Y-96426109D01*
X189683333Y-96426109D02*
X189730952Y-96426109D01*
X189730952Y-96426109D02*
X189802381Y-96449919D01*
X189802381Y-96449919D02*
X189826190Y-96473728D01*
X190278571Y-96926109D02*
X190040476Y-96926109D01*
X190040476Y-96926109D02*
X190040476Y-96426109D01*
X190445238Y-96926109D02*
X190445238Y-96426109D01*
X190730952Y-96926109D02*
X190516667Y-96640395D01*
X190730952Y-96426109D02*
X190445238Y-96711823D01*
D14*
%TO.C,U5*%
X190730000Y-112640000D02*
X190490000Y-112310000D01*
X190970000Y-112310000D01*
X190730000Y-112640000D01*
G36*
X190730000Y-112640000D02*
G01*
X190490000Y-112310000D01*
X190970000Y-112310000D01*
X190730000Y-112640000D01*
G37*
X191185000Y-114190000D02*
X191185000Y-118810000D01*
X184415000Y-118810000D02*
X184415000Y-114190000D01*
%TO.C,REF\u002A\u002A*%
X192390000Y-99659420D02*
X192390000Y-99940580D01*
X193410000Y-99659420D02*
X193410000Y-99940580D01*
X193562742Y-97077500D02*
X194037258Y-97077500D01*
X193562742Y-98122500D02*
X194037258Y-98122500D01*
X192740580Y-115090000D02*
X192459420Y-115090000D01*
X192740580Y-116110000D02*
X192459420Y-116110000D01*
%TO.C,U2*%
X176540000Y-100492500D02*
X176540000Y-98992500D01*
X178260000Y-100492500D02*
X178260000Y-98992500D01*
X176800000Y-101222500D02*
X176520000Y-100942500D01*
X176800000Y-100942500D01*
X176800000Y-101222500D01*
G36*
X176800000Y-101222500D02*
G01*
X176520000Y-100942500D01*
X176800000Y-100942500D01*
X176800000Y-101222500D01*
G37*
%TO.C,REF\u002A\u002A*%
X193659420Y-95590000D02*
X193940580Y-95590000D01*
X193659420Y-96610000D02*
X193940580Y-96610000D01*
X199220000Y-107570000D02*
X199220000Y-97300000D01*
X201980000Y-97300000D02*
X199220000Y-97300000D01*
X201980000Y-107570000D02*
X199220000Y-107570000D01*
X201980000Y-107570000D02*
X201980000Y-97300000D01*
X201980000Y-108840000D02*
X201980000Y-110220000D01*
X201980000Y-110220000D02*
X200600000Y-110220000D01*
D12*
X183100000Y-92300000D02*
X192100000Y-92300000D01*
X192100000Y-101300000D01*
X183100000Y-101300000D01*
X183100000Y-92300000D01*
%TO.C,U3*%
D14*
X175090000Y-104227500D02*
X175265000Y-104227500D01*
X175090000Y-104652499D02*
X175090000Y-104227500D01*
X175090000Y-106447500D02*
X175090000Y-106022501D01*
X175265000Y-106447500D02*
X175090000Y-106447500D01*
X177135000Y-104227500D02*
X177310000Y-104227500D01*
X177292261Y-106447500D02*
X177135000Y-106447500D01*
X177310000Y-104227500D02*
X177310000Y-104652499D01*
X177340000Y-106207500D02*
X177340000Y-105927500D01*
X177620001Y-105927500D01*
X177340000Y-106207500D01*
G36*
X177340000Y-106207500D02*
G01*
X177340000Y-105927500D01*
X177620001Y-105927500D01*
X177340000Y-106207500D01*
G37*
%TO.C,REF\u002A\u002A*%
X186290000Y-111240580D02*
X186290000Y-110959420D01*
X187310000Y-111240580D02*
X187310000Y-110959420D01*
X191638748Y-110865000D02*
X192161252Y-110865000D01*
X191638748Y-112335000D02*
X192161252Y-112335000D01*
X177540580Y-95732500D02*
X177259420Y-95732500D01*
X177540580Y-96752500D02*
X177259420Y-96752500D01*
X185800000Y-102900000D02*
X185800000Y-103500000D01*
X186100000Y-103200000D02*
X185800000Y-102900000D01*
X186100000Y-103200000D02*
X185800000Y-103500000D01*
X186300000Y-105800000D02*
X186300000Y-103000000D01*
X187000000Y-102350000D02*
X187600000Y-102350000D01*
X187600000Y-106450000D02*
X187000000Y-106450000D01*
X188300000Y-103000000D02*
X188300000Y-105800000D01*
X186300000Y-103050000D02*
G75*
G02*
X187000000Y-102350000I699999J1D01*
G01*
X187000000Y-106450000D02*
G75*
G02*
X186300000Y-105750000I0J700000D01*
G01*
X187600000Y-102350000D02*
G75*
G02*
X188300000Y-103050000I1J-699999D01*
G01*
X188300000Y-105750000D02*
G75*
G02*
X187600000Y-106450000I-700000J0D01*
G01*
X176490000Y-107759420D02*
X176490000Y-108040580D01*
X177510000Y-107759420D02*
X177510000Y-108040580D01*
X193965000Y-100038748D02*
X193965000Y-100561252D01*
X195435000Y-100038748D02*
X195435000Y-100561252D01*
X188890000Y-111240580D02*
X188890000Y-110959420D01*
X189910000Y-111240580D02*
X189910000Y-110959420D01*
%TD*%
M02*
