M48
; DRILL file {KiCad 9.0.5} date 2026-03-23T10:43:22+0100
; FORMAT={-:-/ absolute / inch / decimal}
; #@! TF.CreationDate,2026-03-23T10:43:22+01:00
; #@! TF.GenerationSoftware,Kicad,Pcbnew,9.0.5
; #@! TF.FileFunction,Plated,1,2,PTH
FMAT,2
INCH
; #@! TA.AperFunction,Plated,PTH,ViaDrill
T1C0.0118
; #@! TA.AperFunction,Plated,PTH,ComponentDrill
T2C0.0394
%
G90
G05
T1
X7.1358Y-3.7992
X7.1555Y-3.8386
X7.1752Y-3.8386
X7.2638Y-4.0256
X7.3031Y-4.1142
X7.3524Y-3.9961
X7.372Y-4.1142
X7.3819Y-3.8189
X7.3819Y-3.878
X7.3917Y-4.065
X7.5Y-3.8878
X7.5Y-3.9075
X7.5984Y-3.7992
X7.5984Y-3.8189
X7.5984Y-3.8189
X7.6132Y-3.6467
X7.6181Y-3.6122
X7.6181Y-3.7992
X7.6181Y-3.8189
X7.7264Y-3.6417
X7.7264Y-3.6811
X7.9331Y-3.5433
X7.9331Y-3.563
X7.9331Y-3.6614
X7.9331Y-3.6811
X7.9331Y-4.2126
X7.9331Y-4.2323
X7.9429Y-3.8287
X7.9429Y-3.8484
X7.9528Y-4.2126
X7.9528Y-3.5433
X7.9528Y-3.563
X7.9528Y-3.6614
X7.9528Y-3.6811
X7.9528Y-4.2323
X7.9626Y-3.8287
X7.9626Y-3.8287
X7.9626Y-3.8484
T2
X8.3071Y-3.887
X8.3071Y-3.987
X8.3071Y-4.087
X8.3071Y-3.787
M30
