%TF.GenerationSoftware,KiCad,Pcbnew,9.0.5*%
%TF.CreationDate,2026-03-23T10:43:26+01:00*%
%TF.ProjectId,LPSN,4c50534e-2e6b-4696-9361-645f70636258,rev?*%
%TF.SameCoordinates,Original*%
%TF.FileFunction,Copper,L2,Bot*%
%TF.FilePolarity,Positive*%
%FSLAX46Y46*%
G04 Gerber Fmt 4.6, Leading zero omitted, Abs format (unit mm)*
G04 Created by KiCad (PCBNEW 9.0.5) date 2026-03-23 10:43:26*
%MOMM*%
%LPD*%
G01*
G04 APERTURE LIST*
%TA.AperFunction,ComponentPad*%
%ADD10R,1.700000X1.700000*%
%TD*%
%TA.AperFunction,ComponentPad*%
%ADD11C,1.700000*%
%TD*%
%TA.AperFunction,SMDPad,CuDef*%
%ADD12R,5.000000X5.000000*%
%TD*%
%TA.AperFunction,SMDPad,CuDef*%
%ADD13R,4.000000X4.000000*%
%TD*%
%TA.AperFunction,ViaPad*%
%ADD14C,0.600000*%
%TD*%
%TA.AperFunction,Conductor*%
%ADD15C,0.200000*%
%TD*%
%TA.AperFunction,Conductor*%
%ADD16C,0.400000*%
%TD*%
G04 APERTURE END LIST*
D10*
%TO.P,REF\u002A\u002A,1*%
%TO.N,GND*%
X211000000Y-103810000D03*
D11*
%TO.P,REF\u002A\u002A,2*%
%TO.N,VCC*%
X211000000Y-101270002D03*
%TO.P,REF\u002A\u002A,3*%
%TO.N,SW_DIO*%
X210999999Y-98730001D03*
%TO.P,REF\u002A\u002A,4*%
%TO.N,SW_CLK*%
X211000001Y-96190000D03*
%TD*%
D12*
%TO.P,BT1,1,+*%
%TO.N,VCC*%
X210700000Y-90000000D03*
X184800000Y-90000000D03*
D13*
%TO.P,BT1,2,-*%
%TO.N,GND*%
X197750000Y-90000000D03*
%TD*%
D14*
%TO.N,SW_CLK*%
X193500000Y-91750000D03*
%TO.N,SW_DIO*%
X193375000Y-92625000D03*
%TO.N,GND*%
X182250000Y-97500000D03*
X193000000Y-96500000D03*
X202249999Y-97250000D03*
X186750000Y-101500000D03*
X201500000Y-107000000D03*
X193000000Y-97000000D03*
X201750000Y-97250000D03*
X202250000Y-97750001D03*
X201500000Y-90500000D03*
X193000000Y-97000000D03*
X193500000Y-97000000D03*
X181750000Y-97500000D03*
X187250000Y-104500000D03*
X201500000Y-93500000D03*
X202000000Y-93500000D03*
X202000000Y-107500001D03*
X185500000Y-104500000D03*
X202000000Y-90000000D03*
X193500000Y-96500000D03*
X201999999Y-107000000D03*
X202000000Y-93000000D03*
X196250000Y-93500000D03*
X201500000Y-93000000D03*
X201750000Y-97750000D03*
X202249999Y-97250000D03*
X201500000Y-90000000D03*
X202000000Y-90500000D03*
X201500000Y-107500000D03*
%TO.N,VCC*%
X187750000Y-103250000D03*
X181250000Y-96500000D03*
X196250000Y-92500000D03*
X190500000Y-98750000D03*
X184500000Y-102250000D03*
X190500000Y-99250000D03*
%TO.N,PRESS_INT_READY*%
X187500000Y-97000000D03*
X187500000Y-98500000D03*
%TD*%
D15*
%TO.N,SW_CLK*%
X197940000Y-96190000D02*
X211000001Y-96190000D01*
X193500000Y-91750000D02*
X197940000Y-96190000D01*
%TO.N,SW_DIO*%
X210999999Y-98730001D02*
X209019998Y-96750000D01*
X209019998Y-96750000D02*
X197500000Y-96750000D01*
X197500000Y-96750000D02*
X193375000Y-92625000D01*
%TO.N,VCC*%
X184500000Y-102250000D02*
X185500000Y-102250000D01*
D16*
X213000000Y-92300000D02*
X213000000Y-99270002D01*
X190500000Y-99250000D02*
X193500000Y-102250000D01*
D15*
X185500000Y-102250000D02*
X186500000Y-103250000D01*
D16*
X205200000Y-95500000D02*
X199250000Y-95500000D01*
X210700000Y-90000000D02*
X213000000Y-92300000D01*
D15*
X181250000Y-93550000D02*
X184800000Y-90000000D01*
D16*
X190500000Y-99250000D02*
X190500000Y-98750000D01*
X193500000Y-102250000D02*
X188750000Y-102250000D01*
X193500000Y-102250000D02*
X210020002Y-102250000D01*
D15*
X181250000Y-96500000D02*
X181250000Y-93550000D01*
D16*
X188750000Y-102250000D02*
X187750000Y-103250000D01*
D15*
X186500000Y-103250000D02*
X187750000Y-103250000D01*
D16*
X213000000Y-99270002D02*
X211000000Y-101270002D01*
X210020002Y-102250000D02*
X211000000Y-101270002D01*
X210700000Y-90000000D02*
X205200000Y-95500000D01*
X199250000Y-95500000D02*
X196250000Y-92500000D01*
%TD*%
%TA.AperFunction,Conductor*%
%TO.N,GND*%
G36*
X198590080Y-76356872D02*
G01*
X198595779Y-76357137D01*
X199431144Y-76415405D01*
X199436836Y-76415935D01*
X200268639Y-76512914D01*
X200274303Y-76513708D01*
X201100686Y-76649182D01*
X201106324Y-76650241D01*
X201925532Y-76823921D01*
X201931106Y-76825240D01*
X202741352Y-77036748D01*
X202746863Y-77038323D01*
X203546449Y-77287214D01*
X203551856Y-77289036D01*
X204339019Y-77574764D01*
X204344360Y-77576844D01*
X205117429Y-77898801D01*
X205122641Y-77901115D01*
X205879938Y-78258605D01*
X205885053Y-78261167D01*
X206409850Y-78539386D01*
X206624894Y-78653391D01*
X206629916Y-78656204D01*
X207350776Y-79082352D01*
X207355662Y-79085396D01*
X208055951Y-79544527D01*
X208060690Y-79547794D01*
X208738905Y-80038923D01*
X208743488Y-80042406D01*
X209398212Y-80564507D01*
X209402619Y-80568192D01*
X209559464Y-80705646D01*
X210032384Y-81120096D01*
X210036623Y-81123989D01*
X210640114Y-81704542D01*
X210644157Y-81708616D01*
X211220060Y-82316558D01*
X211223891Y-82320794D01*
X211490006Y-82629202D01*
X211718996Y-82894585D01*
X211747888Y-82958201D01*
X211737801Y-83027338D01*
X211691936Y-83080047D01*
X211624856Y-83099592D01*
X211574210Y-83087728D01*
X211573962Y-83088329D01*
X211570299Y-83086812D01*
X211570274Y-83086806D01*
X211570215Y-83086777D01*
X211346104Y-82993947D01*
X211111785Y-82931161D01*
X210871289Y-82899500D01*
X210871288Y-82899500D01*
X210628712Y-82899500D01*
X210628711Y-82899500D01*
X210388214Y-82931161D01*
X210153895Y-82993947D01*
X209929794Y-83086773D01*
X209929785Y-83086777D01*
X209719706Y-83208067D01*
X209527263Y-83355733D01*
X209527256Y-83355739D01*
X209355739Y-83527256D01*
X209355733Y-83527263D01*
X209208067Y-83719706D01*
X209086777Y-83929785D01*
X209086773Y-83929794D01*
X208993947Y-84153895D01*
X208931161Y-84388214D01*
X208899500Y-84628711D01*
X208899500Y-84871288D01*
X208931161Y-85111785D01*
X208993947Y-85346104D01*
X209086773Y-85570205D01*
X209086776Y-85570212D01*
X209208064Y-85780289D01*
X209208066Y-85780292D01*
X209208067Y-85780293D01*
X209355733Y-85972736D01*
X209355739Y-85972743D01*
X209527256Y-86144260D01*
X209527262Y-86144265D01*
X209719711Y-86291936D01*
X209929788Y-86413224D01*
X210153900Y-86506054D01*
X210388211Y-86568838D01*
X210568586Y-86592584D01*
X210628711Y-86600500D01*
X210628712Y-86600500D01*
X210871289Y-86600500D01*
X210919388Y-86594167D01*
X211111789Y-86568838D01*
X211346100Y-86506054D01*
X211570212Y-86413224D01*
X211780289Y-86291936D01*
X211972738Y-86144265D01*
X212144265Y-85972738D01*
X212291936Y-85780289D01*
X212413224Y-85570212D01*
X212506054Y-85346100D01*
X212568838Y-85111789D01*
X212600500Y-84871288D01*
X212600500Y-84628712D01*
X212572592Y-84416728D01*
X212583358Y-84347695D01*
X212629738Y-84295439D01*
X212697006Y-84276554D01*
X212763807Y-84297035D01*
X212799750Y-84333356D01*
X213237986Y-85013112D01*
X213240987Y-85018012D01*
X213661584Y-85742131D01*
X213664342Y-85747144D01*
X213781727Y-85972736D01*
X214050885Y-86490010D01*
X214053422Y-86495177D01*
X214405042Y-87255117D01*
X214407334Y-87260386D01*
X214689214Y-87952155D01*
X214723334Y-88035890D01*
X214725382Y-88041270D01*
X215005047Y-88830596D01*
X215006842Y-88836065D01*
X215249558Y-89637466D01*
X215251099Y-89643013D01*
X215456372Y-90454861D01*
X215457653Y-90460472D01*
X215625028Y-91280969D01*
X215626047Y-91286635D01*
X215755159Y-92114000D01*
X215755914Y-92119706D01*
X215846490Y-92952166D01*
X215846980Y-92957902D01*
X215898826Y-93793684D01*
X215899049Y-93799436D01*
X215912051Y-94636716D01*
X215912007Y-94642472D01*
X215886135Y-95479475D01*
X215885823Y-95485223D01*
X215821139Y-96320075D01*
X215820562Y-96325802D01*
X215717198Y-97156800D01*
X215716355Y-97162494D01*
X215574539Y-97987774D01*
X215573433Y-97993423D01*
X215393464Y-98811259D01*
X215392096Y-98816851D01*
X215174375Y-99625416D01*
X215172750Y-99630938D01*
X214917732Y-100428553D01*
X214915852Y-100433994D01*
X214624095Y-101218905D01*
X214621965Y-101224252D01*
X214294095Y-101994777D01*
X214291719Y-102000020D01*
X213928439Y-102754506D01*
X213925822Y-102759633D01*
X213527923Y-103496440D01*
X213525071Y-103501440D01*
X213093408Y-104218981D01*
X213090327Y-104223844D01*
X212625813Y-104920603D01*
X212622509Y-104925317D01*
X212126187Y-105599730D01*
X212122669Y-105604286D01*
X211595555Y-106254971D01*
X211591829Y-106259358D01*
X211035099Y-106884865D01*
X211031173Y-106889075D01*
X210446011Y-107488075D01*
X210441894Y-107492098D01*
X209829560Y-108063295D01*
X209825261Y-108067123D01*
X209351031Y-108470002D01*
X209287196Y-108498404D01*
X209270749Y-108499500D01*
X186229251Y-108499500D01*
X186162212Y-108479815D01*
X186148968Y-108470002D01*
X185674739Y-108067123D01*
X185670439Y-108063295D01*
X185528888Y-107931254D01*
X185058094Y-107492087D01*
X185053999Y-107488086D01*
X184767536Y-107194849D01*
X184468826Y-106889075D01*
X184464900Y-106884865D01*
X183908170Y-106259358D01*
X183904444Y-106254971D01*
X183377330Y-105604286D01*
X183373812Y-105599730D01*
X183127482Y-105265012D01*
X182877485Y-104925309D01*
X182874186Y-104920603D01*
X182409672Y-104223844D01*
X182406604Y-104219003D01*
X181974918Y-103501423D01*
X181972086Y-103496458D01*
X181574169Y-102759618D01*
X181571560Y-102754506D01*
X181569631Y-102750500D01*
X181362590Y-102320502D01*
X181318906Y-102229775D01*
X181296918Y-102184108D01*
X183999500Y-102184108D01*
X183999500Y-102315892D01*
X184000735Y-102320502D01*
X184033608Y-102443187D01*
X184047011Y-102466401D01*
X184099500Y-102557314D01*
X184192686Y-102650500D01*
X184306814Y-102716392D01*
X184434108Y-102750500D01*
X184434110Y-102750500D01*
X184565890Y-102750500D01*
X184565892Y-102750500D01*
X184693186Y-102716392D01*
X184807314Y-102650500D01*
X184870995Y-102586819D01*
X184932318Y-102553334D01*
X184958676Y-102550500D01*
X185324167Y-102550500D01*
X185391206Y-102570185D01*
X185411848Y-102586819D01*
X186315489Y-103490460D01*
X186384012Y-103530022D01*
X186460438Y-103550500D01*
X187291324Y-103550500D01*
X187358363Y-103570185D01*
X187379005Y-103586819D01*
X187442686Y-103650500D01*
X187556814Y-103716392D01*
X187684108Y-103750500D01*
X187684110Y-103750500D01*
X187815890Y-103750500D01*
X187815892Y-103750500D01*
X187943186Y-103716392D01*
X188057314Y-103650500D01*
X188150500Y-103557314D01*
X188216392Y-103443186D01*
X188225311Y-103409901D01*
X188241900Y-103347986D01*
X188273992Y-103292399D01*
X188879573Y-102686819D01*
X188940896Y-102653334D01*
X188967254Y-102650500D01*
X193447269Y-102650500D01*
X193447273Y-102650501D01*
X193552727Y-102650501D01*
X193552731Y-102650500D01*
X209553196Y-102650500D01*
X209620235Y-102670185D01*
X209665990Y-102722989D01*
X209675934Y-102792147D01*
X209669378Y-102817833D01*
X209656403Y-102852620D01*
X209656401Y-102852627D01*
X209650000Y-102912155D01*
X209650000Y-103560000D01*
X210566988Y-103560000D01*
X210534075Y-103617007D01*
X210500000Y-103744174D01*
X210500000Y-103875826D01*
X210534075Y-104002993D01*
X210566988Y-104060000D01*
X209650000Y-104060000D01*
X209650000Y-104707844D01*
X209656401Y-104767372D01*
X209656403Y-104767379D01*
X209706645Y-104902086D01*
X209706649Y-104902093D01*
X209792809Y-105017187D01*
X209792812Y-105017190D01*
X209907906Y-105103350D01*
X209907913Y-105103354D01*
X210042620Y-105153596D01*
X210042627Y-105153598D01*
X210102155Y-105159999D01*
X210102172Y-105160000D01*
X210750000Y-105160000D01*
X210750000Y-104243012D01*
X210807007Y-104275925D01*
X210934174Y-104310000D01*
X211065826Y-104310000D01*
X211192993Y-104275925D01*
X211250000Y-104243012D01*
X211250000Y-105160000D01*
X211897828Y-105160000D01*
X211897844Y-105159999D01*
X211957372Y-105153598D01*
X211957379Y-105153596D01*
X212092086Y-105103354D01*
X212092093Y-105103350D01*
X212207187Y-105017190D01*
X212207190Y-105017187D01*
X212293350Y-104902093D01*
X212293354Y-104902086D01*
X212343596Y-104767379D01*
X212343598Y-104767372D01*
X212349999Y-104707844D01*
X212350000Y-104707827D01*
X212350000Y-104060000D01*
X211433012Y-104060000D01*
X211465925Y-104002993D01*
X211500000Y-103875826D01*
X211500000Y-103744174D01*
X211465925Y-103617007D01*
X211433012Y-103560000D01*
X212350000Y-103560000D01*
X212350000Y-102912172D01*
X212349999Y-102912155D01*
X212343598Y-102852627D01*
X212343596Y-102852620D01*
X212293354Y-102717913D01*
X212293350Y-102717906D01*
X212207190Y-102602812D01*
X212207187Y-102602809D01*
X212092093Y-102516649D01*
X212092086Y-102516645D01*
X211957379Y-102466403D01*
X211957372Y-102466401D01*
X211897844Y-102460000D01*
X211495570Y-102460000D01*
X211428531Y-102440315D01*
X211382776Y-102387511D01*
X211372832Y-102318353D01*
X211401857Y-102254797D01*
X211448117Y-102221439D01*
X211497596Y-102200944D01*
X211497596Y-102200943D01*
X211497598Y-102200943D01*
X211669655Y-102085979D01*
X211815977Y-101939657D01*
X211930941Y-101767600D01*
X212010130Y-101576422D01*
X212050500Y-101373467D01*
X212050500Y-101166537D01*
X212010130Y-100963582D01*
X212001617Y-100943029D01*
X211994148Y-100873560D01*
X212025423Y-100811081D01*
X212028468Y-100807925D01*
X213320480Y-99515915D01*
X213373207Y-99424590D01*
X213400500Y-99322729D01*
X213400500Y-99217275D01*
X213400500Y-92247273D01*
X213400500Y-87480252D01*
X213400500Y-87480249D01*
X213400499Y-87480247D01*
X213388868Y-87421770D01*
X213388867Y-87421769D01*
X213344552Y-87355447D01*
X213278230Y-87311132D01*
X213278229Y-87311131D01*
X213219752Y-87299500D01*
X213219748Y-87299500D01*
X208180252Y-87299500D01*
X208180247Y-87299500D01*
X208121770Y-87311131D01*
X208121769Y-87311132D01*
X208055447Y-87355447D01*
X208011132Y-87421769D01*
X208011131Y-87421770D01*
X207999500Y-87480247D01*
X207999500Y-92082745D01*
X207979815Y-92149784D01*
X207963181Y-92170426D01*
X205070426Y-95063181D01*
X205009103Y-95096666D01*
X204982745Y-95099500D01*
X199467254Y-95099500D01*
X199400215Y-95079815D01*
X199379573Y-95063181D01*
X197028074Y-92711681D01*
X196994589Y-92650358D01*
X196999573Y-92580666D01*
X197041445Y-92524733D01*
X197106909Y-92500316D01*
X197115755Y-92500000D01*
X197500000Y-92500000D01*
X198000000Y-92500000D01*
X199797828Y-92500000D01*
X199797844Y-92499999D01*
X199857372Y-92493598D01*
X199857379Y-92493596D01*
X199992086Y-92443354D01*
X199992093Y-92443350D01*
X200107187Y-92357190D01*
X200107190Y-92357187D01*
X200193350Y-92242093D01*
X200193354Y-92242086D01*
X200243596Y-92107379D01*
X200243598Y-92107372D01*
X200249999Y-92047844D01*
X200250000Y-92047827D01*
X200250000Y-90250000D01*
X198000000Y-90250000D01*
X198000000Y-92500000D01*
X197500000Y-92500000D01*
X197500000Y-90250000D01*
X195250000Y-90250000D01*
X195250000Y-92047844D01*
X195256401Y-92107372D01*
X195256403Y-92107379D01*
X195306645Y-92242086D01*
X195306649Y-92242093D01*
X195392809Y-92357187D01*
X195392812Y-92357190D01*
X195507906Y-92443350D01*
X195507913Y-92443354D01*
X195642620Y-92493596D01*
X195642619Y-92493596D01*
X195648204Y-92494197D01*
X195712755Y-92520935D01*
X195752604Y-92578327D01*
X195754725Y-92585393D01*
X195783608Y-92693186D01*
X195849500Y-92807314D01*
X195942686Y-92900500D01*
X196056814Y-92966392D01*
X196152014Y-92991900D01*
X196207600Y-93023993D01*
X198861427Y-95677819D01*
X198894912Y-95739142D01*
X198889928Y-95808834D01*
X198848056Y-95864767D01*
X198782592Y-95889184D01*
X198773746Y-95889500D01*
X198115833Y-95889500D01*
X198048794Y-95869815D01*
X198028152Y-95853181D01*
X194036819Y-91861848D01*
X194003334Y-91800525D01*
X194000500Y-91774167D01*
X194000500Y-91684110D01*
X194000500Y-91684108D01*
X193966392Y-91556814D01*
X193900500Y-91442686D01*
X193807314Y-91349500D01*
X193750250Y-91316554D01*
X193693187Y-91283608D01*
X193629539Y-91266554D01*
X193565892Y-91249500D01*
X193434108Y-91249500D01*
X193306812Y-91283608D01*
X193192686Y-91349500D01*
X193192683Y-91349502D01*
X193099502Y-91442683D01*
X193099500Y-91442686D01*
X193033608Y-91556812D01*
X192999500Y-91684108D01*
X192999500Y-91815892D01*
X193001536Y-91823492D01*
X193033609Y-91943188D01*
X193033609Y-91943189D01*
X193102251Y-92062079D01*
X193118724Y-92129979D01*
X193095872Y-92196006D01*
X193070358Y-92222449D01*
X193067687Y-92224498D01*
X192974502Y-92317683D01*
X192974500Y-92317686D01*
X192908608Y-92431812D01*
X192874500Y-92559108D01*
X192874500Y-92690892D01*
X192882349Y-92720185D01*
X192908608Y-92818187D01*
X192912253Y-92824500D01*
X192974500Y-92932314D01*
X193067686Y-93025500D01*
X193181814Y-93091392D01*
X193309108Y-93125500D01*
X193309110Y-93125500D01*
X193399167Y-93125500D01*
X193466206Y-93145185D01*
X193486848Y-93161819D01*
X197259540Y-96934511D01*
X197315489Y-96990460D01*
X197315491Y-96990461D01*
X197315495Y-96990464D01*
X197342365Y-97005977D01*
X197384011Y-97030021D01*
X197460438Y-97050500D01*
X197539562Y-97050500D01*
X208844165Y-97050500D01*
X208911204Y-97070185D01*
X208931846Y-97086819D01*
X210012923Y-98167896D01*
X210046408Y-98229219D01*
X210041424Y-98298911D01*
X210039803Y-98303030D01*
X209989869Y-98423580D01*
X209989867Y-98423588D01*
X209949499Y-98626531D01*
X209949499Y-98833470D01*
X209989867Y-99036413D01*
X209989869Y-99036421D01*
X210069057Y-99227597D01*
X210184023Y-99399658D01*
X210330341Y-99545976D01*
X210330344Y-99545978D01*
X210502401Y-99660942D01*
X210693579Y-99740131D01*
X210863816Y-99773993D01*
X210896529Y-99780500D01*
X210896533Y-99780501D01*
X210896534Y-99780501D01*
X211103465Y-99780501D01*
X211103466Y-99780500D01*
X211306419Y-99740131D01*
X211497597Y-99660942D01*
X211669654Y-99545978D01*
X211815976Y-99399656D01*
X211930940Y-99227599D01*
X212010129Y-99036421D01*
X212050499Y-98833466D01*
X212050499Y-98626536D01*
X212010129Y-98423581D01*
X211930940Y-98232403D01*
X211815976Y-98060346D01*
X211815974Y-98060343D01*
X211669656Y-97914025D01*
X211502615Y-97802413D01*
X211497597Y-97799060D01*
X211460290Y-97783607D01*
X211306419Y-97719871D01*
X211306411Y-97719869D01*
X211103468Y-97679501D01*
X211103464Y-97679501D01*
X210896534Y-97679501D01*
X210896529Y-97679501D01*
X210693586Y-97719869D01*
X210693578Y-97719871D01*
X210573028Y-97769805D01*
X210503558Y-97777274D01*
X210441079Y-97745999D01*
X210437894Y-97742925D01*
X209397150Y-96702181D01*
X209363665Y-96640858D01*
X209368649Y-96571166D01*
X209410521Y-96515233D01*
X209475985Y-96490816D01*
X209484831Y-96490500D01*
X209904565Y-96490500D01*
X209971604Y-96510185D01*
X210017359Y-96562989D01*
X210019126Y-96567047D01*
X210049699Y-96640858D01*
X210069060Y-96687598D01*
X210126542Y-96773626D01*
X210184025Y-96859657D01*
X210330343Y-97005975D01*
X210330346Y-97005977D01*
X210502403Y-97120941D01*
X210693581Y-97200130D01*
X210896531Y-97240499D01*
X210896535Y-97240500D01*
X210896536Y-97240500D01*
X211103467Y-97240500D01*
X211103468Y-97240499D01*
X211306421Y-97200130D01*
X211497599Y-97120941D01*
X211669656Y-97005977D01*
X211815978Y-96859655D01*
X211930942Y-96687598D01*
X212010131Y-96496420D01*
X212050501Y-96293465D01*
X212050501Y-96086535D01*
X212010131Y-95883580D01*
X211930942Y-95692402D01*
X211815978Y-95520345D01*
X211815976Y-95520342D01*
X211669658Y-95374024D01*
X211569070Y-95306814D01*
X211497599Y-95259059D01*
X211476933Y-95250499D01*
X211306421Y-95179870D01*
X211306413Y-95179868D01*
X211103470Y-95139500D01*
X211103466Y-95139500D01*
X210896536Y-95139500D01*
X210896531Y-95139500D01*
X210693588Y-95179868D01*
X210693580Y-95179870D01*
X210502404Y-95259058D01*
X210330343Y-95374024D01*
X210184025Y-95520342D01*
X210069059Y-95692403D01*
X210019126Y-95812953D01*
X209975285Y-95867356D01*
X209908991Y-95889421D01*
X209904565Y-95889500D01*
X205676255Y-95889500D01*
X205609216Y-95869815D01*
X205563461Y-95817011D01*
X205553517Y-95747853D01*
X205582542Y-95684297D01*
X205588574Y-95677819D01*
X208529573Y-92736819D01*
X208590896Y-92703334D01*
X208617254Y-92700500D01*
X212475500Y-92700500D01*
X212542539Y-92720185D01*
X212588294Y-92772989D01*
X212599500Y-92824500D01*
X212599500Y-99052746D01*
X212579815Y-99119785D01*
X212563181Y-99140427D01*
X211462103Y-100241504D01*
X211400780Y-100274989D01*
X211331088Y-100270005D01*
X211326983Y-100268389D01*
X211306420Y-100259872D01*
X211306412Y-100259870D01*
X211103469Y-100219502D01*
X211103465Y-100219502D01*
X210896535Y-100219502D01*
X210896530Y-100219502D01*
X210693587Y-100259870D01*
X210693579Y-100259872D01*
X210502403Y-100339060D01*
X210330342Y-100454026D01*
X210184024Y-100600344D01*
X210069058Y-100772405D01*
X209989870Y-100963581D01*
X209989868Y-100963589D01*
X209949500Y-101166532D01*
X209949500Y-101373471D01*
X209989868Y-101576414D01*
X209989871Y-101576426D01*
X209998382Y-101596973D01*
X210000518Y-101616847D01*
X210007505Y-101635578D01*
X210004177Y-101650875D01*
X210005851Y-101666443D01*
X209996902Y-101684318D01*
X209992654Y-101703851D01*
X209975964Y-101726145D01*
X209974575Y-101728922D01*
X209971521Y-101732087D01*
X209890426Y-101813182D01*
X209829106Y-101846666D01*
X209802747Y-101849500D01*
X193717254Y-101849500D01*
X193650215Y-101829815D01*
X193629573Y-101813181D01*
X191023993Y-99207600D01*
X190991900Y-99152014D01*
X190966392Y-99056814D01*
X190966390Y-99056810D01*
X190963280Y-99049300D01*
X190966034Y-99048158D01*
X190952912Y-98994137D01*
X190965407Y-98951581D01*
X190963280Y-98950700D01*
X190966387Y-98943193D01*
X190966392Y-98943186D01*
X191000500Y-98815892D01*
X191000500Y-98684108D01*
X190966392Y-98556814D01*
X190900500Y-98442686D01*
X190807314Y-98349500D01*
X190733380Y-98306814D01*
X190693187Y-98283608D01*
X190629539Y-98266554D01*
X190565892Y-98249500D01*
X190434108Y-98249500D01*
X190306812Y-98283608D01*
X190192686Y-98349500D01*
X190192683Y-98349502D01*
X190099502Y-98442683D01*
X190099500Y-98442686D01*
X190033608Y-98556812D01*
X190014926Y-98626535D01*
X189999500Y-98684108D01*
X189999500Y-98815892D01*
X190022171Y-98900500D01*
X190033608Y-98943185D01*
X190036719Y-98950696D01*
X190033976Y-98951832D01*
X190047084Y-99005942D01*
X190034608Y-99048429D01*
X190036719Y-99049304D01*
X190033610Y-99056810D01*
X190033608Y-99056814D01*
X189999500Y-99184108D01*
X189999500Y-99315892D01*
X190001332Y-99322728D01*
X190033608Y-99443187D01*
X190066554Y-99500250D01*
X190099500Y-99557314D01*
X190192686Y-99650500D01*
X190306814Y-99716392D01*
X190402014Y-99741900D01*
X190457600Y-99773993D01*
X191456012Y-100772405D01*
X192321427Y-101637819D01*
X192354912Y-101699142D01*
X192349928Y-101768834D01*
X192308056Y-101824767D01*
X192242592Y-101849184D01*
X192233746Y-101849500D01*
X188810339Y-101849500D01*
X188810323Y-101849499D01*
X188802727Y-101849499D01*
X188697273Y-101849499D01*
X188629366Y-101867695D01*
X188595412Y-101876793D01*
X188504084Y-101929522D01*
X188429518Y-102004089D01*
X187707600Y-102726005D01*
X187652014Y-102758098D01*
X187556815Y-102783607D01*
X187556814Y-102783607D01*
X187442686Y-102849500D01*
X187442683Y-102849502D01*
X187379005Y-102913181D01*
X187317682Y-102946666D01*
X187291324Y-102949500D01*
X186675833Y-102949500D01*
X186608794Y-102929815D01*
X186588152Y-102913181D01*
X185684512Y-102009541D01*
X185684507Y-102009537D01*
X185675065Y-102004086D01*
X185675064Y-102004086D01*
X185658940Y-101994777D01*
X185615991Y-101969980D01*
X185615990Y-101969979D01*
X185590513Y-101963152D01*
X185539562Y-101949500D01*
X185539560Y-101949500D01*
X184958676Y-101949500D01*
X184891637Y-101929815D01*
X184870995Y-101913181D01*
X184807316Y-101849502D01*
X184807314Y-101849500D01*
X184744408Y-101813181D01*
X184693187Y-101783608D01*
X184629539Y-101766554D01*
X184565892Y-101749500D01*
X184434108Y-101749500D01*
X184306812Y-101783608D01*
X184192686Y-101849500D01*
X184192683Y-101849502D01*
X184099502Y-101942683D01*
X184099500Y-101942686D01*
X184033608Y-102056812D01*
X184025793Y-102085979D01*
X183999500Y-102184108D01*
X181296918Y-102184108D01*
X181208280Y-102000020D01*
X181205904Y-101994777D01*
X181186638Y-101949500D01*
X180878022Y-101224223D01*
X180875915Y-101218933D01*
X180584138Y-100433970D01*
X180582275Y-100428577D01*
X180354571Y-99716392D01*
X180327249Y-99630938D01*
X180325624Y-99625416D01*
X180107903Y-98816851D01*
X180106535Y-98811259D01*
X179972603Y-98202628D01*
X179972603Y-98202627D01*
X179968527Y-98184106D01*
X181749500Y-98184106D01*
X181749500Y-99837534D01*
X181779898Y-100009937D01*
X181839775Y-100174446D01*
X181927309Y-100326057D01*
X182039836Y-100460163D01*
X182173942Y-100572690D01*
X182173943Y-100572691D01*
X182173945Y-100572692D01*
X182270054Y-100628181D01*
X182325480Y-100660182D01*
X182325555Y-100660225D01*
X182490062Y-100720101D01*
X182662468Y-100750500D01*
X182684108Y-100750500D01*
X186184159Y-100750500D01*
X186184208Y-100750514D01*
X186250100Y-100750501D01*
X186250100Y-100750500D01*
X186315892Y-100750501D01*
X186315895Y-100750500D01*
X186324580Y-100750500D01*
X186324784Y-100750485D01*
X186337619Y-100750484D01*
X186509993Y-100720062D01*
X186580852Y-100694262D01*
X186674458Y-100660182D01*
X186674461Y-100660180D01*
X186674468Y-100660178D01*
X186826049Y-100572649D01*
X186960134Y-100460134D01*
X187072649Y-100326049D01*
X187160178Y-100174468D01*
X187160187Y-100174445D01*
X187220061Y-100009995D01*
X187220062Y-100009993D01*
X187250484Y-99837619D01*
X187250487Y-99815933D01*
X187250499Y-99815892D01*
X187250499Y-99755569D01*
X187250500Y-99750100D01*
X187250513Y-99684208D01*
X187250512Y-99684206D01*
X187250514Y-99676333D01*
X187250499Y-99676085D01*
X187250499Y-99112901D01*
X187270184Y-99045862D01*
X187322988Y-99000107D01*
X187392146Y-98990163D01*
X187406579Y-98993123D01*
X187434108Y-99000500D01*
X187434110Y-99000500D01*
X187565890Y-99000500D01*
X187565892Y-99000500D01*
X187693186Y-98966392D01*
X187807314Y-98900500D01*
X187900500Y-98807314D01*
X187966392Y-98693186D01*
X188000500Y-98565892D01*
X188000500Y-98434108D01*
X187966392Y-98306814D01*
X187900500Y-98192686D01*
X187807314Y-98099500D01*
X187750250Y-98066554D01*
X187693187Y-98033608D01*
X187629539Y-98016554D01*
X187565892Y-97999500D01*
X187434108Y-97999500D01*
X187308807Y-98033073D01*
X187238958Y-98031411D01*
X187181096Y-97992248D01*
X187169328Y-97975299D01*
X187150501Y-97942690D01*
X187150499Y-97942686D01*
X187057313Y-97849500D01*
X187000249Y-97816554D01*
X186943186Y-97783608D01*
X186879538Y-97766554D01*
X186815891Y-97749500D01*
X185815891Y-97749500D01*
X185684107Y-97749500D01*
X185556811Y-97783608D01*
X185442685Y-97849500D01*
X185442682Y-97849502D01*
X185349501Y-97942683D01*
X185349499Y-97942686D01*
X185283607Y-98056812D01*
X185249499Y-98184108D01*
X185249499Y-98625501D01*
X185229814Y-98692540D01*
X185177010Y-98738295D01*
X185125499Y-98749501D01*
X183874501Y-98749501D01*
X183807462Y-98729816D01*
X183761707Y-98677012D01*
X183750501Y-98625501D01*
X183750501Y-98184110D01*
X183750501Y-98184108D01*
X183716393Y-98056814D01*
X183716388Y-98056806D01*
X183702687Y-98033074D01*
X183650501Y-97942686D01*
X183557315Y-97849500D01*
X183500251Y-97816554D01*
X183443188Y-97783608D01*
X183379540Y-97766554D01*
X183315893Y-97749500D01*
X183315892Y-97749500D01*
X183184106Y-97749500D01*
X182184110Y-97749499D01*
X182184109Y-97749499D01*
X182056815Y-97783607D01*
X182056814Y-97783607D01*
X181942688Y-97849497D01*
X181942685Y-97849499D01*
X181849503Y-97942681D01*
X181849497Y-97942690D01*
X181783610Y-98056806D01*
X181783609Y-98056809D01*
X181783608Y-98056811D01*
X181783608Y-98056812D01*
X181753843Y-98167896D01*
X181749500Y-98184106D01*
X179968527Y-98184106D01*
X179926567Y-97993423D01*
X179925460Y-97987774D01*
X179783638Y-97162458D01*
X179782806Y-97156837D01*
X179692909Y-96434108D01*
X180749500Y-96434108D01*
X180749500Y-96565892D01*
X180750913Y-96571166D01*
X180783608Y-96693187D01*
X180788801Y-96702181D01*
X180849500Y-96807314D01*
X180942686Y-96900500D01*
X181056814Y-96966392D01*
X181184108Y-97000500D01*
X181184110Y-97000500D01*
X181315890Y-97000500D01*
X181315892Y-97000500D01*
X181443186Y-96966392D01*
X181557314Y-96900500D01*
X181650500Y-96807314D01*
X181716392Y-96693186D01*
X181717646Y-96688504D01*
X181754010Y-96628844D01*
X181816856Y-96598314D01*
X181886232Y-96606608D01*
X181925102Y-96632916D01*
X181942686Y-96650500D01*
X182056814Y-96716392D01*
X182184108Y-96750500D01*
X182184110Y-96750500D01*
X183315890Y-96750500D01*
X183315892Y-96750500D01*
X183443186Y-96716392D01*
X183557314Y-96650500D01*
X183650500Y-96557314D01*
X183716392Y-96443186D01*
X183750500Y-96315892D01*
X183750500Y-96124500D01*
X183770185Y-96057461D01*
X183822989Y-96011706D01*
X183874500Y-96000500D01*
X185125500Y-96000500D01*
X185192539Y-96020185D01*
X185238294Y-96072989D01*
X185249500Y-96124500D01*
X185249500Y-96315892D01*
X185261117Y-96359248D01*
X185283608Y-96443187D01*
X185310925Y-96490500D01*
X185349500Y-96557314D01*
X185442686Y-96650500D01*
X185556814Y-96716392D01*
X185684108Y-96750500D01*
X185684110Y-96750500D01*
X185825882Y-96750500D01*
X185825893Y-96750499D01*
X186815891Y-96750500D01*
X186859250Y-96738882D01*
X186929098Y-96740544D01*
X186986961Y-96779705D01*
X187014466Y-96843934D01*
X187011118Y-96890748D01*
X186999500Y-96934108D01*
X186999500Y-97065892D01*
X187005107Y-97086819D01*
X187033608Y-97193187D01*
X187060924Y-97240499D01*
X187099500Y-97307314D01*
X187192686Y-97400500D01*
X187306814Y-97466392D01*
X187434108Y-97500500D01*
X187434110Y-97500500D01*
X187565890Y-97500500D01*
X187565892Y-97500500D01*
X187693186Y-97466392D01*
X187807314Y-97400500D01*
X187900500Y-97307314D01*
X187966392Y-97193186D01*
X188000500Y-97065892D01*
X188000500Y-96934108D01*
X187966392Y-96806814D01*
X187900500Y-96692686D01*
X187807314Y-96599500D01*
X187744075Y-96562989D01*
X187693187Y-96533608D01*
X187624609Y-96515233D01*
X187565892Y-96499500D01*
X187434108Y-96499500D01*
X187434103Y-96499500D01*
X187390748Y-96511117D01*
X187320898Y-96509453D01*
X187263037Y-96470290D01*
X187235534Y-96406061D01*
X187238881Y-96359253D01*
X187250500Y-96315893D01*
X187250500Y-96184109D01*
X187250500Y-96184108D01*
X187250500Y-95184108D01*
X187250500Y-95162468D01*
X187220101Y-94990062D01*
X187160225Y-94825555D01*
X187072692Y-94673945D01*
X187072691Y-94673943D01*
X187072690Y-94673942D01*
X186960163Y-94539836D01*
X186826057Y-94427309D01*
X186674446Y-94339775D01*
X186509937Y-94279898D01*
X186337534Y-94249500D01*
X186337532Y-94249500D01*
X186315892Y-94249500D01*
X182824097Y-94249499D01*
X182815840Y-94249499D01*
X182815792Y-94249486D01*
X182749900Y-94249499D01*
X182684108Y-94249499D01*
X182676195Y-94249499D01*
X182675971Y-94249513D01*
X182662385Y-94249515D01*
X182662376Y-94249516D01*
X182490006Y-94279937D01*
X182490002Y-94279938D01*
X182325532Y-94339822D01*
X182325526Y-94339825D01*
X182173954Y-94427348D01*
X182173944Y-94427355D01*
X182039867Y-94539865D01*
X182039866Y-94539866D01*
X181927357Y-94673942D01*
X181839823Y-94825530D01*
X181791017Y-94959577D01*
X181749584Y-95015836D01*
X181684313Y-95040764D01*
X181615926Y-95026446D01*
X181566136Y-94977429D01*
X181550500Y-94917153D01*
X181550500Y-93725833D01*
X181570185Y-93658794D01*
X181586819Y-93638152D01*
X182488152Y-92736819D01*
X182549475Y-92703334D01*
X182575833Y-92700500D01*
X187319750Y-92700500D01*
X187319751Y-92700499D01*
X187334568Y-92697552D01*
X187378229Y-92688868D01*
X187378229Y-92688867D01*
X187378231Y-92688867D01*
X187444552Y-92644552D01*
X187488867Y-92578231D01*
X187488867Y-92578229D01*
X187488868Y-92578229D01*
X187500499Y-92519752D01*
X187500500Y-92519750D01*
X187500500Y-87952155D01*
X195250000Y-87952155D01*
X195250000Y-89750000D01*
X197500000Y-89750000D01*
X198000000Y-89750000D01*
X200250000Y-89750000D01*
X200250000Y-87952172D01*
X200249999Y-87952155D01*
X200243598Y-87892627D01*
X200243596Y-87892620D01*
X200193354Y-87757913D01*
X200193350Y-87757906D01*
X200107190Y-87642812D01*
X200107187Y-87642809D01*
X199992093Y-87556649D01*
X199992086Y-87556645D01*
X199857379Y-87506403D01*
X199857372Y-87506401D01*
X199797844Y-87500000D01*
X198000000Y-87500000D01*
X198000000Y-89750000D01*
X197500000Y-89750000D01*
X197500000Y-87500000D01*
X195702155Y-87500000D01*
X195642627Y-87506401D01*
X195642620Y-87506403D01*
X195507913Y-87556645D01*
X195507906Y-87556649D01*
X195392812Y-87642809D01*
X195392809Y-87642812D01*
X195306649Y-87757906D01*
X195306645Y-87757913D01*
X195256403Y-87892620D01*
X195256401Y-87892627D01*
X195250000Y-87952155D01*
X187500500Y-87952155D01*
X187500500Y-87480249D01*
X187500499Y-87480247D01*
X187488868Y-87421770D01*
X187488867Y-87421769D01*
X187444552Y-87355447D01*
X187378230Y-87311132D01*
X187378229Y-87311131D01*
X187319752Y-87299500D01*
X187319748Y-87299500D01*
X182280252Y-87299500D01*
X182280247Y-87299500D01*
X182221770Y-87311131D01*
X182221769Y-87311132D01*
X182155447Y-87355447D01*
X182111132Y-87421769D01*
X182111131Y-87421770D01*
X182099500Y-87480247D01*
X182099500Y-92224167D01*
X182079815Y-92291206D01*
X182063181Y-92311848D01*
X181009541Y-93365487D01*
X181009535Y-93365495D01*
X180969982Y-93434004D01*
X180969979Y-93434009D01*
X180949500Y-93510439D01*
X180949500Y-96041323D01*
X180929815Y-96108362D01*
X180913182Y-96129004D01*
X180849500Y-96192686D01*
X180783608Y-96306812D01*
X180779281Y-96322961D01*
X180749500Y-96434108D01*
X179692909Y-96434108D01*
X179679435Y-96325785D01*
X179678860Y-96320075D01*
X179677833Y-96306814D01*
X179614174Y-95485203D01*
X179613864Y-95479475D01*
X179587991Y-94642438D01*
X179587948Y-94636749D01*
X179600950Y-93799422D01*
X179601173Y-93793684D01*
X179627736Y-93365487D01*
X179653019Y-92957895D01*
X179653509Y-92952166D01*
X179655669Y-92932313D01*
X179744085Y-92119699D01*
X179744840Y-92114000D01*
X179745873Y-92107379D01*
X179873956Y-91286608D01*
X179874966Y-91280994D01*
X180042354Y-90460433D01*
X180043618Y-90454899D01*
X180248906Y-89642989D01*
X180250433Y-89637491D01*
X180493168Y-88836031D01*
X180494941Y-88830629D01*
X180774633Y-88041227D01*
X180776648Y-88035932D01*
X181092680Y-87260350D01*
X181094937Y-87255162D01*
X181446587Y-86495156D01*
X181449103Y-86490031D01*
X181835674Y-85747110D01*
X181838396Y-85742163D01*
X182259030Y-85017981D01*
X182262013Y-85013112D01*
X182700249Y-84333356D01*
X182753119Y-84287677D01*
X182822292Y-84277833D01*
X182885805Y-84306949D01*
X182923495Y-84365781D01*
X182927407Y-84416730D01*
X182899500Y-84628711D01*
X182899500Y-84871288D01*
X182931161Y-85111785D01*
X182993947Y-85346104D01*
X183086773Y-85570205D01*
X183086776Y-85570212D01*
X183208064Y-85780289D01*
X183208066Y-85780292D01*
X183208067Y-85780293D01*
X183355733Y-85972736D01*
X183355739Y-85972743D01*
X183527256Y-86144260D01*
X183527262Y-86144265D01*
X183719711Y-86291936D01*
X183929788Y-86413224D01*
X184153900Y-86506054D01*
X184388211Y-86568838D01*
X184568586Y-86592584D01*
X184628711Y-86600500D01*
X184628712Y-86600500D01*
X184871289Y-86600500D01*
X184919388Y-86594167D01*
X185111789Y-86568838D01*
X185346100Y-86506054D01*
X185570212Y-86413224D01*
X185780289Y-86291936D01*
X185972738Y-86144265D01*
X186144265Y-85972738D01*
X186291936Y-85780289D01*
X186413224Y-85570212D01*
X186506054Y-85346100D01*
X186568838Y-85111789D01*
X186600500Y-84871288D01*
X186600500Y-84628712D01*
X186568838Y-84388211D01*
X186506054Y-84153900D01*
X186413224Y-83929788D01*
X186291936Y-83719711D01*
X186144265Y-83527262D01*
X186144260Y-83527256D01*
X185972743Y-83355739D01*
X185972736Y-83355733D01*
X185780293Y-83208067D01*
X185780292Y-83208066D01*
X185780289Y-83208064D01*
X185592410Y-83099592D01*
X185570214Y-83086777D01*
X185570205Y-83086773D01*
X185346104Y-82993947D01*
X185111785Y-82931161D01*
X184871289Y-82899500D01*
X184871288Y-82899500D01*
X184628712Y-82899500D01*
X184628711Y-82899500D01*
X184388214Y-82931161D01*
X184153895Y-82993947D01*
X183929779Y-83086779D01*
X183929713Y-83086812D01*
X183929691Y-83086815D01*
X183926038Y-83088329D01*
X183925699Y-83087510D01*
X183860880Y-83098799D01*
X183796492Y-83071668D01*
X183756994Y-83014034D01*
X183754926Y-82944195D01*
X183781001Y-82894587D01*
X184276129Y-82320770D01*
X184279917Y-82316581D01*
X184855863Y-81708594D01*
X184859872Y-81704554D01*
X185463384Y-81123981D01*
X185467584Y-81120124D01*
X186097401Y-80568174D01*
X186101757Y-80564531D01*
X186756539Y-80042384D01*
X186761064Y-80038945D01*
X187439334Y-79547776D01*
X187444022Y-79544544D01*
X188144358Y-79085382D01*
X188149202Y-79082364D01*
X188870101Y-78656193D01*
X188875087Y-78653401D01*
X189614963Y-78261157D01*
X189620044Y-78258613D01*
X190377374Y-77901108D01*
X190382554Y-77898807D01*
X191155653Y-77576838D01*
X191160965Y-77574769D01*
X191948155Y-77289031D01*
X191953537Y-77287218D01*
X192753147Y-77038320D01*
X192758647Y-77036748D01*
X193568893Y-76825240D01*
X193574457Y-76823923D01*
X194393683Y-76650239D01*
X194399305Y-76649183D01*
X195225702Y-76513707D01*
X195231354Y-76512915D01*
X196063167Y-76415934D01*
X196068851Y-76415406D01*
X196904222Y-76357137D01*
X196909917Y-76356872D01*
X197747157Y-76337434D01*
X197752843Y-76337434D01*
X198590080Y-76356872D01*
G37*
%TD.AperFunction*%
%TD*%
M02*
